<svg width="344" height="142" viewBox="0 0 344 142" fill="none" xmlns="http://www.w3.org/2000/svg">
<path d="M0 18C0 8.05887 8.05887 0 18 0H326.005C335.946 0 344.005 8.05888 344.005 18V141.747H0V18Z" fill="white"/>
<mask id="mask0_40000022_4307" style="mask-type:alpha" maskUnits="userSpaceOnUse" x="-1" y="0" width="346" height="142">
<path d="M-0.000183105 18C-0.000183105 8.05887 8.05869 0 17.9998 0H326.004C335.946 0 344.004 8.05888 344.004 18V141.747H-0.000183105V18Z" fill="white"/>
</mask>
<g mask="url(#mask0_40000022_4307)">
<path d="M373.664 54.7612C373.664 50.3214 370.499 46.6063 366.307 45.7511V-20.6452H298.16C294.132 -25.1475 288.3 -28.002 281.797 -28.002H281.609C269.493 -28.002 259.635 -18.1439 259.635 -6.02557C259.635 -0.780226 261.513 4.29775 264.926 8.2759L270.67 14.9797V19.8168C270.67 24.6115 273.747 28.689 278.027 30.2081V86.0273H351.594V71.3139H366.307V63.7714C370.499 62.9161 373.664 59.201 373.664 54.7612ZM362.629 -16.9669V45.5653H351.594V-5.93177H303.772C303.772 -5.96304 303.775 -5.99431 303.775 -6.02557C303.775 -10.0111 302.692 -13.7409 300.831 -16.9669H362.629ZM325.845 60.2788V56.6004H355.272V60.2788H325.845ZM313.793 59.0686L316.502 60.4241C314.781 62.6292 312.162 63.9571 309.293 63.9571C304.222 63.9571 300.097 59.8318 300.097 54.7612C300.097 49.6906 304.222 45.5653 309.293 45.5653C312.162 45.5653 314.781 46.8932 316.502 49.0984L313.791 50.4539C312.153 51.276 311.132 52.9276 311.132 54.7612C311.132 56.5949 312.153 58.2465 313.793 59.0686ZM315.441 55.7783C315.051 55.5833 314.81 55.1934 314.81 54.7612C314.81 54.329 315.051 53.9391 315.439 53.7441L322.167 50.3803V59.1421L315.441 55.7783ZM323.572 45.5653L319.861 47.421C317.474 43.9689 313.571 41.8869 309.293 41.8869C302.195 41.8869 296.419 47.6638 296.419 54.7612C296.419 61.8586 302.195 67.6355 309.293 67.6355C313.571 67.6355 317.474 65.5535 319.859 62.1014L323.572 63.9571H327.278C323.855 70.6481 316.935 74.9922 309.295 74.9922C298.14 74.9922 289.064 65.9159 289.064 54.7612C289.064 43.6066 298.14 34.5302 309.295 34.5302C316.935 34.5302 323.855 38.8744 327.278 45.5653H323.572ZM355.272 52.922H325.845V49.2437H355.272V52.922ZM267.718 5.88497C264.878 2.57076 263.313 -1.65936 263.313 -6.02557C263.313 -16.1153 271.522 -24.3236 281.611 -24.3236H281.799C291.889 -24.3236 300.097 -16.1153 300.097 -6.02557C300.097 -1.65936 298.532 2.57076 295.692 5.88497L290.055 12.46H287.35L288.453 -4.09259H290.901C293.943 -4.09259 296.419 -6.56813 296.419 -9.61014C296.419 -12.6521 293.943 -15.1277 290.901 -15.1277H290.664C287.769 -15.1277 285.349 -12.8655 285.159 -9.97614L285.012 -7.77096H278.398L278.251 -9.9743C278.062 -12.8655 275.641 -15.1277 272.746 -15.1277H272.509C269.467 -15.1277 266.992 -12.6521 266.992 -9.61014C266.992 -6.56813 269.467 -4.09259 272.509 -4.09259H274.957L276.061 12.46H273.355L267.718 5.88497ZM279.748 12.46L278.643 -4.09259H284.767L283.662 12.46H279.748ZM288.7 -7.77096L288.83 -9.73336C288.893 -10.6953 289.7 -11.4493 290.664 -11.4493H290.901C291.916 -11.4493 292.74 -10.6254 292.74 -9.61014C292.74 -8.59491 291.916 -7.77096 290.901 -7.77096H288.7ZM274.711 -7.77096H272.509C271.494 -7.77096 270.67 -8.59491 270.67 -9.61014C270.67 -10.6254 271.494 -11.4493 272.509 -11.4493H272.746C273.71 -11.4493 274.518 -10.6953 274.58 -9.73152L274.711 -7.77096ZM274.348 19.8168V16.1384H289.062V19.8168C289.062 23.874 285.762 27.1735 281.705 27.1735C277.648 27.1735 274.348 23.874 274.348 19.8168ZM281.705 82.3489V30.8519C287.791 30.8519 292.74 25.9026 292.74 19.8168V14.9797L298.484 8.2759C301.07 5.26148 302.769 1.61623 303.444 -2.25525H347.916V45.5635H331.324C327.629 36.717 318.945 30.8519 309.293 30.8519C296.11 30.8519 285.383 41.578 285.383 54.7612C285.383 67.9445 296.11 78.6706 309.293 78.6706C318.945 78.6706 327.629 72.8054 331.324 63.9571H347.916V82.3489H281.705ZM351.594 67.6355V63.9571H362.629V67.6355H351.594ZM364.468 60.2788H358.951V49.2437H364.468C367.51 49.2437 369.986 51.7192 369.986 54.7612C369.986 57.8032 367.51 60.2788 364.468 60.2788Z" fill="#16181B" fill-opacity="0.06"/>
<path d="M314.811 1.4248H344.238V5.10317H314.811V1.4248Z" fill="#16181B" fill-opacity="0.06"/>
<path d="M314.811 8.78149H344.238V12.4599H314.811V8.78149Z" fill="#16181B" fill-opacity="0.06"/>
<path d="M314.811 16.1382H344.238V19.8165H314.811V16.1382Z" fill="#16181B" fill-opacity="0.06"/>
<path d="M314.811 23.4949H344.238V27.1732H314.811V23.4949Z" fill="#16181B" fill-opacity="0.06"/>
<path d="M325.846 30.8516H329.524V34.5299H325.846V30.8516Z" fill="#16181B" fill-opacity="0.06"/>
<path d="M333.203 30.8516H336.881V34.5299H333.203V30.8516Z" fill="#16181B" fill-opacity="0.06"/>
<path d="M340.559 30.8516H344.237V34.5299H340.559V30.8516Z" fill="#16181B" fill-opacity="0.06"/>
</g>
<path d="M140.14 82.8315C140.14 80.493 141.807 78.5361 144.015 78.0856V43.1128H179.91C182.031 40.7413 185.103 39.2378 188.529 39.2378H188.628C195.01 39.2378 200.202 44.4303 200.202 50.8134C200.202 53.5763 199.213 56.251 197.415 58.3464L194.39 61.8775V64.4253C194.39 66.9508 192.769 69.0985 190.515 69.8987V99.3003H151.765V91.5503H144.015V87.5774C141.807 87.127 140.14 85.1701 140.14 82.8315ZM145.952 45.0503V77.9878H151.765V50.8628H176.954C176.954 50.8463 176.952 50.8299 176.952 50.8134C176.952 48.7141 177.523 46.7495 178.503 45.0503H145.952ZM165.327 85.7378V83.8003H149.827V85.7378H165.327ZM171.676 85.1004L170.249 85.8143C171.155 86.9759 172.535 87.6753 174.046 87.6753C176.717 87.6753 178.89 85.5024 178.89 82.8315C178.89 80.1607 176.717 77.9878 174.046 77.9878C172.535 77.9878 171.155 78.6872 170.249 79.8488L171.677 80.5627C172.54 80.9958 173.077 81.8657 173.077 82.8315C173.077 83.7974 172.54 84.6673 171.676 85.1004ZM170.808 83.3673C171.013 83.2646 171.14 83.0592 171.14 82.8315C171.14 82.6039 171.013 82.3985 170.809 82.2958L167.265 80.524V85.1391L170.808 83.3673ZM166.525 77.9878L168.48 78.9653C169.737 77.1469 171.793 76.0503 174.046 76.0503C177.784 76.0503 180.827 79.0931 180.827 82.8315C180.827 86.5699 177.784 89.6128 174.046 89.6128C171.793 89.6128 169.737 88.5162 168.481 86.6978L166.525 87.6753H164.573C166.376 91.1996 170.021 93.4878 174.045 93.4878C179.921 93.4878 184.701 88.707 184.701 82.8315C184.701 76.9561 179.921 72.1753 174.045 72.1753C170.021 72.1753 166.376 74.4635 164.573 77.9878H166.525ZM149.827 81.8628H165.327V79.9253H149.827V81.8628ZM195.945 57.087C197.44 55.3413 198.265 53.1132 198.265 50.8134C198.265 45.4988 193.941 41.1753 188.627 41.1753H188.528C183.213 41.1753 178.89 45.4988 178.89 50.8134C178.89 53.1132 179.714 55.3413 181.21 57.087L184.179 60.5503H185.604L185.023 51.8315H183.734C182.131 51.8315 180.827 50.5276 180.827 48.9253C180.827 47.323 182.131 46.019 183.734 46.019H183.859C185.383 46.019 186.658 47.2106 186.758 48.7325L186.836 49.894H190.319L190.397 48.7335C190.496 47.2106 191.771 46.019 193.296 46.019H193.421C195.023 46.019 196.327 47.323 196.327 48.9253C196.327 50.5276 195.023 51.8315 193.421 51.8315H192.132L191.55 60.5503H192.975L195.945 57.087ZM189.608 60.5503L190.19 51.8315H186.964L187.547 60.5503H189.608ZM184.893 49.894L184.824 48.8604C184.791 48.3537 184.366 47.9565 183.859 47.9565H183.734C183.199 47.9565 182.765 48.3905 182.765 48.9253C182.765 49.46 183.199 49.894 183.734 49.894H184.893ZM192.261 49.894H193.421C193.956 49.894 194.39 49.46 194.39 48.9253C194.39 48.3905 193.956 47.9565 193.421 47.9565H193.296C192.788 47.9565 192.363 48.3537 192.33 48.8614L192.261 49.894ZM192.452 64.4253V62.4878H184.702V64.4253C184.702 66.5624 186.44 68.3003 188.577 68.3003C190.714 68.3003 192.452 66.5624 192.452 64.4253ZM188.577 97.3628V70.2378C185.372 70.2378 182.765 67.6309 182.765 64.4253V61.8775L179.739 58.3464C178.377 56.7586 177.482 54.8385 177.127 52.7993H153.702V77.9868H162.441C164.388 73.3271 168.962 70.2378 174.046 70.2378C180.99 70.2378 186.64 75.8875 186.64 82.8315C186.64 89.7755 180.99 95.4253 174.046 95.4253C168.962 95.4253 164.388 92.3359 162.441 87.6753H153.702V97.3628H188.577ZM151.765 89.6128V87.6753H145.952V89.6128H151.765ZM144.984 85.7378H147.89V79.9253H144.984C143.381 79.9253 142.077 81.2292 142.077 82.8315C142.077 84.4339 143.381 85.7378 144.984 85.7378Z" fill="#16181B"/>
<path d="M171.139 54.7378H155.639V56.6753H171.139V54.7378Z" fill="#16181B"/>
<path d="M171.139 58.6128H155.639V60.5503H171.139V58.6128Z" fill="#16181B"/>
<path d="M171.139 62.4878H155.639V64.4253H171.139V62.4878Z" fill="#16181B"/>
<path d="M171.139 66.3628H155.639V68.3003H171.139V66.3628Z" fill="#16181B"/>
<path d="M165.327 70.2378H163.39V72.1753H165.327V70.2378Z" fill="#16181B"/>
<path d="M161.452 70.2378H159.515V72.1753H161.452V70.2378Z" fill="#16181B"/>
<path d="M157.577 70.2378H155.639V72.1753H157.577V70.2378Z" fill="#16181B"/>
<path d="M149.827 70.2378H147.89V72.1753H149.827V70.2378Z" fill="#16181B"/>
<path d="M149.827 74.1128H147.89V76.0503H149.827V74.1128Z" fill="#16181B"/>
<path d="M149.827 66.3628H147.89V68.3003H149.827V66.3628Z" fill="#16181B"/>
<path d="M171.139 46.9878H169.202V48.9253H171.139V46.9878Z" fill="#16181B"/>
<path d="M167.265 46.9878H165.328V48.9253H167.265V46.9878Z" fill="#16181B"/>
<path d="M175.015 46.9878H173.077V48.9253H175.015V46.9878Z" fill="#16181B"/>
</svg>
