<svg width="344" height="142" viewBox="0 0 344 142" fill="none" xmlns="http://www.w3.org/2000/svg">
<path d="M0 18C0 8.05887 8.05887 0 18 0H326.005C335.946 0 344.005 8.05888 344.005 18V141.747H0V18Z" fill="white"/>
<mask id="mask0_40000022_4311" style="mask-type:alpha" maskUnits="userSpaceOnUse" x="0" y="0" width="345" height="142">
<path d="M0 18C0 8.05887 8.05887 0 18 0H326.005C335.946 0 344.005 8.05888 344.005 18V141.747H0V18Z" fill="white"/>
</mask>
<g mask="url(#mask0_40000022_4311)">
<g opacity="0.06">
<g clip-path="url(#clip0_40000022_4311)">
<path d="M323.505 36.0721L320.168 25.5648C319.772 24.3184 318.914 23.3007 317.753 22.6995C316.592 22.0979 315.266 21.9845 314.02 22.3809L312.498 22.8641C310.278 23.5691 308.912 25.7188 309.103 27.9478L287.492 44.4611C287.235 44.2537 286.957 44.0697 286.657 43.9144C285.496 43.3129 284.17 43.1996 282.924 43.5958L280.048 44.5091C278.802 44.9048 277.784 45.7626 277.183 46.9237C276.582 48.0851 276.469 49.4108 276.864 50.6574L277.035 51.1962L276.54 51.3535C273.967 52.1703 272.539 54.9285 273.356 57.5014L275.46 64.128C276.122 66.2097 278.053 67.542 280.13 67.542C280.778 67.5571 281.478 67.3713 282.104 67.1544L282.275 67.6932C282.671 68.9394 283.529 69.9573 284.69 70.5585C285.396 70.9242 286.163 71.1092 286.936 71.1092C287.434 71.1092 287.935 71.0323 288.424 70.8771L291.299 69.9638C291.33 69.9538 291.359 69.9404 291.39 69.9297L296.696 81.5517C297.418 83.1316 298.987 84.0894 300.647 84.0894C301.082 84.0894 301.524 84.0235 301.958 83.8856L307.543 82.1114C308.726 81.7357 309.694 80.8693 310.197 79.7349C310.7 78.6003 310.693 77.3019 310.177 76.1728L306.051 67.1357L321.759 67.7231C322.65 69.176 324.245 70.0603 325.936 70.0603C326.426 70.0603 326.924 69.9863 327.415 69.8302L328.937 69.3469C330.183 68.9512 331.201 68.0934 331.802 66.9323C332.404 65.7709 332.517 64.4452 332.121 63.1986L328.784 52.6935C330.353 51.8561 331.632 50.5683 332.467 48.9555C333.557 46.8513 333.762 44.4485 333.045 42.1899C331.733 38.059 327.66 35.5597 323.505 36.0721ZM310.05 31.3315L320.558 64.4123L294.361 63.4328L289.221 47.2481L310.05 31.3315ZM280.621 64.2012C279.763 64.4731 278.844 63.9976 278.571 63.14L276.466 56.5133C276.194 55.6557 276.67 54.7363 277.528 54.464L278.023 54.3065L281.116 64.0437L280.621 64.2012ZM307.208 77.5287C307.383 77.912 307.287 78.2466 307.213 78.4118C307.14 78.5772 306.957 78.8734 306.555 79.0009L300.97 80.7751C300.452 80.9403 299.891 80.691 299.666 80.1966L294.011 67.8125C294.228 67.4698 294.39 67.0871 294.507 66.7042L302.401 66.9994L307.208 77.5287ZM329.569 47.4547C329.138 48.2866 328.521 48.9825 327.77 49.4979L324.521 39.2683C326.923 39.2401 329.17 40.7717 329.934 43.178C330.388 44.6058 330.258 46.1245 329.569 47.4547Z" fill="black"/>
<path d="M329.578 -11.144H299.414C296.714 -11.144 294.518 -8.94764 294.518 -6.24819V13.5612C294.518 16.2607 296.714 18.4571 299.414 18.4571H324.608L328.423 21.3446C328.918 21.7196 329.506 21.9111 330.099 21.9111C330.521 21.9111 330.945 21.814 331.341 21.6174C332.293 21.1439 332.884 20.1892 332.884 19.1258V17.1652C333.882 16.2466 334.474 14.9359 334.474 13.5612V-6.24819C334.474 -8.94764 332.277 -11.144 329.578 -11.144ZM325.755 1.44135H303.237C302.336 1.44135 301.605 0.710647 301.605 -0.190598C301.605 -1.09184 302.336 -1.82255 303.237 -1.82255H325.755C326.656 -1.82255 327.387 -1.09184 327.387 -0.190598C327.387 0.710647 326.656 1.44135 325.755 1.44135ZM327.387 7.50364C327.387 8.40488 326.656 9.13559 325.755 9.13559H321.725C320.824 9.13559 320.093 8.40488 320.093 7.50364C320.093 6.60239 320.824 5.87169 321.725 5.87169H325.755C326.656 5.87169 327.387 6.60239 327.387 7.50364ZM317.188 7.50364C317.188 8.40488 316.458 9.13559 315.556 9.13559H303.237C302.336 9.13559 301.605 8.40488 301.605 7.50364C301.605 6.60239 302.336 5.87169 303.237 5.87169H315.556C316.458 5.87169 317.188 6.60239 317.188 7.50364Z" fill="black"/>
<path d="M371.858 20.4282H341.694C338.995 20.4282 336.799 22.6246 336.799 25.3241V45.1333C336.799 46.5084 337.39 47.8191 338.388 48.7375V50.698C338.388 51.7613 338.979 52.7159 339.931 53.1894C340.327 53.3863 340.752 53.4832 341.173 53.4832C341.766 53.4832 342.354 53.2916 342.85 52.9167L346.664 50.0291H371.858C374.558 50.0291 376.754 47.8327 376.754 45.1333V25.3241C376.754 22.6244 374.558 20.4282 371.858 20.4282ZM368.035 33.0136H345.517C344.616 33.0136 343.885 32.2829 343.885 31.3817C343.885 30.4804 344.616 29.7497 345.517 29.7497H368.035C368.936 29.7497 369.667 30.4804 369.667 31.3817C369.667 32.2829 368.936 33.0136 368.035 33.0136ZM369.667 39.0757C369.667 39.9769 368.936 40.7076 368.035 40.7076H364.005C363.104 40.7076 362.373 39.9769 362.373 39.0757C362.373 38.1745 363.104 37.4437 364.005 37.4437H368.035C368.936 37.4437 369.667 38.1745 369.667 39.0757ZM359.469 39.0757C359.469 39.9769 358.738 40.7076 357.837 40.7076H345.517C344.616 40.7076 343.885 39.9769 343.885 39.0757C343.885 38.1745 344.616 37.4437 345.517 37.4437H357.837C358.738 37.4437 359.469 38.1745 359.469 39.0757Z" fill="black"/>
</g>
</g>
</g>
<path d="M172.428 74.0923L170.127 66.849C169.854 65.9898 169.263 65.2882 168.463 64.8738C167.662 64.4591 166.748 64.3809 165.889 64.6541L164.84 64.9873C163.31 65.4733 162.368 66.9552 162.499 68.4918L147.602 79.8754C147.425 79.7323 147.233 79.6055 147.026 79.4985C146.226 79.0838 145.312 79.0057 144.452 79.2788L142.47 79.9084C141.611 80.1812 140.91 80.7726 140.495 81.573C140.081 82.3736 140.003 83.2875 140.275 84.1468L140.393 84.5182L140.052 84.6267C138.278 85.1897 137.293 87.0911 137.857 88.8648L139.308 93.4329C139.764 94.868 141.095 95.7864 142.527 95.7864C142.973 95.7968 143.456 95.6687 143.888 95.5192L144.006 95.8906C144.278 96.7497 144.87 97.4514 145.67 97.8658C146.157 98.1179 146.686 98.2455 147.218 98.2455C147.562 98.2455 147.907 98.1925 148.244 98.0855L150.226 97.4559C150.247 97.449 150.268 97.4397 150.289 97.4324L153.947 105.444C154.444 106.533 155.526 107.193 156.67 107.193C156.97 107.193 157.275 107.148 157.574 107.053L161.424 105.83C162.24 105.571 162.907 104.974 163.253 104.192C163.6 103.41 163.596 102.514 163.24 101.736L160.396 95.5063L171.224 95.9113C171.838 96.9128 172.938 97.5224 174.104 97.5224C174.441 97.5224 174.785 97.4713 175.123 97.3638L176.172 97.0306C177.031 96.7578 177.733 96.1665 178.148 95.3661C178.562 94.5655 178.64 93.6516 178.367 92.7922L176.067 85.5504C177.148 84.9732 178.03 84.0854 178.606 82.9736C179.357 81.5231 179.498 79.8666 179.004 78.3096C178.1 75.462 175.292 73.7391 172.428 74.0923ZM163.153 70.8243L170.396 93.6289L152.337 92.9536L148.793 81.7966L163.153 70.8243ZM142.865 93.4834C142.274 93.6708 141.64 93.343 141.452 92.7518L140.001 88.1836C139.813 87.5924 140.142 86.9586 140.733 86.7709L141.074 86.6623L143.206 93.3748L142.865 93.4834ZM161.193 102.671C161.314 102.935 161.247 103.166 161.197 103.28C161.146 103.394 161.02 103.598 160.743 103.686L156.893 104.909C156.535 105.023 156.149 104.851 155.994 104.51L152.096 95.9728C152.245 95.7366 152.357 95.4728 152.437 95.2088L157.879 95.4123L161.193 102.671ZM176.608 81.939C176.311 82.5125 175.885 82.9922 175.368 83.3475L173.128 76.2956C174.784 76.2762 176.333 77.332 176.86 78.9908C177.172 79.9751 177.083 81.022 176.608 81.939Z" fill="black"/>
<path d="M176.614 41.5435H155.82C153.959 41.5435 152.445 43.0576 152.445 44.9185V58.5743C152.445 60.4352 153.959 61.9493 155.82 61.9493H173.188L175.818 63.9398C176.159 64.1983 176.564 64.3303 176.973 64.3303C177.264 64.3303 177.556 64.2634 177.829 64.1278C178.486 63.8014 178.893 63.1433 178.893 62.4102V61.0587C179.581 60.4255 179.989 59.5219 179.989 58.5743V44.9185C179.989 43.0576 178.475 41.5435 176.614 41.5435ZM173.978 50.2193H158.456C157.834 50.2193 157.331 49.7156 157.331 49.0943C157.331 48.473 157.834 47.9693 158.456 47.9693H173.978C174.6 47.9693 175.103 48.473 175.103 49.0943C175.103 49.7156 174.6 50.2193 173.978 50.2193ZM175.103 54.3984C175.103 55.0197 174.6 55.5234 173.978 55.5234H171.2C170.579 55.5234 170.075 55.0197 170.075 54.3984C170.075 53.7771 170.579 53.2734 171.2 53.2734H173.978C174.6 53.2734 175.103 53.7771 175.103 54.3984ZM168.073 54.3984C168.073 55.0197 167.569 55.5234 166.948 55.5234H158.456C157.834 55.5234 157.331 55.0197 157.331 54.3984C157.331 53.7771 157.834 53.2734 158.456 53.2734H166.948C167.569 53.2734 168.073 53.7771 168.073 54.3984Z" fill="black"/>
<path d="M205.76 63.3081H184.967C183.106 63.3081 181.592 64.8222 181.592 66.6831V80.3388C181.592 81.2867 181.999 82.1902 182.687 82.8233V84.1749C182.687 84.9078 183.095 85.566 183.751 85.8923C184.024 86.028 184.317 86.0948 184.607 86.0948C185.016 86.0948 185.421 85.9628 185.763 85.7043L188.393 83.7138H205.76C207.621 83.7138 209.135 82.1997 209.135 80.3388V66.6831C209.135 64.8221 207.621 63.3081 205.76 63.3081ZM203.125 71.984H187.602C186.981 71.984 186.477 71.4802 186.477 70.859C186.477 70.2377 186.981 69.734 187.602 69.734H203.125C203.746 69.734 204.25 70.2377 204.25 70.859C204.25 71.4802 203.746 71.984 203.125 71.984ZM204.25 76.1629C204.25 76.7842 203.746 77.2879 203.125 77.2879H200.347C199.726 77.2879 199.222 76.7842 199.222 76.1629C199.222 75.5416 199.726 75.0379 200.347 75.0379H203.125C203.746 75.0379 204.25 75.5416 204.25 76.1629ZM197.22 76.1629C197.22 76.7842 196.716 77.2879 196.095 77.2879H187.602C186.981 77.2879 186.477 76.7842 186.477 76.1629C186.477 75.5416 186.981 75.0379 187.602 75.0379H196.095C196.716 75.0379 197.22 75.5416 197.22 76.1629Z" fill="black"/>
<defs>
<clipPath id="clip0_40000022_4311">
<rect width="104.445" height="104.445" fill="white" transform="translate(272.717 -15.7495)"/>
</clipPath>
</defs>
</svg>
