<svg width="344" height="142" viewBox="0 0 344 142" fill="none" xmlns="http://www.w3.org/2000/svg">
<path d="M0 18C0 8.05887 8.05887 0 18 0H326.005C335.946 0 344.005 8.05888 344.005 18V141.747H0V18Z" fill="white"/>
<mask id="mask0_40000022_4309" style="mask-type:alpha" maskUnits="userSpaceOnUse" x="0" y="0" width="345" height="142">
<path d="M0 18C0 8.05887 8.05887 0 18 0H326.005C335.946 0 344.005 8.05888 344.005 18V141.747H0V18Z" fill="white"/>
</mask>
<g mask="url(#mask0_40000022_4309)">
<g opacity="0.06">
<path d="M303.689 43.5021C303.689 42.7255 304.319 42.0959 305.096 42.0959H316.676C317.452 42.0959 318.082 42.7255 318.082 43.5021C318.082 44.2787 317.452 44.9084 316.676 44.9084H305.096C304.319 44.9084 303.689 44.2786 303.689 43.5021ZM322.466 28.5991H316.676C315.899 28.5991 315.27 29.2287 315.27 30.0053C315.27 30.7819 315.899 31.4116 316.676 31.4116H322.466C323.243 31.4116 323.872 30.7819 323.872 30.0053C323.872 29.2287 323.243 28.5991 322.466 28.5991ZM306.502 9.76024C306.502 8.98363 305.872 8.35398 305.096 8.35398H299.306C298.529 8.35398 297.9 8.98363 297.9 9.76024C297.9 10.5368 298.529 11.1665 299.306 11.1665H305.096C305.872 11.1665 306.502 10.5368 306.502 9.76024ZM329.265 35.3475H328.256C327.479 35.3475 326.85 35.9771 326.85 36.7537C326.85 37.5303 327.479 38.16 328.256 38.16H329.265C330.042 38.16 330.672 37.5303 330.672 36.7537C330.672 35.9771 330.042 35.3475 329.265 35.3475ZM329.265 21.8508H322.466C321.689 21.8508 321.06 22.4805 321.06 23.2571C321.06 24.0337 321.689 24.6633 322.466 24.6633H329.265C330.042 24.6633 330.672 24.0337 330.672 23.2571C330.672 22.4805 330.042 21.8508 329.265 21.8508ZM310.886 35.3475H305.096C304.319 35.3475 303.689 35.9771 303.689 36.7537C303.689 37.5303 304.319 38.16 305.096 38.16H310.886C311.662 38.16 312.292 37.5303 312.292 36.7537C312.292 35.9771 311.662 35.3475 310.886 35.3475ZM297.899 23.2571C297.899 24.0337 298.529 24.6633 299.306 24.6633H305.096C305.872 24.6633 306.502 24.0337 306.502 23.2571C306.502 22.4805 305.872 21.8508 305.096 21.8508H299.306C298.529 21.8508 297.899 22.4803 297.899 23.2571ZM299.306 31.4116H310.886C311.662 31.4116 312.292 30.7819 312.292 30.0053C312.292 29.2287 311.662 28.5991 310.886 28.5991H299.306C298.529 28.5991 297.899 29.2287 297.899 30.0053C297.899 30.7819 298.529 31.4116 299.306 31.4116ZM310.886 21.8508C310.109 21.8508 309.48 22.4805 309.48 23.2571C309.48 24.0337 310.109 24.6633 310.886 24.6633H316.676C317.452 24.6633 318.082 24.0337 318.082 23.2571C318.082 22.4805 317.452 21.8508 316.676 21.8508H310.886ZM323.872 16.5087C323.872 15.7321 323.243 15.1024 322.466 15.1024H316.676C315.899 15.1024 315.27 15.7321 315.27 16.5087C315.27 17.2853 315.899 17.9149 316.676 17.9149H322.466C323.243 17.9149 323.872 17.2853 323.872 16.5087ZM322.466 8.35398H310.886C310.109 8.35398 309.48 8.98363 309.48 9.76024C309.48 10.5368 310.109 11.1665 310.886 11.1665H322.466C323.243 11.1665 323.872 10.5368 323.872 9.76024C323.872 8.98363 323.243 8.35398 322.466 8.35398ZM329.265 15.1024H328.256C327.479 15.1024 326.85 15.7321 326.85 16.5087C326.85 17.2853 327.479 17.9149 328.256 17.9149H329.265C330.042 17.9149 330.672 17.2853 330.672 16.5087C330.672 15.7321 330.042 15.1024 329.265 15.1024ZM329.265 28.5991H328.256C327.479 28.5991 326.85 29.2287 326.85 30.0053C326.85 30.7819 327.479 31.4116 328.256 31.4116H329.265C330.042 31.4116 330.672 30.7819 330.672 30.0053C330.672 29.2287 330.042 28.5991 329.265 28.5991ZM293.516 48.8441H292.506C291.73 48.8441 291.1 49.4738 291.1 50.2504C291.1 51.027 291.73 51.6566 292.506 51.6566H293.516C294.292 51.6566 294.922 51.027 294.922 50.2504C294.922 49.4738 294.292 48.8441 293.516 48.8441ZM329.265 8.35398H328.256C327.479 8.35398 326.85 8.98363 326.85 9.76024C326.85 10.5368 327.479 11.1665 328.256 11.1665H329.265C330.042 11.1665 330.672 10.5368 330.672 9.76024C330.672 8.98363 330.042 8.35398 329.265 8.35398ZM292.506 38.16H299.306C300.082 38.16 300.712 37.5303 300.712 36.7537C300.712 35.9771 300.082 35.3475 299.306 35.3475H292.506C291.73 35.3475 291.1 35.9771 291.1 36.7537C291.1 37.5303 291.73 38.16 292.506 38.16ZM356.219 14.9811L354.767 17.4953V59.4144C354.767 62.6352 352.147 65.2554 348.926 65.2554H329.34L333.523 72.4333C333.905 73.0905 333.91 73.8721 333.535 74.524C333.159 75.1779 332.461 75.584 331.712 75.584H290.059C289.311 75.584 288.612 75.1776 288.236 74.5237C287.861 73.8717 287.866 73.0902 288.249 72.4333L292.432 65.2554H272.846C269.625 65.2554 267.005 62.6352 267.005 59.4144V6.02822C267.005 2.80738 269.625 0.187188 272.846 0.187188H283.585V-9.74832C283.585 -11.2922 284.842 -12.5483 286.385 -12.5483H335.387C336.93 -12.5483 338.186 -11.2922 338.186 -9.74832V0.187188H348.926C352.147 0.187188 354.767 2.80738 354.767 6.02822V10.3913L355.029 10.5428C355.78 10.9761 356.317 11.6768 356.542 12.516C356.767 13.3553 356.652 14.2307 356.219 14.9811ZM338.186 24.3694L346.76 9.51994C347.655 7.9685 349.646 7.435 351.198 8.33078L351.954 8.76777V6.0284C351.954 4.35848 350.596 2.99986 348.926 2.99986H338.186L338.186 24.3694ZM330.818 42.7565L335.406 45.4052L350.995 18.4034L346.408 15.7547L330.818 42.7565ZM286.398 55.0172H335.374V49.4177L330.776 52.6166C330.348 52.9145 329.856 53.065 329.362 53.065C328.936 53.065 328.509 52.9534 328.12 52.7287C327.327 52.271 326.863 51.4429 326.88 50.539C326.86 50.4459 326.85 50.3494 326.85 50.2504C326.85 50.0774 326.883 49.9125 326.94 49.7596L327.349 44.9084H322.466C321.689 44.9084 321.06 44.2787 321.06 43.5021C321.06 42.7255 321.689 42.0959 322.466 42.0959H327.952L335.374 29.2408V-9.73566H286.398V55.0172ZM269.817 55.0172H283.585V2.99969H272.846C271.176 2.99969 269.817 4.3583 269.817 6.02822V55.0172ZM326.085 65.2554H295.687L291.307 72.7715H330.465L326.085 65.2554ZM351.954 22.3667L338.186 46.2143V55.0172H351.954V22.3667ZM322.466 48.8441H316.676C315.899 48.8441 315.27 49.4738 315.27 50.2504C315.27 51.027 315.899 51.6566 316.676 51.6566H322.466C323.243 51.6566 323.872 51.027 323.872 50.2504C323.872 49.4738 323.243 48.8441 322.466 48.8441ZM292.506 44.9084H299.306C300.082 44.9084 300.712 44.2787 300.712 43.5021C300.712 42.7255 300.082 42.0959 299.306 42.0959H292.506C291.73 42.0959 291.1 42.7255 291.1 43.5021C291.1 44.2787 291.73 44.9084 292.506 44.9084ZM292.506 31.4116H293.516C294.292 31.4116 294.922 30.7819 294.922 30.0053C294.922 29.2287 294.292 28.5991 293.516 28.5991H292.506C291.73 28.5991 291.1 29.2287 291.1 30.0053C291.1 30.7819 291.73 31.4116 292.506 31.4116ZM292.506 11.1665H293.516C294.292 11.1665 294.922 10.5368 294.922 9.76024C294.922 8.98363 294.292 8.35398 293.516 8.35398H292.506C291.73 8.35398 291.1 8.98363 291.1 9.76024C291.1 10.5368 291.73 11.1665 292.506 11.1665ZM293.197 5.09816H328.575C329.731 5.09816 330.672 4.15738 330.672 3.00127V-4.18045C330.672 -5.33674 329.731 -6.27752 328.575 -6.27752H293.197C292.041 -6.27752 291.1 -5.33674 291.1 -4.18045V3.00127C291.1 4.15756 292.041 5.09816 293.197 5.09816ZM292.506 17.9149H299.306C300.082 17.9149 300.712 17.2853 300.712 16.5087C300.712 15.7321 300.082 15.1024 299.306 15.1024H292.506C291.73 15.1024 291.1 15.7321 291.1 16.5087C291.1 17.2853 291.73 17.9149 292.506 17.9149ZM292.506 24.6633H293.516C294.292 24.6633 294.922 24.0337 294.922 23.2571C294.922 22.4805 294.292 21.8508 293.516 21.8508H292.506C291.73 21.8508 291.1 22.4805 291.1 23.2571C291.1 24.0337 291.73 24.6633 292.506 24.6633ZM310.886 48.8441H299.306C298.529 48.8441 297.9 49.4738 297.9 50.2504C297.9 51.027 298.529 51.6566 299.306 51.6566H310.886C311.662 51.6566 312.292 51.027 312.292 50.2504C312.292 49.4738 311.662 48.8441 310.886 48.8441ZM322.466 35.3475H316.676C315.899 35.3475 315.27 35.9771 315.27 36.7537C315.27 37.5303 315.899 38.16 316.676 38.16H322.466C323.243 38.16 323.872 37.5303 323.872 36.7537C323.872 35.9771 323.243 35.3475 322.466 35.3475ZM305.096 17.9149H310.886C311.662 17.9149 312.292 17.2853 312.292 16.5087C312.292 15.7321 311.662 15.1024 310.886 15.1024H305.096C304.319 15.1024 303.689 15.7321 303.689 16.5087C303.689 17.2853 304.319 17.9149 305.096 17.9149Z" fill="black"/>
</g>
</g>
<path d="M166.276 77.6126C166.276 77.0776 166.71 76.6438 167.245 76.6438H175.223C175.758 76.6438 176.191 77.0776 176.191 77.6126C176.191 78.1475 175.758 78.5813 175.223 78.5813H167.245C166.71 78.5813 166.276 78.1474 166.276 77.6126ZM179.211 67.346H175.223C174.688 67.346 174.254 67.7797 174.254 68.3147C174.254 68.8497 174.688 69.2835 175.223 69.2835H179.211C179.746 69.2835 180.18 68.8497 180.18 68.3147C180.18 67.7797 179.746 67.346 179.211 67.346ZM168.214 54.3681C168.214 53.8331 167.78 53.3994 167.245 53.3994H163.257C162.722 53.3994 162.288 53.8331 162.288 54.3681C162.288 54.9031 162.722 55.3369 163.257 55.3369H167.245C167.78 55.3369 168.214 54.9031 168.214 54.3681ZM183.895 71.9949H183.2C182.665 71.9949 182.231 72.4287 182.231 72.9636C182.231 73.4986 182.665 73.9324 183.2 73.9324H183.895C184.43 73.9324 184.864 73.4986 184.864 72.9636C184.864 72.4287 184.43 71.9949 183.895 71.9949ZM183.895 62.6972H179.211C178.676 62.6972 178.243 63.131 178.243 63.666C178.243 64.2009 178.676 64.6347 179.211 64.6347H183.895C184.43 64.6347 184.864 64.2009 184.864 63.666C184.864 63.131 184.43 62.6972 183.895 62.6972ZM171.234 71.9949H167.245C166.71 71.9949 166.276 72.4287 166.276 72.9636C166.276 73.4986 166.71 73.9324 167.245 73.9324H171.234C171.769 73.9324 172.203 73.4986 172.203 72.9636C172.203 72.4287 171.769 71.9949 171.234 71.9949ZM162.288 63.666C162.288 64.2009 162.721 64.6347 163.256 64.6347H167.245C167.78 64.6347 168.214 64.2009 168.214 63.666C168.214 63.131 167.78 62.6972 167.245 62.6972H163.256C162.721 62.6972 162.288 63.1308 162.288 63.666ZM163.256 69.2835H171.234C171.769 69.2835 172.203 68.8497 172.203 68.3147C172.203 67.7797 171.769 67.346 171.234 67.346H163.256C162.721 67.346 162.288 67.7797 162.288 68.3147C162.288 68.8497 162.721 69.2835 163.256 69.2835ZM171.234 62.6972C170.699 62.6972 170.265 63.131 170.265 63.666C170.265 64.2009 170.699 64.6347 171.234 64.6347H175.223C175.758 64.6347 176.191 64.2009 176.191 63.666C176.191 63.131 175.758 62.6972 175.223 62.6972H171.234ZM180.18 59.017C180.18 58.482 179.746 58.0483 179.211 58.0483H175.223C174.688 58.0483 174.254 58.482 174.254 59.017C174.254 59.552 174.688 59.9858 175.223 59.9858H179.211C179.746 59.9858 180.18 59.552 180.18 59.017ZM179.211 53.3994H171.234C170.699 53.3994 170.265 53.8331 170.265 54.3681C170.265 54.9031 170.699 55.3369 171.234 55.3369H179.211C179.746 55.3369 180.18 54.9031 180.18 54.3681C180.18 53.8331 179.746 53.3994 179.211 53.3994ZM183.895 58.0483H183.2C182.665 58.0483 182.231 58.482 182.231 59.017C182.231 59.552 182.665 59.9858 183.2 59.9858H183.895C184.43 59.9858 184.864 59.552 184.864 59.017C184.864 58.482 184.43 58.0483 183.895 58.0483ZM183.895 67.346H183.2C182.665 67.346 182.231 67.7797 182.231 68.3147C182.231 68.8497 182.665 69.2835 183.2 69.2835H183.895C184.43 69.2835 184.864 68.8497 184.864 68.3147C184.864 67.7797 184.43 67.346 183.895 67.346ZM159.268 81.2926H158.572C158.037 81.2926 157.604 81.7264 157.604 82.2613C157.604 82.7963 158.037 83.2301 158.572 83.2301H159.268C159.803 83.2301 160.237 82.7963 160.237 82.2613C160.237 81.7264 159.803 81.2926 159.268 81.2926ZM183.895 53.3994H183.2C182.665 53.3994 182.231 53.8331 182.231 54.3681C182.231 54.9031 182.665 55.3369 183.2 55.3369H183.895C184.43 55.3369 184.864 54.9031 184.864 54.3681C184.864 53.8331 184.43 53.3994 183.895 53.3994ZM158.572 73.9324H163.256C163.791 73.9324 164.225 73.4986 164.225 72.9636C164.225 72.4287 163.791 71.9949 163.256 71.9949H158.572C158.037 71.9949 157.604 72.4287 157.604 72.9636C157.604 73.4986 158.037 73.9324 158.572 73.9324ZM202.463 57.9647L201.463 59.6967V88.5743C201.463 90.7931 199.658 92.5981 197.439 92.5981H183.947L186.828 97.5429C187.092 97.9957 187.095 98.534 186.837 98.9832C186.578 99.4337 186.097 99.7134 185.581 99.7134H156.887C156.371 99.7134 155.89 99.4334 155.631 98.9829C155.373 98.5338 155.376 97.9954 155.64 97.5429L158.521 92.5981H145.028C142.81 92.5981 141.005 90.7931 141.005 88.5743V51.7972C141.005 49.5784 142.81 47.7734 145.028 47.7734H152.427V40.9289C152.427 39.8653 153.292 39 154.356 39H188.112C189.176 39 190.041 39.8653 190.041 40.9289V47.7734H197.439C199.658 47.7734 201.463 49.5784 201.463 51.7972V54.8029L201.644 54.9072C202.161 55.2057 202.531 55.6884 202.686 56.2665C202.841 56.8447 202.762 57.4478 202.463 57.9647ZM190.041 64.4322L195.947 54.2026C196.564 53.1338 197.935 52.7663 199.004 53.3834L199.526 53.6844V51.7973C199.526 50.6469 198.59 49.711 197.439 49.711H190.041L190.041 64.4322ZM184.965 77.0989L188.125 78.9235L198.865 60.3223L195.705 58.4977L184.965 77.0989ZM154.364 85.5452H188.103V81.6877L184.936 83.8914C184.641 84.0966 184.302 84.2003 183.962 84.2003C183.669 84.2003 183.374 84.1234 183.106 83.9686C182.56 83.6533 182.24 83.0828 182.252 82.4602C182.239 82.396 182.231 82.3295 182.231 82.2613C182.231 82.1422 182.254 82.0286 182.293 81.9233L182.576 78.5813H179.211C178.676 78.5813 178.243 78.1475 178.243 77.6126C178.243 77.0776 178.676 76.6438 179.211 76.6438H182.991L188.103 67.7881V40.9376H154.364V85.5452ZM142.942 85.5452H152.427V49.7109H145.028C143.878 49.7109 142.942 50.6468 142.942 51.7972V85.5452ZM181.704 92.5981H160.764L157.746 97.7759H184.722L181.704 92.5981ZM199.526 63.0526L190.041 79.4809V85.5452H199.526V63.0526ZM179.211 81.2926H175.223C174.688 81.2926 174.254 81.7264 174.254 82.2613C174.254 82.7963 174.688 83.2301 175.223 83.2301H179.211C179.746 83.2301 180.18 82.7963 180.18 82.2613C180.18 81.7264 179.746 81.2926 179.211 81.2926ZM158.572 78.5813H163.256C163.791 78.5813 164.225 78.1475 164.225 77.6126C164.225 77.0776 163.791 76.6438 163.256 76.6438H158.572C158.037 76.6438 157.604 77.0776 157.604 77.6126C157.604 78.1475 158.037 78.5813 158.572 78.5813ZM158.572 69.2835H159.268C159.803 69.2835 160.237 68.8497 160.237 68.3147C160.237 67.7797 159.803 67.346 159.268 67.346H158.572C158.037 67.346 157.604 67.7797 157.604 68.3147C157.604 68.8497 158.037 69.2835 158.572 69.2835ZM158.572 55.3369H159.268C159.803 55.3369 160.237 54.9031 160.237 54.3681C160.237 53.8331 159.803 53.3994 159.268 53.3994H158.572C158.037 53.3994 157.604 53.8331 157.604 54.3681C157.604 54.9031 158.037 55.3369 158.572 55.3369ZM159.048 51.1565H183.42C184.216 51.1565 184.864 50.5084 184.864 49.712V44.7645C184.864 43.968 184.216 43.3199 183.42 43.3199H159.048C158.252 43.3199 157.604 43.968 157.604 44.7645V49.712C157.604 50.5085 158.252 51.1565 159.048 51.1565ZM158.572 59.9858H163.256C163.791 59.9858 164.225 59.552 164.225 59.017C164.225 58.482 163.791 58.0483 163.256 58.0483H158.572C158.037 58.0483 157.604 58.482 157.604 59.017C157.604 59.552 158.037 59.9858 158.572 59.9858ZM158.572 64.6347H159.268C159.803 64.6347 160.237 64.2009 160.237 63.666C160.237 63.131 159.803 62.6972 159.268 62.6972H158.572C158.037 62.6972 157.604 63.131 157.604 63.666C157.604 64.2009 158.037 64.6347 158.572 64.6347ZM171.234 81.2926H163.257C162.722 81.2926 162.288 81.7264 162.288 82.2613C162.288 82.7963 162.722 83.2301 163.257 83.2301H171.234C171.769 83.2301 172.203 82.7963 172.203 82.2613C172.203 81.7264 171.769 81.2926 171.234 81.2926ZM179.211 71.9949H175.223C174.688 71.9949 174.254 72.4287 174.254 72.9636C174.254 73.4986 174.688 73.9324 175.223 73.9324H179.211C179.746 73.9324 180.18 73.4986 180.18 72.9636C180.18 72.4287 179.746 71.9949 179.211 71.9949ZM167.245 59.9858H171.234C171.769 59.9858 172.203 59.552 172.203 59.017C172.203 58.482 171.769 58.0483 171.234 58.0483H167.245C166.71 58.0483 166.276 58.482 166.276 59.017C166.276 59.552 166.71 59.9858 167.245 59.9858Z" fill="black"/>
</svg>
