<svg width="344" height="142" viewBox="0 0 344 142" fill="none" xmlns="http://www.w3.org/2000/svg">
<path d="M0 18C0 8.05887 8.05887 0 18 0H326.005C335.946 0 344.005 8.05888 344.005 18V141.747H0V18Z" fill="white"/>
<path d="M140.067 58.6717H138V53.9763C138.002 52.4202 138.546 50.9284 139.515 49.8281C140.484 48.7278 141.797 48.1088 143.167 48.1071H178.3V45.7594H176.233C176.029 45.7594 175.829 45.6906 175.659 45.5616C175.489 45.4326 175.357 45.2493 175.279 45.0348C175.2 44.8203 175.18 44.5843 175.22 44.3566C175.26 44.1289 175.358 43.9197 175.503 43.7555L181.703 36.7125C181.799 36.6035 181.913 36.517 182.038 36.458C182.163 36.399 182.298 36.3687 182.433 36.3687C182.569 36.3687 182.703 36.399 182.829 36.458C182.954 36.517 183.068 36.6035 183.164 36.7125L189.364 43.7555C189.509 43.9197 189.607 44.1289 189.647 44.3566C189.687 44.5843 189.666 44.8203 189.588 45.0348C189.51 45.2493 189.377 45.4326 189.207 45.5616C189.038 45.6906 188.838 45.7594 188.633 45.7594H186.567V48.1071H190.7C192.07 48.1088 193.383 48.7278 194.352 49.8281C195.32 50.9284 195.865 52.4202 195.867 53.9763V77.4531H193.8V53.9763C193.799 53.0427 193.472 52.1476 192.891 51.4874C192.31 50.8272 191.522 50.4559 190.7 50.4548H186.567V71.5839H184.5V44.5856C184.5 44.2743 184.609 43.9757 184.803 43.7555C184.996 43.5354 185.259 43.4117 185.533 43.4117H186.139L182.433 39.2025L178.728 43.4117H179.333C179.607 43.4117 179.87 43.5354 180.064 43.7555C180.258 43.9757 180.367 44.2743 180.367 44.5856V72.7578H178.3V50.4548H143.167C142.345 50.4559 141.557 50.8272 140.976 51.4874C140.395 52.1476 140.068 53.0427 140.067 53.9763V58.6717ZM143.167 95.0607H160.378L157.898 104.451H155.567V106.799H178.3V104.451H175.969L174.64 99.4186L172.66 100.094L173.811 104.451H160.055L162.535 95.0607H170.033V92.713H143.167C142.345 92.712 141.557 92.3406 140.976 91.6804C140.395 91.0202 140.068 90.1252 140.067 89.1915V88.0177H169V85.67H140.067V61.0193H138V89.1915C138.002 90.7476 138.546 92.2394 139.515 93.3397C140.484 94.4401 141.797 95.059 143.167 95.0607ZM174.167 75.1054V56.324H170.033V83.3223H143.167V80.9746H147.3V71.5839C147.3 71.2726 147.409 70.974 147.603 70.7539C147.796 70.5337 148.059 70.4101 148.333 70.4101H154.533C154.807 70.4101 155.07 70.5337 155.264 70.7539C155.458 70.974 155.567 71.2726 155.567 71.5839V80.9746H157.633V63.367C157.633 63.0557 157.742 62.7571 157.936 62.537C158.13 62.3169 158.393 62.1932 158.667 62.1932H164.867C165.141 62.1932 165.404 62.3169 165.597 62.537C165.791 62.7571 165.9 63.0557 165.9 63.367V80.9746H167.967V55.1501C167.967 54.8388 168.076 54.5403 168.269 54.3201C168.463 54.1 168.726 53.9763 169 53.9763H175.2C175.474 53.9763 175.737 54.1 175.931 54.3201C176.124 54.5403 176.233 54.8388 176.233 55.1501V75.1054H174.167ZM153.5 72.7578H149.367V80.9746H153.5V72.7578ZM163.833 64.5409H159.7V80.9746H163.833V64.5409ZM143.167 52.8025V55.1501H145.233V52.8025H143.167ZM149.367 52.8025H147.3V55.1501H149.367V52.8025ZM151.433 52.8025V55.1501H153.5V52.8025H151.433ZM199.092 100.788C199.671 101.45 199.997 102.344 200 103.278C200 103.74 199.92 104.198 199.765 104.626C199.609 105.053 199.381 105.442 199.093 105.769C198.805 106.096 198.463 106.355 198.087 106.532C197.71 106.709 197.307 106.8 196.9 106.799C196.079 106.791 195.294 106.421 194.708 105.767L189.762 100.149C187.161 101.892 184.088 102.498 181.122 101.852C178.155 101.206 175.497 99.3533 173.647 96.6408C171.797 93.9283 170.882 90.5423 171.072 87.1178C171.263 83.6932 172.546 80.4651 174.682 78.0388C176.818 75.6124 179.66 74.1543 182.674 73.9379C185.689 73.7215 188.67 74.7616 191.058 76.8633C193.445 78.9649 195.076 81.9837 195.645 85.3538C196.213 88.7239 195.68 92.2138 194.146 95.1693L199.092 100.788ZM193.8 88.0177C193.8 85.696 193.194 83.4265 192.059 81.4962C190.923 79.5658 189.309 78.0613 187.421 77.1728C185.533 76.2844 183.455 76.0519 181.451 76.5048C179.446 76.9578 177.605 78.0757 176.16 79.7174C174.715 81.359 173.731 83.4506 173.332 85.7276C172.933 88.0047 173.138 90.3649 173.92 92.5098C174.702 94.6547 176.026 96.488 177.726 97.7778C179.425 99.0676 181.423 99.7561 183.467 99.7561C186.206 99.7526 188.833 98.5147 190.77 96.3141C192.707 94.1135 193.797 91.1298 193.8 88.0177ZM197.63 102.448L192.93 97.1089C192.484 97.7067 191.996 98.2615 191.47 98.7679L196.17 104.107C196.265 104.22 196.379 104.311 196.505 104.374C196.631 104.437 196.767 104.47 196.905 104.472C197.043 104.474 197.18 104.445 197.308 104.386C197.435 104.327 197.551 104.239 197.649 104.129C197.746 104.018 197.823 103.886 197.875 103.741C197.927 103.596 197.953 103.441 197.951 103.284C197.949 103.128 197.92 102.973 197.865 102.83C197.809 102.686 197.729 102.557 197.63 102.449L197.63 102.448ZM191.733 88.0177C191.733 89.875 191.248 91.6906 190.34 93.2349C189.432 94.7792 188.141 95.9828 186.63 96.6936C185.12 97.4043 183.457 97.5903 181.854 97.228C180.25 96.8656 178.777 95.9712 177.621 94.6579C176.465 93.3446 175.678 91.6713 175.359 89.8497C175.04 88.0281 175.204 86.1399 175.829 84.424C176.455 82.7081 177.515 81.2414 178.874 80.2096C180.233 79.1777 181.832 78.627 183.467 78.627C185.658 78.6298 187.76 79.62 189.309 81.3805C190.859 83.141 191.731 85.528 191.733 88.0177ZM189.667 88.0177C189.667 86.6247 189.303 85.263 188.622 84.1048C187.941 82.9466 186.972 82.0438 185.839 81.5108C184.706 80.9777 183.46 80.8382 182.257 81.11C181.054 81.3817 179.95 82.0525 179.083 83.0375C178.216 84.0225 177.625 85.2774 177.386 86.6437C177.147 88.0099 177.269 89.426 177.739 90.7129C178.208 91.9999 179.003 93.0999 180.022 93.8738C181.042 94.6477 182.24 95.0607 183.467 95.0607C185.11 95.0587 186.686 94.316 187.849 92.9956C189.011 91.6752 189.665 89.885 189.667 88.0177ZM179.333 88.0177H181.4C181.401 87.3953 181.619 86.7986 182.006 86.3584C182.393 85.9183 182.919 85.6707 183.467 85.67V83.3223C182.371 83.3237 181.32 83.8189 180.545 84.6991C179.77 85.5794 179.335 86.7728 179.333 88.0177ZM192.767 43.4117H194.833C194.832 41.5444 194.178 39.7542 193.015 38.4338C191.853 37.1134 190.277 36.3708 188.633 36.3687V38.7164C189.729 38.7178 190.78 39.2129 191.555 40.0932C192.33 40.9734 192.765 42.1669 192.767 43.4117Z" fill="black"/>
<mask id="mask0_40000022_4312" style="mask-type:alpha" maskUnits="userSpaceOnUse" x="0" y="0" width="345" height="142">
<path d="M0 18C0 8.05887 8.05887 0 18 0H326.005C335.946 0 344.005 8.05888 344.005 18V141.747H0V18Z" fill="white"/>
</mask>
<g mask="url(#mask0_40000022_4312)">
<path d="M265.933 17.0354H263V10.3687C263.002 8.15932 263.776 6.04115 265.15 4.47888C266.525 2.91662 268.389 2.03785 270.333 2.03537H320.2V-1.29796H317.267C316.977 -1.29795 316.693 -1.39569 316.452 -1.57883C316.211 -1.76196 316.023 -2.02226 315.912 -2.32681C315.801 -2.63137 315.772 -2.96649 315.828 -3.2898C315.885 -3.61311 316.024 -3.91008 316.23 -4.14317L325.03 -14.1432C325.166 -14.2979 325.327 -14.4207 325.505 -14.5045C325.683 -14.5882 325.874 -14.6313 326.067 -14.6313C326.259 -14.6313 326.45 -14.5882 326.628 -14.5045C326.806 -14.4207 326.968 -14.2979 327.104 -14.1432L335.904 -4.14317C336.109 -3.91008 336.249 -3.61311 336.305 -3.2898C336.362 -2.96649 336.333 -2.63137 336.222 -2.32681C336.111 -2.02226 335.923 -1.76196 335.682 -1.57883C335.44 -1.39569 335.157 -1.29795 334.867 -1.29796H331.933V2.03537H337.8C339.744 2.03785 341.608 2.91662 342.983 4.47888C344.358 6.04115 345.131 8.15932 345.133 10.3687V43.702H342.2V10.3687C342.199 9.04309 341.735 7.77222 340.91 6.83487C340.085 5.89752 338.967 5.37024 337.8 5.3687H331.933V35.3687H329V-2.96463C329 -3.40666 329.155 -3.83058 329.43 -4.14314C329.705 -4.4557 330.078 -4.63129 330.467 -4.63129H331.326L326.067 -10.6077L320.807 -4.63129H321.667C322.056 -4.63129 322.429 -4.4557 322.704 -4.14314C322.979 -3.83058 323.133 -3.40666 323.133 -2.96463V37.0353H320.2V5.3687H270.333C269.167 5.37024 268.048 5.89752 267.224 6.83487C266.399 7.77222 265.935 9.04309 265.933 10.3687V17.0354ZM270.333 68.702H294.762L291.242 82.0353H287.933V85.3686H320.2V82.0353H316.891L315.005 74.8895L312.195 75.8478L313.829 82.0353H294.304L297.824 68.702H308.467V65.3687H270.333C269.167 65.3671 268.048 64.8398 267.224 63.9025C266.399 62.9651 265.935 61.6943 265.933 60.3687V58.702H307V55.3687H265.933V20.3687H263V60.3687C263.002 62.578 263.776 64.6962 265.15 66.2585C266.525 67.8207 268.389 68.6995 270.333 68.702ZM314.333 40.3687V13.702H308.467V52.0353H270.333V48.702H276.2V35.3687C276.2 34.9267 276.355 34.5027 276.63 34.1902C276.905 33.8776 277.278 33.702 277.667 33.702H286.467C286.856 33.702 287.229 33.8776 287.504 34.1902C287.779 34.5027 287.933 34.9267 287.933 35.3687V48.702H290.867V23.702C290.867 23.26 291.021 22.8361 291.296 22.5235C291.571 22.2109 291.944 22.0354 292.333 22.0354H301.133C301.522 22.0354 301.895 22.2109 302.17 22.5235C302.445 22.8361 302.6 23.26 302.6 23.702V48.702H305.533V12.0354C305.533 11.5933 305.688 11.1694 305.963 10.8568C306.238 10.5443 306.611 10.3687 307 10.3687H315.8C316.189 10.3687 316.562 10.5443 316.837 10.8568C317.112 11.1694 317.267 11.5933 317.267 12.0354V40.3687H314.333ZM285 37.0353H279.133V48.702H285V37.0353ZM299.667 25.3687H293.8V48.702H299.667V25.3687ZM270.333 8.70203V12.0354H273.267V8.70203H270.333ZM279.133 8.70203H276.2V12.0354H279.133V8.70203ZM282.067 8.70203V12.0354H285V8.70203H282.067ZM349.711 76.8339C350.533 77.7734 350.996 79.0435 351 80.3687C351.001 81.0254 350.887 81.6759 350.666 82.2828C350.445 82.8897 350.121 83.4411 349.712 83.9055C349.304 84.3699 348.819 84.7382 348.284 84.9893C347.75 85.2403 347.178 85.3693 346.6 85.3686C345.435 85.3571 344.32 84.8317 343.489 83.9034L336.469 75.9259C332.776 78.4014 328.416 79.2612 324.205 78.3443C319.994 77.4274 316.222 74.7967 313.596 70.9454C310.97 67.0941 309.671 62.2866 309.941 57.4243C310.212 52.5619 312.033 47.9786 315.065 44.5336C318.097 41.0885 322.13 39.0183 326.409 38.711C330.688 38.4038 334.918 39.8805 338.308 42.8645C341.697 45.8485 344.012 50.1348 344.819 54.9197C345.625 59.7047 344.869 64.6598 342.69 68.8562L349.711 76.8339ZM342.2 58.702C342.2 55.4056 341.34 52.1833 339.728 49.4425C338.117 46.7017 335.826 44.5655 333.146 43.304C330.466 42.0426 327.517 41.7125 324.672 42.3556C321.827 42.9987 319.214 44.586 317.162 46.9169C315.111 49.2478 313.714 52.2175 313.148 55.4505C312.583 58.6835 312.873 62.0346 313.983 65.0801C315.093 68.1255 316.973 70.7285 319.385 72.5598C321.797 74.3912 324.633 75.3687 327.533 75.3687C331.422 75.3636 335.15 73.6061 337.899 70.4816C340.649 67.357 342.196 63.1207 342.2 58.702ZM347.636 79.1912L340.965 71.6101C340.333 72.4588 339.639 73.2466 338.892 73.9655L345.564 81.5462C345.698 81.7074 345.86 81.8363 346.04 81.9254C346.219 82.0144 346.412 82.0618 346.608 82.0647C346.803 82.0676 346.997 82.0259 347.179 81.9422C347.36 81.8584 347.524 81.7343 347.663 81.5771C347.801 81.4199 347.91 81.2328 347.984 81.0269C348.058 80.8209 348.094 80.6003 348.092 80.378C348.089 80.1557 348.048 79.9363 347.969 79.7326C347.891 79.5289 347.777 79.3451 347.635 79.192L347.636 79.1912ZM339.267 58.702C339.267 61.3391 338.579 63.9169 337.289 66.1096C336 68.3023 334.167 70.0112 332.023 71.0204C329.879 72.0296 327.52 72.2936 325.244 71.7791C322.968 71.2647 320.878 69.9948 319.237 68.1301C317.596 66.2654 316.478 63.8896 316.025 61.3032C315.573 58.7168 315.805 56.0359 316.693 53.5996C317.581 51.1632 319.085 49.0808 321.015 47.6157C322.944 46.1507 325.213 45.3687 327.533 45.3687C330.644 45.3726 333.627 46.7787 335.826 49.2783C338.026 51.7779 339.263 55.167 339.267 58.702ZM336.333 58.702C336.333 56.7242 335.817 54.7908 334.85 53.1463C333.883 51.5018 332.509 50.2201 330.901 49.4632C329.293 48.7063 327.524 48.5083 325.817 48.8942C324.11 49.28 322.541 50.2324 321.311 51.6309C320.08 53.0295 319.242 54.8113 318.902 56.7511C318.563 58.6909 318.737 60.7016 319.403 62.5288C320.069 64.3561 321.197 65.9179 322.644 67.0167C324.091 68.1155 325.793 68.702 327.533 68.702C329.866 68.6991 332.103 67.6446 333.753 65.7698C335.403 63.8951 336.331 61.3533 336.333 58.702ZM321.667 58.702H324.6C324.601 57.8183 324.91 56.971 325.46 56.3461C326.01 55.7212 326.756 55.3697 327.533 55.3687V52.0353C325.978 52.0373 324.487 52.7403 323.387 53.9902C322.287 55.24 321.668 56.9345 321.667 58.702ZM340.733 -4.63129H343.667C343.664 -7.28256 342.736 -9.8244 341.086 -11.6991C339.437 -13.5739 337.2 -14.6284 334.867 -14.6313V-11.298C336.422 -11.296 337.913 -10.593 339.013 -9.34314C340.113 -8.09333 340.732 -6.39879 340.733 -4.63129Z" fill="black" fill-opacity="0.06"/>
</g>
</svg>
