<svg width="344" height="142" viewBox="0 0 344 142" fill="none" xmlns="http://www.w3.org/2000/svg">
<path d="M0 18C0 8.05887 8.05887 0 18 0H326.005C335.946 0 344.005 8.05888 344.005 18V141.747H0V18Z" fill="white"/>
<mask id="mask0_40000022_4310" style="mask-type:alpha" maskUnits="userSpaceOnUse" x="0" y="0" width="345" height="142">
<path d="M0 18C0 8.05887 8.05887 0 18 0H326.005C335.946 0 344.005 8.05888 344.005 18V141.747H0V18Z" fill="white"/>
</mask>
<g mask="url(#mask0_40000022_4310)">
<path fill-rule="evenodd" clip-rule="evenodd" d="M188.431 42.7007C180.672 42.7007 174.359 49.0122 174.359 56.7719C174.359 57.4256 174.405 58.0698 174.492 58.7007H156.887C153.968 58.7007 151.592 61.0755 151.592 63.9951V77.6268C151.592 78.4007 151.76 79.1342 152.059 79.7976C146.932 80.8899 143.166 85.4685 143.166 90.792C143.166 96.9919 148.21 102.037 154.41 102.037C160.611 102.037 165.653 96.9919 165.653 90.792C165.653 87.8023 164.501 85.0112 162.443 82.9223H170.524L179.341 90.174C179.452 90.2651 179.588 90.3112 179.726 90.3112C179.814 90.3112 179.903 90.2929 179.985 90.2543C180.195 90.1535 180.331 89.9406 180.331 89.7059V82.9223H183.692C186.612 82.9223 188.987 80.5465 188.987 77.6268V70.8317C196.49 70.5378 202.502 64.3436 202.502 56.7719C202.502 49.0122 196.19 42.7007 188.431 42.7007H188.431ZM160.524 92.0768C160.858 92.0768 161.129 92.3478 161.129 92.6821C161.129 93.0165 160.858 93.2875 160.524 93.2875H156.489L155.855 97.008C155.805 97.3034 155.548 97.5113 155.259 97.5113C155.225 97.5113 155.191 97.509 155.156 97.5029C154.826 97.4477 154.605 97.1338 154.661 96.804L155.261 93.2875H152.708L152.074 97.008C152.025 97.3034 151.768 97.5113 151.478 97.5113C151.444 97.5113 151.411 97.509 151.375 97.5029C151.046 97.4477 150.824 97.1338 150.881 96.804L151.481 93.2875H148.297C147.962 93.2875 147.692 93.0163 147.692 92.6821C147.692 92.3479 147.962 92.0768 148.297 92.0768H151.686L152.125 89.5073H148.297C147.962 89.5073 147.692 89.2374 147.692 88.9019C147.692 88.5665 147.962 88.296 148.297 88.296H152.332L152.965 84.5773C153.022 84.247 153.335 84.0255 153.664 84.0824C153.993 84.1376 154.216 84.4503 154.16 84.7812L153.56 88.2961H156.111L156.746 84.5774C156.803 84.2471 157.115 84.0256 157.444 84.0825C157.774 84.1378 157.996 84.4504 157.94 84.7814L157.341 88.2962H160.524C160.858 88.2962 161.129 88.5678 161.129 88.9022C161.129 89.2365 160.858 89.5075 160.524 89.5075H157.133L156.695 92.077H160.524L160.524 92.0768ZM187.776 77.6268C187.776 79.8791 185.944 81.7112 183.693 81.7112H179.726C179.391 81.7112 179.12 81.9828 179.12 82.3165V88.4247L171.124 81.8494C171.016 81.7595 170.881 81.711 170.74 81.711H156.887C154.635 81.711 152.803 79.879 152.803 77.6267V63.995C152.803 61.7427 154.635 59.9119 156.887 59.9119H174.713C175.144 61.7934 175.952 63.5338 177.055 65.0462H158.906C158.571 65.0462 158.301 65.3174 158.301 65.6516C158.301 65.9858 158.571 66.2569 158.906 66.2569H178.046C180.483 68.9232 183.93 70.6505 187.776 70.827V77.6265V77.6268ZM188.431 69.6319C181.339 69.6319 175.569 63.8631 175.569 56.772C175.569 49.6809 181.339 43.9121 188.431 43.9121C195.524 43.9121 201.291 49.6809 201.291 56.772C201.291 63.8631 195.522 69.6319 188.431 69.6319ZM151.003 42.7007C146.682 42.7007 143.166 46.216 143.166 50.5379C143.166 54.8597 146.682 58.3751 151.003 58.3751C155.325 58.3751 158.841 54.8596 158.841 50.5379C158.841 46.2162 155.325 42.7007 151.003 42.7007ZM154.027 51.6244C153.452 52.3942 152.743 53.1127 152.066 53.7938C151.864 53.9969 151.659 54.1999 151.465 54.4104C151.346 54.5394 151.179 54.6138 151.003 54.6138C150.828 54.6138 150.661 54.5387 150.543 54.4103C150.349 54.1997 150.143 53.997 149.941 53.7938C149.264 53.1127 148.555 52.3944 147.98 51.6247C147.633 51.1596 147.188 50.4739 147.188 49.871C147.188 48.6826 148.077 47.5867 149.307 47.5867C149.851 47.5867 150.363 47.8147 150.747 48.1968L151.003 48.4517L151.26 48.1968C151.644 47.8147 152.156 47.5867 152.7 47.5867C153.93 47.5867 154.819 48.682 154.819 49.871C154.819 50.4738 154.374 51.1593 154.027 51.6244ZM155.906 89.5073L155.467 92.0768H152.916L153.353 89.5073H155.906ZM190.197 82.9549C185.875 82.9549 182.36 86.4715 182.36 90.7921C182.36 95.1127 185.875 98.6304 190.197 98.6304C194.518 98.6304 198.034 95.1138 198.034 90.7921C198.034 86.4704 194.519 82.9549 190.197 82.9549ZM194.357 91.3974H190.802V94.9526C190.802 95.2869 190.531 95.558 190.197 95.558C189.863 95.558 189.592 95.2869 189.592 94.9526V91.3974H186.036C185.702 91.3974 185.431 91.1275 185.431 90.7921C185.431 90.4567 185.702 90.1868 186.036 90.1868H189.592V86.6326C189.592 86.2972 189.863 86.0267 190.197 86.0267C190.531 86.0267 190.802 86.2972 190.802 86.6326V90.1868H194.357C194.692 90.1868 194.963 90.4578 194.963 90.7921C194.963 91.1264 194.692 91.3974 194.357 91.3974ZM182.279 70.8119C182.279 71.1456 182.008 71.4166 181.675 71.4166H158.906C158.571 71.4166 158.301 71.1456 158.301 70.8119C158.301 70.4781 158.571 70.2059 158.906 70.2059H181.674C182.008 70.2059 182.279 70.477 182.279 70.8119H182.279ZM171.346 75.9713C171.346 76.3057 171.075 76.5767 170.741 76.5767H158.906C158.571 76.5767 158.301 76.3055 158.301 75.9713C158.301 75.6371 158.571 75.366 158.906 75.366H170.741C171.075 75.366 171.346 75.6359 171.346 75.9713ZM198.087 53.707C198.087 52.5943 197.181 51.6894 196.069 51.6894H190.985C190.429 50.5754 190.572 50.0646 190.763 49.3779C190.907 48.8562 191.072 48.2652 190.968 47.4092C190.858 46.515 190.38 45.654 189.749 45.2143C189.307 44.9074 188.812 44.8066 188.319 44.9228C187.911 45.0195 186.958 45.4341 186.892 47.1967C186.854 48.2297 186.048 49.8538 185.414 50.4603C185.243 50.6237 185.073 50.77 184.894 50.9256C184.506 51.2621 184.111 51.6062 183.715 52.1072C183.377 51.8344 182.948 51.6699 182.479 51.6699H180.751C179.661 51.6699 178.774 52.5577 178.774 53.6477V62.2268C178.774 62.7536 178.98 63.2502 179.354 63.6244C179.728 63.9973 180.223 64.2034 180.751 64.2034H182.479C183.124 64.2034 183.694 63.8931 184.056 63.4164C185.006 64.2023 186.313 64.2034 187.33 64.2034H193.919C195.032 64.2034 195.936 63.2974 195.936 62.1847C195.936 61.7923 195.824 61.425 195.63 61.1152C196.24 60.7678 196.653 60.1106 196.653 59.3583C196.653 58.978 196.548 58.622 196.364 58.3167C197.004 57.979 197.439 57.3059 197.439 56.5331C197.439 56.1277 197.319 55.7495 197.114 55.4334C197.697 55.0799 198.087 54.4381 198.087 53.7068V53.707ZM196.069 54.5145H195.422C195.087 54.5145 194.816 54.7861 194.816 55.1204C194.816 55.4548 195.087 55.7258 195.422 55.7258C195.867 55.7258 196.229 56.0874 196.229 56.5332C196.229 56.9791 195.867 57.3407 195.422 57.3407H194.636C194.301 57.3407 194.03 57.6106 194.03 57.9466C194.03 58.2808 194.3 58.552 194.636 58.552C195.081 58.552 195.443 58.9136 195.443 59.3583C195.443 59.8031 195.081 60.1658 194.636 60.1658H193.919C193.583 60.1658 193.313 60.4374 193.313 60.7711C193.313 61.1049 193.583 61.3771 193.919 61.3771C194.364 61.3771 194.726 61.7387 194.726 62.1845C194.726 62.6304 194.364 62.9921 193.919 62.9921H187.331C185.943 62.9921 184.983 62.9209 184.457 62.0394V53.6478C184.457 53.4997 184.44 53.3562 184.409 53.2178C184.814 52.5988 185.222 52.244 185.687 51.8408C185.869 51.6826 186.058 51.5203 186.25 51.3362C187.083 50.5402 188.052 48.6199 188.103 47.2417C188.114 46.9319 188.185 46.199 188.597 46.101C188.695 46.0782 188.849 46.0645 189.056 46.2093C189.407 46.4524 189.698 47.0071 189.766 47.5556C189.842 48.1729 189.722 48.6005 189.596 49.0533C189.439 49.6216 189.266 50.2412 189.492 51.1472C189.307 51.0248 189.061 51.01 188.856 51.1278C188.567 51.2947 188.467 51.6654 188.635 51.9547C188.986 52.5652 189.537 52.9007 190.186 52.9007H196.069C196.515 52.9007 196.876 53.2628 196.876 53.707C196.876 54.1512 196.514 54.5145 196.069 54.5145Z" fill="black"/>
<g opacity="0.06">
<path fill-rule="evenodd" clip-rule="evenodd" d="M333.776 5.13208C323.194 5.13208 314.585 13.7392 314.585 24.3213C314.585 25.2127 314.648 26.0912 314.767 26.9516H290.759C286.778 26.9516 283.537 30.1901 283.537 34.1717V52.7614C283.537 53.8168 283.767 54.8171 284.175 55.7219C277.183 57.2114 272.047 63.4553 272.047 70.7151C272.047 79.17 278.925 86.0499 287.38 86.0499C295.836 86.0499 302.713 79.17 302.713 70.7151C302.713 66.638 301.141 62.8317 298.335 59.9831H309.355L321.379 69.8724C321.531 69.9965 321.716 70.0595 321.904 70.0595C322.024 70.0595 322.145 70.0345 322.257 69.9818C322.544 69.8443 322.729 69.554 322.729 69.2339V59.9831H327.313C331.295 59.9831 334.533 56.7431 334.533 52.7614V43.4949C344.765 43.0941 352.964 34.647 352.964 24.3213C352.964 13.7392 344.356 5.13208 333.775 5.13208H333.776ZM295.718 72.4672C296.174 72.4672 296.544 72.8367 296.544 73.2927C296.544 73.7486 296.174 74.1182 295.718 74.1182H290.216L289.351 79.1919C289.282 79.5948 288.933 79.8784 288.537 79.8784C288.492 79.8784 288.445 79.8753 288.398 79.8668C287.948 79.7915 287.646 79.3635 287.722 78.9138L288.541 74.1182H285.06L284.195 79.1919C284.127 79.5948 283.777 79.8784 283.382 79.8784C283.336 79.8784 283.29 79.8753 283.242 79.8668C282.792 79.7915 282.49 79.3635 282.568 78.9138L283.386 74.1182H279.044C278.587 74.1182 278.219 73.7485 278.219 73.2927C278.219 72.8369 278.587 72.4672 279.044 72.4672H283.666L284.264 68.9631H279.044C278.587 68.9631 278.219 68.595 278.219 68.1376C278.219 67.6802 278.587 67.3112 279.044 67.3112H284.547L285.41 62.24C285.488 61.7895 285.914 61.4875 286.363 61.5651C286.812 61.6404 287.116 62.0668 287.039 62.5181L286.221 67.3114H289.7L290.565 62.2402C290.643 61.7897 291.069 61.4877 291.518 61.5653C291.968 61.6406 292.27 62.067 292.194 62.5183L291.377 67.3116H295.718C296.174 67.3116 296.544 67.682 296.544 68.1379C296.544 68.5939 296.174 68.9634 295.718 68.9634H291.094L290.496 72.4675H295.718L295.718 72.4672ZM332.882 52.7614C332.882 55.833 330.383 58.3314 327.313 58.3314H321.904C321.448 58.3314 321.078 58.7018 321.078 59.1569V67.4868L310.174 58.52C310.027 58.3973 309.842 58.3312 309.65 58.3312H290.759C287.687 58.3312 285.189 55.8328 285.189 52.7613V34.1716C285.189 31.1 287.687 28.6033 290.759 28.6033H315.067C315.655 31.1692 316.758 33.5425 318.262 35.6051H293.512C293.054 35.6051 292.686 35.9749 292.686 36.4306C292.686 36.8864 293.054 37.2562 293.512 37.2562H319.613C322.936 40.8922 327.637 43.2477 332.882 43.4885V52.7611V52.7614ZM333.776 41.8587C324.104 41.8587 316.236 33.9917 316.236 24.3214C316.236 14.6511 324.104 6.78412 333.776 6.78412C343.448 6.78412 351.313 14.6511 351.313 24.3214C351.313 33.9917 343.446 41.8587 333.776 41.8587ZM282.735 5.13208C276.841 5.13208 272.047 9.92603 272.047 15.8198C272.047 21.7136 276.841 26.5075 282.735 26.5075C288.628 26.5075 293.422 21.7134 293.422 15.8198C293.422 9.9262 288.628 5.13208 282.735 5.13208ZM286.858 17.3016C286.074 18.3514 285.106 19.3311 284.183 20.26C283.908 20.537 283.628 20.8137 283.364 21.1009C283.202 21.2768 282.974 21.3782 282.735 21.3782C282.496 21.3782 282.268 21.2758 282.107 21.1007C281.842 20.8136 281.561 20.5371 281.286 20.26C280.363 19.3311 279.395 18.3515 278.611 17.3019C278.138 16.6676 277.531 15.7326 277.531 14.9104C277.531 13.2897 278.744 11.7952 280.421 11.7952C281.163 11.7952 281.861 12.1062 282.385 12.6272L282.735 12.9748L283.084 12.6272C283.608 12.1062 284.306 11.7952 285.048 11.7952C286.726 11.7952 287.938 13.2889 287.938 14.9104C287.938 15.7324 287.332 16.6673 286.858 17.3016ZM289.42 68.9631L288.822 72.4672H285.343L285.938 68.9631H289.42ZM336.183 60.0275C330.29 60.0275 325.496 64.8231 325.496 70.7152C325.496 76.6073 330.29 81.4044 336.183 81.4044C342.077 81.4044 346.871 76.6088 346.871 70.7152C346.871 64.8216 342.077 60.0275 336.183 60.0275ZM341.857 71.5407H337.009V76.389C337.009 76.8448 336.639 77.2145 336.184 77.2145C335.728 77.2145 335.358 76.8448 335.358 76.389V71.5407H330.51C330.054 71.5407 329.684 71.1727 329.684 70.7152C329.684 70.2578 330.054 69.8897 330.51 69.8897H335.358V65.0429C335.358 64.5855 335.728 64.2166 336.184 64.2166C336.639 64.2166 337.009 64.5855 337.009 65.0429V69.8897H341.857C342.313 69.8897 342.683 70.2593 342.683 70.7152C342.683 71.1712 342.313 71.5407 341.857 71.5407ZM325.386 43.4678C325.386 43.9229 325.017 44.2925 324.562 44.2925H293.512C293.054 44.2925 292.686 43.9229 292.686 43.4678C292.686 43.0127 293.054 42.6415 293.512 42.6415H324.561C325.016 42.6415 325.386 43.0112 325.386 43.4678H325.386ZM310.476 50.5038C310.476 50.9598 310.106 51.3294 309.651 51.3294H293.512C293.055 51.3294 292.686 50.9596 292.686 50.5038C292.686 50.0481 293.055 49.6783 293.512 49.6783H309.651C310.107 49.6783 310.476 50.0464 310.476 50.5038ZM346.944 20.1416C346.944 18.6242 345.708 17.3901 344.191 17.3901H337.258C336.5 15.871 336.695 15.1744 336.956 14.2379C337.152 13.5265 337.377 12.7205 337.236 11.5531C337.085 10.3338 336.433 9.15963 335.572 8.56001C334.97 8.14139 334.296 8.00399 333.622 8.16236C333.067 8.2943 331.766 8.85973 331.677 11.2633C331.625 12.6721 330.526 14.8869 329.661 15.7139C329.428 15.9369 329.196 16.1364 328.951 16.3486C328.423 16.8075 327.884 17.2766 327.345 17.96C326.883 17.5879 326.298 17.3635 325.659 17.3635H323.302C321.816 17.3635 320.606 18.5743 320.606 20.0607V31.7602C320.606 32.4786 320.886 33.1558 321.397 33.6661C321.907 34.1747 322.582 34.4558 323.302 34.4558H325.659C326.538 34.4558 327.315 34.0325 327.809 33.3825C329.105 34.4543 330.888 34.4558 332.275 34.4558H341.26C342.777 34.4558 344.011 33.2202 344.011 31.7027C344.011 31.1677 343.857 30.6668 343.593 30.2443C344.425 29.7705 344.988 28.8743 344.988 27.8484C344.988 27.3297 344.845 26.8442 344.594 26.4279C345.466 25.9673 346.06 25.0495 346.06 23.9956C346.06 23.4427 345.896 22.927 345.616 22.496C346.412 22.0138 346.944 21.1386 346.944 20.1413V20.1416ZM344.191 21.2428H343.309C342.852 21.2428 342.483 21.6132 342.483 22.0691C342.483 22.525 342.852 22.8946 343.309 22.8946C343.915 22.8946 344.409 23.3877 344.409 23.9958C344.409 24.6038 343.915 25.0969 343.309 25.0969H342.238C341.78 25.0969 341.411 25.465 341.411 25.9233C341.411 26.379 341.78 26.7488 342.238 26.7488C342.844 26.7488 343.337 27.2419 343.337 27.8484C343.337 28.455 342.844 28.9496 342.238 28.9496H341.26C340.802 28.9496 340.434 29.32 340.434 29.7751C340.434 30.2302 340.802 30.6014 341.26 30.6014C341.866 30.6014 342.36 31.0945 342.36 31.7026C342.36 32.3106 341.866 32.8039 341.26 32.8039H332.275C330.382 32.8039 329.073 32.7068 328.356 31.5046V20.0609C328.356 19.8589 328.333 19.6632 328.29 19.4745C328.843 18.6303 329.4 18.1464 330.033 17.5967C330.281 17.3808 330.539 17.1596 330.802 16.9085C331.938 15.8229 333.259 13.2042 333.329 11.3247C333.343 10.9023 333.44 9.90274 334.002 9.76915C334.135 9.7381 334.345 9.71944 334.628 9.91678C335.106 10.2484 335.503 11.0049 335.595 11.7528C335.7 12.5947 335.537 13.1778 335.364 13.7952C335.15 14.5702 334.914 15.4152 335.222 16.6508C334.97 16.4838 334.634 16.4637 334.355 16.6243C333.961 16.8519 333.825 17.3574 334.053 17.7519C334.532 18.5845 335.283 19.042 336.169 19.042H344.191C344.799 19.042 345.292 19.5359 345.292 20.1416C345.292 20.7473 344.799 21.2428 344.191 21.2428Z" fill="black"/>
</g>
</g>
</svg>
