<svg width="344" height="142" viewBox="0 0 344 142" fill="none" xmlns="http://www.w3.org/2000/svg">
<path d="M0 18C0 8.05887 8.05887 0 18 0H326.005C335.946 0 344.005 8.05888 344.005 18V141.747H0V18Z" fill="white"/>
<mask id="mask0_40000022_4308" style="mask-type:alpha" maskUnits="userSpaceOnUse" x="0" y="0" width="345" height="142">
<path d="M6.10352e-05 18C6.10352e-05 8.05887 8.05894 0 18.0001 0H326.005C335.946 0 344.005 8.05888 344.005 18V141.747H6.10352e-05V18Z" fill="white"/>
</mask>
<g mask="url(#mask0_40000022_4308)">
<g opacity="0.06">
<path d="M350.532 -4.76636H269.504C268.872 -4.76636 268.266 -4.51527 267.819 -4.06834C267.372 -3.62141 267.121 -3.01524 267.121 -2.38318V78.6447C267.121 79.2768 267.372 79.883 267.819 80.3299C268.266 80.7768 268.872 81.0279 269.504 81.0279H350.532C351.164 81.0279 351.77 80.7768 352.217 80.3299C352.664 79.883 352.915 79.2768 352.915 78.6447V-2.38318C352.915 -3.01524 352.664 -3.62141 352.217 -4.06834C351.77 -4.51527 351.164 -4.76636 350.532 -4.76636ZM298.102 4.76634C298.734 4.76634 299.34 5.01742 299.787 5.46436C300.234 5.91129 300.485 6.51746 300.485 7.14951C300.485 7.78157 300.234 8.38774 299.787 8.83467C299.34 9.2816 298.734 9.53269 298.102 9.53269C297.47 9.53269 296.864 9.2816 296.417 8.83467C295.97 8.38774 295.719 7.78157 295.719 7.14951C295.719 6.51746 295.97 5.91129 296.417 5.46436C296.864 5.01742 297.47 4.76634 298.102 4.76634ZM288.57 4.76634C289.202 4.76634 289.808 5.01742 290.255 5.46436C290.702 5.91129 290.953 6.51746 290.953 7.14951C290.953 7.78157 290.702 8.38774 290.255 8.83467C289.808 9.2816 289.202 9.53269 288.57 9.53269C287.938 9.53269 287.331 9.2816 286.884 8.83467C286.438 8.38774 286.186 7.78157 286.186 7.14951C286.186 6.51746 286.438 5.91129 286.884 5.46436C287.331 5.01742 287.938 4.76634 288.57 4.76634ZM279.037 4.76634C279.669 4.76634 280.275 5.01742 280.722 5.46436C281.169 5.91129 281.42 6.51746 281.42 7.14951C281.42 7.78157 281.169 8.38774 280.722 8.83467C280.275 9.2816 279.669 9.53269 279.037 9.53269C278.405 9.53269 277.799 9.2816 277.352 8.83467C276.905 8.38774 276.654 7.78157 276.654 7.14951C276.654 6.51746 276.905 5.91129 277.352 5.46436C277.799 5.01742 278.405 4.76634 279.037 4.76634ZM348.148 76.2616H271.888V19.0654C305.49 19.0654 303.512 19.3514 304.561 18.3743L313.378 9.53269H348.148V76.2616Z" fill="black"/>
<path d="M288.57 46.6865L287.855 45.9715C287.406 45.5259 286.799 45.2768 286.166 45.2791C285.534 45.2813 284.928 45.5347 284.482 45.9834C284.037 46.4322 283.788 47.0396 283.79 47.672C283.792 48.3044 284.046 48.91 284.494 49.3556L289.261 54.122C289.707 54.5658 290.311 54.815 290.941 54.815C291.57 54.815 292.174 54.5658 292.621 54.122L297.387 49.3556C297.609 49.135 297.786 48.8727 297.907 48.5838C298.028 48.295 298.091 47.9851 298.092 47.672C298.093 47.3588 298.032 47.0486 297.913 46.7588C297.795 46.4691 297.62 46.2056 297.399 45.9834C297.179 45.7612 296.916 45.5846 296.627 45.4638C296.339 45.3429 296.029 45.2802 295.716 45.2791C295.402 45.2779 295.092 45.3385 294.802 45.4573C294.513 45.5761 294.249 45.7509 294.027 45.9715L293.36 46.6388C293.535 43.4064 294.647 40.2948 296.56 37.6833C298.472 35.0719 301.104 33.0734 304.133 31.9315C307.162 30.7896 310.458 30.5537 313.618 31.2524C316.779 31.9512 319.668 33.5545 321.934 35.8668C322.39 36.2573 322.976 36.4613 323.576 36.4381C324.176 36.4149 324.745 36.1663 325.169 35.7419C325.593 35.3174 325.842 34.7485 325.865 34.1487C325.888 33.5489 325.684 32.9625 325.294 32.5066C322.36 29.523 318.618 27.4628 314.528 26.5796C310.438 25.6965 306.179 26.029 302.275 27.5361C298.372 29.0433 294.994 31.6594 292.559 35.0621C290.124 38.4648 288.737 42.5055 288.57 46.6865Z" fill="black"/>
<path d="M326.009 49.3554L326.652 48.712C326.469 51.923 325.362 55.0126 323.464 57.609C321.566 60.2053 318.958 62.1975 315.953 63.3458C312.949 64.4941 309.677 64.7495 306.531 64.0813C303.385 63.413 300.499 61.8496 298.221 59.5792C297.765 59.1888 297.179 58.9848 296.579 59.008C295.979 59.0311 295.411 59.2798 294.986 59.7042C294.562 60.1286 294.313 60.6976 294.29 61.2974C294.267 61.8972 294.471 62.4836 294.861 62.9395C297.81 65.8907 301.555 67.918 305.638 68.7731C309.721 69.6282 313.965 69.2741 317.85 67.754C321.734 66.2339 325.092 63.6139 327.51 60.2149C329.929 56.8158 331.304 52.7852 331.466 48.6166C332.229 49.3793 332.753 50.0466 333.85 50.0466C334.323 50.0493 334.786 49.911 335.181 49.6494C335.575 49.3877 335.883 49.0145 336.064 48.5773C336.246 48.1401 336.293 47.6588 336.2 47.1947C336.107 46.7305 335.878 46.3047 335.542 45.9713L330.775 41.205C330.329 40.7611 329.725 40.512 329.095 40.512C328.466 40.512 327.862 40.7611 327.415 41.205L322.649 45.9713C322.427 46.192 322.25 46.4542 322.129 46.7431C322.008 47.032 321.945 47.3418 321.944 47.6549C321.943 47.9681 322.004 48.2784 322.123 48.5681C322.241 48.8578 322.416 49.1213 322.637 49.3435C322.857 49.5657 323.12 49.7423 323.409 49.8631C323.697 49.984 324.007 50.0468 324.32 50.0479C324.634 50.049 324.944 49.9884 325.234 49.8696C325.523 49.7508 325.787 49.5761 326.009 49.3554Z" fill="black"/>
</g>
</g>
<path d="M202.382 38.269H143.325C142.864 38.269 142.423 38.452 142.097 38.7778C141.771 39.1035 141.588 39.5453 141.588 40.006V99.0633C141.588 99.524 141.771 99.9658 142.097 100.292C142.423 100.617 142.864 100.8 143.325 100.8H202.382C202.843 100.8 203.285 100.617 203.611 100.292C203.936 99.9658 204.119 99.524 204.119 99.0633V40.006C204.119 39.5453 203.936 39.1035 203.611 38.7778C203.285 38.452 202.843 38.269 202.382 38.269ZM164.169 45.217C164.63 45.217 165.071 45.4 165.397 45.7257C165.723 46.0515 165.906 46.4933 165.906 46.9539C165.906 47.4146 165.723 47.8564 165.397 48.1822C165.071 48.5079 164.63 48.6909 164.169 48.6909C163.708 48.6909 163.266 48.5079 162.941 48.1822C162.615 47.8564 162.432 47.4146 162.432 46.9539C162.432 46.4933 162.615 46.0515 162.941 45.7257C163.266 45.4 163.708 45.217 164.169 45.217ZM157.221 45.217C157.682 45.217 158.123 45.4 158.449 45.7257C158.775 46.0515 158.958 46.4933 158.958 46.9539C158.958 47.4146 158.775 47.8564 158.449 48.1822C158.123 48.5079 157.682 48.6909 157.221 48.6909C156.76 48.6909 156.318 48.5079 155.993 48.1822C155.667 47.8564 155.484 47.4146 155.484 46.9539C155.484 46.4933 155.667 46.0515 155.993 45.7257C156.318 45.4 156.76 45.217 157.221 45.217ZM150.273 45.217C150.734 45.217 151.176 45.4 151.501 45.7257C151.827 46.0515 152.01 46.4933 152.01 46.9539C152.01 47.4146 151.827 47.8564 151.501 48.1822C151.176 48.5079 150.734 48.6909 150.273 48.6909C149.812 48.6909 149.371 48.5079 149.045 48.1822C148.719 47.8564 148.536 47.4146 148.536 46.9539C148.536 46.4933 148.719 46.0515 149.045 45.7257C149.371 45.4 149.812 45.217 150.273 45.217ZM200.645 97.3263H145.062V55.6388C169.553 55.6388 168.112 55.8473 168.876 55.1351L175.303 48.6909H200.645V97.3263Z" fill="black"/>
<path d="M157.221 75.7705L156.7 75.2494C156.373 74.9246 155.93 74.7431 155.469 74.7447C155.008 74.7463 154.567 74.931 154.242 75.2581C153.917 75.5852 153.736 76.0279 153.737 76.4888C153.739 76.9497 153.924 77.3911 154.251 77.7159L157.725 81.1899C158.05 81.5134 158.49 81.695 158.949 81.695C159.408 81.695 159.848 81.5134 160.174 81.1899L163.648 77.7159C163.81 77.5551 163.938 77.3639 164.026 77.1534C164.115 76.9428 164.16 76.717 164.161 76.4888C164.162 76.2606 164.118 76.0344 164.031 75.8232C163.945 75.6121 163.817 75.42 163.656 75.2581C163.496 75.0961 163.304 74.9674 163.094 74.8793C162.883 74.7913 162.658 74.7455 162.429 74.7447C162.201 74.7439 161.975 74.788 161.764 74.8746C161.553 74.9612 161.361 75.0886 161.199 75.2494L160.712 75.7357C160.84 73.3798 161.65 71.1119 163.044 69.2086C164.439 67.3052 166.357 65.8486 168.564 65.0163C170.772 64.184 173.174 64.0121 175.478 64.5214C177.782 65.0307 179.887 66.1992 181.539 67.8846C181.871 68.1692 182.298 68.3179 182.736 68.301C183.173 68.2841 183.587 68.1029 183.897 67.7935C184.206 67.4842 184.387 67.0695 184.404 66.6323C184.421 66.1952 184.272 65.7677 183.988 65.4355C181.849 63.2609 179.122 61.7593 176.141 61.1156C173.16 60.4719 170.055 60.7142 167.21 61.8128C164.365 62.9113 161.904 64.818 160.129 67.298C158.354 69.7781 157.343 72.7232 157.221 75.7705Z" fill="black"/>
<path d="M184.509 77.7158L184.978 77.2469C184.845 79.5872 184.038 81.8391 182.654 83.7314C181.271 85.6237 179.37 87.0758 177.18 87.9127C174.99 88.7497 172.606 88.9358 170.313 88.4488C168.02 87.9617 165.916 86.8222 164.256 85.1675C163.924 84.8829 163.496 84.7342 163.059 84.7511C162.622 84.768 162.207 84.9492 161.898 85.2586C161.589 85.5679 161.407 85.9826 161.39 86.4197C161.374 86.8569 161.522 87.2843 161.807 87.6166C163.956 89.7676 166.685 91.2452 169.661 91.8684C172.637 92.4917 175.731 92.2336 178.562 91.1257C181.394 90.0177 183.841 88.1082 185.603 85.6307C187.366 83.1533 188.368 80.2156 188.487 77.1774C189.043 77.7332 189.425 78.2196 190.224 78.2196C190.569 78.2216 190.907 78.1208 191.194 77.9301C191.482 77.7393 191.706 77.4673 191.838 77.1487C191.97 76.83 192.005 76.4792 191.937 76.141C191.869 75.8027 191.702 75.4923 191.457 75.2493L187.983 71.7754C187.658 71.4519 187.217 71.2703 186.759 71.2703C186.3 71.2703 185.859 71.4519 185.534 71.7754L182.06 75.2493C181.898 75.4101 181.769 75.6013 181.681 75.8118C181.593 76.0224 181.547 76.2482 181.547 76.4764C181.546 76.7047 181.59 76.9308 181.677 77.142C181.763 77.3532 181.891 77.5452 182.051 77.7071C182.212 77.8691 182.403 77.9978 182.614 78.0859C182.824 78.174 183.05 78.2197 183.278 78.2205C183.507 78.2213 183.733 78.1772 183.944 78.0906C184.155 78.004 184.347 77.8766 184.509 77.7158Z" fill="black"/>
</svg>
