<svg width="89" height="46" viewBox="0 0 89 46" fill="none" xmlns="http://www.w3.org/2000/svg">
<path d="M40.1698 13.5953L59.6489 43.9631C60.1294 44.7077 61.3218 44.7077 61.8024 43.9631L66.8568 36.0849L83.782 9.72826L88.8364 1.85007C89.308 1.10549 88.7029 0.176758 87.7508 0.176758H77.8466C77.3839 0.176758 76.9567 0.40894 76.7432 0.777229L71.5197 9.72826L61.8024 24.8521C61.3218 25.5967 60.1294 25.5967 59.6489 24.8521L55.3419 18.1269L51.7113 12.4664C51.4888 12.1221 51.0795 11.906 50.6346 11.906H41.2465C40.2855 11.906 39.6893 12.8347 40.1698 13.5873V13.5953Z" fill="#522E91"/>
<path d="M33.1687 1.73814L37.7098 8.70373C37.9155 9.02207 38.3096 9.22672 38.7294 9.22672H47.8203C48.7285 9.22672 49.294 8.36265 48.8399 7.66534L44.2902 0.699746C44.076 0.373826 43.6904 0.176758 43.2706 0.176758H34.1798C33.2715 0.176758 32.706 1.04082 33.1601 1.73814H33.1687Z" fill="#522E91"/>
<path d="M21.9294 9.52347L5.1784 35.8647L0.164567 43.7543C-0.30245 44.4904 0.279119 45.4106 1.22197 45.4106H34.5565C35.4905 45.4106 36.0809 44.4904 35.6139 43.7543L30.9525 36.4248C30.7322 36.0807 30.3357 35.8727 29.8951 35.8727H19.4268C18.4928 35.8727 17.9024 34.9525 18.3694 34.2164L26.9432 20.7337C27.4102 19.9975 28.5822 19.9975 29.0492 20.7337L33.3404 27.479L44.3991 44.8745C44.6194 45.2186 45.0159 45.4266 45.4565 45.4266H54.7792C55.7132 45.4266 56.3036 44.5064 55.8366 43.7703L29.0492 1.6339C28.5822 0.89775 27.4102 0.89775 26.9432 1.6339L21.9294 9.51546V9.52347Z" fill="url(#paint0_linear_2856_23006)"/>
<defs>
<linearGradient id="paint0_linear_2856_23006" x1="-0.00285399" y1="23.2462" x2="55.9952" y2="23.2462" gradientUnits="userSpaceOnUse">
<stop offset="1" stop-color="#FF0BA2"/>
</linearGradient>
</defs>
</svg>
