<svg width="73" height="73" viewBox="0 0 73 73" fill="none" xmlns="http://www.w3.org/2000/svg">
<circle cx="36.4489" cy="36.4488" r="36.4496" fill="#26BC8F"/>
<ellipse cx="26.9032" cy="39.9206" rx="2.60354" ry="3.47139" fill="#26BC8F"/>
<path d="M58.5075 32.5941C57.9485 32.0854 57.2804 31.6854 56.5443 31.419C55.8082 31.1525 55.0197 31.0251 54.2271 31.0447H41.3861V19.4235C41.4 18.7079 41.2545 17.997 40.9583 17.3334C40.662 16.6697 40.2212 16.0668 39.6619 15.5607C39.1027 15.0546 38.4365 14.6556 37.7032 14.3875C36.9698 14.1194 36.1843 13.9877 35.3936 14.0003C34.6028 13.9877 33.8173 14.1194 33.084 14.3875C32.3506 14.6556 31.6845 15.0546 31.1252 15.5607C30.566 16.0668 30.1251 16.6697 29.8289 17.3334C29.5326 17.997 29.3871 18.7079 29.4011 19.4235V28.3021C35.3422 32.4392 35.9843 37.599 34.683 43.9441C33.2191 51.0098 34.1951 54.1939 37.3283 58.6642C38.2314 58.4133 39.0499 57.9603 39.7082 57.3471C40.2651 56.8378 40.7036 56.2325 40.9977 55.5672C41.2918 54.9019 41.4355 54.1899 41.4203 53.4734V41.9685H54.2614C55.0598 41.9867 55.8536 41.8526 56.591 41.575C57.3285 41.2973 57.9931 40.8824 58.5418 40.3571C59.0983 39.8474 59.5365 39.2422 59.8306 38.5769C60.1246 37.9116 60.2686 37.1998 60.2539 36.4833C60.2667 35.7572 60.1128 35.0366 59.8019 34.3671C59.4909 33.6977 59.0298 33.0939 58.4476 32.5941H58.5075Z" fill="white"/>
<path fill-rule="evenodd" clip-rule="evenodd" d="M38.2353 32.4714C36.3691 29.3724 33.2187 27.2729 29.4092 25.4368C26.841 24.2204 24.0588 23.1125 21.131 21.9194C21.3396 24.9737 21.0833 28.0394 20.3691 31.0304C20.1465 32.0531 19.864 33.1609 19.513 34.478C18.7752 36.9385 18.8346 39.539 19.6842 41.9698C21.1652 45.7505 24.9405 47.9818 29.3835 49.5622C29.7773 49.7017 30.1711 49.8411 30.5735 49.9651C30.1711 49.7172 29.7688 49.4615 29.3835 49.1904C26.6059 47.4051 24.5115 44.8814 23.391 41.9698C22.9312 40.7661 22.5959 39.5263 22.3894 38.2665C24.1016 40.6914 25.8137 41.7838 27.2519 41.9698C27.5608 42.0163 27.8761 42.0163 28.185 41.9698C28.8448 41.8389 29.4506 41.5429 29.9334 41.1155C30.4163 40.6881 30.7567 40.1466 30.9159 39.5526C31.6778 37.3833 31.0957 34.1294 29.3835 31.0304C28.3164 29.0954 26.8655 27.3544 25.1032 25.8939C26.6133 26.5689 28.0469 27.3759 29.3835 28.3033C35.3247 32.4404 35.9667 37.6002 34.6655 43.9454C33.2016 51.011 34.1775 54.1952 37.3108 58.6654C37.5875 58.5908 37.8567 58.4949 38.1155 58.3788C34.2546 47.0986 43.7399 41.6676 38.2353 32.4714ZM28.4932 39.9399C28.0978 40.1446 27.6443 40.2385 27.1899 40.2098C26.7355 40.1812 26.3007 40.0312 25.9405 39.7789C25.5803 39.5266 25.3109 39.1833 25.1663 38.7924C25.0217 38.4016 25.0084 37.9806 25.1282 37.5829C25.2479 37.1852 25.4953 36.8286 25.839 36.5581C26.1827 36.2877 26.6074 36.1155 27.0592 36.0634C27.511 36.0114 27.9698 36.0818 28.3774 36.2657C28.785 36.4496 29.1233 36.7388 29.3493 37.0966C29.5005 37.3339 29.5983 37.596 29.6371 37.8677C29.6759 38.1393 29.6549 38.4153 29.5753 38.6796C29.4957 38.9439 29.3591 39.1913 29.1734 39.4076C28.9877 39.6239 28.7565 39.8048 28.4932 39.9399Z" fill="white"/>
</svg>
