<svg width="75" height="53" viewBox="0 0 75 53" fill="none" xmlns="http://www.w3.org/2000/svg">
<g clip-path="url(#clip0_2052_1995)">
<path d="M21.4446 28.6488C20.2325 28.6488 19.2077 28.6398 18.377 28.6264C17.3432 28.6085 16.3545 28.5435 15.411 28.4202C14.4652 28.3014 13.7451 28.2028 13.2485 28.1154C12.7474 28.028 12.2869 27.8195 11.8558 27.4744C11.4246 27.1337 11.1267 26.8558 10.9551 26.6317C10.7836 26.4098 10.6391 25.9638 10.5149 25.3004C10.3953 24.6326 10.3344 24.07 10.3344 23.6128V21.3873H19.7291L17.8962 13.6081H10.3321V8.8993H16.7834L14.8308 0.611328H0.75V18.523C0.75 20.7037 0.777087 22.3286 0.829004 23.3842C0.876407 24.4443 1.04796 25.8137 1.34366 27.5035C1.63259 29.1912 2.12693 30.453 2.81089 31.2912C3.49709 32.1294 4.4316 33.0057 5.61893 33.9268C6.80625 34.848 8.37054 35.4979 10.3073 35.8722C12.2508 36.2465 14.5622 36.4347 17.2416 36.4347H22.343V28.6555C22.0315 28.6555 21.7313 28.6555 21.4424 28.651L21.4446 28.6488Z" fill="white" fill-opacity="0.5"/>
<path d="M21.4453 28.6484C21.7342 28.6529 22.0345 28.6529 22.346 28.6529V32.4674L21.4453 28.6507V28.6484Z" fill="white" fill-opacity="0.5"/>
<path d="M35.8577 18.523C35.8577 22.6693 36.9525 26.4255 39.1149 29.7358C38.4039 32.1002 37.589 33.7543 36.6726 34.6933C35.5394 35.8543 33.7855 36.4347 31.4176 36.4347H25.542L21.9913 21.3895L20.1539 13.6103L19.041 8.90154L17.084 0.611328H26.5148L31.6208 25.5828L37.185 0.611328H45.9996C44.5053 1.51005 43.108 2.62617 41.8124 3.95745C37.8621 8.01179 35.8577 12.9111 35.8577 18.523Z" fill="white" fill-opacity="0.5"/>
<path d="M69.4188 5.47078C65.8614 1.82434 61.5229 0 56.4079 0C52.4216 0 48.9138 1.10491 45.8778 3.3125C45.0065 3.94228 44.1826 4.66171 43.3903 5.47078C39.8351 9.12394 38.0586 13.4719 38.0586 18.5213C38.0586 21.5021 38.6793 24.2364 39.9118 26.7286C40.7741 28.4611 41.9343 30.0747 43.388 31.5674C46.9455 35.2183 51.2817 37.0426 56.4057 37.0426C61.5297 37.0426 65.8591 35.2183 69.4166 31.5674C72.9718 27.9187 74.7482 23.5685 74.7482 18.5213C74.7482 13.4741 72.9718 9.12394 69.4166 5.47078H69.4188ZM62.9788 25.1777C61.173 27.0177 58.9835 27.9389 56.4079 27.9389C53.8324 27.9389 51.6383 27.0177 49.8325 25.1777C48.0312 23.3309 47.1306 21.1144 47.1306 18.5236C47.1306 15.9327 48.0312 13.7162 49.8325 11.8694C51.6383 10.0271 53.8279 9.10601 56.4079 9.10601C58.988 9.10601 61.1708 10.0271 62.9788 11.8694C64.7801 13.7162 65.6808 15.9327 65.6808 18.5236C65.6808 21.1144 64.7801 23.3332 62.9788 25.1777Z" fill="white" fill-opacity="0.5"/>
<path d="M8.75379 50.954V52.8344H1.69531V43.0762H8.68381V44.9409H3.88261V46.9467H8.26622V48.7576H3.88261V50.954H8.75379Z" fill="white" fill-opacity="0.5"/>
<path d="M16.7709 46.1172L13.9042 52.8341H12.1909L9.32422 46.1172H11.6199L13.069 50.2746L14.5159 46.1172H16.7709Z" fill="white" fill-opacity="0.5"/>
<path d="M20.6143 52.9868C19.9191 52.9868 19.2893 52.8322 18.7273 52.5229C18.1652 52.2136 17.7228 51.7923 17.3977 51.2589C17.0727 50.7255 16.9102 50.1248 16.9102 49.4614C16.9102 48.798 17.0727 48.2041 17.3977 47.6774C17.7228 47.153 18.1629 46.7361 18.7205 46.4268C19.278 46.1175 19.9078 45.9629 20.6143 45.9629C21.3209 45.9629 21.9506 46.1153 22.5082 46.4201C23.0657 46.7249 23.5059 47.1418 23.8309 47.6707C24.156 48.2019 24.3185 48.798 24.3185 49.4614C24.3185 50.1248 24.156 50.7232 23.8309 51.2589C23.5059 51.7923 23.0657 52.2159 22.5082 52.5229C21.9506 52.8322 21.3209 52.9868 20.6143 52.9868ZM20.6143 51.0661C20.9213 51.0661 21.1899 50.9989 21.4224 50.8666C21.6549 50.7322 21.8333 50.5439 21.9574 50.2996C22.0838 50.0553 22.1448 49.7774 22.1448 49.4637C22.1448 49.1499 22.0793 48.8765 21.9506 48.6411C21.8197 48.4058 21.6414 48.222 21.4134 48.0876C21.1854 47.9531 20.9191 47.8881 20.6121 47.8881C20.3051 47.8881 20.05 47.9553 19.8198 48.0876C19.5873 48.222 19.4067 48.408 19.2758 48.6479C19.1449 48.8877 19.0816 49.1633 19.0816 49.4771C19.0816 49.7909 19.1471 50.0553 19.2758 50.2996C19.4067 50.5439 19.5873 50.7322 19.8198 50.8666C20.0523 51.0011 20.3164 51.0661 20.6121 51.0661H20.6143Z" fill="white" fill-opacity="0.5"/>
<path d="M31.167 52.9868C30.3589 52.9868 29.6659 52.8546 29.0858 52.5924C28.5057 52.3302 27.9752 51.9312 27.4922 51.3978L28.912 50.0016C29.228 50.3601 29.5779 50.6403 29.9639 50.8375C30.3499 51.0347 30.7968 51.1356 31.307 51.1356C31.7697 51.1356 32.1309 51.0527 32.3859 50.8868C32.641 50.721 32.7697 50.4901 32.7697 50.1965C32.7697 49.9298 32.6862 49.7124 32.5191 49.5466C32.3521 49.3807 32.1309 49.2373 31.8577 49.1185C31.5846 48.9997 31.2821 48.8832 30.9526 48.7734C30.623 48.6636 30.2957 48.5358 29.9707 48.3924C29.6456 48.2489 29.3454 48.0696 29.0723 47.8522C28.7991 47.6371 28.5779 47.3637 28.4109 47.0364C28.2439 46.7092 28.1603 46.2968 28.1603 45.7993C28.1603 45.2009 28.3071 44.6854 28.5982 44.2506C28.8894 43.8158 29.2957 43.4886 29.8172 43.2622C30.3386 43.0359 30.9345 42.9238 31.614 42.9238C32.2934 42.9238 32.9299 43.0449 33.501 43.2824C34.0721 43.5222 34.5416 43.8494 34.9141 44.2641L33.4943 45.6603C33.1963 45.3555 32.8983 45.1314 32.5959 44.9835C32.2934 44.8356 31.9525 44.7616 31.5733 44.7616C31.1941 44.7616 30.8916 44.8333 30.6682 44.9768C30.4447 45.1202 30.3341 45.3242 30.3341 45.5909C30.3341 45.8396 30.4176 46.0391 30.5846 46.1915C30.7517 46.3439 30.9729 46.4739 31.246 46.586C31.5192 46.698 31.8216 46.8078 32.1512 46.9177C32.4807 47.0275 32.8081 47.1575 33.1331 47.3054C33.4581 47.4533 33.7561 47.6393 34.0315 47.8657C34.3046 48.092 34.5258 48.3767 34.6929 48.7218C34.8599 49.067 34.9434 49.4928 34.9434 49.9993C34.9434 50.9294 34.6094 51.66 33.9412 52.1912C33.273 52.7201 32.3498 52.9868 31.1715 52.9868H31.167Z" fill="white" fill-opacity="0.5"/>
<path d="M40.7565 46.117V47.9122H39.2238V52.8339H37.0952V47.9122H35.5625V46.117H37.0952V43.3379H39.2238V46.117H40.7565Z" fill="white" fill-opacity="0.5"/>
<path d="M44.6972 52.9868C44.0741 52.9868 43.5256 52.859 43.0471 52.6058C42.5686 52.3525 42.1961 52.0029 41.9275 51.5546C41.6589 51.1086 41.5234 50.5932 41.5234 50.0127V46.1152H43.6543V49.9858C43.6543 50.2166 43.6927 50.4139 43.7717 50.5797C43.8507 50.7456 43.9681 50.8756 44.1261 50.9674C44.2841 51.0593 44.4737 51.1064 44.6972 51.1064C45.0132 51.1064 45.2637 51.0078 45.4488 50.8083C45.6339 50.6111 45.7265 50.3354 45.7265 49.9858V46.1152H47.8573V49.9992C47.8573 50.5887 47.7219 51.1064 47.4533 51.5546C47.1847 52.0029 46.8122 52.3525 46.3404 52.6058C45.8687 52.859 45.3202 52.9868 44.6972 52.9868Z" fill="white" fill-opacity="0.5"/>
<path d="M53.8407 42.8008V46.5458C53.6872 46.4293 53.5179 46.3262 53.3328 46.241C52.9581 46.0662 52.5383 45.9788 52.0733 45.9788C51.4345 45.9788 50.8656 46.1312 50.369 46.436C49.8724 46.7386 49.4819 47.1532 49.1998 47.6776C48.9153 48.2043 48.7754 48.8027 48.7754 49.4751C48.7754 50.1474 48.9153 50.7481 49.1998 51.2725C49.4819 51.797 49.8724 52.2116 50.369 52.5164C50.8656 52.8212 51.4345 52.9736 52.0733 52.9736C52.5383 52.9736 52.9604 52.8772 53.3396 52.689C53.5405 52.5904 53.7233 52.4716 53.8836 52.3371V52.8347H55.9716V42.8008H53.8407ZM53.773 50.3043C53.6421 50.5441 53.466 50.7302 53.2425 50.8646C53.0213 50.9991 52.755 51.0641 52.4502 51.0641C52.1613 51.0641 51.9017 50.9969 51.6692 50.8579C51.439 50.719 51.2561 50.5307 51.1275 50.2909C50.9965 50.0511 50.9333 49.7799 50.9333 49.4751C50.9333 49.1703 50.9988 48.8991 51.1342 48.6593C51.2674 48.4195 51.4503 48.2312 51.676 48.0945C51.904 47.9556 52.1658 47.8861 52.4638 47.8861C52.7617 47.8861 53.0236 47.9556 53.2493 48.0945C53.4773 48.2312 53.6533 48.4172 53.7798 48.6526C53.9039 48.8879 53.9671 49.1636 53.9671 49.4751C53.9671 49.7866 53.9016 50.0645 53.773 50.3043Z" fill="white" fill-opacity="0.5"/>
<path d="M58.5463 45.193C58.2123 45.193 57.9369 45.0809 57.7179 44.8546C57.499 44.6282 57.3906 44.3548 57.3906 44.032C57.3906 43.7093 57.499 43.4247 57.7179 43.2028C57.9369 42.9809 58.2123 42.8711 58.5463 42.8711C58.8804 42.8711 59.1536 42.9809 59.368 43.2028C59.5802 43.4247 59.6885 43.7003 59.6885 44.032C59.6885 44.3637 59.5824 44.6282 59.368 44.8546C59.1536 45.0809 58.8804 45.193 58.5463 45.193ZM57.4741 52.8355V46.1186H59.605V52.8355H57.4741Z" fill="white" fill-opacity="0.5"/>
<path d="M64.3643 52.9868C63.6691 52.9868 63.0393 52.8322 62.4773 52.5229C61.9152 52.2136 61.4728 51.7923 61.1477 51.2589C60.8227 50.7255 60.6602 50.1248 60.6602 49.4614C60.6602 48.798 60.8227 48.2041 61.1477 47.6774C61.4728 47.153 61.9129 46.7361 62.4705 46.4268C63.028 46.1175 63.6578 45.9629 64.3643 45.9629C65.0709 45.9629 65.7006 46.1153 66.2582 46.4201C66.8157 46.7249 67.2559 47.1418 67.5809 47.6707C67.906 48.2019 68.0685 48.798 68.0685 49.4614C68.0685 50.1248 67.906 50.7232 67.5809 51.2589C67.2559 51.7923 66.8157 52.2159 66.2582 52.5229C65.7006 52.8322 65.0709 52.9868 64.3643 52.9868ZM64.3643 51.0661C64.6713 51.0661 64.9399 50.9989 65.1724 50.8666C65.4049 50.7322 65.5833 50.5439 65.7074 50.2996C65.8338 50.0553 65.8948 49.7774 65.8948 49.4637C65.8948 49.1499 65.8293 48.8765 65.7006 48.6411C65.5697 48.4058 65.3914 48.222 65.1634 48.0876C64.9354 47.9531 64.6691 47.8881 64.3621 47.8881C64.0551 47.8881 63.8 47.9553 63.5698 48.0876C63.3373 48.222 63.1567 48.408 63.0258 48.6479C62.8949 48.8877 62.8316 49.1633 62.8316 49.4771C62.8316 49.7909 62.8971 50.0553 63.0258 50.2996C63.1567 50.5439 63.3373 50.7322 63.5698 50.8666C63.8023 51.0011 64.0664 51.0661 64.3621 51.0661H64.3643Z" fill="white" fill-opacity="0.5"/>
<path d="M71.5902 52.9996C71.1907 52.9996 70.7979 52.9481 70.4142 52.8472C70.0304 52.7463 69.6715 52.6007 69.342 52.4124C69.0124 52.2241 68.7325 52.0045 68.5 51.7557L69.7122 50.5388C69.9356 50.7786 70.1997 50.9646 70.5067 51.0991C70.8137 51.2335 71.1478 51.2985 71.5089 51.2985C71.7595 51.2985 71.9514 51.2627 72.0868 51.1887C72.2222 51.1147 72.2877 51.0139 72.2877 50.8839C72.2877 50.7181 72.2064 50.5925 72.0439 50.5029C71.8814 50.4155 71.676 50.337 71.4254 50.2676C71.1749 50.1981 70.9108 50.1219 70.6309 50.039C70.351 49.956 70.0869 49.8417 69.8386 49.6938C69.588 49.5459 69.3848 49.342 69.2268 49.0797C69.0688 48.8175 68.9898 48.4836 68.9898 48.0779C68.9898 47.6454 69.1004 47.2688 69.3239 46.9506C69.5474 46.6323 69.8611 46.3813 70.2697 46.1975C70.6783 46.0138 71.1568 45.9219 71.7031 45.9219C72.2787 45.9219 72.8091 46.0205 73.2967 46.22C73.7843 46.4172 74.1815 46.7108 74.4863 47.0985L73.2741 48.3155C73.0597 48.0667 72.8227 47.8919 72.5563 47.791C72.2922 47.6902 72.0349 47.6386 71.7843 47.6386C71.5338 47.6386 71.3622 47.6723 71.2403 47.7417C71.1184 47.8112 71.0597 47.9098 71.0597 48.0398C71.0597 48.1788 71.1387 48.2886 71.2968 48.3715C71.4548 48.4544 71.6579 48.5284 71.9085 48.5934C72.159 48.6584 72.4231 48.7368 72.703 48.8287C72.9807 48.9206 73.247 49.0461 73.4953 49.203C73.7459 49.3599 73.949 49.5683 74.1071 49.8328C74.2651 50.095 74.3441 50.4379 74.3441 50.8615C74.3441 51.5159 74.0958 52.0359 73.5992 52.4236C73.1026 52.8113 72.4322 53.0041 71.5879 53.0041L71.5902 52.9996Z" fill="white" fill-opacity="0.5"/>
</g>
<defs>
<clipPath id="clip0_2052_1995">
<rect width="74" height="53" fill="white" transform="translate(0.75)"/>
</clipPath>
</defs>
</svg>
