<svg width="75" height="54" viewBox="0 0 75 54" fill="none" xmlns="http://www.w3.org/2000/svg">
<g clip-path="url(#clip0_268_5515)">
<path d="M21.1946 29.1493C19.9825 29.1493 18.9577 29.1403 18.127 29.1269C17.0932 29.1089 16.1045 29.0439 15.161 28.9207C14.2152 28.8019 13.4951 28.7033 12.9985 28.6159C12.4974 28.5285 12.0369 28.32 11.6058 27.9749C11.1746 27.6342 10.8767 27.3563 10.7051 27.1322C10.5336 26.9103 10.3891 26.4643 10.2649 25.8009C10.1453 25.133 10.0844 24.5705 10.0844 24.1133V21.8878H19.4791L17.6462 14.1086H10.0821V9.39979H16.5334L14.5808 1.11182H0.5V19.0235C0.5 21.2042 0.527087 22.8291 0.579004 23.8847C0.626407 24.9448 0.797959 26.3142 1.09366 28.004C1.38259 29.6917 1.87693 30.9535 2.56089 31.7917C3.24709 32.6299 4.1816 33.5062 5.36893 34.4273C6.55625 35.3485 8.12054 35.9984 10.0573 36.3727C12.0008 36.747 14.3122 36.9352 16.9916 36.9352H22.093V29.156C21.7815 29.156 21.4813 29.156 21.1924 29.1515L21.1946 29.1493Z" fill="#886CFF"/>
<path d="M21.1953 29.1494C21.4842 29.1539 21.7845 29.1539 22.096 29.1539V32.9684L21.1953 29.1517V29.1494Z" fill="#886CFF"/>
<path d="M35.6057 19.0235C35.6057 23.1698 36.7005 26.926 38.863 30.2363C38.1519 32.6007 37.3371 34.2547 36.4206 35.1938C35.2875 36.3548 33.5336 36.9352 31.1657 36.9352H25.29L21.7393 21.89L19.9019 14.1108L18.7891 9.40203L16.832 1.11182H26.2629L31.3688 26.0833L36.933 1.11182H45.7476C44.2533 2.01054 42.8561 3.12666 41.5604 4.45793C37.6102 8.51227 35.6057 13.4115 35.6057 19.0235Z" fill="#886CFF"/>
<path d="M69.1688 5.97078C65.6114 2.32434 61.2729 0.5 56.1579 0.5C52.1716 0.5 48.6638 1.60491 45.6278 3.8125C44.7565 4.44228 43.9326 5.16171 43.1403 5.97078C39.5851 9.62394 37.8086 13.9719 37.8086 19.0213C37.8086 22.0021 38.4293 24.7364 39.6618 27.2286C40.5241 28.9611 41.6843 30.5747 43.138 32.0674C46.6955 35.7183 51.0317 37.5426 56.1557 37.5426C61.2797 37.5426 65.6091 35.7183 69.1666 32.0674C72.7218 28.4187 74.4982 24.0685 74.4982 19.0213C74.4982 13.9741 72.7218 9.62394 69.1666 5.97078H69.1688ZM62.7288 25.6777C60.923 27.5177 58.7335 28.4389 56.1579 28.4389C53.5824 28.4389 51.3883 27.5177 49.5825 25.6777C47.7812 23.8309 46.8806 21.6144 46.8806 19.0236C46.8806 16.4327 47.7812 14.2162 49.5825 12.3694C51.3883 10.5271 53.5779 9.60601 56.1579 9.60601C58.738 9.60601 60.9208 10.5271 62.7288 12.3694C64.5301 14.2162 65.4308 16.4327 65.4308 19.0236C65.4308 21.6144 64.5301 23.8332 62.7288 25.6777Z" fill="#886CFF"/>
<path d="M8.50379 51.454V53.3344H1.44531V43.5762H8.43381V45.4409H3.63261V47.4467H8.01622V49.2576H3.63261V51.454H8.50379Z" fill="#2E3B5B"/>
<path d="M16.5209 46.6172L13.6542 53.3341H11.9409L9.07422 46.6172H11.3699L12.819 50.7746L14.2659 46.6172H16.5209Z" fill="#2E3B5B"/>
<path d="M20.3643 53.4863C19.6691 53.4863 19.0393 53.3317 18.4773 53.0224C17.9152 52.7131 17.4728 52.2918 17.1477 51.7584C16.8227 51.225 16.6602 50.6243 16.6602 49.9609C16.6602 49.2975 16.8227 48.7036 17.1477 48.1769C17.4728 47.6525 17.9129 47.2356 18.4705 46.9263C19.028 46.617 19.6578 46.4624 20.3643 46.4624C21.0709 46.4624 21.7006 46.6148 22.2582 46.9196C22.8157 47.2244 23.2559 47.6413 23.5809 48.1702C23.906 48.7014 24.0685 49.2975 24.0685 49.9609C24.0685 50.6243 23.906 51.2227 23.5809 51.7584C23.2559 52.2918 22.8157 52.7154 22.2582 53.0224C21.7006 53.3317 21.0709 53.4863 20.3643 53.4863ZM20.3643 51.5656C20.6713 51.5656 20.9399 51.4984 21.1724 51.3662C21.4049 51.2317 21.5833 51.0434 21.7074 50.7991C21.8338 50.5548 21.8948 50.2769 21.8948 49.9632C21.8948 49.6494 21.8293 49.376 21.7006 49.1406C21.5697 48.9053 21.3914 48.7215 21.1634 48.5871C20.9354 48.4526 20.6691 48.3876 20.3621 48.3876C20.0551 48.3876 19.8 48.4548 19.5698 48.5871C19.3373 48.7215 19.1567 48.9076 19.0258 49.1474C18.8949 49.3872 18.8316 49.6628 18.8316 49.9766C18.8316 50.2904 18.8971 50.5548 19.0258 50.7991C19.1567 51.0434 19.3373 51.2317 19.5698 51.3662C19.8023 51.5006 20.0664 51.5656 20.3621 51.5656H20.3643Z" fill="#2E3B5B"/>
<path d="M30.917 53.4863C30.1089 53.4863 29.4159 53.3541 28.8358 53.0919C28.2557 52.8297 27.7252 52.4307 27.2422 51.8973L28.662 50.5011C28.978 50.8597 29.3279 51.1398 29.7139 51.337C30.0999 51.5343 30.5468 51.6351 31.057 51.6351C31.5197 51.6351 31.8809 51.5522 32.1359 51.3863C32.391 51.2205 32.5197 50.9896 32.5197 50.696C32.5197 50.4293 32.4362 50.2119 32.2691 50.0461C32.1021 49.8803 31.8809 49.7368 31.6077 49.618C31.3346 49.4992 31.0321 49.3827 30.7026 49.2729C30.373 49.1631 30.0457 49.0353 29.7207 48.8919C29.3956 48.7484 29.0954 48.5691 28.8223 48.3517C28.5491 48.1366 28.3279 47.8632 28.1609 47.5359C27.9939 47.2087 27.9103 46.7964 27.9103 46.2988C27.9103 45.7004 28.0571 45.1849 28.3482 44.7501C28.6394 44.3153 29.0457 43.9881 29.5672 43.7618C30.0886 43.5354 30.6845 43.4233 31.364 43.4233C32.0434 43.4233 32.6799 43.5444 33.251 43.7819C33.8221 44.0217 34.2916 44.349 34.6641 44.7636L33.2443 46.1598C32.9463 45.855 32.6483 45.6309 32.3459 45.483C32.0434 45.3351 31.7025 45.2611 31.3233 45.2611C30.9441 45.2611 30.6416 45.3328 30.4182 45.4763C30.1947 45.6197 30.0841 45.8237 30.0841 46.0904C30.0841 46.3391 30.1676 46.5386 30.3346 46.691C30.5017 46.8434 30.7229 46.9734 30.996 47.0855C31.2692 47.1975 31.5716 47.3073 31.9012 47.4172C32.2307 47.527 32.5581 47.657 32.8831 47.8049C33.2081 47.9528 33.5061 48.1388 33.7815 48.3652C34.0546 48.5916 34.2758 48.8762 34.4429 49.2213C34.6099 49.5665 34.6934 49.9923 34.6934 50.4988C34.6934 51.4289 34.3594 52.1596 33.6912 52.6907C33.023 53.2196 32.0998 53.4863 30.9215 53.4863H30.917Z" fill="#2E3B5B"/>
<path d="M40.5065 46.6175V48.4127H38.9738V53.3344H36.8452V48.4127H35.3125V46.6175H36.8452V43.8384H38.9738V46.6175H40.5065Z" fill="#2E3B5B"/>
<path d="M44.4472 53.4868C43.8241 53.4868 43.2756 53.359 42.7971 53.1058C42.3186 52.8525 41.9461 52.5029 41.6775 52.0546C41.4089 51.6086 41.2734 51.0932 41.2734 50.5127V46.6152H43.4043V50.4858C43.4043 50.7166 43.4427 50.9139 43.5217 51.0797C43.6007 51.2456 43.7181 51.3756 43.8761 51.4674C44.0341 51.5593 44.2237 51.6064 44.4472 51.6064C44.7632 51.6064 45.0137 51.5078 45.1988 51.3083C45.3839 51.1111 45.4765 50.8354 45.4765 50.4858V46.6152H47.6073V50.4992C47.6073 51.0887 47.4719 51.6064 47.2033 52.0546C46.9347 52.5029 46.5622 52.8525 46.0904 53.1058C45.6187 53.359 45.0702 53.4868 44.4472 53.4868Z" fill="#2E3B5B"/>
<path d="M53.5887 43.3003V47.0453C53.4353 46.9288 53.266 46.8257 53.0809 46.7405C52.7062 46.5657 52.2863 46.4783 51.8213 46.4783C51.1825 46.4783 50.6137 46.6307 50.1171 46.9355C49.6205 47.2381 49.23 47.6527 48.9478 48.1772C48.6634 48.7038 48.5234 49.3022 48.5234 49.9746C48.5234 50.647 48.6634 51.2476 48.9478 51.772C49.23 52.2965 49.6205 52.7111 50.1171 53.0159C50.6137 53.3207 51.1825 53.4731 51.8213 53.4731C52.2863 53.4731 52.7084 53.3767 53.0876 53.1885C53.2885 53.0899 53.4714 52.9711 53.6316 52.8366V53.3342H55.7196V43.3003H53.5887ZM53.521 50.8038C53.3901 51.0437 53.214 51.2297 52.9906 51.3641C52.7694 51.4986 52.503 51.5636 52.1983 51.5636C51.9093 51.5636 51.6498 51.4964 51.4173 51.3574C51.187 51.2185 51.0042 51.0302 50.8755 50.7904C50.7446 50.5506 50.6814 50.2794 50.6814 49.9746C50.6814 49.6698 50.7468 49.3986 50.8823 49.1588C51.0155 48.919 51.1983 48.7307 51.424 48.594C51.652 48.4551 51.9139 48.3856 52.2118 48.3856C52.5098 48.3856 52.7716 48.4551 52.9973 48.594C53.2253 48.7307 53.4014 48.9168 53.5278 49.1521C53.6519 49.3874 53.7152 49.6631 53.7152 49.9746C53.7152 50.2861 53.6497 50.564 53.521 50.8038Z" fill="#2E3B5B"/>
<path d="M58.2963 45.6915C57.9623 45.6915 57.6869 45.5795 57.4679 45.3531C57.249 45.1267 57.1406 44.8533 57.1406 44.5306C57.1406 44.2078 57.249 43.9232 57.4679 43.7013C57.6869 43.4794 57.9623 43.3696 58.2963 43.3696C58.6304 43.3696 58.9036 43.4794 59.118 43.7013C59.3302 43.9232 59.4385 44.1989 59.4385 44.5306C59.4385 44.8623 59.3324 45.1267 59.118 45.3531C58.9036 45.5795 58.6304 45.6915 58.2963 45.6915ZM57.2241 53.334V46.6171H59.355V53.334H57.2241Z" fill="#2E3B5B"/>
<path d="M64.1143 53.4863C63.4191 53.4863 62.7893 53.3317 62.2273 53.0224C61.6652 52.7131 61.2228 52.2918 60.8977 51.7584C60.5727 51.225 60.4102 50.6243 60.4102 49.9609C60.4102 49.2975 60.5727 48.7036 60.8977 48.1769C61.2228 47.6525 61.6629 47.2356 62.2205 46.9263C62.778 46.617 63.4078 46.4624 64.1143 46.4624C64.8209 46.4624 65.4506 46.6148 66.0082 46.9196C66.5657 47.2244 67.0059 47.6413 67.3309 48.1702C67.656 48.7014 67.8185 49.2975 67.8185 49.9609C67.8185 50.6243 67.656 51.2227 67.3309 51.7584C67.0059 52.2918 66.5657 52.7154 66.0082 53.0224C65.4506 53.3317 64.8209 53.4863 64.1143 53.4863ZM64.1143 51.5656C64.4213 51.5656 64.6899 51.4984 64.9224 51.3662C65.1549 51.2317 65.3333 51.0434 65.4574 50.7991C65.5838 50.5548 65.6448 50.2769 65.6448 49.9632C65.6448 49.6494 65.5793 49.376 65.4506 49.1406C65.3197 48.9053 65.1414 48.7215 64.9134 48.5871C64.6854 48.4526 64.4191 48.3876 64.1121 48.3876C63.8051 48.3876 63.55 48.4548 63.3198 48.5871C63.0873 48.7215 62.9067 48.9076 62.7758 49.1474C62.6449 49.3872 62.5816 49.6628 62.5816 49.9766C62.5816 50.2904 62.6471 50.5548 62.7758 50.7991C62.9067 51.0434 63.0873 51.2317 63.3198 51.3662C63.5523 51.5006 63.8164 51.5656 64.1121 51.5656H64.1143Z" fill="#2E3B5B"/>
<path d="M71.3402 53.5001C70.9407 53.5001 70.5479 53.4485 70.1642 53.3477C69.7804 53.2468 69.4215 53.1012 69.092 52.9129C68.7624 52.7246 68.4825 52.505 68.25 52.2562L69.4622 51.0392C69.6856 51.2791 69.9497 51.4651 70.2567 51.5995C70.5637 51.734 70.8978 51.799 71.2589 51.799C71.5095 51.799 71.7014 51.7632 71.8368 51.6892C71.9722 51.6152 72.0377 51.5144 72.0377 51.3844C72.0377 51.2185 71.9564 51.093 71.7939 51.0034C71.6314 50.916 71.426 50.8375 71.1754 50.7681C70.9249 50.6986 70.6608 50.6224 70.3809 50.5395C70.101 50.4565 69.8369 50.3422 69.5886 50.1943C69.338 50.0464 69.1348 49.8424 68.9768 49.5802C68.8188 49.318 68.7398 48.9841 68.7398 48.5784C68.7398 48.1459 68.8504 47.7693 69.0739 47.4511C69.2974 47.1328 69.6111 46.8818 70.0197 46.698C70.4283 46.5143 70.9068 46.4224 71.4531 46.4224C72.0287 46.4224 72.5591 46.521 73.0467 46.7204C73.5343 46.9177 73.9315 47.2113 74.2363 47.599L73.0241 48.816C72.8097 48.5672 72.5727 48.3924 72.3063 48.2915C72.0422 48.1907 71.7849 48.1391 71.5343 48.1391C71.2838 48.1391 71.1122 48.1727 70.9903 48.2422C70.8684 48.3117 70.8097 48.4103 70.8097 48.5403C70.8097 48.6793 70.8887 48.7891 71.0468 48.872C71.2048 48.9549 71.4079 49.0289 71.6585 49.0939C71.909 49.1589 72.1731 49.2373 72.453 49.3292C72.7307 49.4211 72.997 49.5466 73.2453 49.7035C73.4959 49.8604 73.699 50.0688 73.8571 50.3333C74.0151 50.5955 74.0941 50.9384 74.0941 51.362C74.0941 52.0164 73.8458 52.5364 73.3492 52.9241C72.8526 53.3118 72.1822 53.5046 71.3379 53.5046L71.3402 53.5001Z" fill="#2E3B5B"/>
</g>
<defs>
<clipPath id="clip0_268_5515">
<rect width="74" height="53" fill="white" transform="translate(0.5 0.5)"/>
</clipPath>
</defs>
</svg>
