<svg width="75" height="59" viewBox="0 0 75 59" fill="none" xmlns="http://www.w3.org/2000/svg">
<g clip-path="url(#clip0_2052_2155)">
<path fill-rule="evenodd" clip-rule="evenodd" d="M71.3761 11.2337L63.2259 11.6551C62.8999 11.671 62.7043 12.029 62.8835 12.3073L64.2773 14.4067L60.3733 16.7926C58.8085 11.7187 55.5158 7.23344 50.911 4.1478C44.2115 -0.361379 35.7922 -1.23617 27.8214 1.73019C21.7413 3.9967 16.9571 8.73651 14.675 14.7249C12.5234 20.411 12.556 26.304 14.4305 31.5051L7.48658 35.0122C6.6797 35.4178 6.36185 36.3881 6.78566 37.1833C7.07908 37.732 7.65773 38.0502 8.24454 38.0502C8.50535 38.0502 8.75801 37.9945 9.00251 37.8751L15.7264 34.4794C17.9107 38.6307 21.3664 42.1459 25.8816 44.4839L29.1173 46.1539V30.9325C29.3211 30.7893 29.5166 30.6382 29.6796 30.4633L33.3228 32.5309C33.3553 33.7796 34.0156 34.8691 35.0017 35.5212V46.5914H39.4028V35.4735C40.3727 34.7895 41.0084 33.6842 41.0165 32.4355L45.3199 29.8032V46.146L48.5555 44.468C56.4775 40.3484 61.3921 32.3639 61.3921 23.616C61.3921 22.439 61.2942 21.2779 61.115 20.1407L66.0622 17.1107L67.3173 18.9955C67.4966 19.2659 67.9123 19.25 68.0589 18.9558L71.7674 11.854C71.9384 11.5597 71.7102 11.2178 71.3761 11.2337ZM24.7324 38.575C22.7112 36.9448 20.9588 34.8691 19.6875 32.4832L24.0233 30.2963C24.2353 30.5348 24.4716 30.7495 24.7406 30.9246V38.575H24.7324ZM26.933 29.8588C25.792 29.8588 24.8709 28.9602 24.8709 27.8468C24.8709 26.7335 25.792 25.8348 26.933 25.8348C28.074 25.8348 28.995 26.7335 28.995 27.8468C28.995 28.9522 28.0659 29.8588 26.933 29.8588ZM37.1778 34.4238C36.0367 34.4238 35.1158 33.5251 35.1158 32.4117C35.1158 31.2983 36.0367 30.3997 37.1778 30.3997C38.3188 30.3997 39.2398 31.2983 39.2398 32.4117C39.2398 33.5251 38.3188 34.4238 37.1778 34.4238ZM43.6817 26.646C43.6817 26.7653 43.6899 26.8846 43.698 27.0039L39.5984 29.509C38.9382 28.9761 38.0906 28.658 37.1697 28.658C36.2161 28.658 35.344 29 34.6675 29.5646L30.7229 27.3219C30.462 25.5008 28.8565 24.0932 26.9167 24.0932C25.0503 24.0932 23.4936 25.3894 23.1432 27.1152L18.3835 29.5169C17.063 25.5723 16.9816 21.0155 18.7991 16.228C20.6329 11.3927 24.4961 7.57542 29.3944 5.7463C35.9797 3.28892 42.9156 3.9967 48.417 7.68675C52.5165 10.4463 55.3528 14.5579 56.4694 19.1864L49.5091 23.4411C48.9304 23.0991 48.2458 22.8923 47.5205 22.8923C45.4095 22.8843 43.6817 24.5703 43.6817 26.646ZM47.5368 28.658C46.3957 28.658 45.4748 27.7594 45.4748 26.646C45.4748 25.5326 46.3957 24.6339 47.5368 24.6339C48.6778 24.6339 49.5987 25.5326 49.5987 26.646C49.5987 27.7594 48.6696 28.658 47.5368 28.658ZM49.7373 38.5671V29.7237C50.7316 29.0397 51.3836 27.9184 51.3836 26.6381C51.3836 26.463 51.3673 26.2881 51.3429 26.1211L56.9828 22.6617C56.9991 22.9718 57.0073 23.282 57.0073 23.6001C57.0073 29.4772 54.2932 34.9406 49.7373 38.5671Z" fill="white" fill-opacity="0.5"/>
<path d="M49.8111 12.7967V22.5804C49.1751 22.1836 48.4169 21.9536 47.6096 21.9536C46.8025 21.9536 46.0442 22.1836 45.4082 22.5804V12.7967C45.4082 11.6144 46.3948 10.6543 47.6096 10.6543C48.8246 10.6622 49.8111 11.6144 49.8111 12.7967Z" fill="white" fill-opacity="0.5"/>
<path d="M39.3755 19.1781V28.6218C38.7396 28.2209 37.9814 27.9884 37.1741 27.9884C36.367 27.9884 35.6086 28.2209 34.9727 28.6218V19.1781C34.9727 17.9837 35.9593 17.0137 37.1741 17.0137C38.389 17.0137 39.3755 17.9837 39.3755 19.1781Z" fill="white" fill-opacity="0.5"/>
<path d="M29.1021 22.1905V24.0105C28.4661 23.6113 27.7079 23.3798 26.9007 23.3798C26.0935 23.3798 25.3352 23.6113 24.6992 24.0105V22.1905C24.6992 21.0011 25.6858 20.0352 26.9007 20.0352C28.1237 20.0432 29.1021 21.0011 29.1021 22.1905Z" fill="white" fill-opacity="0.5"/>
<path d="M6.77731 58.8873L6.75817 55.4007L5.04155 58.2391H4.20238L2.49533 55.4951V58.8905H0.75V52.3105H2.30389L4.64908 56.1087L6.93685 52.3105H8.49074L8.50988 58.8905H6.77731V58.8873Z" fill="white" fill-opacity="0.5"/>
<path d="M14.2301 57.6129H11.4095L10.8862 58.8905H8.95898L11.904 52.3105H13.7643L16.7189 58.8905H14.7565L14.2301 57.6129ZM13.6781 56.2408L12.8198 54.1357L11.9615 56.2408H13.6781Z" fill="white" fill-opacity="0.5"/>
<path d="M20.1037 57.1409H19.0669V58.8905H17.1699V52.3105H20.2386C22.0714 52.3105 23.2205 53.242 23.2205 54.7461C23.2205 55.7153 22.7423 56.4297 21.9077 56.8231L23.3553 58.8905H21.3235L20.1037 57.1409ZM20.1229 53.7738H19.0669V55.6996H20.1229C20.9094 55.6996 21.301 55.3409 21.301 54.7399C21.3043 54.1325 20.9094 53.7738 20.1229 53.7738Z" fill="white" fill-opacity="0.5"/>
<path d="M26.7455 56.5021L26.0327 57.2447V58.8905H24.1426V52.3105H26.0327V55.0451L28.6453 52.3105H30.7451L27.9906 55.2245L30.8903 58.8905H28.6743L26.7455 56.5021Z" fill="white" fill-opacity="0.5"/>
<path d="M36.7244 57.6129H33.9026L33.3792 58.8905H31.4512L34.3975 52.3105H36.2584L39.2111 58.8905H37.2479L36.7244 57.6129ZM36.1691 56.2408L35.3104 54.1357L34.4517 56.2408H36.1691Z" fill="white" fill-opacity="0.5"/>
<path d="M39.8867 52.3105H41.8129V57.4146H45.06V58.8905H39.8867V52.3105Z" fill="white" fill-opacity="0.5"/>
<path d="M48.3612 56.5315V58.8905H46.4763V56.5032L43.9355 52.3105H45.9223L47.5015 54.9243L49.0807 52.3105H50.9082L48.3612 56.5315Z" fill="white" fill-opacity="0.5"/>
<path d="M53.5138 53.7864H51.4707V52.3105H57.4312V53.7864H55.3977V58.8905H53.5138V53.7864Z" fill="white" fill-opacity="0.5"/>
<path d="M58.668 52.3105H60.5798V58.8905H58.668V52.3105Z" fill="white" fill-opacity="0.5"/>
<path d="M61.5918 55.6008C61.5918 53.6136 63.1421 52.2012 65.2527 52.2012C66.4783 52.2012 67.4684 52.6386 68.1146 53.4323L66.9177 54.4978C66.5006 54.0041 65.9849 53.7322 65.3483 53.7322C64.2531 53.7322 63.4923 54.479 63.4923 55.6008C63.4923 56.7226 64.2531 57.4694 65.3483 57.4694C65.9849 57.4694 66.5006 57.1975 66.9177 56.7038L68.1146 57.7693C67.4684 58.563 66.4783 59.0004 65.2527 59.0004C63.1421 58.9974 61.5918 57.588 61.5918 55.6008Z" fill="white" fill-opacity="0.5"/>
<path d="M68.9023 58.2811L69.5302 56.9174C70.1289 57.2991 70.9801 57.5617 71.7633 57.5617C72.5561 57.5617 72.8669 57.346 72.8669 57.0301C72.8669 55.9918 69.0189 56.7486 69.0189 54.3217C69.0189 53.155 70.0059 52.2012 72.0156 52.2012C72.896 52.2012 73.8054 52.3982 74.472 52.7703L73.8831 54.1433C73.2357 53.8056 72.5982 53.6399 72.006 53.6399C71.2033 53.6399 70.912 53.9025 70.912 54.2278C70.912 55.2286 74.7504 54.4811 74.7504 56.8894C74.7504 58.0309 73.7633 59.0004 71.7536 59.0004C70.6435 59.0004 69.5399 58.7127 68.9023 58.2811Z" fill="white" fill-opacity="0.5"/>
</g>
<defs>
<clipPath id="clip0_2052_2155">
<rect width="74" height="59" fill="white" transform="translate(0.75)"/>
</clipPath>
</defs>
</svg>
