<svg width="75" height="60" viewBox="0 0 75 60" fill="none" xmlns="http://www.w3.org/2000/svg">
<g clip-path="url(#clip0_268_5749)">
<path fill-rule="evenodd" clip-rule="evenodd" d="M71.1261 11.7337L62.9759 12.1551C62.6499 12.171 62.4543 12.529 62.6335 12.8073L64.0273 14.9067L60.1233 17.2926C58.5585 12.2187 55.2658 7.73344 50.661 4.6478C43.9615 0.138621 35.5422 -0.736171 27.5714 2.23019C21.4913 4.4967 16.7071 9.23651 14.425 15.2249C12.2734 20.911 12.306 26.804 14.1805 32.0051L7.23658 35.5122C6.4297 35.9178 6.11185 36.8881 6.53566 37.6833C6.82908 38.232 7.40773 38.5502 7.99454 38.5502C8.25535 38.5502 8.50801 38.4945 8.75251 38.3751L15.4764 34.9794C17.6607 39.1307 21.1164 42.6459 25.6316 44.9839L28.8673 46.6539V31.4325C29.0711 31.2893 29.2666 31.1382 29.4296 30.9633L33.0728 33.0309C33.1053 34.2796 33.7656 35.3691 34.7517 36.0212V47.0914H39.1528V35.9735C40.1227 35.2895 40.7584 34.1842 40.7665 32.9355L45.0699 30.3032V46.646L48.3055 44.968C56.2275 40.8484 61.1421 32.8639 61.1421 24.116C61.1421 22.939 61.0442 21.7779 60.865 20.6407L65.8122 17.6107L67.0673 19.4955C67.2466 19.7659 67.6623 19.75 67.8089 19.4558L71.5174 12.354C71.6884 12.0597 71.4602 11.7178 71.1261 11.7337ZM24.4824 39.075C22.4612 37.4448 20.7088 35.3691 19.4375 32.9832L23.7733 30.7963C23.9853 31.0348 24.2216 31.2495 24.4906 31.4246V39.075H24.4824ZM26.683 30.3588C25.542 30.3588 24.6209 29.4602 24.6209 28.3468C24.6209 27.2335 25.542 26.3348 26.683 26.3348C27.824 26.3348 28.745 27.2335 28.745 28.3468C28.745 29.4522 27.8159 30.3588 26.683 30.3588ZM36.9278 34.9238C35.7867 34.9238 34.8658 34.0251 34.8658 32.9117C34.8658 31.7983 35.7867 30.8997 36.9278 30.8997C38.0688 30.8997 38.9898 31.7983 38.9898 32.9117C38.9898 34.0251 38.0688 34.9238 36.9278 34.9238ZM43.4317 27.146C43.4317 27.2653 43.4399 27.3846 43.448 27.5039L39.3484 30.009C38.6882 29.4761 37.8406 29.158 36.9197 29.158C35.9661 29.158 35.094 29.5 34.4175 30.0646L30.4729 27.8219C30.212 26.0008 28.6065 24.5932 26.6667 24.5932C24.8003 24.5932 23.2436 25.8894 22.8932 27.6152L18.1335 30.0169C16.813 26.0723 16.7316 21.5155 18.5491 16.728C20.3829 11.8927 24.2461 8.07542 29.1444 6.2463C35.7297 3.78892 42.6656 4.4967 48.167 8.18675C52.2665 10.9463 55.1028 15.0579 56.2194 19.6864L49.2591 23.9411C48.6804 23.5991 47.9958 23.3923 47.2705 23.3923C45.1595 23.3843 43.4317 25.0703 43.4317 27.146ZM47.2868 29.158C46.1457 29.158 45.2248 28.2594 45.2248 27.146C45.2248 26.0326 46.1457 25.1339 47.2868 25.1339C48.4278 25.1339 49.3487 26.0326 49.3487 27.146C49.3487 28.2594 48.4196 29.158 47.2868 29.158ZM49.4873 39.0671V30.2237C50.4816 29.5397 51.1336 28.4184 51.1336 27.1381C51.1336 26.963 51.1173 26.7881 51.0929 26.6211L56.7328 23.1617C56.7491 23.4718 56.7573 23.782 56.7573 24.1001C56.7573 29.9772 54.0432 35.4406 49.4873 39.0671Z" fill="url(#paint0_linear_268_5749)"/>
<path d="M49.563 13.2962V23.0799C48.9271 22.6832 48.1689 22.4531 47.3616 22.4531C46.5545 22.4531 45.7961 22.6832 45.1602 23.0799V13.2962C45.1602 12.1139 46.1468 11.1538 47.3616 11.1538C48.5765 11.1617 49.563 12.1139 49.563 13.2962Z" fill="url(#paint1_linear_268_5749)"/>
<path d="M39.1255 19.6791V29.1227C38.4896 28.7219 37.7314 28.4894 36.9241 28.4894C36.117 28.4894 35.3586 28.7219 34.7227 29.1227V19.6791C34.7227 18.4846 35.7093 17.5146 36.9241 17.5146C38.139 17.5146 39.1255 18.4846 39.1255 19.6791Z" fill="url(#paint2_linear_268_5749)"/>
<path d="M28.8521 22.691V24.511C28.2161 24.1118 27.4579 23.8803 26.6507 23.8803C25.8435 23.8803 25.0852 24.1118 24.4492 24.511V22.691C24.4492 21.5016 25.4358 20.5356 26.6507 20.5356C27.8737 20.5437 28.8521 21.5016 28.8521 22.691Z" fill="url(#paint3_linear_268_5749)"/>
<path d="M6.52731 59.3873L6.50817 55.9007L4.79155 58.7391H3.95238L2.24533 55.9951V59.3905H0.5V52.8105H2.05389L4.39908 56.6087L6.68685 52.8105H8.24074L8.25988 59.3905H6.52731V59.3873Z" fill="#474748"/>
<path d="M13.982 58.1129H11.1614L10.6381 59.3905H8.71094L11.656 52.8105H13.5162L16.4708 59.3905H14.5085L13.982 58.1129ZM13.4301 56.7408L12.5718 54.6357L11.7134 56.7408H13.4301Z" fill="#474748"/>
<path d="M19.8518 57.6409H18.815V59.3905H16.918V52.8105H19.9866C21.8194 52.8105 22.9685 53.742 22.9685 55.2461C22.9685 56.2153 22.4903 56.9297 21.6558 57.3231L23.1034 59.3905H21.0715L19.8518 57.6409ZM19.871 54.2738H18.815V56.1996H19.871C20.6574 56.1996 21.049 55.8409 21.049 55.2399C21.0523 54.6325 20.6574 54.2738 19.871 54.2738Z" fill="#474748"/>
<path d="M26.4936 57.0021L25.7808 57.7447V59.3905H23.8906V52.8105H25.7808V55.5451L28.3934 52.8105H30.4932L27.7386 55.7245L30.6383 59.3905H28.4224L26.4936 57.0021Z" fill="#474748"/>
<path d="M36.4764 58.1129H33.6546L33.1312 59.3905H31.2031L34.1494 52.8105H36.0103L38.963 59.3905H36.9999L36.4764 58.1129ZM35.921 56.7408L35.0624 54.6357L34.2036 56.7408H35.921Z" fill="#474748"/>
<path d="M39.6367 52.8105H41.5629V57.9146H44.81V59.3905H39.6367V52.8105Z" fill="#474748"/>
<path d="M48.1092 57.0315V59.3905H46.2243V57.0032L43.6836 52.8105H45.6703L47.2495 55.4243L48.8287 52.8105H50.6562L48.1092 57.0315Z" fill="#474748"/>
<path d="M53.2618 54.2864H51.2188V52.8105H57.1792V54.2864H55.1457V59.3905H53.2618V54.2864Z" fill="#474748"/>
<path d="M58.418 52.8105H60.3298V59.3905H58.418V52.8105Z" fill="#474748"/>
<path d="M61.3438 56.1003C61.3438 54.1131 62.894 52.7007 65.0046 52.7007C66.2302 52.7007 67.2203 53.1381 67.8665 53.9318L66.6696 54.9973C66.2526 54.5036 65.7369 54.2317 65.1002 54.2317C64.005 54.2317 63.2442 54.9785 63.2442 56.1003C63.2442 57.2221 64.005 57.9689 65.1002 57.9689C65.7369 57.9689 66.2526 57.697 66.6696 57.2033L67.8665 58.2688C67.2203 59.0625 66.2302 59.4999 65.0046 59.4999C62.894 59.4969 61.3438 58.0876 61.3438 56.1003Z" fill="#474748"/>
<path d="M68.6523 58.7806L69.2802 57.417C69.8789 57.7986 70.7301 58.0612 71.5133 58.0612C72.3061 58.0612 72.6169 57.8455 72.6169 57.5296C72.6169 56.4913 68.7689 57.2481 68.7689 54.8212C68.7689 53.6546 69.7559 52.7007 71.7656 52.7007C72.646 52.7007 73.5554 52.8978 74.222 53.2698L73.6331 54.6429C72.9857 54.3051 72.3482 54.1394 71.756 54.1394C70.9533 54.1394 70.662 54.402 70.662 54.7273C70.662 55.7281 74.5004 54.9806 74.5004 57.3889C74.5004 58.5304 73.5133 59.4999 71.5036 59.4999C70.3935 59.4999 69.2899 59.2122 68.6523 58.7806Z" fill="#474748"/>
</g>
<defs>
<linearGradient id="paint0_linear_268_5749" x1="6.34765" y1="38.9845" x2="58.9528" y2="-24.0769" gradientUnits="userSpaceOnUse">
<stop stop-color="#E02B2B"/>
<stop offset="1" stop-color="#AF207C"/>
</linearGradient>
<linearGradient id="paint1_linear_268_5749" x1="45.1602" y1="21.0048" x2="53.0276" y2="18.5178" gradientUnits="userSpaceOnUse">
<stop stop-color="#E02B2B"/>
<stop offset="1" stop-color="#AF207C"/>
</linearGradient>
<linearGradient id="paint2_linear_268_5749" x1="34.7227" y1="27.1029" x2="42.5506" y2="24.5606" gradientUnits="userSpaceOnUse">
<stop stop-color="#E02B2B"/>
<stop offset="1" stop-color="#AF207C"/>
</linearGradient>
<linearGradient id="paint3_linear_268_5749" x1="24.4492" y1="23.8194" x2="29.0053" y2="19.4986" gradientUnits="userSpaceOnUse">
<stop stop-color="#E02B2B"/>
<stop offset="1" stop-color="#AF207C"/>
</linearGradient>
<clipPath id="clip0_268_5749">
<rect width="74" height="59" fill="white" transform="translate(0.5 0.5)"/>
</clipPath>
</defs>
</svg>
