<svg width="144" height="43" viewBox="0 0 144 43" fill="none" xmlns="http://www.w3.org/2000/svg">
<path d="M142.109 31.7127C142.109 32.1183 142.037 32.4952 141.894 32.8434C141.754 33.1875 141.558 33.4866 141.304 33.7406C140.988 34.0561 140.615 34.2937 140.185 34.4535C139.755 34.6092 139.212 34.687 138.557 34.687H137.34V38.0976H136.123V28.9473H138.606C139.155 28.9473 139.62 28.9944 140.001 29.0886C140.382 29.1787 140.72 29.3221 141.015 29.5188C141.363 29.7523 141.631 30.0432 141.82 30.3914C142.012 30.7397 142.109 31.1801 142.109 31.7127ZM140.843 31.7434C140.843 31.4279 140.787 31.1534 140.677 30.9199C140.566 30.6864 140.398 30.4959 140.173 30.3484C139.976 30.2214 139.751 30.1313 139.497 30.078C139.247 30.0206 138.929 29.992 138.544 29.992H137.34V33.6484H138.366C138.858 33.6484 139.257 33.6054 139.564 33.5194C139.872 33.4293 140.122 33.2879 140.314 33.0954C140.507 32.8987 140.642 32.6918 140.72 32.4747C140.802 32.2575 140.843 32.0138 140.843 31.7434Z" fill="white" fill-opacity="0.5"/>
<path d="M132.991 37.4216C132.491 37.651 131.944 37.8517 131.35 38.0238C130.76 38.1918 130.189 38.2758 129.635 38.2758C128.923 38.2758 128.269 38.1774 127.675 37.9808C127.081 37.7841 126.575 37.4892 126.157 37.0959C125.735 36.6985 125.41 36.2027 125.18 35.6087C124.951 35.0106 124.836 34.312 124.836 33.5131C124.836 32.0506 125.262 30.8973 126.114 30.0533C126.97 29.2053 128.144 28.7812 129.635 28.7812C130.156 28.7812 130.686 28.8448 131.227 28.9718C131.772 29.0947 132.358 29.3057 132.985 29.6047V31.0489H132.874C132.747 30.9505 132.563 30.8215 132.321 30.6617C132.079 30.5019 131.842 30.3688 131.608 30.2623C131.325 30.1353 131.004 30.0308 130.643 29.9489C130.287 29.8628 129.881 29.8198 129.426 29.8198C128.402 29.8198 127.591 30.1496 126.993 30.8092C126.399 31.4647 126.102 32.3537 126.102 33.4763C126.102 34.6603 126.413 35.5821 127.036 36.2417C127.659 36.8972 128.507 37.2249 129.58 37.2249C129.973 37.2249 130.365 37.186 130.754 37.1082C131.147 37.0303 131.491 36.9299 131.786 36.807V34.564H129.334V33.4947H132.991V37.4216Z" fill="white" fill-opacity="0.5"/>
<path d="M116.984 38.0976H110.955V28.9473H116.984V30.0288H112.172V32.5361H116.984V33.6177H112.172V37.0161H116.984V38.0976Z" fill="white" fill-opacity="0.5"/>
<path d="M108.72 30.0288H105.451V38.0976H104.234V30.0288H100.965V28.9473H108.72V30.0288Z" fill="white" fill-opacity="0.5"/>
<path d="M100.534 38.0976H99.2372L98.34 35.5473H94.3824L93.4852 38.0976H92.25L95.5808 28.9473H97.2031L100.534 38.0976ZM97.9651 34.5026L96.3612 30.0104L94.7511 34.5026H97.9651Z" fill="white" fill-opacity="0.5"/>
<path d="M91.2937 28.9473L87.9629 38.0976H86.3405L83.0098 28.9473H84.3126L87.1824 36.9976L90.0523 28.9473H91.2937Z" fill="white" fill-opacity="0.5"/>
<path d="M81.0002 38.0976H77.3867V37.1636H78.5851V29.8814H77.3867V28.9473H81.0002V29.8814H79.8018V37.1636H81.0002V38.0976Z" fill="white" fill-opacity="0.5"/>
<path d="M75.5867 38.0976H74.0073L70.9469 34.4596H69.2324V38.0976H68.0156V28.9473H70.5782C71.1313 28.9473 71.5922 28.9841 71.9609 29.0579C72.3296 29.1275 72.6615 29.2545 72.9565 29.4389C73.2883 29.6478 73.5464 29.9121 73.7308 30.2316C73.9192 30.5471 74.0135 30.9486 74.0135 31.4361C74.0135 32.0957 73.8475 32.6488 73.5157 33.0954C73.1838 33.5378 72.727 33.8717 72.1453 34.097L75.5867 38.0976ZM72.7414 31.5222C72.7414 31.26 72.6943 31.0285 72.6 30.8277C72.5099 30.6229 72.3583 30.4508 72.1453 30.3115C71.9691 30.1927 71.7602 30.1108 71.5185 30.0657C71.2767 30.0166 70.992 29.992 70.6643 29.992H69.2324V33.4456H70.4615C70.8466 33.4456 71.1825 33.4129 71.4693 33.3473C71.7561 33.2777 71.9998 33.1507 72.2006 32.9663C72.3849 32.7942 72.5201 32.5976 72.6062 32.3764C72.6963 32.151 72.7414 31.8663 72.7414 31.5222Z" fill="white" fill-opacity="0.5"/>
<path d="M65.3996 31.7127C65.3996 32.1183 65.3279 32.4952 65.1845 32.8434C65.0452 33.1875 64.8486 33.4866 64.5946 33.7406C64.2791 34.0561 63.9063 34.2937 63.4761 34.4535C63.0459 34.6092 62.5031 34.687 61.8476 34.687H60.6308V38.0976H59.4141V28.9473H61.8968C62.4458 28.9473 62.9107 28.9944 63.2918 29.0886C63.6728 29.1787 64.0108 29.3221 64.3057 29.5188C64.654 29.7523 64.9223 30.0432 65.1108 30.3914C65.3033 30.7397 65.3996 31.1801 65.3996 31.7127ZM64.1337 31.7434C64.1337 31.4279 64.0784 31.1534 63.9677 30.9199C63.8571 30.6864 63.6892 30.4959 63.4638 30.3484C63.2672 30.2214 63.0418 30.1313 62.7878 30.078C62.5379 30.0206 62.2204 29.992 61.8353 29.992H60.6308V33.6484H61.6571C62.1487 33.6484 62.5482 33.6054 62.8554 33.5194C63.1627 33.4293 63.4126 33.2879 63.6052 33.0954C63.7977 32.8987 63.9329 32.6918 64.0108 32.4747C64.0927 32.2575 64.1337 32.0138 64.1337 31.7434Z" fill="white" fill-opacity="0.5"/>
<path d="M84.1934 5.20703V7.7682H84.2311L95.0264 7.89721V5.20703H84.1934ZM84.1934 19.5798V22.27H94.8974V19.5798H84.1934Z" fill="white" fill-opacity="0.5"/>
<path d="M114.307 22.2895V5.22656H117.333V22.2895H114.307Z" fill="white" fill-opacity="0.5"/>
<path d="M118.46 7.71156V5.15039H129.293V7.84057L118.495 7.71156H118.457H118.46ZM118.46 19.52H129.167V22.2102H118.46V19.52Z" fill="white" fill-opacity="0.5"/>
<path d="M61.1577 16.0703V22.3473H58.1309V5.29697C60.1509 5.21202 61.3308 5.16797 61.6706 5.16797C64.3639 5.16797 66.3335 5.58015 67.5827 6.40765C68.8286 7.23516 69.4516 8.52518 69.4516 10.2809C69.4516 14.195 67.1453 16.1521 62.5327 16.1521C62.1897 16.1521 61.7335 16.1237 61.1577 16.0703ZM61.1577 7.91793V13.3801C61.6706 13.4336 62.0733 13.4619 62.3691 13.4619C63.7503 13.4619 64.7603 13.2322 65.3959 12.7697C66.0315 12.3072 66.3524 11.5552 66.3524 10.5169C66.3524 8.74543 64.9271 7.86129 62.0796 7.86129C61.7618 7.86129 61.4535 7.88017 61.1608 7.92107L61.1577 7.91793Z" fill="white" fill-opacity="0.5"/>
<path d="M92.8003 14.3227V11.7489H81.5456C81.7281 11.2455 81.8194 10.7169 81.8194 10.16C81.8194 6.80594 79.6546 5.12891 75.3189 5.12891C74.6204 5.12891 73.7016 5.15722 72.5595 5.21701C71.4174 5.27679 70.7629 5.3051 70.5898 5.3051V22.368H73.7331V15.2414C74.5575 15.2886 75.1962 15.3138 75.6556 15.3233L80.2084 22.3712H83.7009L78.6572 14.6845C78.9184 14.587 79.1669 14.4674 79.4029 14.329H92.7972L92.8003 14.3227ZM77.7951 12.2083C77.2099 12.567 76.2817 12.7432 75.0168 12.7432C74.7211 12.7432 74.2963 12.7212 73.7362 12.674V7.93235C74.0949 7.88516 74.4348 7.86313 74.762 7.86313C76.1118 7.86313 77.1029 8.02989 77.7322 8.36341C78.3615 8.69693 78.6761 9.28216 78.6761 10.1222C78.6761 11.1543 78.3835 11.8496 77.7983 12.2052L77.7951 12.2083Z" fill="white" fill-opacity="0.5"/>
<path d="M113.001 22.088H110.065L108.294 12.8879L104.858 22.3114H103.776L100.34 12.8879L98.4992 22.088H95.5762L99.012 5.01562H100.62L104.311 16.5094L107.92 5.01562H109.515L112.998 22.088H113.001Z" fill="white" fill-opacity="0.5"/>
<path d="M138.213 14.6216C139.123 14.2786 139.875 13.6934 140.472 12.8628C141.07 12.0321 141.369 11.1102 141.369 10.1034C141.369 6.7493 139.204 5.07227 134.869 5.07227C134.17 5.07227 133.251 5.10058 132.109 5.16036C130.967 5.22015 130.313 5.24846 130.14 5.24846V11.8056H118.457V14.3793H130.14V22.3083H133.283V15.1817C134.107 15.2289 134.746 15.254 135.205 15.2635L139.758 22.3114H143.251L138.207 14.6247L138.213 14.6216ZM137.345 12.1517C136.76 12.5104 135.831 12.6866 134.567 12.6866C134.271 12.6866 133.843 12.6645 133.286 12.6173V7.87571C133.645 7.82852 133.985 7.80649 134.312 7.80649C135.662 7.80649 136.653 7.97325 137.282 8.30677C137.911 8.64029 138.226 9.22552 138.226 10.0656C138.226 11.0976 137.933 11.793 137.348 12.1517H137.345Z" fill="white" fill-opacity="0.5"/>
<path d="M26.8125 13.1541V19.4533L26.5698 18.8655C26.5506 18.8208 26.5059 18.7921 26.458 18.7921C26.41 18.7921 26.3653 18.824 26.3462 18.8687L26.0874 19.5491H25.2282C25.177 19.5491 25.1291 19.5842 25.1132 19.6322L24.7203 20.8556L24.0846 18.8432C24.0686 18.7921 24.0207 18.7601 23.9696 18.7601C23.9153 18.7601 23.8706 18.7953 23.8546 18.8464L23.6534 19.5491H22.6663L22.3533 18.9454C22.3373 18.9134 22.3086 18.8911 22.2734 18.8847V13.1541C22.2734 12.4514 22.842 11.8828 23.5448 11.8828H25.538C26.2407 11.8828 26.8093 12.4514 26.8093 13.1541H26.8125Z" fill="white" fill-opacity="0.5"/>
<path d="M26.7717 19.7877H26.8132V25.6684C26.8132 26.3711 26.2447 26.9397 25.5419 26.9397H23.5487C22.8459 26.9397 22.2773 26.3711 22.2773 25.6684V19.3181L22.4882 19.7238C22.5105 19.7653 22.5489 19.7877 22.5968 19.7877H23.7499C23.8042 19.7877 23.8521 19.7526 23.8649 19.7015L23.9799 19.299L24.6092 21.2922C24.6251 21.3433 24.6699 21.3753 24.7242 21.3753C24.7753 21.3753 24.8232 21.3401 24.8392 21.2922L25.3183 19.7909H26.1712C26.2223 19.7909 26.267 19.7589 26.283 19.7142L26.4651 19.2383L26.6631 19.7142C26.6823 19.7589 26.727 19.7877 26.7749 19.7877H26.7717Z" fill="white" fill-opacity="0.5"/>
<path d="M32.0746 18.4375V19.5491H29.5926L29.2508 18.6451C29.2317 18.594 29.1805 18.5621 29.1262 18.5685C29.0719 18.5749 29.0272 18.6164 29.0176 18.6675L28.6727 20.9834L27.9667 17.4601C27.9571 17.4026 27.906 17.361 27.8453 17.361C27.7878 17.361 27.7367 17.4058 27.7271 17.4632L27.347 19.5491H26.8487L26.8104 19.4533L26.5676 18.8655C26.5484 18.8208 26.5037 18.7921 26.4558 18.7921C26.4079 18.7921 26.3632 18.824 26.344 18.8687L26.0853 19.5491H25.226C25.1749 19.5491 25.127 19.5843 25.111 19.6322L24.7181 20.8556L24.0825 18.8432C24.0665 18.7921 24.0186 18.7601 23.9675 18.7601C23.9132 18.7601 23.8684 18.7953 23.8525 18.8464L23.6512 19.5491H22.6642L22.3512 18.9454C22.3352 18.9135 22.3064 18.8911 22.2713 18.8847C22.2617 18.8847 22.2521 18.8815 22.2425 18.8815C22.1978 18.8815 22.1563 18.9071 22.1339 18.9486L21.8369 19.5491H21.1309C21.0766 19.5491 21.0287 19.5875 21.0127 19.6386L20.5911 20.8524L19.7893 17.4569C19.7797 17.3994 19.7286 17.3578 19.6711 17.3578C19.6136 17.3578 19.5657 17.3994 19.553 17.4537L18.8694 20.4276L18.3104 18.7601C18.2944 18.7122 18.2465 18.6771 18.1954 18.6771C18.1443 18.6771 18.0964 18.7122 18.0804 18.7601L17.8248 19.5459H17.0039V18.4343C17.0039 17.7188 17.5821 17.1406 18.2976 17.1406H30.7713C31.4868 17.1406 32.065 17.7188 32.065 18.4343L32.0746 18.4375Z" fill="white" fill-opacity="0.5"/>
<path d="M29.5097 19.7894H32.0748V20.3868C32.0748 21.1023 31.4966 21.6805 30.7811 21.6805H18.3074C17.5918 21.6805 17.0137 21.1023 17.0137 20.3868V19.7894H17.9209C17.972 19.7894 18.0199 19.7543 18.0358 19.7064L18.2051 19.1857L18.7897 20.933C18.8057 20.9841 18.8568 21.0192 18.9111 21.016C18.9654 21.0129 19.0101 20.9745 19.0229 20.9202L19.6745 18.0997L20.4603 21.4217C20.4699 21.476 20.5178 21.5176 20.5753 21.5207H20.5785C20.6328 21.5207 20.6807 21.4824 20.6967 21.4313L21.2301 19.7926H21.9169C21.9616 19.7926 22.0063 19.7671 22.0255 19.7256L22.2491 19.272L22.2747 19.3231L22.4855 19.7287C22.5079 19.7703 22.5462 19.7926 22.5941 19.7926H23.7472C23.8015 19.7926 23.8495 19.7575 23.8622 19.7064L23.9772 19.3039L24.6065 21.2971C24.6225 21.3483 24.6672 21.3802 24.7215 21.3802C24.7726 21.3802 24.8205 21.3451 24.8365 21.2971L25.3156 19.7958H26.1685C26.2196 19.7958 26.2643 19.7639 26.2803 19.7192L26.4624 19.2432L26.6604 19.7192C26.6796 19.7639 26.7243 19.7926 26.7722 19.7926H27.4558C27.5165 19.7926 27.5676 19.7479 27.574 19.6904L27.8647 17.8633L28.561 21.4217C28.5706 21.4792 28.6217 21.5207 28.6792 21.5207C28.7367 21.5207 28.7878 21.4792 28.7974 21.4217L29.1839 19.1538L29.3947 19.716C29.4139 19.7639 29.4586 19.7958 29.5065 19.7958L29.5097 19.7894Z" fill="white" fill-opacity="0.5"/>
<path d="M24.4769 6.9914C21.8097 4.22195 18.9316 2.37565 15.2773 1.15862C11.8914 0.270609 8.11574 0.414353 5.02686 2.18399C4.31454 2.59286 3.65012 3.07839 3.0496 3.63739L1.51953 5.33675C1.51953 5.33675 2.98252 4.83206 3.90567 5.63063C4.06858 5.42619 4.13566 5.3655 4.25704 5.23773C6.10334 3.28283 8.96223 2.1808 11.6422 2.1808C12.8145 2.1808 14.022 2.35329 15.2326 2.69827C19.0242 3.77475 21.717 6.64641 24.742 9.03574C26.6203 7.12236 28.6327 5.29203 30.9741 3.97918C33.1207 2.77174 35.6537 1.99553 38.1325 2.14246C40.1385 2.26065 41.7995 3.09756 43.3935 4.26667C43.534 4.37208 45.1504 5.49008 45.3101 5.59869C45.3101 5.59869 45.3133 5.59869 45.3165 5.59549C45.5337 5.40064 45.7956 5.2569 46.0831 5.20259C46.5878 5.10677 47.0861 5.21857 47.5748 5.32398C45.6806 2.76854 42.7674 1.20015 39.6434 0.759336C36.2415 0.276998 32.6479 1.05002 29.7571 2.91229C27.8884 4.11654 26.3232 5.71688 24.6973 7.2118C24.6238 7.13514 24.5536 7.05848 24.4801 6.98501L24.4769 6.9914Z" fill="white" fill-opacity="0.5"/>
<path d="M40.1738 23.5459C40.2376 23.6385 40.3718 23.5523 40.4293 23.498C41.2918 22.6739 41.7709 21.5143 41.9881 20.342C42.2277 19.0547 42.1798 17.7355 42.0648 16.4322C41.9594 15.2184 41.7933 14.0078 41.5409 12.8131C41.4131 12.219 41.263 11.6184 40.9564 11.0914C40.8254 10.8614 40.6497 10.6378 40.4038 10.542C39.9566 10.3695 39.4391 10.7081 39.2474 11.1489C39.0558 11.5897 39.1005 12.0944 39.1516 12.5703C39.2123 13.1261 39.2794 13.6819 39.3496 14.2377C39.4263 14.8383 39.503 15.4388 39.5828 16.0393C39.6627 16.6399 39.7393 17.2404 39.8096 17.8409C39.8799 18.4414 39.947 19.042 40.0077 19.6425C40.0684 20.243 40.1131 20.8467 40.1482 21.4473C40.1642 21.7475 40.1802 22.051 40.1897 22.3512L40.177 23.5459" fill="white" fill-opacity="0.5"/>
<path d="M42.7284 19.4385C42.7923 19.5311 42.9265 19.4449 42.984 19.3906C43.8465 18.5664 44.3256 17.4069 44.5428 16.2346C44.7824 14.9473 44.7345 13.6281 44.6195 12.3248C44.5141 11.111 44.348 9.90034 44.0956 8.70567C43.9678 8.11153 43.8177 7.51101 43.511 6.98395C43.3801 6.75396 43.2044 6.53036 42.9584 6.43453C42.5112 6.26204 41.9938 6.60063 41.8021 7.04144C41.6104 7.48226 41.6552 7.98696 41.7063 8.4629C41.767 9.01871 41.834 9.57452 41.9043 10.1303C41.981 10.7309 42.0577 11.3314 42.1375 11.9319C42.2174 12.5324 42.294 13.133 42.3643 13.7335C42.4346 14.334 42.5017 14.9345 42.5623 15.5351C42.623 16.1356 42.6678 16.7393 42.7029 17.3398C42.7189 17.6401 42.7348 17.9436 42.7444 18.2438L42.7316 19.4385" fill="white" fill-opacity="0.5"/>
<path d="M33.6031 28.2007C33.6031 28.2007 41.5825 27.8429 44.4478 18.2249C45.1601 15.8324 45.3869 13.3185 45.2336 10.827C45.0036 7.15032 45.4699 6.57854 46.0864 6.35494C46.7668 6.10898 47.9168 6.20162 48.6802 10.8078C48.7409 11.1655 48.7824 11.5233 48.808 11.8843C49.1466 16.5288 50.3253 23.1761 36.6473 33.5224C33.3859 35.9437 29.7189 40.2975 28.7223 42.3802C28.7223 42.3802 24.1225 34.3944 26.8855 29.159C26.8855 29.159 28.0962 26.3416 31.8463 23.8788C32.2679 23.6009 32.7215 23.3741 33.1879 23.1761C34.0152 22.8279 35.5517 22.0549 36.264 20.8347C36.3087 20.758 36.3566 20.6845 36.4173 20.6206C36.7335 20.2757 37.4331 19.7326 38.139 20.6781C38.3435 21.4001 39.4168 22.6458 34.1334 27.5363C33.9226 27.7311 33.7437 27.9515 33.5999 28.2007H33.6031Z" fill="white" fill-opacity="0.5"/>
<path opacity="0.25" d="M48.8041 11.8145C49.1427 16.459 50.283 23.1734 36.6051 33.5165C33.3437 35.9377 29.6767 40.2916 28.6801 42.3742C28.6801 42.3742 27.2905 39.9594 26.4952 36.9152L26.4121 36.3594C27.3864 28.2587 33.5577 28.1948 33.5577 28.1948C33.5577 28.1948 41.5371 27.837 44.4024 18.219L48.8009 11.8145H48.8041Z" fill="url(#paint0_linear_2052_2338)"/>
<path d="M9.17066 23.58C9.10996 23.6726 8.97261 23.5864 8.91511 23.5353C8.04307 22.7207 7.54796 21.5708 7.31477 20.3985C7.05923 19.1144 7.09117 17.7919 7.1902 16.4887C7.28283 15.2716 7.42977 14.061 7.66934 12.8631C7.78753 12.2658 7.93447 11.6653 8.23153 11.1318C8.3625 10.8986 8.5318 10.6719 8.77776 10.5728C9.22496 10.394 9.74243 10.7262 9.94048 11.1638C10.1385 11.6014 10.1002 12.1061 10.0555 12.5852C10.0012 13.141 9.94048 13.7 9.87659 14.2558C9.80951 14.8564 9.73605 15.4569 9.66577 16.0606C9.5955 16.6643 9.52522 17.2617 9.46134 17.8654C9.39745 18.4691 9.33676 19.0696 9.28565 19.6702C9.23454 20.2707 9.19621 20.8744 9.16746 21.4781C9.15468 21.7784 9.1451 22.0819 9.13871 22.3821L9.16746 23.5768" fill="white" fill-opacity="0.5"/>
<path d="M6.56519 19.5038C6.5045 19.5964 6.36714 19.5102 6.30964 19.4591C5.4376 18.6445 4.94249 17.4946 4.7093 16.3223C4.45376 15.0382 4.4857 13.7158 4.58473 12.4125C4.67736 11.1955 4.8243 9.98483 5.06387 8.78697C5.18206 8.18963 5.329 7.58911 5.62607 7.05566C5.75703 6.82248 5.92633 6.59568 6.17229 6.49666C6.61949 6.31778 7.13697 6.64999 7.33501 7.0876C7.53306 7.52522 7.49473 8.02992 7.45001 8.50906C7.3957 9.06487 7.33501 9.62387 7.27113 10.1797C7.20405 10.7802 7.13058 11.3807 7.0603 11.9845C6.99003 12.5882 6.91975 13.1855 6.85587 13.7892C6.79198 14.3929 6.73129 14.9935 6.68018 15.594C6.62907 16.1945 6.59074 16.7982 6.56199 17.402C6.54922 17.7022 6.53963 18.0057 6.53324 18.306L6.56199 19.5006" fill="white" fill-opacity="0.5"/>
<path d="M15.7969 28.1542C15.7969 28.1542 7.81439 27.8955 4.82772 18.3126C4.08665 15.9297 3.82791 13.4189 3.95249 10.9242C4.13776 7.24438 3.665 6.67899 3.04531 6.46497C2.36173 6.22859 1.21498 6.334 0.505848 10.9498C0.451546 11.3075 0.413214 11.6685 0.390854 12.0294C0.109756 16.6771 -0.985886 23.3404 12.8166 33.5142C16.1068 35.894 19.8281 40.2031 20.8503 42.273C20.8503 42.273 25.351 34.2297 22.5241 29.0294C22.5241 29.0294 21.2783 26.2281 17.4963 23.81C17.0682 23.5385 16.6147 23.3149 16.1483 23.1232C15.3146 22.7846 13.7685 22.0308 13.0434 20.8201C12.9987 20.7435 12.9476 20.6732 12.8869 20.6093C12.5675 20.2675 11.8616 19.7341 11.1652 20.686C10.9703 21.4111 9.91304 22.6696 15.2571 27.4962C15.4679 27.6878 15.6532 27.9082 15.8001 28.1542H15.7969Z" fill="white" fill-opacity="0.5"/>
<path opacity="0.25" d="M0.745099 11.8145C0.406504 16.459 -0.733857 23.1734 12.9441 33.5165C16.2055 35.9377 19.8725 40.2916 20.8691 42.3742C20.8691 42.3742 22.2586 39.9594 23.054 36.9152L23.1371 36.3594C22.1628 28.2587 15.9915 28.1948 15.9915 28.1948C15.9915 28.1948 8.01211 27.837 5.14683 18.219L0.745099 11.8145Z" fill="url(#paint1_linear_2052_2338)"/>
<defs>
<linearGradient id="paint0_linear_2052_2338" x1="26.5942" y1="25.6202" x2="48.9926" y2="28.3385" gradientUnits="userSpaceOnUse">
<stop offset="0.22" stop-color="white"/>
<stop offset="0.28" stop-color="#FAFAFE" stop-opacity="0.97"/>
<stop offset="0.38" stop-color="#EDEFFC" stop-opacity="0.88"/>
<stop offset="0.5" stop-color="#D8DCF8" stop-opacity="0.74"/>
<stop offset="0.65" stop-color="#BBC2F3" stop-opacity="0.54"/>
<stop offset="0.81" stop-color="#96A1ED" stop-opacity="0.29"/>
<stop offset="0.84" stop-color="#919CED" stop-opacity="0.25"/>
</linearGradient>
<linearGradient id="paint1_linear_2052_2338" x1="22.955" y1="25.6202" x2="0.556636" y2="28.3385" gradientUnits="userSpaceOnUse">
<stop offset="0.22" stop-color="white"/>
<stop offset="0.28" stop-color="#FAFAFE" stop-opacity="0.97"/>
<stop offset="0.38" stop-color="#EDEFFC" stop-opacity="0.88"/>
<stop offset="0.5" stop-color="#D8DCF8" stop-opacity="0.74"/>
<stop offset="0.65" stop-color="#BBC2F3" stop-opacity="0.54"/>
<stop offset="0.81" stop-color="#96A1ED" stop-opacity="0.29"/>
<stop offset="0.84" stop-color="#919CED" stop-opacity="0.25"/>
</linearGradient>
</defs>
</svg>
