<svg width="143" height="42" viewBox="0 0 143 42" fill="none" xmlns="http://www.w3.org/2000/svg">
<path d="M141.861 31.2117C141.861 31.6173 141.789 31.9942 141.645 32.3424C141.506 32.6866 141.31 32.9856 141.056 33.2396C140.74 33.5551 140.367 33.7927 139.937 33.9525C139.507 34.1082 138.964 34.186 138.309 34.186H137.092V37.5967H135.875V28.4463H138.358C138.907 28.4463 139.372 28.4934 139.753 28.5876C140.134 28.6778 140.472 28.8212 140.767 29.0178C141.115 29.2513 141.383 29.5422 141.572 29.8904C141.764 30.2387 141.861 30.6791 141.861 31.2117ZM140.595 31.2424C140.595 30.9269 140.539 30.6525 140.429 30.4189C140.318 30.1854 140.15 29.9949 139.925 29.8474C139.728 29.7204 139.503 29.6303 139.249 29.577C138.999 29.5197 138.681 29.491 138.296 29.491H137.092V33.1475H138.118C138.61 33.1475 139.009 33.1044 139.316 33.0184C139.624 32.9283 139.874 32.7869 140.066 32.5944C140.259 32.3977 140.394 32.1908 140.472 31.9737C140.554 31.7566 140.595 31.5128 140.595 31.2424Z" fill="#061A20"/>
<path d="M132.741 36.9206C132.241 37.15 131.694 37.3508 131.1 37.5228C130.51 37.6908 129.939 37.7748 129.385 37.7748C128.673 37.7748 128.019 37.6765 127.425 37.4798C126.831 37.2832 126.325 36.9882 125.907 36.5949C125.485 36.1975 125.16 35.7018 124.93 35.1077C124.701 34.5096 124.586 33.8111 124.586 33.0122C124.586 31.5496 125.012 30.3963 125.864 29.5524C126.72 28.7043 127.894 28.2803 129.385 28.2803C129.906 28.2803 130.436 28.3438 130.977 28.4708C131.522 28.5937 132.108 28.8047 132.735 29.1037V30.5479H132.624C132.497 30.4496 132.313 30.3205 132.071 30.1607C131.829 30.001 131.592 29.8678 131.358 29.7613C131.075 29.6343 130.754 29.5298 130.393 29.4479C130.037 29.3618 129.631 29.3188 129.176 29.3188C128.152 29.3188 127.341 29.6486 126.743 30.3082C126.149 30.9637 125.852 31.8528 125.852 32.9753C125.852 34.1593 126.163 35.0811 126.786 35.7407C127.409 36.3962 128.257 36.7239 129.33 36.7239C129.723 36.7239 130.115 36.685 130.504 36.6072C130.897 36.5293 131.241 36.429 131.536 36.3061V34.063H129.084V32.9937H132.741V36.9206Z" fill="#061A20"/>
<path d="M116.736 37.5967H110.707V28.4463H116.736V29.5279H111.924V32.0352H116.736V33.1167H111.924V36.5151H116.736V37.5967Z" fill="#061A20"/>
<path d="M108.47 29.5279H105.201V37.5967H103.984V29.5279H100.715V28.4463H108.47V29.5279Z" fill="#061A20"/>
<path d="M100.284 37.5967H98.9872L98.09 35.0464H94.1324L93.2352 37.5967H92L95.3308 28.4463H96.9531L100.284 37.5967ZM97.7151 34.0017L96.1112 29.5094L94.5011 34.0017H97.7151Z" fill="#061A20"/>
<path d="M91.0417 28.4463L87.7109 37.5967H86.0886L82.7578 28.4463H84.0606L86.9305 36.4967L89.8003 28.4463H91.0417Z" fill="#061A20"/>
<path d="M80.7502 37.5967H77.1367V36.6626H78.3351V29.3804H77.1367V28.4463H80.7502V29.3804H79.5518V36.6626H80.7502V37.5967Z" fill="#061A20"/>
<path d="M75.3367 37.5967H73.7573L70.6969 33.9586H68.9824V37.5967H67.7656V28.4463H70.3282C70.8813 28.4463 71.3422 28.4832 71.7109 28.5569C72.0796 28.6266 72.4115 28.7536 72.7065 28.9379C73.0383 29.1469 73.2964 29.4111 73.4808 29.7307C73.6692 30.0461 73.7635 30.4476 73.7635 30.9351C73.7635 31.5947 73.5975 32.1478 73.2657 32.5944C72.9338 33.0368 72.477 33.3707 71.8953 33.5961L75.3367 37.5967ZM72.4914 31.0212C72.4914 30.759 72.4443 30.5275 72.35 30.3268C72.2599 30.1219 72.1083 29.9498 71.8953 29.8105C71.7191 29.6917 71.5102 29.6098 71.2685 29.5647C71.0267 29.5156 70.742 29.491 70.4143 29.491H68.9824V32.9447H70.2115C70.5966 32.9447 70.9325 32.9119 71.2193 32.8463C71.5061 32.7767 71.7498 32.6497 71.9506 32.4653C72.1349 32.2933 72.2701 32.0966 72.3562 31.8754C72.4463 31.65 72.4914 31.3653 72.4914 31.0212Z" fill="#061A20"/>
<path d="M65.1496 31.2117C65.1496 31.6173 65.0779 31.9942 64.9345 32.3424C64.7952 32.6866 64.5986 32.9856 64.3446 33.2396C64.0291 33.5551 63.6563 33.7927 63.2261 33.9525C62.7959 34.1082 62.2531 34.186 61.5976 34.186H60.3808V37.5967H59.1641V28.4463H61.6468C62.1958 28.4463 62.6607 28.4934 63.0418 28.5876C63.4228 28.6778 63.7608 28.8212 64.0557 29.0178C64.404 29.2513 64.6723 29.5422 64.8608 29.8904C65.0533 30.2387 65.1496 30.6791 65.1496 31.2117ZM63.8837 31.2424C63.8837 30.9269 63.8284 30.6525 63.7177 30.4189C63.6071 30.1854 63.4392 29.9949 63.2138 29.8474C63.0172 29.7204 62.7918 29.6303 62.5378 29.577C62.2879 29.5197 61.9704 29.491 61.5853 29.491H60.3808V33.1475H61.4071C61.8987 33.1475 62.2982 33.1044 62.6054 33.0184C62.9127 32.9283 63.1626 32.7869 63.3552 32.5944C63.5477 32.3977 63.6829 32.1908 63.7608 31.9737C63.8427 31.7566 63.8837 31.5128 63.8837 31.2424Z" fill="#061A20"/>
<path d="M83.9453 4.70801V7.26918H83.9831L94.7784 7.39818V4.70801H83.9453ZM83.9453 19.0808V21.771H94.6494V19.0808H83.9453Z" fill="#061A20"/>
<path d="M114.059 21.7895V4.72656H117.085V21.7895H114.059Z" fill="#061A20"/>
<path d="M118.214 7.21156V4.65039H129.047V7.34057L118.249 7.21156H118.211H118.214ZM118.214 19.02H128.921V21.7102H118.214V19.02Z" fill="#061A20"/>
<path d="M60.9097 15.5693V21.8464H57.8828V4.79599C59.9028 4.71104 61.0827 4.66699 61.4225 4.66699C64.1158 4.66699 66.0855 5.07917 67.3346 5.90668C68.5806 6.73418 69.2036 8.0242 69.2036 9.7799C69.2036 13.694 66.8973 15.6511 62.2846 15.6511C61.9417 15.6511 61.4854 15.6228 60.9097 15.5693ZM60.9097 7.41695V12.8791C61.4225 12.9326 61.8253 12.9609 62.121 12.9609C63.5023 12.9609 64.5123 12.7312 65.1479 12.2687C65.7834 11.8062 66.1044 11.0542 66.1044 10.0159C66.1044 8.24445 64.679 7.36031 61.8316 7.36031C61.5138 7.36031 61.2054 7.37919 60.9128 7.42009L60.9097 7.41695Z" fill="#061A20"/>
<path d="M92.5542 13.8227V11.2489H81.2995C81.482 10.7455 81.5733 10.2169 81.5733 9.66001C81.5733 6.30594 79.4085 4.62891 75.0728 4.62891C74.3743 4.62891 73.4555 4.65722 72.3134 4.71701C71.1713 4.77679 70.5168 4.8051 70.3438 4.8051V21.868H73.487V14.7414C74.3114 14.7886 74.9501 14.8138 75.4095 14.8233L79.9623 21.8712H83.4548L78.4111 14.1845C78.6723 14.087 78.9208 13.9674 79.1568 13.829H92.5511L92.5542 13.8227ZM77.549 11.7083C76.9638 12.067 76.0356 12.2432 74.7707 12.2432C74.475 12.2432 74.0502 12.2212 73.4902 12.174V7.43235C73.8488 7.38516 74.1887 7.36313 74.5159 7.36313C75.8657 7.36313 76.8568 7.52989 77.4861 7.86341C78.1154 8.19693 78.43 8.78216 78.43 9.62225C78.43 10.6543 78.1374 11.3496 77.5522 11.7052L77.549 11.7083Z" fill="#061A20"/>
<path d="M112.753 21.588H109.817L108.046 12.3879L104.61 21.8114H103.528L100.092 12.3879L98.2511 21.588H95.3281L98.764 4.51562H100.372L104.063 16.0094L107.671 4.51562H109.267L112.75 21.588H112.753Z" fill="#061A20"/>
<path d="M137.967 14.1216C138.877 13.7786 139.629 13.1934 140.226 12.3628C140.824 11.5321 141.123 10.6102 141.123 9.60336C141.123 6.2493 138.958 4.57227 134.623 4.57227C133.924 4.57227 133.005 4.60058 131.863 4.66036C130.721 4.72015 130.067 4.74846 129.894 4.74846V11.3056H118.211V13.8793H129.894V21.8083H133.037V14.6817C133.861 14.7289 134.5 14.754 134.959 14.7635L139.512 21.8114H143.005L137.961 14.1247L137.967 14.1216ZM137.099 11.6517C136.514 12.0104 135.585 12.1866 134.321 12.1866C134.025 12.1866 133.597 12.1645 133.04 12.1173V7.37571C133.399 7.32852 133.738 7.30649 134.066 7.30649C135.415 7.30649 136.407 7.47325 137.036 7.80677C137.665 8.14029 137.98 8.72552 137.98 9.56561C137.98 10.5976 137.687 11.293 137.102 11.6517H137.099Z" fill="#061A20"/>
<path d="M26.5625 12.6541V18.9533L26.3198 18.3655C26.3006 18.3208 26.2559 18.2921 26.208 18.2921C26.16 18.2921 26.1153 18.324 26.0962 18.3687L25.8374 19.0491H24.9782C24.927 19.0491 24.8791 19.0842 24.8632 19.1322L24.4703 20.3556L23.8346 18.3432C23.8186 18.2921 23.7707 18.2601 23.7196 18.2601C23.6653 18.2601 23.6206 18.2953 23.6046 18.3464L23.4034 19.0491H22.4163L22.1033 18.4454C22.0873 18.4134 22.0586 18.3911 22.0234 18.3847V12.6541C22.0234 11.9514 22.592 11.3828 23.2948 11.3828H25.288C25.9907 11.3828 26.5593 11.9514 26.5593 12.6541H26.5625Z" fill="url(#paint0_linear_268_5356)"/>
<path d="M26.5217 19.2887H26.5632V25.1694C26.5632 25.8721 25.9947 26.4407 25.2919 26.4407H23.2987C22.5959 26.4407 22.0273 25.8721 22.0273 25.1694V18.8191L22.2382 19.2248C22.2605 19.2663 22.2989 19.2887 22.3468 19.2887H23.4999C23.5542 19.2887 23.6021 19.2535 23.6149 19.2024L23.7299 18.7999L24.3592 20.7932C24.3751 20.8443 24.4199 20.8762 24.4742 20.8762C24.5253 20.8762 24.5732 20.8411 24.5892 20.7932L25.0683 19.2919H25.9212C25.9723 19.2919 26.017 19.2599 26.033 19.2152L26.2151 18.7393L26.4131 19.2152C26.4323 19.2599 26.477 19.2887 26.5249 19.2887H26.5217Z" fill="url(#paint1_linear_268_5356)"/>
<path d="M31.8246 17.9375V19.0491H29.3426L29.0008 18.1451C28.9817 18.094 28.9305 18.0621 28.8762 18.0685C28.8219 18.0749 28.7772 18.1164 28.7676 18.1675L28.4227 20.4834L27.7167 16.9601C27.7071 16.9026 27.656 16.861 27.5953 16.861C27.5378 16.861 27.4867 16.9058 27.4771 16.9632L27.097 19.0491H26.5987L26.5604 18.9533L26.3176 18.3655C26.2984 18.3208 26.2537 18.2921 26.2058 18.2921C26.1579 18.2921 26.1132 18.324 26.094 18.3687L25.8353 19.0491H24.976C24.9249 19.0491 24.877 19.0843 24.861 19.1322L24.4681 20.3556L23.8325 18.3432C23.8165 18.2921 23.7686 18.2601 23.7175 18.2601C23.6632 18.2601 23.6184 18.2953 23.6025 18.3464L23.4012 19.0491H22.4142L22.1012 18.4454C22.0852 18.4135 22.0564 18.3911 22.0213 18.3847C22.0117 18.3847 22.0021 18.3815 21.9925 18.3815C21.9478 18.3815 21.9063 18.4071 21.8839 18.4486L21.5869 19.0491H20.8809C20.8266 19.0491 20.7787 19.0875 20.7627 19.1386L20.3411 20.3524L19.5393 16.9569C19.5297 16.8994 19.4786 16.8578 19.4211 16.8578C19.3636 16.8578 19.3157 16.8994 19.303 16.9537L18.6194 19.9276L18.0604 18.2601C18.0444 18.2122 17.9965 18.1771 17.9454 18.1771C17.8943 18.1771 17.8464 18.2122 17.8304 18.2601L17.5748 19.0459H16.7539V17.9343C16.7539 17.2188 17.3321 16.6406 18.0476 16.6406H30.5213C31.2368 16.6406 31.815 17.2188 31.815 17.9343L31.8246 17.9375Z" fill="url(#paint2_linear_268_5356)"/>
<path d="M29.2617 19.2885H31.8267V19.8858C31.8267 20.6013 31.2485 21.1795 30.533 21.1795H18.0593C17.3438 21.1795 16.7656 20.6013 16.7656 19.8858V19.2885H17.6728C17.7239 19.2885 17.7718 19.2533 17.7878 19.2054L17.9571 18.6847L18.5417 20.432C18.5576 20.4831 18.6087 20.5183 18.663 20.5151C18.7173 20.5119 18.7621 20.4735 18.7748 20.4192L19.4265 17.5987L20.2123 20.9207C20.2218 20.975 20.2698 21.0166 20.3273 21.0198H20.3305C20.3848 21.0198 20.4327 20.9814 20.4486 20.9303L20.9821 19.2917H21.6689C21.7136 19.2917 21.7583 19.2661 21.7775 19.2246L22.0011 18.771L22.0266 18.8221L22.2374 19.2278C22.2598 19.2693 22.2981 19.2917 22.346 19.2917H23.4992C23.5535 19.2917 23.6014 19.2565 23.6142 19.2054L23.7292 18.8029L24.3585 20.7962C24.3744 20.8473 24.4191 20.8792 24.4734 20.8792C24.5246 20.8792 24.5725 20.8441 24.5884 20.7962L25.0676 19.2949H25.9205C25.9716 19.2949 26.0163 19.2629 26.0323 19.2182L26.2143 18.7422L26.4124 19.2182C26.4315 19.2629 26.4763 19.2917 26.5242 19.2917H27.2078C27.2685 19.2917 27.3196 19.2469 27.326 19.1894L27.6166 17.3623L28.313 20.9207C28.3226 20.9782 28.3737 21.0198 28.4312 21.0198C28.4887 21.0198 28.5398 20.9782 28.5494 20.9207L28.9359 18.6528L29.1467 19.215C29.1659 19.2629 29.2106 19.2949 29.2585 19.2949L29.2617 19.2885Z" fill="url(#paint3_linear_268_5356)"/>
<path d="M24.2269 6.49189C21.5597 3.72244 18.6816 1.87614 15.0273 0.65911C11.6414 -0.228903 7.86574 -0.0851592 4.77686 1.68448C4.06454 2.09335 3.40012 2.57888 2.7996 3.13788L1.26953 4.83724C1.26953 4.83724 2.73252 4.33254 3.65567 5.13112C3.81858 4.92668 3.88566 4.86599 4.00704 4.73822C5.85334 2.78331 8.71223 1.68128 11.3922 1.68128C12.5645 1.68128 13.772 1.85378 14.9826 2.19876C18.7742 3.27523 21.467 6.1469 24.492 8.53623C26.3703 6.62285 28.3827 4.79252 30.7241 3.47967C32.8707 2.27223 35.4037 1.49601 37.8825 1.64295C39.8885 1.76114 41.5495 2.59804 43.1435 3.76716C43.284 3.87257 44.9004 4.99057 45.0601 5.09917C45.0601 5.09917 45.0633 5.09917 45.0665 5.09598C45.2837 4.90113 45.5456 4.75739 45.8331 4.70308C46.3378 4.60725 46.8361 4.71905 47.3248 4.82447C45.4306 2.26903 42.5174 0.700636 39.3934 0.259824C35.9915 -0.222514 32.3979 0.550504 29.5071 2.41278C27.6384 3.61702 26.0732 5.21736 24.4473 6.71229C24.3738 6.63563 24.3036 6.55897 24.2301 6.4855L24.2269 6.49189Z" fill="#919CED"/>
<path d="M39.9218 23.0474C39.9857 23.14 40.1199 23.0538 40.1774 22.9995C41.0398 22.1753 41.519 21.0158 41.7362 19.8435C41.9757 18.5562 41.9278 17.237 41.8128 15.9337C41.7074 14.7199 41.5413 13.5092 41.289 12.3146C41.1612 11.7204 41.0111 11.1199 40.7044 10.5928C40.5734 10.3628 40.3978 10.1392 40.1518 10.0434C39.7046 9.87092 39.1871 10.2095 38.9955 10.6503C38.8038 11.0911 38.8485 11.5958 38.8996 12.0718C38.9603 12.6276 39.0274 13.1834 39.0977 13.7392C39.1743 14.3397 39.251 14.9403 39.3309 15.5408C39.4107 16.1413 39.4874 16.7418 39.5577 17.3424C39.6279 17.9429 39.695 18.5434 39.7557 19.144C39.8164 19.7445 39.8611 20.3482 39.8963 20.9487C39.9122 21.249 39.9282 21.5524 39.9378 21.8527L39.925 23.0474" fill="#919CED"/>
<path d="M42.4765 18.939C42.5404 19.0316 42.6745 18.9454 42.732 18.8911C43.5945 18.0669 44.0736 16.9074 44.2909 15.7351C44.5304 14.4478 44.4825 13.1286 44.3675 11.8253C44.2621 10.6115 44.096 9.40082 43.8437 8.20616C43.7159 7.61202 43.5657 7.01149 43.2591 6.48444C43.1281 6.25445 42.9524 6.03085 42.7065 5.93502C42.2593 5.76253 41.7418 6.10112 41.5502 6.54193C41.3585 6.98275 41.4032 7.48744 41.4543 7.96339C41.515 8.5192 41.5821 9.07501 41.6524 9.63081C41.729 10.2313 41.8057 10.8319 41.8856 11.4324C41.9654 12.0329 42.0421 12.6334 42.1123 13.234C42.1826 13.8345 42.2497 14.435 42.3104 15.0356C42.3711 15.6361 42.4158 16.2398 42.4509 16.8403C42.4669 17.1406 42.4829 17.444 42.4925 17.7443L42.4797 18.939" fill="#919CED"/>
<path d="M33.3512 27.7012C33.3512 27.7012 41.3305 27.3434 44.1958 17.7254C44.9081 15.3329 45.1349 12.819 44.9816 10.3274C44.7516 6.65081 45.218 6.07903 45.8345 5.85543C46.5149 5.60947 47.6648 5.7021 48.4282 10.3083C48.4889 10.666 48.5305 11.0238 48.556 11.3847C48.8946 16.0292 50.0733 22.6766 36.3953 33.0229C33.134 35.4441 29.4669 39.798 28.4703 41.8806C28.4703 41.8806 23.8705 33.8949 26.6336 28.6595C26.6336 28.6595 27.8442 25.8421 31.5943 23.3793C32.016 23.1014 32.4696 22.8746 32.9359 22.6766C33.7633 22.3284 35.2997 21.5554 36.012 20.3352C36.0568 20.2585 36.1047 20.185 36.1654 20.1211C36.4816 19.7762 37.1811 19.2331 37.8871 20.1786C38.0915 20.9005 39.1648 22.1463 33.8814 27.0368C33.6706 27.2316 33.4917 27.452 33.348 27.7012H33.3512Z" fill="#919CED"/>
<path opacity="0.25" d="M48.556 11.3149C48.8946 15.9594 50.035 22.6738 36.357 33.017C33.0957 35.4382 29.4286 39.792 28.432 41.8747C28.432 41.8747 27.0425 39.4598 26.2471 36.4157L26.1641 35.8599C27.1383 27.7592 33.3097 27.6953 33.3097 27.6953C33.3097 27.6953 41.289 27.3375 44.1543 17.7195L48.5528 11.3149H48.556Z" fill="url(#paint4_linear_268_5356)"/>
<path d="M8.92066 23.08C8.85996 23.1726 8.72261 23.0864 8.66511 23.0353C7.79307 22.2207 7.29796 21.0708 7.06477 19.8985C6.80923 18.6144 6.84117 17.2919 6.9402 15.9887C7.03283 14.7716 7.17977 13.561 7.41934 12.3631C7.53753 11.7658 7.68447 11.1653 7.98153 10.6318C8.1125 10.3986 8.2818 10.1719 8.52776 10.0728C8.97496 9.89395 9.49243 10.2262 9.69048 10.6638C9.88853 11.1014 9.85019 11.6061 9.80547 12.0852C9.75117 12.641 9.69048 13.2 9.62659 13.7558C9.55951 14.3564 9.48605 14.9569 9.41577 15.5606C9.3455 16.1643 9.27522 16.7617 9.21134 17.3654C9.14745 17.9691 9.08676 18.5696 9.03565 19.1702C8.98454 19.7707 8.94621 20.3744 8.91746 20.9781C8.90468 21.2784 8.8951 21.5819 8.88871 21.8821L8.91746 23.0768" fill="#919CED"/>
<path d="M6.31519 19.0038C6.2545 19.0964 6.11714 19.0102 6.05964 18.9591C5.1876 18.1445 4.69249 16.9946 4.4593 15.8223C4.20376 14.5382 4.2357 13.2158 4.33473 11.9125C4.42736 10.6955 4.5743 9.48483 4.81387 8.28697C4.93206 7.68963 5.079 7.08911 5.37607 6.55566C5.50703 6.32248 5.67633 6.09568 5.92229 5.99666C6.36949 5.81778 6.88697 6.14999 7.08501 6.5876C7.28306 7.02522 7.24473 7.52992 7.20001 8.00906C7.1457 8.56487 7.08501 9.12387 7.02113 9.67968C6.95405 10.2802 6.88058 10.8807 6.8103 11.4845C6.74003 12.0882 6.66975 12.6855 6.60587 13.2892C6.54198 13.8929 6.48129 14.4935 6.43018 15.094C6.37907 15.6945 6.34074 16.2982 6.31199 16.902C6.29922 17.2022 6.28963 17.5057 6.28324 17.806L6.31199 19.0006" fill="#919CED"/>
<path d="M15.5469 27.6542C15.5469 27.6542 7.56439 27.3955 4.57772 17.8126C3.83665 15.4297 3.57791 12.9189 3.70249 10.4242C3.88776 6.74438 3.415 6.17899 2.79531 5.96497C2.11173 5.72859 0.964981 5.834 0.255848 10.4498C0.201546 10.8075 0.163214 11.1685 0.140854 11.5294C-0.140244 16.1771 -1.23589 22.8404 12.5666 33.0142C15.8568 35.394 19.5781 39.7031 20.6003 41.773C20.6003 41.773 25.101 33.7297 22.2741 28.5294C22.2741 28.5294 21.0283 25.7281 17.2463 23.31C16.8182 23.0385 16.3647 22.8149 15.8983 22.6232C15.0646 22.2846 13.5185 21.5308 12.7934 20.3201C12.7487 20.2435 12.6976 20.1732 12.6369 20.1093C12.3175 19.7675 11.6116 19.2341 10.9152 20.186C10.7203 20.9111 9.66304 22.1696 15.0071 26.9962C15.2179 27.1878 15.4032 27.4082 15.5501 27.6542H15.5469Z" fill="#919CED"/>
<path opacity="0.25" d="M0.495099 11.3149C0.156504 15.9594 -0.983857 22.6738 12.6941 33.017C15.9555 35.4382 19.6225 39.792 20.6191 41.8747C20.6191 41.8747 22.0086 39.4598 22.804 36.4157L22.8871 35.8599C21.9128 27.7592 15.7415 27.6953 15.7415 27.6953C15.7415 27.6953 7.76211 27.3375 4.89683 17.7195L0.495099 11.3149Z" fill="url(#paint5_linear_268_5356)"/>
<defs>
<linearGradient id="paint0_linear_268_5356" x1="19.7491" y1="12.9225" x2="26.6871" y2="16.7844" gradientUnits="userSpaceOnUse">
<stop offset="0.16" stop-color="#919CED"/>
<stop offset="0.27" stop-color="#91ACEC"/>
<stop offset="0.51" stop-color="#91C9EC"/>
<stop offset="0.64" stop-color="#91D5EC"/>
<stop offset="0.91" stop-color="#91D5EC"/>
</linearGradient>
<linearGradient id="paint1_linear_268_5356" x1="21.7335" y1="25.5782" x2="25.4612" y2="20.6686" gradientUnits="userSpaceOnUse">
<stop stop-color="#919CED"/>
<stop offset="0.04" stop-color="#91A2EC"/>
<stop offset="0.25" stop-color="#91BEEC"/>
<stop offset="0.43" stop-color="#91CFEC"/>
<stop offset="0.56" stop-color="#91D5EC"/>
</linearGradient>
<linearGradient id="paint2_linear_268_5356" x1="16.7635" y1="18.5604" x2="31.8246" y2="18.5604" gradientUnits="userSpaceOnUse">
<stop stop-color="#919CED"/>
<stop offset="0.06" stop-color="#91A8EC"/>
<stop offset="0.24" stop-color="#91C4EC"/>
<stop offset="0.34" stop-color="#91CFEC"/>
<stop offset="0.64" stop-color="#91D5EC"/>
<stop offset="0.68" stop-color="#91CFEC"/>
<stop offset="0.73" stop-color="#91C1ED"/>
<stop offset="0.76" stop-color="#91B9EE"/>
</linearGradient>
<linearGradient id="paint3_linear_268_5356" x1="15.5486" y1="19.2693" x2="30.6097" y2="19.2693" gradientUnits="userSpaceOnUse">
<stop stop-color="#919CED"/>
<stop offset="0.15" stop-color="#91AAEC"/>
<stop offset="0.4" stop-color="#91CCEC"/>
<stop offset="0.46" stop-color="#91D5EC"/>
<stop offset="0.61" stop-color="#91D5EC"/>
<stop offset="0.63" stop-color="#91D5EC"/>
<stop offset="0.78" stop-color="#91CDEC"/>
<stop offset="1" stop-color="#91B9EE"/>
</linearGradient>
<linearGradient id="paint4_linear_268_5356" x1="26.3461" y1="25.1207" x2="48.7445" y2="27.839" gradientUnits="userSpaceOnUse">
<stop offset="0.22" stop-color="white"/>
<stop offset="0.28" stop-color="#FAFAFE" stop-opacity="0.97"/>
<stop offset="0.38" stop-color="#EDEFFC" stop-opacity="0.88"/>
<stop offset="0.5" stop-color="#D8DCF8" stop-opacity="0.74"/>
<stop offset="0.65" stop-color="#BBC2F3" stop-opacity="0.54"/>
<stop offset="0.81" stop-color="#96A1ED" stop-opacity="0.29"/>
<stop offset="0.84" stop-color="#919CED" stop-opacity="0.25"/>
</linearGradient>
<linearGradient id="paint5_linear_268_5356" x1="22.705" y1="25.1207" x2="0.306636" y2="27.839" gradientUnits="userSpaceOnUse">
<stop offset="0.22" stop-color="white"/>
<stop offset="0.28" stop-color="#FAFAFE" stop-opacity="0.97"/>
<stop offset="0.38" stop-color="#EDEFFC" stop-opacity="0.88"/>
<stop offset="0.5" stop-color="#D8DCF8" stop-opacity="0.74"/>
<stop offset="0.65" stop-color="#BBC2F3" stop-opacity="0.54"/>
<stop offset="0.81" stop-color="#96A1ED" stop-opacity="0.29"/>
<stop offset="0.84" stop-color="#919CED" stop-opacity="0.25"/>
</linearGradient>
</defs>
</svg>
