<svg width="63" height="68" viewBox="0 0 63 68" fill="none" xmlns="http://www.w3.org/2000/svg">
<path d="M62.9952 63.9881C62.9952 63.9881 62.0305 63.6602 60.3587 63.0468C59.5345 62.7096 58.4855 62.4427 57.3194 62.0633C56.1627 61.67 54.8046 61.3515 53.3482 60.9675C52.9829 60.8738 52.613 60.7755 52.2337 60.6772C51.8496 60.5976 51.4563 60.5179 51.0582 60.4383C50.2621 60.2697 49.4426 60.0965 48.5996 59.9185C47.752 59.7499 46.8716 59.6375 45.9818 59.4924C45.0874 59.3566 44.1789 59.1833 43.2422 59.1037C42.3103 58.996 41.3597 58.8882 40.3997 58.7805C39.4396 58.6916 38.4562 58.6494 37.4774 58.5745C36.9857 58.5417 36.494 58.5042 35.9976 58.4715C35.5012 58.448 35.0048 58.4527 34.5037 58.434C33.5062 58.4106 32.5041 58.3872 31.5019 58.3637C30.4951 58.3872 29.4929 58.4106 28.4907 58.434C27.985 58.448 27.4792 58.4527 26.9828 58.4715C26.4911 58.5042 25.9994 58.5417 25.5123 58.5745C24.5336 58.6494 23.5642 58.6962 22.6042 58.7805C21.6441 58.8929 20.6935 59.0006 19.7616 59.1084C18.825 59.188 17.9165 59.3659 17.022 59.497C16.1276 59.6422 15.2471 59.7546 14.3995 59.9232C13.5566 60.1012 12.7324 60.2744 11.9409 60.443C11.5429 60.5226 11.1495 60.6022 10.7655 60.6818C10.3862 60.7802 10.0162 60.8785 9.65093 60.9722C8.19451 61.3562 6.83643 61.6746 5.67505 62.068C4.50429 62.4473 3.45998 62.7143 2.63576 63.0468C0.973292 63.6556 0.00390625 63.9881 0.00390625 63.9881C0.00390625 63.9881 0.888998 63.4917 2.46718 62.6534C3.24456 62.2085 4.24672 61.7964 5.38938 61.2906C5.67505 61.1642 5.97008 61.0378 6.27447 60.9019C6.42901 60.8364 6.58355 60.7708 6.73809 60.7006C6.89731 60.6397 7.06122 60.5835 7.22513 60.5226C7.88543 60.2885 8.57852 60.0403 9.2997 59.7827C9.6603 59.6563 10.0303 59.5251 10.4096 59.3893C10.7936 59.2769 11.1823 59.1599 11.5803 59.0428C12.3811 58.818 13.2053 58.5839 14.053 58.345C14.9053 58.1202 15.7951 57.9516 16.6989 57.7409C17.6027 57.5395 18.5299 57.3335 19.4853 57.207C20.4359 57.0619 21.4053 56.9167 22.3841 56.7668C23.3722 56.6404 24.379 56.5702 25.3953 56.4765C25.901 56.4297 26.4115 56.3875 26.9219 56.3454C27.4277 56.3126 27.9288 56.3079 28.4345 56.2892C29.4554 56.2611 30.4763 56.2283 31.5019 56.2002C32.5275 56.2283 33.5578 56.2611 34.5787 56.2892C35.0891 56.3079 35.5996 56.3126 36.11 56.3454C36.6158 56.3922 37.1215 56.4343 37.6273 56.4812C38.6342 56.5748 39.6363 56.6498 40.6198 56.7715C41.5985 56.9214 42.5679 57.0666 43.5185 57.2117C44.4739 57.3382 45.3964 57.5442 46.3049 57.7503C47.2088 57.9563 48.0985 58.1296 48.9509 58.3497C49.7985 58.5885 50.6274 58.8227 51.4235 59.0475C51.8215 59.1645 52.2102 59.2816 52.5942 59.394C52.9736 59.5298 53.3435 59.6609 53.7041 59.7874C54.43 60.045 55.1184 60.2932 55.7787 60.532C55.9426 60.5929 56.1065 60.6538 56.2657 60.7099C56.4203 60.7802 56.5748 60.8458 56.7294 60.9113C57.0337 61.0424 57.3288 61.1736 57.6191 61.3C58.7618 61.8058 59.7639 62.2226 60.5366 62.6628C62.1101 63.4963 62.9952 63.9974 62.9952 63.9974V63.9881Z" fill="#BAA360"/>
<path d="M36.9609 37.1071V56.7805C37.6306 56.8788 38.2956 57.0334 38.9465 57.2254V39.8935L39.7239 40.4227V57.4783C39.93 57.5532 40.1407 57.6234 40.3421 57.703C40.4638 57.7311 40.5856 57.7733 40.7074 57.8061C40.8104 57.7967 40.9134 57.7827 41.0164 57.7733V41.3031L41.7938 41.8323V57.7265C42.2293 57.7124 42.6602 57.7077 43.0863 57.7265V42.7174L43.8637 43.2466V57.7639C44.2992 57.7967 44.7301 57.8435 45.1562 57.9044V44.127L45.9336 44.6561V58.0309C46.3644 58.1105 46.7953 58.2135 47.2261 58.3259V45.5412L48.0035 46.0704V58.5366C48.4343 58.6631 48.8652 58.8036 49.296 58.9534V46.9508L50.0734 47.48V59.2391C50.5042 59.403 50.9304 59.5856 51.3659 59.7729V47.2178L36.9703 37.0884L36.9609 37.1071Z" fill="#BAA360"/>
<path d="M20.4375 6.61603V21.124H21.0838V8.21294L21.8611 7.81956V21.124H23.1537V7.15926L23.931 6.7612V21.124H25.2235V6.10089L25.9962 5.70752V21.124H27.2888V5.04721L28.0661 4.64916V21.124H29.3587V3.98885L30.136 3.59548V21.124H31.4286V2.93517L32.2013 2.53711V21.124H32.8194V0.5L20.4375 6.61603Z" fill="#BAA360"/>
<path d="M21.0837 57.5156V22.6083L21.8611 22.1728V57.347C22.2919 57.2533 22.7228 57.1643 23.1536 57.08V21.4422L23.931 21.0067V56.9255C24.3618 56.8459 24.7926 56.7756 25.2235 56.7101V20.2762L26.0009 19.8406V56.6024C26.4317 56.5462 26.8625 56.4947 27.2934 56.4572V19.1148L28.0708 18.6793V56.387C28.5016 56.3542 28.9324 56.3354 29.3633 56.3261V17.9487L30.1407 17.5132V56.3261C30.5715 56.3261 31.0023 56.3401 31.4332 56.3682V16.7826L32.2106 16.3471V56.4104C32.6414 56.4525 33.0722 56.5087 33.5031 56.5743V15.6212L34.2804 15.1857V56.6539C34.7113 56.6352 35.1421 56.6305 35.573 56.6539V14.4552L36.3503 14.0197V56.7148C36.828 56.7663 37.3057 56.8365 37.774 56.9302V10.0625L15.4688 23.676V58.9252C15.5343 58.9064 15.5905 58.883 15.6561 58.869C16.0869 58.7612 16.5224 58.6489 16.958 58.5365V24.9358L17.7353 24.5003V58.3398C18.1662 58.2321 18.597 58.1244 19.0278 58.0166V23.7697L19.8052 23.3342V57.8246C20.2361 57.7216 20.6669 57.6186 21.0977 57.5202L21.0837 57.5156Z" fill="#BAA360"/>
<path d="M53.6386 67.4999C53.3982 67.4999 53.1828 67.4609 52.9924 67.3828C52.8019 67.3048 52.6489 67.1893 52.5334 67.0363C52.421 66.8833 52.3617 66.6991 52.3555 66.4837H53.2078C53.2203 66.6054 53.2624 66.6991 53.3342 66.7647C53.406 66.8271 53.4997 66.8583 53.6152 66.8583C53.7338 66.8583 53.8275 66.8318 53.8962 66.7787C53.9649 66.7225 53.9992 66.646 53.9992 66.5493C53.9992 66.4681 53.9711 66.401 53.9149 66.3479C53.8618 66.2948 53.7947 66.2511 53.7135 66.2168C53.6355 66.1824 53.5231 66.1434 53.3764 66.0997C53.1641 66.0341 52.9908 65.9686 52.8566 65.903C52.7223 65.8374 52.6068 65.7407 52.51 65.6126C52.4132 65.4846 52.3648 65.3176 52.3648 65.1116C52.3648 64.8056 52.4757 64.5668 52.6973 64.3951C52.919 64.2202 53.2078 64.1328 53.5637 64.1328C53.9258 64.1328 54.2178 64.2202 54.4394 64.3951C54.6611 64.5668 54.7797 64.8072 54.7953 65.1162H53.929C53.9227 65.0101 53.8837 64.9274 53.8119 64.868C53.7401 64.8056 53.648 64.7744 53.5356 64.7744C53.4388 64.7744 53.3608 64.8009 53.3014 64.854C53.2421 64.9039 53.2125 64.9773 53.2125 65.0741C53.2125 65.1802 53.2624 65.263 53.3623 65.3223C53.4622 65.3816 53.6183 65.4456 53.8306 65.5143C54.0429 65.5861 54.2146 65.6548 54.3458 65.7204C54.48 65.7859 54.5955 65.8811 54.6923 66.006C54.7891 66.1309 54.8375 66.2917 54.8375 66.4884C54.8375 66.6757 54.7891 66.8458 54.6923 66.9988C54.5986 67.1518 54.4613 67.2736 54.2802 67.3641C54.0991 67.4546 53.8853 67.4999 53.6386 67.4999Z" fill="#BAA360"/>
<path d="M51.0711 67.4672L50.3873 66.2262H50.1953V67.4672H49.3945V64.1797H50.7386C50.9977 64.1797 51.2178 64.225 51.3989 64.3155C51.5831 64.406 51.7204 64.5309 51.811 64.6901C51.9015 64.8462 51.9468 65.0211 51.9468 65.2146C51.9468 65.4332 51.8843 65.6283 51.7595 65.8C51.6377 65.9717 51.4566 66.0935 51.2162 66.1653L51.9749 67.4672H51.0711ZM50.1953 65.6595H50.6917C50.8385 65.6595 50.9477 65.6236 51.0195 65.5518C51.0945 65.48 51.1319 65.3785 51.1319 65.2474C51.1319 65.1225 51.0945 65.0242 51.0195 64.9524C50.9477 64.8806 50.8385 64.8447 50.6917 64.8447H50.1953V65.6595Z" fill="#BAA360"/>
<path d="M47.6641 64.8213V65.4863H48.7365V66.1044H47.6641V66.8256H48.877V67.4672H46.8633V64.1797H48.877V64.8213H47.6641Z" fill="#BAA360"/>
<path d="M46.4429 65.2381C46.4429 65.4285 46.3992 65.6033 46.3118 65.7625C46.2244 65.9186 46.0901 66.0451 45.9091 66.1419C45.728 66.2387 45.5032 66.287 45.2347 66.287H44.7383V67.4672H43.9375V64.1797H45.2347C45.4969 64.1797 45.7186 64.225 45.8997 64.3155C46.0808 64.406 46.2166 64.5309 46.3071 64.6901C46.3976 64.8494 46.4429 65.032 46.4429 65.2381ZM45.1738 65.6502C45.3268 65.6502 45.4407 65.6143 45.5157 65.5424C45.5906 65.4706 45.6281 65.3692 45.6281 65.2381C45.6281 65.1069 45.5906 65.0055 45.5157 64.9337C45.4407 64.8618 45.3268 64.8259 45.1738 64.8259H44.7383V65.6502H45.1738Z" fill="#BAA360"/>
<path d="M41.8117 67.4999C41.5026 67.4999 41.2185 67.4281 40.9594 67.2845C40.7033 67.1409 40.4989 66.9411 40.3459 66.6851C40.196 66.4259 40.1211 66.1356 40.1211 65.814C40.1211 65.4924 40.196 65.2037 40.3459 64.9477C40.4989 64.6917 40.7033 64.4918 40.9594 64.3482C41.2185 64.2046 41.5026 64.1328 41.8117 64.1328C42.1207 64.1328 42.4033 64.2046 42.6593 64.3482C42.9184 64.4918 43.1214 64.6917 43.2681 64.9477C43.4179 65.2037 43.4929 65.4924 43.4929 65.814C43.4929 66.1356 43.4179 66.4259 43.2681 66.6851C43.1182 66.9411 42.9153 67.1409 42.6593 67.2845C42.4033 67.4281 42.1207 67.4999 41.8117 67.4999ZM41.8117 66.7694C42.0739 66.7694 42.2831 66.6819 42.4392 66.5071C42.5984 66.3323 42.678 66.1012 42.678 65.814C42.678 65.5237 42.5984 65.2926 42.4392 65.1209C42.2831 64.9461 42.0739 64.8587 41.8117 64.8587C41.5463 64.8587 41.334 64.9445 41.1748 65.1162C41.0187 65.288 40.9406 65.5205 40.9406 65.814C40.9406 66.1044 41.0187 66.337 41.1748 66.5118C41.334 66.6835 41.5463 66.7694 41.8117 66.7694Z" fill="#BAA360"/>
<path d="M38.8281 66.849H39.8771V67.4672H38.0273V64.1797H38.8281V66.849Z" fill="#BAA360"/>
<path d="M36.293 64.8213V65.4863H37.3654V66.1044H36.293V66.8256H37.5059V67.4672H35.4922V64.1797H37.5059V64.8213H36.293Z" fill="#BAA360"/>
<path d="M35.1585 64.1797L33.9925 67.4672H32.9903L31.8242 64.1797H32.6765L33.4914 66.6617L34.3109 64.1797H35.1585Z" fill="#BAA360"/>
<path d="M30.3399 64.8213V65.4863H31.4123V66.1044H30.3399V66.8256H31.5528V67.4672H29.5391V64.1797H31.5528V64.8213H30.3399Z" fill="#BAA360"/>
<path d="M27.3684 64.1797C27.7149 64.1797 28.0177 64.2484 28.2769 64.3857C28.536 64.5231 28.7358 64.7167 28.8763 64.9664C29.0199 65.2131 29.0917 65.4987 29.0917 65.8234C29.0917 66.145 29.0199 66.4307 28.8763 66.6804C28.7358 66.9302 28.5344 67.1237 28.2722 67.2611C28.0131 67.3985 27.7118 67.4672 27.3684 67.4672H26.1367V64.1797H27.3684ZM27.3168 66.7741C27.6197 66.7741 27.8554 66.6913 28.024 66.5259C28.1926 66.3604 28.2769 66.1263 28.2769 65.8234C28.2769 65.5206 28.1926 65.2849 28.024 65.1163C27.8554 64.9477 27.6197 64.8634 27.3168 64.8634H26.9375V66.7741H27.3168Z" fill="#BAA360"/>
<path d="M21.4414 65.8186C21.4414 65.4939 21.5117 65.2051 21.6521 64.9523C21.7926 64.6962 21.9878 64.498 22.2375 64.3575C22.4904 64.2139 22.7761 64.1421 23.0945 64.1421C23.4848 64.1421 23.8188 64.2451 24.0967 64.4512C24.3745 64.6572 24.5603 64.9382 24.654 65.2941H23.7736C23.708 65.1567 23.6143 65.0522 23.4926 64.9804C23.3739 64.9085 23.2381 64.8726 23.0851 64.8726C22.8385 64.8726 22.6387 64.9585 22.4857 65.1302C22.3327 65.3019 22.2563 65.5314 22.2563 65.8186C22.2563 66.1058 22.3327 66.3353 22.4857 66.507C22.6387 66.6787 22.8385 66.7646 23.0851 66.7646C23.2381 66.7646 23.3739 66.7287 23.4926 66.6569C23.6143 66.5851 23.708 66.4805 23.7736 66.3431H24.654C24.5603 66.699 24.3745 66.98 24.0967 67.1861C23.8188 67.389 23.4848 67.4905 23.0945 67.4905C22.7761 67.4905 22.4904 67.4202 22.2375 67.2797C21.9878 67.1361 21.7926 66.9379 21.6521 66.685C21.5117 66.4321 21.4414 66.1433 21.4414 65.8186Z" fill="#BAA360"/>
<path d="M20.1681 66.8865H18.9412L18.7445 67.4672H17.9062L19.0957 64.1797H20.023L21.2125 67.4672H20.3648L20.1681 66.8865ZM19.9621 66.2683L19.5547 65.0648L19.1519 66.2683H19.9621Z" fill="#BAA360"/>
<path d="M16.715 66.8865H15.4881L15.2914 67.4672H14.4531L15.6426 64.1797H16.5699L17.7593 67.4672H16.9117L16.715 66.8865ZM16.509 66.2683L16.1015 65.0648L15.6988 66.2683H16.509Z" fill="#BAA360"/>
<path d="M14.0941 64.1797V67.4672H13.2933V65.4956L12.5581 67.4672H11.9118L11.1719 65.4909V67.4672H10.3711V64.1797H11.3171L12.2396 66.4556L13.1528 64.1797H14.0941Z" fill="#BAA360"/>
<path d="M8.99293 67.4672L8.30921 66.2262H8.1172V67.4672H7.31641V64.1797H8.66043C8.91956 64.1797 9.13966 64.225 9.32074 64.3155C9.50494 64.406 9.64231 64.5309 9.73285 64.6901C9.82338 64.8462 9.86865 65.0211 9.86865 65.2146C9.86865 65.4332 9.80621 65.6283 9.68133 65.8C9.55957 65.9717 9.3785 66.0935 9.1381 66.1653L9.89675 67.4672H8.99293ZM8.1172 65.6595H8.6136C8.76034 65.6595 8.86961 65.6236 8.94141 65.5518C9.01634 65.48 9.05381 65.3785 9.05381 65.2474C9.05381 65.1225 9.01634 65.0242 8.94141 64.9524C8.86961 64.8806 8.76034 64.8447 8.6136 64.8447H8.1172V65.6595Z" fill="#BAA360"/>
</svg>
