<svg width="144" height="47" viewBox="0 0 144 47" fill="none" xmlns="http://www.w3.org/2000/svg">
<g clip-path="url(#clip0_2052_2106)">
<path d="M38.9713 8.84798L25.4495 1.03942C24.2654 0.358406 22.9234 0 21.5575 0C20.1916 0 18.8496 0.358406 17.6655 1.03942L4.14256 8.84798C2.96046 9.53294 1.97882 10.5161 1.29575 11.6993C0.61267 12.8825 0.252076 14.2243 0.25 15.5905V31.2132C0.253052 32.5784 0.614109 33.919 1.29714 35.1012C1.98016 36.2833 2.96128 37.2656 4.14256 37.9501L17.6688 45.7642C18.8532 46.4445 20.1951 46.8024 21.5608 46.8024C22.9266 46.8024 24.2685 46.4445 25.4529 45.7642L38.978 37.9501C40.1587 37.2652 41.1391 36.2827 41.8215 35.1006C42.504 33.9185 42.8645 32.5781 42.8672 31.2132V15.5905C42.8648 14.2239 42.5037 12.882 41.82 11.6988C41.1364 10.5155 40.154 9.53252 38.9713 8.84798ZM40.6692 31.2132C40.6676 32.1931 40.4091 33.1554 39.9194 34.0041C39.4297 34.8529 38.726 35.5583 37.8785 36.0501L24.3477 43.8553C23.4984 44.3429 22.5362 44.5995 21.5569 44.5995C20.5776 44.5995 19.6154 44.3429 18.7662 43.8553L5.23989 36.0412C4.39236 35.5494 3.68863 34.8439 3.19894 33.9952C2.70924 33.1465 2.4507 32.1841 2.44912 31.2042V15.5905C2.45036 14.6105 2.70876 13.6481 3.19849 12.7993C3.68822 11.9505 4.39213 11.2451 5.23989 10.7535L18.7662 2.93937C19.6156 2.4521 20.5777 2.1957 21.5569 2.1957C22.5362 2.1957 23.4983 2.4521 24.3477 2.93937L37.8729 10.7535C38.7206 11.2451 39.4245 11.9505 39.9143 12.7993C40.404 13.6481 40.6624 14.6105 40.6636 15.5905L40.6692 31.2132Z" fill="white" fill-opacity="0.5"/>
<path d="M29.9172 15.7084C29.2829 14.5388 28.3207 13.5801 27.1487 12.95C25.958 12.3011 24.5768 11.9766 23.005 11.9766H15.9745C14.9774 11.9766 14.0211 12.3727 13.316 13.0778C12.6109 13.7829 12.2148 14.7392 12.2148 15.7363V34.7214C12.2148 34.7477 12.2253 34.773 12.2439 34.7916C12.2625 34.8103 12.2878 34.8207 12.3141 34.8207H12.8902C13.7872 34.8201 14.6474 34.4634 15.2816 33.829C15.9159 33.1946 16.2723 32.3343 16.2726 31.4372V18.4512C16.2718 18.1337 16.3338 17.8192 16.4548 17.5256C16.5758 17.2321 16.7536 16.9653 16.9779 16.7406C17.2022 16.5159 17.4686 16.3377 17.7619 16.2161C18.0552 16.0945 18.3696 16.032 18.6871 16.0322H23.1524C23.8346 16.0176 24.5066 16.1997 25.088 16.5568C25.6532 16.9173 26.1018 17.4338 26.3796 18.0438C26.6958 18.7389 26.8522 19.4961 26.8373 20.2596H30.8995V19.8231C30.8995 18.2715 30.5721 16.8999 29.9172 15.7084Z" fill="white" fill-opacity="0.5"/>
<path d="M30.5463 22.4893H27.2085C27.1757 22.49 27.1437 22.4793 27.1181 22.4589C27.0924 22.4385 27.0746 22.4098 27.0679 22.3777C27.0646 22.3585 27.0656 22.3389 27.0707 22.3201C27.0758 22.3013 27.085 22.2839 27.0975 22.269C27.1101 22.2542 27.1257 22.2422 27.1433 22.234C27.1609 22.2258 27.1801 22.2215 27.1996 22.2214H28.6218C28.7156 22.2214 28.8056 22.1841 28.872 22.1178C28.9383 22.0514 28.9756 21.9614 28.9756 21.8675C28.9756 21.7737 28.9383 21.6837 28.872 21.6173C28.8056 21.551 28.7156 21.5137 28.6218 21.5137H21.2541C20.2916 21.5137 19.3686 21.896 18.688 22.5766C18.0074 23.2572 17.625 24.1803 17.625 25.1428H19.7706C20.3612 25.1427 20.9407 25.303 21.4474 25.6066C21.954 25.9101 22.3688 26.3455 22.6473 26.8664L25.1378 31.5258C25.6124 32.4135 26.3191 33.1556 27.1827 33.6729C28.0462 34.1902 29.034 34.4632 30.0406 34.4628H30.803L25.7886 25.1439H30.5452C30.5932 25.1466 30.6413 25.1395 30.6866 25.1229C30.7318 25.1064 30.7731 25.0808 30.8081 25.0477C30.8431 25.0147 30.871 24.9748 30.89 24.9306C30.9091 24.8864 30.9189 24.8387 30.9189 24.7906C30.9189 24.7425 30.9091 24.6948 30.89 24.6506C30.871 24.6064 30.8431 24.5665 30.8081 24.5334C30.7731 24.5004 30.7318 24.4748 30.6866 24.4582C30.6413 24.4417 30.5932 24.4346 30.5452 24.4373H27.1962C27.1768 24.4372 27.1576 24.4329 27.1399 24.4247C27.1223 24.4165 27.1067 24.4045 27.0942 24.3897C27.0816 24.3748 27.0725 24.3574 27.0674 24.3386C27.0622 24.3198 27.0613 24.3002 27.0645 24.281C27.071 24.2492 27.0884 24.2206 27.1136 24.2003C27.1389 24.1799 27.1705 24.169 27.2029 24.1694H29.3239C29.4142 24.1643 29.4991 24.1249 29.5612 24.0592C29.6233 23.9935 29.6579 23.9065 29.6579 23.8161C29.6579 23.7256 29.6233 23.6387 29.5612 23.573C29.4991 23.5073 29.4142 23.4678 29.3239 23.4627H27.2029C27.1702 23.4636 27.1383 23.4529 27.1127 23.4325C27.0872 23.412 27.0697 23.3832 27.0634 23.3511C27.0598 23.3319 27.0604 23.3122 27.0653 23.2933C27.0702 23.2744 27.0792 23.2568 27.0917 23.2417C27.1042 23.2267 27.1198 23.2146 27.1375 23.2063C27.1552 23.198 27.1745 23.1937 27.194 23.1937H30.5429C30.591 23.1964 30.6391 23.1893 30.6843 23.1727C30.7295 23.1562 30.7709 23.1306 30.8059 23.0976C30.8409 23.0645 30.8687 23.0246 30.8878 22.9804C30.9068 22.9362 30.9167 22.8885 30.9167 22.8404C30.9167 22.7923 30.9068 22.7446 30.8878 22.7004C30.8687 22.6562 30.8409 22.6163 30.8059 22.5833C30.7709 22.5502 30.7295 22.5246 30.6843 22.5081C30.6391 22.4915 30.591 22.4844 30.5429 22.4871L30.5463 22.4893Z" fill="white" fill-opacity="0.5"/>
<path d="M30.5464 21.5156H29.43C29.3362 21.5156 29.2462 21.5529 29.1798 21.6192C29.1135 21.6856 29.0762 21.7756 29.0762 21.8695C29.0762 21.9633 29.1135 22.0533 29.1798 22.1197C29.2462 22.1861 29.3362 22.2233 29.43 22.2233H30.5464C30.6402 22.2233 30.7302 22.1861 30.7966 22.1197C30.8629 22.0533 30.9002 21.9633 30.9002 21.8695C30.9002 21.7756 30.8629 21.6856 30.7966 21.6192C30.7302 21.5529 30.6402 21.5156 30.5464 21.5156Z" fill="white" fill-opacity="0.5"/>
<path d="M30.5462 23.4609H30.2113C30.1174 23.4609 30.0274 23.4982 29.961 23.5646C29.8947 23.6309 29.8574 23.7209 29.8574 23.8148C29.8574 23.9086 29.8947 23.9987 29.961 24.065C30.0274 24.1314 30.1174 24.1687 30.2113 24.1687H30.5462C30.64 24.1687 30.73 24.1314 30.7964 24.065C30.8627 23.9987 30.9 23.9086 30.9 23.8148C30.9 23.7209 30.8627 23.6309 30.7964 23.5646C30.73 23.4982 30.64 23.4609 30.5462 23.4609Z" fill="white" fill-opacity="0.5"/>
<path d="M29.9172 15.7084C29.2829 14.5388 28.3207 13.5801 27.1487 12.95C25.958 12.3011 24.5768 11.9766 23.005 11.9766H15.9745C14.9774 11.9766 14.0211 12.3727 13.316 13.0778C12.6109 13.7829 12.2148 14.7392 12.2148 15.7363V34.7214C12.2148 34.7477 12.2253 34.773 12.2439 34.7916C12.2625 34.8103 12.2878 34.8207 12.3141 34.8207H12.8902C13.7872 34.8201 14.6474 34.4634 15.2816 33.829C15.9159 33.1946 16.2723 32.3343 16.2726 31.4372V18.4512C16.2718 18.1337 16.3338 17.8192 16.4548 17.5256C16.5758 17.2321 16.7536 16.9653 16.9779 16.7406C17.2022 16.5159 17.4686 16.3377 17.7619 16.2161C18.0552 16.0945 18.3696 16.032 18.6871 16.0322H23.1524C23.8346 16.0176 24.5066 16.1997 25.088 16.5568C25.6532 16.9173 26.1018 17.4338 26.3796 18.0438C26.6958 18.7389 26.8522 19.4961 26.8373 20.2596H30.8995V19.8231C30.8995 18.2715 30.5721 16.8999 29.9172 15.7084Z" fill="white" fill-opacity="0.5"/>
<path d="M55.8438 27.5598V8.93359H62.0953C63.956 8.93359 65.3597 9.29505 66.3066 10.018C67.4774 10.9303 68.0629 12.2657 68.0629 14.0241C68.0714 14.8423 67.9038 15.6527 67.5714 16.4003C67.2625 17.1007 66.7835 17.7129 66.1781 18.1813C65.7837 18.4779 65.3425 18.7064 64.8728 18.8577C64.2977 19.0219 63.7011 19.0979 63.1031 19.0831L69.4156 27.5575H64.8593L59.6447 19.6535V27.5598H55.8438ZM59.6447 11.8283V17.2773H61.5813C62.4936 17.2773 63.2174 17.0195 63.7523 16.504C64.0217 16.2336 64.2319 15.9103 64.3697 15.5544C64.5075 15.1985 64.5698 14.8179 64.5527 14.4367C64.5527 13.5935 64.2941 12.9473 63.7771 12.4979C63.2601 12.0485 62.5087 11.823 61.5228 11.8215L59.6447 11.8283Z" fill="white" fill-opacity="0.5"/>
<path d="M69.8457 27.5598L72.3775 8.93359H76.1469L80.5137 21.9011C80.6034 22.2018 80.672 22.5084 80.7189 22.8187C80.7888 23.2245 80.8406 23.5717 80.8745 23.8648C80.8701 23.4932 80.892 23.1218 80.9398 22.7533C80.9846 22.4621 81.0601 22.1764 81.1653 21.9011L85.5299 8.93359H89.3015L91.8333 27.5598H88.1135L86.8983 15.8367L86.8735 14.8019L86.8983 13.2531L86.6909 14.4141L86.3775 15.8096L82.4142 27.5575H79.2287L75.2992 15.8051C75.162 15.3481 75.058 14.8817 74.9881 14.4096L74.7491 13.2441L74.7739 14.3713V15.8187L73.5858 27.5417L69.8457 27.5598Z" fill="white" fill-opacity="0.5"/>
<path d="M143.25 10.588L141.803 13.636L141.002 13.0679C139.984 12.393 138.789 12.0331 137.567 12.0331C136.758 12.018 135.955 12.1705 135.208 12.4809C134.461 12.7913 133.787 13.2529 133.227 13.8366C132.645 14.4183 132.186 15.1119 131.88 15.8757C131.573 16.6394 131.425 17.4574 131.444 18.2801C131.428 19.0961 131.583 19.9064 131.896 20.6599C132.21 21.4134 132.676 22.0938 133.265 22.6583C133.839 23.2414 134.525 23.7019 135.283 24.0119C136.04 24.322 136.852 24.475 137.67 24.4618C138.02 24.4656 138.369 24.4483 138.716 24.41C139.047 24.3584 139.371 24.2715 139.684 24.1507C140.062 24.0132 140.391 23.8802 140.666 23.7517C141.084 23.5381 141.489 23.3003 141.879 23.0393L143.232 26.0895L141.837 26.9146C140.472 27.5916 138.968 27.9369 137.445 27.9224C136.161 27.9477 134.885 27.7138 133.693 27.2346C132.502 26.7555 131.419 26.0409 130.51 25.1336C129.586 24.2528 128.854 23.1892 128.363 22.0105C127.872 20.8318 127.631 19.5637 127.656 18.2869C127.636 17.0116 127.878 15.7458 128.367 14.568C128.857 13.3902 129.583 12.3255 130.501 11.4402C131.402 10.5187 132.482 9.79117 133.675 9.3023C134.867 8.81342 136.147 8.57352 137.436 8.59732C137.946 8.59393 138.457 8.62859 138.962 8.70101C139.454 8.78213 139.938 8.90739 140.407 9.07526C140.854 9.22719 141.29 9.40869 141.713 9.61857C142.244 9.91023 142.758 10.234 143.25 10.588Z" fill="white" fill-opacity="0.5"/>
<path d="M110.059 27.5835H106.206L105.142 24.5445H98.1901L97.1237 27.5835H93.2754L100.212 9.43975V9.4375H103.116L103.12 9.44877L101.666 14.625L99.3985 21.0975H103.934L102.658 17.452L104.353 12.6681L110.059 27.5835Z" fill="white" fill-opacity="0.5"/>
<path d="M127.647 27.5835H123.794L122.73 24.5445H115.777L114.713 27.5835H110.863L117.8 9.43975V9.4375H120.703L120.71 9.44877L119.254 14.625L116.986 21.0975H121.522L120.246 17.452L121.941 12.6681L127.647 27.5835Z" fill="white" fill-opacity="0.5"/>
<path d="M77.4551 31.3984H82.1398V32.2844H77.4551V31.3984ZM79.3308 31.9418H80.2618V38.0287H79.3263L79.3308 31.9418Z" fill="white" fill-opacity="0.5"/>
<path d="M83.0469 31.3984H83.978V38.0423H83.0469V31.3984ZM83.4978 31.3984H87.3101V32.2844H83.4978V31.3984ZM83.4978 34.2976H86.8096V35.1836H83.4978V34.2976ZM83.4978 37.1518H87.3101V38.0423H83.4978V37.1518Z" fill="white" fill-opacity="0.5"/>
<path d="M89.5965 37.8009C89.2479 37.5959 88.966 37.2944 88.7849 36.9329C88.588 36.528 88.4899 36.0822 88.4986 35.6321V33.8105C88.4896 33.3596 88.5878 32.913 88.7849 32.5074C88.966 32.1459 89.2479 31.8445 89.5965 31.6395C89.9654 31.4287 90.3846 31.322 90.8094 31.3306C91.1739 31.3269 91.5341 31.4104 91.8599 31.5741C92.1785 31.7371 92.453 31.9745 92.6603 32.2662C92.8799 32.5756 93.0285 32.9297 93.0954 33.3032H92.1417C92.0862 33.0995 91.9869 32.9102 91.8509 32.7487C91.7214 32.5903 91.5591 32.4618 91.3752 32.3722C91.2205 32.2932 91.0515 32.2465 90.8782 32.2347C90.7049 32.223 90.5311 32.2465 90.3672 32.3038C90.2032 32.3611 90.0526 32.4511 89.9244 32.5682C89.7962 32.6853 89.6931 32.8273 89.6213 32.9854C89.5038 33.2443 89.446 33.5263 89.4522 33.8105V35.6321C89.447 35.9191 89.5071 36.2036 89.628 36.464C89.7294 36.6899 89.8948 36.8811 90.1037 37.0141C90.3172 37.1469 90.5648 37.2143 90.8161 37.2079C91.0151 37.2097 91.2119 37.1669 91.3921 37.0826C91.5724 36.9983 91.7314 36.8748 91.8577 36.721C91.9971 36.5531 92.0965 36.3558 92.1485 36.1438H93.1021C93.0358 36.5179 92.8864 36.8723 92.6648 37.1809C92.4565 37.4734 92.1803 37.7109 91.8599 37.873C91.5365 38.0365 91.1785 38.12 90.8161 38.1165C90.3885 38.1233 89.9671 38.0142 89.5965 37.8009Z" fill="white" fill-opacity="0.5"/>
<path d="M94.3281 31.3984H95.2636V38.0423H94.3326L94.3281 31.3984ZM94.9074 34.3292H98.5935V35.2152H94.9074V34.3292ZM98.0997 31.3984H99.0308V38.0423H98.0997V31.3984Z" fill="white" fill-opacity="0.5"/>
<path d="M100.676 31.3984H101.521L104.768 36.5318L104.657 36.649V31.3984H105.579V38.0423H104.734L101.497 32.9878L101.605 32.8683V38.0535H100.676V31.3984Z" fill="white" fill-opacity="0.5"/>
<path d="M108.196 37.8043C107.845 37.6038 107.559 37.3053 107.375 36.9454C107.176 36.5466 107.077 36.1057 107.087 35.6603V33.7779C107.077 33.3325 107.176 32.8916 107.375 32.4928C107.559 32.133 107.844 31.8351 108.196 31.6362C108.573 31.4364 108.992 31.332 109.419 31.332C109.845 31.332 110.265 31.4364 110.642 31.6362C110.993 31.8351 111.279 32.133 111.462 32.4928C111.663 32.891 111.763 33.3322 111.753 33.7779V35.6603C111.763 36.106 111.663 36.5472 111.462 36.9454C111.278 37.3053 110.993 37.6038 110.642 37.8043C110.265 38.0027 109.845 38.1064 109.419 38.1064C108.993 38.1064 108.573 38.0027 108.196 37.8043ZM110.144 37.004C110.353 36.8805 110.521 36.6977 110.626 36.4787C110.745 36.2338 110.804 35.964 110.797 35.6919V33.7463C110.804 33.4742 110.745 33.2044 110.626 32.9595C110.52 32.7409 110.353 32.5582 110.144 32.4342C109.922 32.3129 109.673 32.2493 109.42 32.2493C109.167 32.2493 108.918 32.3129 108.696 32.4342C108.487 32.5581 108.318 32.7407 108.212 32.9595C108.093 33.2044 108.034 33.4742 108.04 33.7463V35.6919C108.034 35.964 108.093 36.2338 108.212 36.4787C108.318 36.6979 108.486 36.8807 108.696 37.004C108.918 37.1253 109.167 37.1889 109.42 37.1889C109.673 37.1889 109.922 37.1253 110.144 37.004Z" fill="white" fill-opacity="0.5"/>
<path d="M113.168 31.3984H114.101V38.0423H113.168V31.3984ZM113.635 37.1518H117.433V38.0423H113.635V37.1518Z" fill="white" fill-opacity="0.5"/>
<path d="M119.317 37.8043C118.967 37.6032 118.683 37.3048 118.499 36.9454C118.298 36.5472 118.198 36.106 118.208 35.6603V33.7779C118.198 33.3322 118.298 32.891 118.499 32.4929C118.682 32.1336 118.967 31.8359 119.317 31.6362C119.694 31.4364 120.114 31.332 120.541 31.332C120.968 31.332 121.388 31.4364 121.765 31.6362C122.117 31.8346 122.401 32.1327 122.584 32.4929C122.784 32.891 122.884 33.3322 122.874 33.7779V35.6603C122.884 36.106 122.784 36.5472 122.584 36.9454C122.401 37.3057 122.116 37.6044 121.765 37.8043C121.388 38.0028 120.968 38.1065 120.541 38.1065C120.115 38.1065 119.694 38.0028 119.317 37.8043ZM121.265 37.004C121.475 36.8807 121.643 36.6979 121.749 36.4787C121.867 36.2334 121.926 35.964 121.921 35.6919V33.7463C121.926 33.4743 121.867 33.2048 121.749 32.9595C121.643 32.7407 121.474 32.5581 121.265 32.4342C121.043 32.3129 120.794 32.2493 120.541 32.2493C120.288 32.2493 120.039 32.3129 119.817 32.4342C119.608 32.5588 119.44 32.7413 119.333 32.9595C119.216 33.205 119.158 33.4745 119.164 33.7463V35.6919C119.158 35.9638 119.216 36.2332 119.333 36.4787C119.439 36.6974 119.608 36.8801 119.817 37.004C120.039 37.1253 120.288 37.1889 120.541 37.1889C120.794 37.1889 121.043 37.1253 121.265 37.004Z" fill="white" fill-opacity="0.5"/>
<path d="M128.736 34.4621V35.6231C128.746 36.074 128.647 36.5207 128.45 36.9262C128.269 37.2907 127.985 37.594 127.634 37.7986C127.262 38.0086 126.841 38.1145 126.414 38.1052C125.984 38.1155 125.559 38.0161 125.178 37.8167C124.83 37.6285 124.543 37.3435 124.353 36.996C124.153 36.618 124.053 36.195 124.063 35.7674V33.8105C124.052 33.3595 124.151 32.9127 124.349 32.5075C124.53 32.1447 124.814 31.843 125.165 31.6395C125.537 31.4284 125.959 31.3217 126.387 31.3306C126.751 31.3272 127.112 31.4107 127.437 31.5741C127.758 31.7363 128.035 31.9738 128.245 32.2662C128.465 32.5755 128.614 32.9296 128.682 33.3033H127.674C127.625 33.094 127.529 32.8984 127.395 32.7306C127.273 32.5767 127.119 32.4519 126.944 32.3654C126.774 32.282 126.587 32.2388 126.398 32.2392C126.143 32.2337 125.892 32.3018 125.674 32.4353C125.466 32.5692 125.3 32.7601 125.197 32.9854C125.079 33.2443 125.021 33.5263 125.027 33.8105V35.7674C125.022 36.0289 125.082 36.2876 125.201 36.5204C125.313 36.731 125.483 36.9042 125.692 37.0186C125.917 37.1412 126.17 37.2026 126.425 37.1967C126.678 37.2024 126.928 37.1384 127.147 37.0118C127.356 36.8849 127.523 36.698 127.625 36.4753C127.743 36.2135 127.801 35.9284 127.794 35.6411V35.3526H126.441V34.4508L128.736 34.4621Z" fill="white" fill-opacity="0.5"/>
<path d="M131.083 38.0423H130.152V31.3984H131.083V38.0423Z" fill="white" fill-opacity="0.5"/>
<path d="M132.729 31.3984H133.66V38.0423H132.729V31.3984ZM133.179 31.3984H136.992V32.2844H133.179V31.3984ZM133.179 34.2976H136.489V35.1836H133.179V34.2976ZM133.179 37.1518H136.992V38.0423H133.179V37.1518Z" fill="white" fill-opacity="0.5"/>
<path d="M139.403 38.0148C139.125 37.9566 138.856 37.8642 138.6 37.7398C138.351 37.6185 138.117 37.4671 137.904 37.2889L138.483 36.5765C138.73 36.7907 139.013 36.958 139.32 37.0702C139.638 37.1816 139.974 37.2372 140.312 37.2348C140.706 37.2589 141.098 37.1655 141.439 36.9665C141.565 36.8859 141.668 36.7739 141.737 36.6415C141.807 36.5091 141.841 36.3608 141.836 36.2113C141.846 36.0119 141.782 35.8156 141.655 35.6612C141.529 35.5212 141.368 35.417 141.189 35.3591C140.948 35.2805 140.701 35.2203 140.451 35.1788H140.422H140.393L140.325 35.1652C139.952 35.101 139.584 35.0075 139.225 34.8857C138.94 34.7848 138.692 34.6021 138.51 34.3604C138.293 34.0422 138.188 33.6605 138.213 33.276C138.202 32.906 138.297 32.5406 138.488 32.2232C138.681 31.92 138.963 31.6838 139.295 31.5469C139.7 31.3867 140.133 31.31 140.569 31.3214C140.804 31.3209 141.04 31.3466 141.27 31.3981C141.502 31.4495 141.729 31.525 141.946 31.6235C142.178 31.7301 142.398 31.8592 142.604 32.009L142.075 32.7485C141.843 32.5748 141.589 32.4336 141.319 32.3291C141.078 32.2387 140.822 32.1921 140.564 32.1916C140.192 32.1704 139.823 32.2649 139.507 32.4622C139.385 32.5491 139.287 32.6648 139.221 32.799C139.156 32.9332 139.124 33.0816 139.13 33.2309C139.125 33.3291 139.139 33.4274 139.173 33.5199C139.206 33.6125 139.258 33.6974 139.324 33.7697C139.46 33.9034 139.626 34.0023 139.809 34.0583C140.073 34.138 140.342 34.2027 140.614 34.2522H140.647H140.684H140.733H140.783C141.127 34.3184 141.464 34.4165 141.79 34.5453C142.062 34.661 142.296 34.8498 142.467 35.0908C142.663 35.3974 142.757 35.7578 142.737 36.1211C142.749 36.4881 142.648 36.8499 142.449 37.1582C142.244 37.4566 141.954 37.6861 141.617 37.8165C141.197 37.9772 140.75 38.0538 140.3 38.0419C140.001 38.0639 139.7 38.0548 139.403 38.0148Z" fill="white" fill-opacity="0.5"/>
</g>
<defs>
<clipPath id="clip0_2052_2106">
<rect width="143" height="47" fill="white" transform="translate(0.25)"/>
</clipPath>
</defs>
</svg>
