<svg width="64" height="67" viewBox="0 0 64 67" fill="none" xmlns="http://www.w3.org/2000/svg">
<path d="M63.2452 63.4871C63.2452 63.4871 62.2805 63.1593 60.6087 62.5458C59.7845 62.2086 58.7355 61.9417 57.5694 61.5624C56.4127 61.169 55.0546 60.8505 53.5982 60.4665C53.2329 60.3729 52.863 60.2745 52.4837 60.1762C52.0996 60.0966 51.7063 60.017 51.3082 59.9374C50.5121 59.7688 49.6926 59.5955 48.8496 59.4175C48.002 59.2489 47.1216 59.1366 46.2318 58.9914C45.3374 58.8556 44.4289 58.6823 43.4922 58.6027C42.5603 58.495 41.6097 58.3873 40.6497 58.2796C39.6896 58.1906 38.7062 58.1484 37.7274 58.0735C37.2357 58.0407 36.744 58.0033 36.2476 57.9705C35.7512 57.9471 35.2548 57.9518 34.7537 57.933C33.7562 57.9096 32.7541 57.8862 31.7519 57.8628C30.7451 57.8862 29.7429 57.9096 28.7407 57.933C28.235 57.9471 27.7292 57.9518 27.2328 57.9705C26.7411 58.0033 26.2494 58.0407 25.7623 58.0735C24.7836 58.1484 23.8142 58.1953 22.8542 58.2796C21.8941 58.392 20.9435 58.4997 20.0116 58.6074C19.075 58.687 18.1665 58.8649 17.272 58.9961C16.3776 59.1412 15.4971 59.2536 14.6495 59.4222C13.8066 59.6002 12.9824 59.7734 12.1909 59.942C11.7929 60.0216 11.3995 60.1013 11.0155 60.1809C10.6362 60.2792 10.2662 60.3776 9.90093 60.4712C8.44451 60.8552 7.08643 61.1737 5.92505 61.567C4.75429 61.9464 3.70998 62.2133 2.88576 62.5458C1.22329 63.1546 0.253906 63.4871 0.253906 63.4871C0.253906 63.4871 1.139 62.9907 2.71718 62.1524C3.49456 61.7075 4.49672 61.2954 5.63938 60.7897C5.92505 60.6632 6.22008 60.5368 6.52447 60.401C6.67901 60.3354 6.83355 60.2698 6.98809 60.1996C7.14731 60.1387 7.31122 60.0825 7.47513 60.0216C8.13543 59.7875 8.82852 59.5393 9.5497 59.2817C9.9103 59.1553 10.2803 59.0242 10.6596 58.8884C11.0436 58.776 11.4323 58.6589 11.8303 58.5418C12.6311 58.317 13.4553 58.0829 14.303 57.844C15.1553 57.6193 16.0451 57.4507 16.9489 57.2399C17.8527 57.0386 18.7799 56.8325 19.7353 56.7061C20.6859 56.5609 21.6553 56.4157 22.6341 56.2659C23.6222 56.1394 24.629 56.0692 25.6453 55.9755C26.151 55.9287 26.6615 55.8865 27.1719 55.8444C27.6777 55.8116 28.1788 55.8069 28.6845 55.7882C29.7054 55.7601 30.7263 55.7273 31.7519 55.6992C32.7775 55.7273 33.8078 55.7601 34.8287 55.7882C35.3391 55.8069 35.8496 55.8116 36.36 55.8444C36.8658 55.8912 37.3715 55.9334 37.8773 55.9802C38.8842 56.0739 39.8863 56.1488 40.8698 56.2705C41.8485 56.4204 42.8179 56.5656 43.7685 56.7107C44.7239 56.8372 45.6464 57.0432 46.5549 57.2493C47.4588 57.4554 48.3485 57.6286 49.2009 57.8487C50.0485 58.0876 50.8774 58.3217 51.6735 58.5465C52.0715 58.6636 52.4602 58.7806 52.8442 58.893C53.2236 59.0288 53.5935 59.16 53.9541 59.2864C54.68 59.544 55.3684 59.7922 56.0287 60.031C56.1926 60.0919 56.3565 60.1528 56.5157 60.209C56.6703 60.2792 56.8248 60.3448 56.9794 60.4103C57.2837 60.5415 57.5788 60.6726 57.8691 60.799C59.0118 61.3048 60.0139 61.7216 60.7866 62.1618C62.3601 62.9954 63.2452 63.4964 63.2452 63.4964V63.4871Z" fill="white" fill-opacity="0.5"/>
<path d="M37.2129 36.6066V56.28C37.8826 56.3783 38.5476 56.5329 39.1985 56.7249V39.393L39.9759 39.9222V56.9778C40.1819 57.0527 40.3927 57.1229 40.594 57.2026C40.7158 57.2307 40.8375 57.2728 40.9593 57.3056C41.0623 57.2962 41.1654 57.2822 41.2684 57.2728V40.8026L42.0458 41.3318V57.226C42.4813 57.2119 42.9121 57.2072 43.3383 57.226V42.2169L44.1157 42.7461V57.2634C44.5512 57.2962 44.982 57.343 45.4082 57.4039V43.6265L46.1856 44.1557V57.5304C46.6164 57.61 47.0472 57.713 47.4781 57.8254V45.0407L48.2555 45.5699V58.0361C48.6863 58.1626 49.1171 58.3031 49.548 58.4529V46.4503L50.3254 46.9795V58.7386C50.7562 58.9025 51.1823 59.0851 51.6179 59.2725V46.7173L37.2223 36.5879L37.2129 36.6066Z" fill="white" fill-opacity="0.5"/>
<path d="M20.6914 6.11603V20.624H21.3377V7.71294L22.115 7.31956V20.624H23.4076V6.65926L24.1849 6.2612V20.624H25.4775V5.60089L26.2502 5.20752V20.624H27.5427V4.54721L28.32 4.14916V20.624H29.6126V3.48885L30.3899 3.09548V20.624H31.6825V2.43517L32.4552 2.03711V20.624H33.0733V0L20.6914 6.11603Z" fill="white" fill-opacity="0.5"/>
<path d="M21.3376 57.0156V22.1083L22.115 21.6728V56.847C22.5458 56.7533 22.9767 56.6643 23.4075 56.58V20.9422L24.1849 20.5067V56.4255C24.6157 56.3459 25.0466 56.2756 25.4774 56.2101V19.7762L26.2548 19.3406V56.1024C26.6856 56.0462 27.1164 55.9947 27.5473 55.9572V18.6148L28.3247 18.1793V55.887C28.7555 55.8542 29.1863 55.8354 29.6172 55.8261V17.4487L30.3946 17.0132V55.8261C30.8254 55.8261 31.2562 55.8401 31.6871 55.8682V16.2826L32.4645 15.8471V55.9104C32.8953 55.9525 33.3261 56.0087 33.757 56.0743V15.1212L34.5344 14.6857V56.1539C34.9652 56.1352 35.396 56.1305 35.8269 56.1539V13.9552L36.6043 13.5197V56.2148C37.0819 56.2663 37.5596 56.3365 38.0279 56.4302V9.5625L15.7227 23.176V58.4252C15.7882 58.4064 15.8444 58.383 15.91 58.369C16.3408 58.2612 16.7763 58.1489 17.2119 58.0365V24.4358L17.9892 24.0003V57.8398C18.4201 57.7321 18.8509 57.6244 19.2818 57.5166V23.2697L20.0591 22.8342V57.3246C20.49 57.2216 20.9208 57.1186 21.3516 57.0202L21.3376 57.0156Z" fill="white" fill-opacity="0.5"/>
<path d="M53.8925 66.9999C53.6521 66.9999 53.4367 66.9609 53.2463 66.8828C53.0558 66.8048 52.9028 66.6893 52.7873 66.5363C52.6749 66.3833 52.6156 66.1991 52.6094 65.9837H53.4617C53.4742 66.1054 53.5163 66.1991 53.5881 66.2647C53.6599 66.3271 53.7536 66.3583 53.8691 66.3583C53.9877 66.3583 54.0814 66.3318 54.1501 66.2787C54.2188 66.2225 54.2531 66.146 54.2531 66.0493C54.2531 65.9681 54.225 65.901 54.1688 65.8479C54.1157 65.7948 54.0486 65.7511 53.9675 65.7168C53.8894 65.6824 53.777 65.6434 53.6303 65.5997C53.418 65.5341 53.2447 65.4686 53.1105 65.403C52.9762 65.3374 52.8607 65.2407 52.7639 65.1126C52.6671 64.9846 52.6187 64.8176 52.6187 64.6116C52.6187 64.3056 52.7296 64.0668 52.9512 63.8951C53.1729 63.7202 53.4617 63.6328 53.8176 63.6328C54.1797 63.6328 54.4717 63.7202 54.6933 63.8951C54.915 64.0668 55.0336 64.3072 55.0492 64.6162H54.1829C54.1766 64.5101 54.1376 64.4274 54.0658 64.368C53.994 64.3056 53.9019 64.2744 53.7895 64.2744C53.6927 64.2744 53.6147 64.3009 53.5553 64.354C53.496 64.4039 53.4664 64.4773 53.4664 64.5741C53.4664 64.6802 53.5163 64.763 53.6162 64.8223C53.7161 64.8816 53.8722 64.9456 54.0845 65.0143C54.2968 65.0861 54.4685 65.1548 54.5997 65.2204C54.7339 65.2859 54.8494 65.3811 54.9462 65.506C55.043 65.6309 55.0914 65.7917 55.0914 65.9884C55.0914 66.1757 55.043 66.3458 54.9462 66.4988C54.8525 66.6518 54.7152 66.7736 54.5341 66.8641C54.353 66.9546 54.1392 66.9999 53.8925 66.9999Z" fill="white" fill-opacity="0.5"/>
<path d="M51.323 66.9672L50.6393 65.7262H50.4473V66.9672H49.6465V63.6797H50.9905C51.2496 63.6797 51.4697 63.725 51.6508 63.8155C51.835 63.906 51.9724 64.0309 52.0629 64.1901C52.1535 64.3462 52.1987 64.5211 52.1987 64.7146C52.1987 64.9332 52.1363 65.1283 52.0114 65.3C51.8896 65.4717 51.7086 65.5935 51.4682 65.6653L52.2268 66.9672H51.323ZM50.4473 65.1595H50.9437C51.0904 65.1595 51.1997 65.1236 51.2715 65.0518C51.3464 64.98 51.3839 64.8785 51.3839 64.7474C51.3839 64.6225 51.3464 64.5242 51.2715 64.4524C51.1997 64.3806 51.0904 64.3447 50.9437 64.3447H50.4473V65.1595Z" fill="white" fill-opacity="0.5"/>
<path d="M47.9141 64.3213V64.9863H48.9865V65.6044H47.9141V66.3256H49.127V66.9672H47.1133V63.6797H49.127V64.3213H47.9141Z" fill="white" fill-opacity="0.5"/>
<path d="M46.6968 64.7381C46.6968 64.9285 46.6531 65.1033 46.5657 65.2625C46.4783 65.4186 46.344 65.5451 46.163 65.6419C45.9819 65.7387 45.7571 65.787 45.4886 65.787H44.9922V66.9672H44.1914V63.6797H45.4886C45.7509 63.6797 45.9725 63.725 46.1536 63.8155C46.3347 63.906 46.4705 64.0309 46.561 64.1901C46.6516 64.3494 46.6968 64.532 46.6968 64.7381ZM45.4277 65.1502C45.5807 65.1502 45.6947 65.1143 45.7696 65.0424C45.8445 64.9706 45.882 64.8692 45.882 64.7381C45.882 64.6069 45.8445 64.5055 45.7696 64.4337C45.6947 64.3618 45.5807 64.3259 45.4277 64.3259H44.9922V65.1502H45.4277Z" fill="white" fill-opacity="0.5"/>
<path d="M42.0656 66.9999C41.7565 66.9999 41.4724 66.9281 41.2133 66.7845C40.9573 66.6409 40.7528 66.4411 40.5998 66.1851C40.4499 65.9259 40.375 65.6356 40.375 65.314C40.375 64.9924 40.4499 64.7037 40.5998 64.4477C40.7528 64.1917 40.9573 63.9918 41.2133 63.8482C41.4724 63.7046 41.7565 63.6328 42.0656 63.6328C42.3747 63.6328 42.6572 63.7046 42.9132 63.8482C43.1723 63.9918 43.3753 64.1917 43.522 64.4477C43.6718 64.7037 43.7468 64.9924 43.7468 65.314C43.7468 65.6356 43.6718 65.9259 43.522 66.1851C43.3721 66.4411 43.1692 66.6409 42.9132 66.7845C42.6572 66.9281 42.3747 66.9999 42.0656 66.9999ZM42.0656 66.2694C42.3278 66.2694 42.537 66.1819 42.6931 66.0071C42.8523 65.8323 42.9319 65.6012 42.9319 65.314C42.9319 65.0237 42.8523 64.7926 42.6931 64.6209C42.537 64.4461 42.3278 64.3587 42.0656 64.3587C41.8002 64.3587 41.5879 64.4445 41.4287 64.6162C41.2726 64.788 41.1945 65.0205 41.1945 65.314C41.1945 65.6044 41.2726 65.837 41.4287 66.0118C41.5879 66.1835 41.8002 66.2694 42.0656 66.2694Z" fill="white" fill-opacity="0.5"/>
<path d="M39.0781 66.349H40.1271V66.9672H38.2773V63.6797H39.0781V66.349Z" fill="white" fill-opacity="0.5"/>
<path d="M36.5449 64.3213V64.9863H37.6174V65.6044H36.5449V66.3256H37.7578V66.9672H35.7441V63.6797H37.7578V64.3213H36.5449Z" fill="white" fill-opacity="0.5"/>
<path d="M35.4105 63.6797L34.2444 66.9672H33.2422L32.0762 63.6797H32.9285L33.7433 66.1617L34.5629 63.6797H35.4105Z" fill="white" fill-opacity="0.5"/>
<path d="M30.5899 64.3213V64.9863H31.6623V65.6044H30.5899V66.3256H31.8028V66.9672H29.7891V63.6797H31.8028V64.3213H30.5899Z" fill="white" fill-opacity="0.5"/>
<path d="M27.6184 63.6797C27.9649 63.6797 28.2677 63.7484 28.5269 63.8857C28.786 64.0231 28.9858 64.2167 29.1263 64.4664C29.2699 64.7131 29.3417 64.9987 29.3417 65.3234C29.3417 65.645 29.2699 65.9307 29.1263 66.1804C28.9858 66.4302 28.7844 66.6237 28.5222 66.7611C28.2631 66.8985 27.9618 66.9672 27.6184 66.9672H26.3867V63.6797H27.6184ZM27.5668 66.2741C27.8697 66.2741 28.1054 66.1913 28.274 66.0259C28.4426 65.8604 28.5269 65.6263 28.5269 65.3234C28.5269 65.0206 28.4426 64.7849 28.274 64.6163C28.1054 64.4477 27.8697 64.3634 27.5668 64.3634H27.1875V66.2741H27.5668Z" fill="white" fill-opacity="0.5"/>
<path d="M21.6934 65.3191C21.6934 64.9944 21.7636 64.7056 21.9041 64.4527C22.0446 64.1967 22.2397 63.9985 22.4895 63.858C22.7424 63.7144 23.028 63.6426 23.3465 63.6426C23.7367 63.6426 24.0708 63.7456 24.3486 63.9517C24.6265 64.1577 24.8123 64.4387 24.9059 64.7946H24.0255C23.9599 64.6572 23.8663 64.5526 23.7445 64.4808C23.6259 64.409 23.4901 64.3731 23.3371 64.3731C23.0905 64.3731 22.8907 64.459 22.7377 64.6307C22.5847 64.8024 22.5082 65.0319 22.5082 65.3191C22.5082 65.6063 22.5847 65.8358 22.7377 66.0075C22.8907 66.1792 23.0905 66.2651 23.3371 66.2651C23.4901 66.2651 23.6259 66.2292 23.7445 66.1574C23.8663 66.0856 23.9599 65.981 24.0255 65.8436H24.9059C24.8123 66.1995 24.6265 66.4805 24.3486 66.6865C24.0708 66.8895 23.7367 66.9909 23.3465 66.9909C23.028 66.9909 22.7424 66.9207 22.4895 66.7802C22.2397 66.6366 22.0446 66.4383 21.9041 66.1855C21.7636 65.9326 21.6934 65.6438 21.6934 65.3191Z" fill="white" fill-opacity="0.5"/>
<path d="M20.4201 66.3865H19.1932L18.9965 66.9672H18.1582L19.3477 63.6797H20.2749L21.4644 66.9672H20.6168L20.4201 66.3865ZM20.214 65.7683L19.8066 64.5648L19.4039 65.7683H20.214Z" fill="white" fill-opacity="0.5"/>
<path d="M16.9689 66.3865H15.742L15.5453 66.9672H14.707L15.8965 63.6797H16.8238L18.0132 66.9672H17.1656L16.9689 66.3865ZM16.7629 65.7683L16.3555 64.5648L15.9527 65.7683H16.7629Z" fill="white" fill-opacity="0.5"/>
<path d="M14.346 63.6797V66.9672H13.5453V64.9956L12.81 66.9672H12.1638L11.4238 64.9909V66.9672H10.623V63.6797H11.569L12.4916 65.9556L13.4048 63.6797H14.346Z" fill="white" fill-opacity="0.5"/>
<path d="M9.24488 66.9672L8.56116 65.7262H8.36916V66.9672H7.56836V63.6797H8.91239C9.17151 63.6797 9.39162 63.725 9.57269 63.8155C9.75689 63.906 9.89426 64.0309 9.9848 64.1901C10.0753 64.3462 10.1206 64.5211 10.1206 64.7146C10.1206 64.9332 10.0582 65.1283 9.93329 65.3C9.81153 65.4717 9.63045 65.5935 9.39006 65.6653L10.1487 66.9672H9.24488ZM8.36916 65.1595H8.86556C9.01229 65.1595 9.12156 65.1236 9.19337 65.0518C9.2683 64.98 9.30576 64.8785 9.30576 64.7474C9.30576 64.6225 9.2683 64.5242 9.19337 64.4524C9.12156 64.3806 9.01229 64.3447 8.86556 64.3447H8.36916V65.1595Z" fill="white" fill-opacity="0.5"/>
</svg>
