<svg width="143" height="48" viewBox="0 0 143 48" fill="none" xmlns="http://www.w3.org/2000/svg">
<g clip-path="url(#clip0_268_5183)">
<path d="M38.7213 9.34798L25.1995 1.53942C24.0154 0.858406 22.6734 0.5 21.3075 0.5C19.9416 0.5 18.5996 0.858406 17.4155 1.53942L3.89256 9.34798C2.71046 10.0329 1.72882 11.0161 1.04575 12.1993C0.36267 13.3825 0.0020759 14.7243 0 16.0905V31.7132C0.00305169 33.0784 0.364109 34.419 1.04714 35.6012C1.73016 36.7833 2.71128 37.7656 3.89256 38.4501L17.4188 46.2642C18.6032 46.9445 19.9451 47.3024 21.3108 47.3024C22.6766 47.3024 24.0185 46.9445 25.2029 46.2642L38.728 38.4501C39.9087 37.7652 40.8891 36.7827 41.5715 35.6006C42.254 34.4185 42.6145 33.0781 42.6172 31.7132V16.0905C42.6148 14.7239 42.2537 13.382 41.57 12.1988C40.8864 11.0155 39.904 10.0325 38.7213 9.34798ZM40.4192 31.7132C40.4176 32.6931 40.1591 33.6554 39.6694 34.5041C39.1797 35.3529 38.476 36.0583 37.6285 36.5501L24.0977 44.3553C23.2484 44.8429 22.2862 45.0995 21.3069 45.0995C20.3276 45.0995 19.3654 44.8429 18.5162 44.3553L4.98989 36.5412C4.14236 36.0494 3.43863 35.3439 2.94894 34.4952C2.45924 33.6465 2.2007 32.6841 2.19912 31.7042V16.0905C2.20036 15.1105 2.45876 14.1481 2.94849 13.2993C3.43822 12.4505 4.14213 11.7451 4.98989 11.2535L18.5162 3.43937C19.3656 2.9521 20.3277 2.6957 21.3069 2.6957C22.2862 2.6957 23.2483 2.9521 24.0977 3.43937L37.6229 11.2535C38.4706 11.7451 39.1745 12.4505 39.6643 13.2993C40.154 14.1481 40.4124 15.1105 40.4136 16.0905L40.4192 31.7132Z" fill="url(#paint0_linear_268_5183)"/>
<path d="M29.6672 16.2074C29.0329 15.0378 28.0707 14.0791 26.8987 13.449C25.708 12.8001 24.3268 12.4756 22.755 12.4756H15.7245C14.7274 12.4756 13.7711 12.8717 13.066 13.5768C12.3609 14.2819 11.9648 15.2382 11.9648 16.2353V35.2204C11.9648 35.2467 11.9753 35.272 11.9939 35.2906C12.0125 35.3093 12.0378 35.3197 12.0641 35.3197H12.6402C13.5372 35.3191 14.3974 34.9624 15.0316 34.328C15.6659 33.6936 16.0223 32.8333 16.0226 31.9362V18.9502C16.0218 18.6327 16.0838 18.3182 16.2048 18.0246C16.3258 17.7311 16.5036 17.4643 16.7279 17.2396C16.9522 17.0149 17.2186 16.8367 17.5119 16.7151C17.8052 16.5935 18.1196 16.531 18.4371 16.5312H22.9024C23.5846 16.5166 24.2566 16.6987 24.838 17.0558C25.4032 17.4163 25.8518 17.9328 26.1296 18.5428C26.4458 19.2379 26.6022 19.9951 26.5873 20.7586H30.6495V20.3221C30.6495 18.7705 30.3221 17.3989 29.6672 16.2074Z" fill="url(#paint1_linear_268_5183)"/>
<path d="M30.2963 22.9893H26.9585C26.9257 22.99 26.8937 22.9793 26.8681 22.9589C26.8424 22.9385 26.8246 22.9098 26.8179 22.8777C26.8146 22.8585 26.8156 22.8389 26.8207 22.8201C26.8258 22.8013 26.835 22.7839 26.8475 22.769C26.8601 22.7542 26.8757 22.7422 26.8933 22.734C26.9109 22.7258 26.9301 22.7215 26.9496 22.7214H28.3718C28.4656 22.7214 28.5556 22.6841 28.622 22.6178C28.6883 22.5514 28.7256 22.4614 28.7256 22.3675C28.7256 22.2737 28.6883 22.1837 28.622 22.1173C28.5556 22.051 28.4656 22.0137 28.3718 22.0137H21.0041C20.0416 22.0137 19.1186 22.396 18.438 23.0766C17.7574 23.7572 17.375 24.6803 17.375 25.6428H19.5206C20.1112 25.6427 20.6907 25.803 21.1974 26.1066C21.704 26.4101 22.1188 26.8455 22.3973 27.3664L24.8878 32.0258C25.3624 32.9135 26.0691 33.6556 26.9327 34.1729C27.7962 34.6902 28.784 34.9632 29.7906 34.9628H30.553L25.5386 25.6439H30.2952C30.3432 25.6466 30.3913 25.6395 30.4366 25.6229C30.4818 25.6064 30.5231 25.5808 30.5581 25.5477C30.5931 25.5147 30.621 25.4748 30.64 25.4306C30.6591 25.3864 30.6689 25.3387 30.6689 25.2906C30.6689 25.2425 30.6591 25.1948 30.64 25.1506C30.621 25.1064 30.5931 25.0665 30.5581 25.0334C30.5231 25.0004 30.4818 24.9748 30.4366 24.9582C30.3913 24.9417 30.3432 24.9346 30.2952 24.9373H26.9462C26.9268 24.9372 26.9076 24.9329 26.8899 24.9247C26.8723 24.9165 26.8567 24.9045 26.8442 24.8897C26.8316 24.8748 26.8225 24.8574 26.8174 24.8386C26.8122 24.8198 26.8113 24.8002 26.8145 24.781C26.821 24.7492 26.8384 24.7206 26.8636 24.7003C26.8889 24.6799 26.9205 24.669 26.9529 24.6694H29.0739C29.1642 24.6643 29.2491 24.6249 29.3112 24.5592C29.3733 24.4935 29.4079 24.4065 29.4079 24.3161C29.4079 24.2256 29.3733 24.1387 29.3112 24.073C29.2491 24.0073 29.1642 23.9678 29.0739 23.9627H26.9529C26.9202 23.9636 26.8883 23.9529 26.8627 23.9325C26.8372 23.912 26.8197 23.8832 26.8134 23.8511C26.8098 23.8319 26.8104 23.8122 26.8153 23.7933C26.8202 23.7744 26.8292 23.7568 26.8417 23.7417C26.8542 23.7267 26.8698 23.7146 26.8875 23.7063C26.9052 23.698 26.9245 23.6937 26.944 23.6937H30.2929C30.341 23.6964 30.3891 23.6893 30.4343 23.6727C30.4795 23.6562 30.5209 23.6306 30.5559 23.5976C30.5909 23.5645 30.6187 23.5246 30.6378 23.4804C30.6568 23.4362 30.6667 23.3885 30.6667 23.3404C30.6667 23.2923 30.6568 23.2446 30.6378 23.2004C30.6187 23.1562 30.5909 23.1163 30.5559 23.0833C30.5209 23.0502 30.4795 23.0246 30.4343 23.0081C30.3891 22.9915 30.341 22.9844 30.2929 22.9871L30.2963 22.9893Z" fill="url(#paint2_linear_268_5183)"/>
<path d="M30.2983 22.0151H29.1819C29.0881 22.0151 28.9981 22.0524 28.9317 22.1187C28.8654 22.1851 28.8281 22.2751 28.8281 22.369C28.8281 22.4628 28.8654 22.5528 28.9317 22.6192C28.9981 22.6856 29.0881 22.7228 29.1819 22.7228H30.2983C30.3921 22.7228 30.4821 22.6856 30.5485 22.6192C30.6148 22.5528 30.6521 22.4628 30.6521 22.369C30.6521 22.2751 30.6148 22.1851 30.5485 22.1187C30.4821 22.0524 30.3921 22.0151 30.2983 22.0151Z" fill="url(#paint3_linear_268_5183)"/>
<path d="M30.2982 23.9614H29.9633C29.8694 23.9614 29.7794 23.9987 29.713 24.0651C29.6467 24.1314 29.6094 24.2214 29.6094 24.3153C29.6094 24.4091 29.6467 24.4992 29.713 24.5655C29.7794 24.6319 29.8694 24.6692 29.9633 24.6692H30.2982C30.392 24.6692 30.482 24.6319 30.5484 24.5655C30.6147 24.4992 30.652 24.4091 30.652 24.3153C30.652 24.2214 30.6147 24.1314 30.5484 24.0651C30.482 23.9987 30.392 23.9614 30.2982 23.9614Z" fill="url(#paint4_linear_268_5183)"/>
<path d="M29.6672 16.2074C29.0329 15.0378 28.0707 14.0791 26.8987 13.449C25.708 12.8001 24.3268 12.4756 22.755 12.4756H15.7245C14.7274 12.4756 13.7711 12.8717 13.066 13.5768C12.3609 14.2819 11.9648 15.2382 11.9648 16.2353V35.2204C11.9648 35.2467 11.9753 35.272 11.9939 35.2906C12.0125 35.3093 12.0378 35.3197 12.0641 35.3197H12.6402C13.5372 35.3191 14.3974 34.9624 15.0316 34.328C15.6659 33.6936 16.0223 32.8333 16.0226 31.9362V18.9502C16.0218 18.6327 16.0838 18.3182 16.2048 18.0246C16.3258 17.7311 16.5036 17.4643 16.7279 17.2396C16.9522 17.0149 17.2186 16.8367 17.5119 16.7151C17.8052 16.5935 18.1196 16.531 18.4371 16.5312H22.9024C23.5846 16.5166 24.2566 16.6987 24.838 17.0558C25.4032 17.4163 25.8518 17.9328 26.1296 18.5428C26.4458 19.2379 26.6022 19.9951 26.5873 20.7586H30.6495V20.3221C30.6495 18.7705 30.3221 17.3989 29.6672 16.2074Z" fill="url(#paint5_linear_268_5183)"/>
<path d="M55.5938 28.0593V9.43311H61.8453C63.706 9.43311 65.1097 9.79457 66.0566 10.5175C67.2274 11.4298 67.8129 12.7652 67.8129 14.5236C67.8214 15.3418 67.6538 16.1522 67.3214 16.8998C67.0125 17.6002 66.5335 18.2124 65.9281 18.6808C65.5337 18.9774 65.0925 19.2059 64.6228 19.3572C64.0477 19.5214 63.4511 19.5974 62.8531 19.5826L69.1656 28.057H64.6093L59.3947 20.153V28.0593H55.5938ZM59.3947 12.3278V17.7768H61.3313C62.2436 17.7768 62.9674 17.519 63.5023 17.0035C63.7717 16.7331 63.9819 16.4098 64.1197 16.0539C64.2575 15.698 64.3198 15.3174 64.3027 14.9362C64.3027 14.093 64.0441 13.4468 63.5271 12.9974C63.0101 12.548 62.2587 12.3225 61.2728 12.321L59.3947 12.3278Z" fill="#16181B"/>
<path d="M69.5938 28.0593L72.1255 9.43311H75.895L80.2617 22.4006C80.3514 22.7013 80.42 23.0079 80.4669 23.3182C80.5368 23.724 80.5887 24.0712 80.6226 24.3643C80.6182 23.9927 80.6401 23.6213 80.6879 23.2528C80.7327 22.9616 80.8082 22.6759 80.9134 22.4006L85.278 9.43311H89.0496L91.5814 28.0593H87.8615L86.6464 16.3362L86.6216 15.3014L86.6464 13.7526L86.4389 14.9136L86.1255 16.3091L82.1623 28.057H78.9768L75.0473 16.3046C74.9101 15.8476 74.8061 15.3812 74.7362 14.9091L74.4972 13.7436L74.5219 14.8708V16.3182L73.3339 28.0412L69.5938 28.0593Z" fill="#16181B"/>
<path d="M142.998 11.088L141.551 14.136L140.75 13.5679C139.732 12.893 138.537 12.5331 137.315 12.5331C136.506 12.518 135.703 12.6705 134.956 12.9809C134.209 13.2913 133.535 13.7529 132.975 14.3366C132.393 14.9183 131.934 15.6119 131.628 16.3757C131.321 17.1394 131.173 17.9574 131.192 18.7801C131.176 19.5961 131.331 20.4064 131.644 21.1599C131.958 21.9134 132.424 22.5938 133.013 23.1583C133.587 23.7414 134.273 24.2019 135.031 24.5119C135.788 24.822 136.6 24.975 137.418 24.9618C137.768 24.9656 138.117 24.9483 138.464 24.91C138.795 24.8584 139.119 24.7715 139.432 24.6507C139.81 24.5132 140.139 24.3802 140.414 24.2517C140.832 24.0381 141.237 23.8003 141.627 23.5393L142.98 26.5895L141.585 27.4146C140.22 28.0916 138.716 28.4369 137.193 28.4224C135.909 28.4477 134.633 28.2138 133.441 27.7346C132.25 27.2555 131.167 26.5409 130.258 25.6336C129.334 24.7528 128.602 23.6892 128.111 22.5105C127.62 21.3318 127.379 20.0637 127.404 18.7869C127.384 17.5116 127.626 16.2458 128.115 15.068C128.605 13.8902 129.331 12.8255 130.249 11.9402C131.15 11.0187 132.23 10.2912 133.423 9.8023C134.615 9.31342 135.895 9.07352 137.184 9.09732C137.694 9.09393 138.205 9.12859 138.71 9.20101C139.202 9.28213 139.686 9.40739 140.155 9.57526C140.602 9.72719 141.038 9.90869 141.461 10.1186C141.992 10.4102 142.506 10.734 142.998 11.088Z" fill="#16181B"/>
<path d="M109.811 28.084H105.958L104.894 25.045H97.942L96.8756 28.084H93.0273L99.9642 9.94024V9.93799H102.868L102.872 9.94926L101.418 15.1255L99.1504 21.598H103.686L102.41 17.9525L104.105 13.1686L109.811 28.084Z" fill="#16181B"/>
<path d="M127.397 28.084H123.544L122.48 25.045H115.527L114.463 28.084H110.613L117.55 9.94024V9.93799H120.453L120.46 9.94926L119.004 15.1255L116.736 21.598H121.272L119.996 17.9525L121.691 13.1686L127.397 28.084Z" fill="#16181B"/>
<path d="M77.2031 31.8984H81.8878V32.7844H77.2031V31.8984ZM79.0788 32.4418H80.0098V38.5287H79.0743L79.0788 32.4418Z" fill="#16181B"/>
<path d="M82.7969 31.8984H83.728V38.5423H82.7969V31.8984ZM83.2478 31.8984H87.0601V32.7844H83.2478V31.8984ZM83.2478 34.7976H86.5596V35.6836H83.2478V34.7976ZM83.2478 37.6518H87.0601V38.5423H83.2478V37.6518Z" fill="#16181B"/>
<path d="M89.3485 38.3009C88.9999 38.0959 88.718 37.7944 88.5369 37.4329C88.34 37.028 88.2419 36.5822 88.2506 36.1321V34.3105C88.2416 33.8596 88.3398 33.413 88.5369 33.0074C88.718 32.6459 88.9999 32.3445 89.3485 32.1395C89.7174 31.9287 90.1366 31.822 90.5614 31.8306C90.9259 31.8269 91.2861 31.9104 91.6119 32.0741C91.9305 32.2371 92.205 32.4745 92.4123 32.7662C92.6319 33.0756 92.7805 33.4297 92.8474 33.8032H91.8937C91.8382 33.5995 91.7389 33.4102 91.6029 33.2487C91.4734 33.0903 91.3111 32.9618 91.1272 32.8722C90.9725 32.7932 90.8035 32.7465 90.6302 32.7347C90.4569 32.723 90.2831 32.7465 90.1192 32.8038C89.9552 32.8611 89.8046 32.9511 89.6764 33.0682C89.5482 33.1853 89.4451 33.3273 89.3733 33.4854C89.2558 33.7443 89.198 34.0263 89.2042 34.3105V36.1321C89.199 36.4191 89.2591 36.7036 89.38 36.964C89.4814 37.1899 89.6468 37.3811 89.8557 37.5141C90.0692 37.6469 90.3168 37.7143 90.5681 37.7079C90.7671 37.7097 90.9639 37.6669 91.1441 37.5826C91.3244 37.4983 91.4834 37.3748 91.6097 37.221C91.7491 37.0531 91.8485 36.8558 91.9005 36.6438H92.8541C92.7878 37.0179 92.6384 37.3723 92.4168 37.6809C92.2085 37.9734 91.9323 38.2109 91.6119 38.373C91.2885 38.5365 90.9305 38.62 90.5681 38.6165C90.1405 38.6233 89.7191 38.5142 89.3485 38.3009Z" fill="#16181B"/>
<path d="M94.0781 31.8984H95.0136V38.5423H94.0826L94.0781 31.8984ZM94.6574 34.8292H98.3435V35.7152H94.6574V34.8292ZM97.8497 31.8984H98.7808V38.5423H97.8497V31.8984Z" fill="#16181B"/>
<path d="M100.426 31.8984H101.271L104.518 37.0318L104.407 37.149V31.8984H105.329V38.5423H104.484L101.247 33.4878L101.355 33.3683V38.5535H100.426V31.8984Z" fill="#16181B"/>
<path d="M107.946 38.3034C107.595 38.1029 107.309 37.8044 107.125 37.4445C106.926 37.0457 106.827 36.6048 106.837 36.1594V34.277C106.827 33.8316 106.926 33.3907 107.125 32.9919C107.309 32.6321 107.594 32.3342 107.946 32.1353C108.323 31.9355 108.742 31.8311 109.169 31.8311C109.595 31.8311 110.015 31.9355 110.392 32.1353C110.743 32.3342 111.029 32.6321 111.212 32.9919C111.413 33.3901 111.513 33.8313 111.503 34.277V36.1594C111.513 36.6051 111.413 37.0463 111.212 37.4445C111.028 37.8044 110.743 38.1029 110.392 38.3034C110.015 38.5018 109.595 38.6055 109.169 38.6055C108.743 38.6055 108.323 38.5018 107.946 38.3034ZM109.894 37.5031C110.103 37.3796 110.271 37.1968 110.376 36.9778C110.495 36.7329 110.554 36.4631 110.547 36.191V34.2454C110.554 33.9733 110.495 33.7035 110.376 33.4586C110.27 33.24 110.103 33.0573 109.894 32.9333C109.672 32.812 109.423 32.7484 109.17 32.7484C108.917 32.7484 108.668 32.812 108.446 32.9333C108.237 33.0572 108.068 33.2398 107.962 33.4586C107.843 33.7035 107.784 33.9733 107.79 34.2454V36.191C107.784 36.4631 107.843 36.7329 107.962 36.9778C108.068 37.197 108.236 37.3798 108.446 37.5031C108.668 37.6244 108.917 37.688 109.17 37.688C109.423 37.688 109.672 37.6244 109.894 37.5031Z" fill="#16181B"/>
<path d="M112.918 31.8984H113.851V38.5423H112.918V31.8984ZM113.385 37.6518H117.183V38.5423H113.385V37.6518Z" fill="#16181B"/>
<path d="M119.067 38.3034C118.717 38.1023 118.433 37.8039 118.249 37.4445C118.048 37.0463 117.948 36.6051 117.958 36.1594V34.277C117.948 33.8313 118.048 33.3901 118.249 32.992C118.432 32.6327 118.717 32.335 119.067 32.1353C119.444 31.9355 119.864 31.8311 120.291 31.8311C120.718 31.8311 121.138 31.9355 121.515 32.1353C121.867 32.3337 122.151 32.6318 122.334 32.992C122.534 33.3901 122.634 33.8313 122.624 34.277V36.1594C122.634 36.6051 122.534 37.0463 122.334 37.4445C122.151 37.8048 121.866 38.1035 121.515 38.3034C121.138 38.5019 120.718 38.6056 120.291 38.6056C119.865 38.6056 119.444 38.5019 119.067 38.3034ZM121.015 37.5031C121.225 37.3798 121.393 37.197 121.499 36.9778C121.617 36.7325 121.676 36.4631 121.671 36.191V34.2454C121.676 33.9734 121.617 33.7039 121.499 33.4586C121.393 33.2398 121.224 33.0572 121.015 32.9333C120.793 32.812 120.544 32.7484 120.291 32.7484C120.038 32.7484 119.789 32.812 119.567 32.9333C119.358 33.0579 119.19 33.2404 119.083 33.4586C118.966 33.7041 118.908 33.9736 118.914 34.2454V36.191C118.908 36.4629 118.966 36.7323 119.083 36.9778C119.189 37.1965 119.358 37.3792 119.567 37.5031C119.789 37.6244 120.038 37.688 120.291 37.688C120.544 37.688 120.793 37.6244 121.015 37.5031Z" fill="#16181B"/>
<path d="M128.486 34.9621V36.1231C128.496 36.574 128.397 37.0207 128.2 37.4262C128.019 37.7907 127.735 38.094 127.384 38.2986C127.012 38.5086 126.591 38.6145 126.164 38.6052C125.734 38.6155 125.309 38.5161 124.928 38.3167C124.58 38.1285 124.293 37.8435 124.103 37.496C123.903 37.118 123.803 36.695 123.813 36.2674V34.3105C123.802 33.8595 123.901 33.4127 124.099 33.0075C124.28 32.6447 124.564 32.343 124.915 32.1395C125.287 31.9284 125.709 31.8217 126.137 31.8306C126.501 31.8272 126.862 31.9107 127.187 32.0741C127.508 32.2363 127.785 32.4738 127.995 32.7662C128.215 33.0755 128.364 33.4296 128.432 33.8033H127.424C127.375 33.594 127.279 33.3984 127.145 33.2306C127.023 33.0767 126.869 32.9519 126.694 32.8654C126.524 32.782 126.337 32.7388 126.148 32.7392C125.893 32.7337 125.642 32.8018 125.424 32.9353C125.216 33.0692 125.05 33.2601 124.947 33.4854C124.829 33.7443 124.771 34.0263 124.777 34.3105V36.2674C124.772 36.5289 124.832 36.7876 124.951 37.0204C125.063 37.231 125.233 37.4042 125.442 37.5186C125.667 37.6412 125.92 37.7026 126.175 37.6967C126.428 37.7024 126.678 37.6384 126.897 37.5118C127.106 37.3849 127.273 37.198 127.375 36.9753C127.493 36.7135 127.551 36.4284 127.544 36.1411V35.8526H126.191V34.9508L128.486 34.9621Z" fill="#16181B"/>
<path d="M130.833 38.5423H129.902V31.8984H130.833V38.5423Z" fill="#16181B"/>
<path d="M132.48 31.8984H133.411V38.5423H132.48V31.8984ZM132.93 31.8984H136.743V32.7844H132.93V31.8984ZM132.93 34.7976H136.24V35.6836H132.93V34.7976ZM132.93 37.6518H136.743V38.5423H132.93V37.6518Z" fill="#16181B"/>
<path d="M139.155 38.5153C138.877 38.4571 138.608 38.3647 138.352 38.2403C138.103 38.119 137.869 37.9676 137.656 37.7894L138.235 37.077C138.482 37.2912 138.765 37.4585 139.072 37.5707C139.39 37.6821 139.726 37.7377 140.064 37.7353C140.458 37.7594 140.85 37.666 141.191 37.467C141.317 37.3864 141.42 37.2744 141.489 37.142C141.559 37.0096 141.593 36.8613 141.588 36.7118C141.598 36.5124 141.534 36.3161 141.407 36.1617C141.281 36.0217 141.12 35.9175 140.941 35.8596C140.7 35.781 140.453 35.7208 140.203 35.6793H140.174H140.145L140.077 35.6657C139.704 35.6015 139.336 35.508 138.977 35.3862C138.692 35.2853 138.444 35.1026 138.262 34.8609C138.045 34.5427 137.94 34.161 137.965 33.7765C137.954 33.4065 138.049 33.0411 138.24 32.7237C138.433 32.4205 138.715 32.1843 139.047 32.0474C139.452 31.8872 139.885 31.8105 140.321 31.8219C140.556 31.8214 140.792 31.8471 141.022 31.8986C141.254 31.95 141.481 32.0255 141.698 32.124C141.93 32.2306 142.15 32.3597 142.356 32.5095L141.827 33.249C141.595 33.0753 141.341 32.9341 141.071 32.8296C140.83 32.7392 140.574 32.6926 140.316 32.6921C139.944 32.6709 139.575 32.7654 139.259 32.9627C139.137 33.0496 139.039 33.1653 138.973 33.2995C138.908 33.4337 138.876 33.5821 138.882 33.7314C138.877 33.8296 138.891 33.9279 138.925 34.0204C138.958 34.113 139.01 34.1979 139.076 34.2702C139.212 34.4039 139.378 34.5028 139.561 34.5588C139.825 34.6385 140.094 34.7032 140.366 34.7527H140.399H140.436H140.485H140.535C140.879 34.8189 141.216 34.917 141.542 35.0458C141.814 35.1615 142.048 35.3503 142.219 35.5913C142.415 35.8979 142.509 36.2583 142.489 36.6216C142.501 36.9886 142.4 37.3504 142.201 37.6587C141.996 37.9571 141.706 38.1866 141.369 38.317C140.949 38.4777 140.502 38.5543 140.052 38.5424C139.753 38.5644 139.452 38.5553 139.155 38.5153Z" fill="#16181B"/>
</g>
<defs>
<linearGradient id="paint0_linear_268_5183" x1="-0.00334892" y1="23.899" x2="42.6172" y2="23.899" gradientUnits="userSpaceOnUse">
<stop stop-color="#390290"/>
<stop offset="0.3" stop-color="#141990"/>
<stop offset="0.72" stop-color="#662BE1"/>
<stop offset="1" stop-color="#4A74DC"/>
</linearGradient>
<linearGradient id="paint1_linear_268_5183" x1="11.9626" y1="23.8977" x2="30.6495" y2="23.8977" gradientUnits="userSpaceOnUse">
<stop stop-color="#390290"/>
<stop offset="0.3" stop-color="#141990"/>
<stop offset="0.72" stop-color="#662BE1"/>
<stop offset="1" stop-color="#4A74DC"/>
</linearGradient>
<linearGradient id="paint2_linear_268_5183" x1="17.3706" y1="28.4894" x2="30.6501" y2="28.4894" gradientUnits="userSpaceOnUse">
<stop stop-color="#390290"/>
<stop offset="0.3" stop-color="#141990"/>
<stop offset="0.72" stop-color="#662BE1"/>
<stop offset="1" stop-color="#4A74DC"/>
</linearGradient>
<linearGradient id="paint3_linear_268_5183" x1="28.8325" y1="22.369" x2="30.6521" y2="22.369" gradientUnits="userSpaceOnUse">
<stop stop-color="#662BE1"/>
<stop offset="1" stop-color="#4A74DC"/>
</linearGradient>
<linearGradient id="paint4_linear_268_5183" x1="29.6094" y1="24.3153" x2="30.652" y2="24.3153" gradientUnits="userSpaceOnUse">
<stop stop-color="#662BE1"/>
<stop offset="1" stop-color="#4A74DC"/>
</linearGradient>
<linearGradient id="paint5_linear_268_5183" x1="11.9626" y1="23.8977" x2="30.6495" y2="23.8977" gradientUnits="userSpaceOnUse">
<stop stop-color="#390290"/>
<stop offset="0.3" stop-color="#141990"/>
<stop offset="0.72" stop-color="#662BE1"/>
<stop offset="1" stop-color="#4A74DC"/>
</linearGradient>
<clipPath id="clip0_268_5183">
<rect width="143" height="47" fill="white" transform="translate(0 0.5)"/>
</clipPath>
</defs>
</svg>
