<svg width="111" height="36" viewBox="0 0 111 36" fill="none" xmlns="http://www.w3.org/2000/svg">
<path d="M48.3326 15.4304C47.0193 15.4304 45.8926 15.2375 44.9526 14.8517C44.0126 14.466 43.3006 13.9631 42.8168 13.3431C42.3468 12.7093 42.098 12.0204 42.0703 11.2764C42.0703 11.1662 42.1118 11.0697 42.1947 10.987C42.2915 10.8906 42.4021 10.8424 42.5265 10.8424H45.1392C45.3051 10.8424 45.4365 10.8768 45.5332 10.9457C45.6438 11.0008 45.7544 11.0904 45.865 11.2144C46.0447 11.5726 46.335 11.8688 46.7359 12.1031C47.1368 12.3373 47.669 12.4544 48.3326 12.4544C49.1205 12.4544 49.7219 12.3304 50.1366 12.0824C50.5513 11.8344 50.7587 11.4968 50.7587 11.0697C50.7587 10.7666 50.6481 10.5186 50.4269 10.3257C50.2196 10.1328 49.8878 9.96059 49.4316 9.80903C48.9754 9.65748 48.298 9.48525 47.3995 9.29236C45.7406 8.94792 44.4964 8.44502 43.667 7.78368C42.8514 7.10857 42.4436 6.151 42.4436 4.911C42.4436 4.07054 42.6786 3.31965 43.1486 2.65831C43.6186 1.99697 44.2891 1.4803 45.16 1.1083C46.0309 0.736294 47.0469 0.550293 48.2082 0.550293C49.4109 0.550293 50.4546 0.756961 51.3393 1.1703C52.224 1.58363 52.8945 2.10719 53.3507 2.74098C53.8207 3.36098 54.0695 3.9741 54.0972 4.58033C54.0972 4.70433 54.0557 4.80766 53.9728 4.89033C53.8898 4.973 53.7861 5.01433 53.6617 5.01433H50.9246C50.7587 5.01433 50.6205 4.98677 50.5099 4.93166C50.4131 4.87655 50.3232 4.78699 50.2403 4.66299C50.1573 4.3461 49.9293 4.07743 49.556 3.85699C49.1966 3.63654 48.7473 3.52632 48.2082 3.52632C47.5861 3.52632 47.1092 3.63654 46.7774 3.85699C46.4456 4.07743 46.2797 4.40121 46.2797 4.82833C46.2797 5.11766 46.3696 5.35878 46.5493 5.55167C46.7428 5.74456 47.0469 5.92367 47.4617 6.089C47.8902 6.24056 48.4985 6.39901 49.2864 6.56434C50.5721 6.79857 51.595 7.09479 52.3554 7.45302C53.1295 7.79746 53.6963 8.25213 54.0557 8.81703C54.4151 9.36814 54.5948 10.0639 54.5948 10.9044C54.5948 11.8275 54.3253 12.6335 53.7861 13.3224C53.2608 13.9975 52.5213 14.5211 51.5674 14.8931C50.6274 15.2513 49.5491 15.4304 48.3326 15.4304Z" fill="#1F2634"/>
<path d="M57.1886 15.2237C57.0504 15.2237 56.926 15.1755 56.8154 15.0791C56.7186 14.9689 56.6702 14.8449 56.6702 14.7071V1.27363C56.6702 1.12208 56.7186 0.998074 56.8154 0.901629C56.926 0.805184 57.0504 0.756961 57.1886 0.756961H66.8723C67.0244 0.756961 67.1488 0.805184 67.2456 0.901629C67.3424 0.998074 67.3907 1.12208 67.3907 1.27363V3.21631C67.3907 3.35409 67.3424 3.47809 67.2456 3.58832C67.1488 3.68476 67.0244 3.73299 66.8723 3.73299H60.2576V6.52301H66.4161C66.5682 6.52301 66.6926 6.57812 66.7894 6.68834C66.8862 6.78479 66.9345 6.90879 66.9345 7.06035V8.85836C66.9345 8.99614 66.8862 9.12014 66.7894 9.23036C66.6926 9.32681 66.5682 9.37503 66.4161 9.37503H60.2576V12.2477H67.0382C67.1903 12.2477 67.3147 12.2959 67.4115 12.3924C67.5082 12.4888 67.5566 12.6128 67.5566 12.7644V14.7071C67.5566 14.8449 67.5082 14.9689 67.4115 15.0791C67.3147 15.1755 67.1903 15.2237 67.0382 15.2237H57.1886Z" fill="#1F2634"/>
<path d="M70.4321 15.2237C70.2801 15.2237 70.1556 15.1755 70.0589 15.0791C69.9621 14.9826 69.9137 14.8586 69.9137 14.7071V1.27363C69.9137 1.12208 69.9621 0.998074 70.0589 0.901629C70.1695 0.805184 70.2939 0.756961 70.4321 0.756961H73.1071C73.2591 0.756961 73.3835 0.805184 73.4803 0.901629C73.5909 0.998074 73.6462 1.12208 73.6462 1.27363V6.25434H78.7473V1.27363C78.7473 1.12208 78.7956 0.998074 78.8924 0.901629C78.9892 0.805184 79.1136 0.756961 79.2657 0.756961H81.9406C82.0927 0.756961 82.2171 0.805184 82.3138 0.901629C82.4106 0.998074 82.459 1.12208 82.459 1.27363V14.7071C82.459 14.8586 82.4106 14.9826 82.3138 15.0791C82.2171 15.1755 82.0927 15.2237 81.9406 15.2237H79.2657C79.1136 15.2237 78.9892 15.1755 78.8924 15.0791C78.7956 14.9826 78.7473 14.8586 78.7473 14.7071V9.56103H73.6462V14.7071C73.6462 14.8586 73.5909 14.9826 73.4803 15.0791C73.3835 15.1755 73.2591 15.2237 73.1071 15.2237H70.4321Z" fill="#1F2634"/>
<path d="M84.535 15.2237C84.4244 15.2237 84.3208 15.1824 84.224 15.0997C84.141 15.0033 84.0996 14.9 84.0996 14.7897C84.0996 14.7071 84.1065 14.6451 84.1203 14.6037L88.9933 1.33563C89.0347 1.1703 89.1246 1.03252 89.2628 0.922296C89.4011 0.812073 89.5808 0.756961 89.802 0.756961H92.8709C93.0921 0.756961 93.2718 0.812073 93.41 0.922296C93.5483 1.03252 93.6381 1.1703 93.6796 1.33563L98.5318 14.6037L98.5733 14.7897C98.5733 14.9 98.5249 15.0033 98.4281 15.0997C98.3452 15.1824 98.2415 15.2237 98.1171 15.2237H95.5666C95.2348 15.2237 95.0136 15.0791 94.903 14.7897L94.0943 12.6817H88.5578L87.7698 14.7897C87.6592 15.0791 87.4311 15.2237 87.0855 15.2237H84.535ZM93.2649 9.7057L91.3364 4.24966L89.408 9.7057H93.2649Z" fill="#1F2634"/>
<path d="M102.441 15.2237C102.303 15.2237 102.179 15.1755 102.068 15.0791C101.971 14.9689 101.923 14.8449 101.923 14.7071V4.00165H98.2318C98.0935 4.00165 97.9691 3.95343 97.8585 3.85699C97.7618 3.74676 97.7134 3.62276 97.7134 3.48498V1.27363C97.7134 1.12208 97.7618 0.998074 97.8585 0.901629C97.9691 0.805184 98.0935 0.756961 98.2318 0.756961H109.388C109.54 0.756961 109.664 0.805184 109.761 0.901629C109.858 0.998074 109.906 1.12208 109.906 1.27363V3.48498C109.906 3.63654 109.858 3.76054 109.761 3.85699C109.664 3.95343 109.54 4.00165 109.388 4.00165H105.697V14.7071C105.697 14.8449 105.648 14.9689 105.552 15.0791C105.455 15.1755 105.33 15.2237 105.178 15.2237H102.441Z" fill="#1F2634"/>
<circle cx="17.973" cy="17.9998" r="17.4496" fill="#26BC8F"/>
<ellipse cx="13.4026" cy="19.6619" rx="1.2464" ry="1.66186" fill="#26BC8F"/>
<path d="M28.1768 16.6825C27.9092 16.4134 27.5894 16.2018 27.237 16.0609C26.8846 15.9199 26.5071 15.8525 26.1277 15.8629H19.9802V9.71543C19.9869 9.33686 19.9172 8.96082 19.7754 8.60975C19.6336 8.25868 19.4225 7.93977 19.1548 7.67204C18.8871 7.40431 18.5682 7.19324 18.2171 7.05143C17.866 6.90962 17.49 6.83997 17.1114 6.84663C16.7329 6.83997 16.3568 6.90962 16.0057 7.05143C15.6547 7.19324 15.3358 7.40431 15.068 7.67204C14.8003 7.93977 14.5892 8.25868 14.4474 8.60975C14.3056 8.96082 14.236 9.33686 14.2426 9.71543V14.4121C17.0868 16.6006 17.3942 19.33 16.7713 22.6865C16.0705 26.4241 16.5377 28.1085 18.0376 30.4733C18.47 30.3405 18.8618 30.1009 19.177 29.7765C19.4436 29.5071 19.6535 29.1869 19.7943 28.835C19.9351 28.483 20.0039 28.1064 19.9966 27.7274V21.6414H26.1441C26.5263 21.6511 26.9063 21.5801 27.2593 21.4333C27.6124 21.2864 27.9305 21.0669 28.1932 20.789C28.4596 20.5194 28.6694 20.1992 28.8102 19.8473C28.951 19.4954 29.0199 19.1188 29.0129 18.7399C29.019 18.3558 28.9453 17.9746 28.7965 17.6204C28.6476 17.2663 28.4268 16.9469 28.1481 16.6825H28.1768Z" fill="white"/>
<path fill-rule="evenodd" clip-rule="evenodd" d="M18.4702 16.6175C17.5768 14.9782 16.0686 13.8676 14.2449 12.8963C13.0154 12.2528 11.6834 11.6668 10.2818 11.0356C10.3817 12.6513 10.259 14.273 9.91706 15.8552C9.81051 16.3962 9.67526 16.9823 9.50723 17.679C9.154 18.9805 9.18245 20.3562 9.5892 21.642C10.2982 23.642 12.1055 24.8223 14.2326 25.6583C14.4211 25.7321 14.6096 25.8059 14.8022 25.8714C14.6096 25.7403 14.417 25.6051 14.2326 25.4616C12.9028 24.5172 11.9001 23.1822 11.3638 21.642C11.1436 21.0053 10.9831 20.3495 10.8843 19.683C11.7039 20.9658 12.5236 21.5437 13.2121 21.642C13.36 21.6666 13.5109 21.6666 13.6588 21.642C13.9746 21.5728 14.2647 21.4162 14.4958 21.1901C14.727 20.9641 14.8899 20.6776 14.9662 20.3633C15.3309 19.2158 15.0522 17.4945 14.2326 15.8552C13.7217 14.8317 13.0271 13.9107 12.1834 13.1381C12.9064 13.4951 13.5927 13.922 14.2326 14.4126C17.0768 16.6011 17.3841 19.3306 16.7612 22.6871C16.0604 26.4247 16.5276 28.1091 18.0276 30.4738C18.1601 30.4343 18.2889 30.3836 18.4128 30.3222C16.5645 24.3551 21.1054 21.4822 18.4702 16.6175ZM13.8063 20.5683C13.6171 20.6765 13.3999 20.7262 13.1824 20.711C12.9649 20.6959 12.7567 20.6165 12.5843 20.4831C12.4118 20.3496 12.2829 20.168 12.2136 19.9613C12.1444 19.7545 12.1381 19.5318 12.1954 19.3214C12.2527 19.1111 12.3711 18.9224 12.5357 18.7793C12.7002 18.6363 12.9035 18.5452 13.1198 18.5177C13.3361 18.4901 13.5557 18.5273 13.7509 18.6246C13.946 18.7219 14.108 18.8749 14.2162 19.0642C14.2885 19.1897 14.3354 19.3283 14.3539 19.4721C14.3725 19.6158 14.3624 19.7617 14.3244 19.9015C14.2863 20.0414 14.2209 20.1722 14.132 20.2867C14.0431 20.4011 13.9324 20.4968 13.8063 20.5683Z" fill="white"/>
<path d="M42.1799 34.2108C42.055 34.2108 41.9527 34.1707 41.8732 34.0905C41.7937 33.9989 41.7539 33.8901 41.7539 33.7641V32.0977C41.7539 31.8571 41.8391 31.651 42.0095 31.4792L47.4969 24.7448H42.3333C42.2197 24.7448 42.1175 24.7047 42.0266 24.6245C41.947 24.5329 41.9073 24.4298 41.9073 24.3153V22.6145C41.9073 22.4885 41.947 22.3854 42.0266 22.3052C42.1175 22.2251 42.2197 22.185 42.3333 22.185H50.9393C51.0643 22.185 51.1665 22.2251 51.246 22.3052C51.3256 22.3854 51.3653 22.4885 51.3653 22.6145V24.2809C51.3653 24.4756 51.2915 24.6703 51.1438 24.865L45.8098 31.6166H51.1267C51.2517 31.6166 51.354 31.6624 51.4335 31.7541C51.5244 31.8342 51.5698 31.9373 51.5698 32.0633V33.7813C51.5698 33.9073 51.5244 34.0103 51.4335 34.0905C51.354 34.1707 51.2517 34.2108 51.1267 34.2108H42.1799Z" fill="#26BC8F"/>
<path d="M53.8089 34.2108C53.6953 34.2108 53.5931 34.1707 53.5022 34.0905C53.4227 33.9989 53.3829 33.8958 53.3829 33.7813V22.6145C53.3829 22.4885 53.4227 22.3854 53.5022 22.3052C53.5931 22.2251 53.6953 22.185 53.8089 22.185H56.0925C56.2175 22.185 56.3197 22.2251 56.3992 22.3052C56.4901 22.3854 56.5356 22.4885 56.5356 22.6145V33.7813C56.5356 33.9073 56.4901 34.0103 56.3992 34.0905C56.3197 34.1707 56.2175 34.2108 56.0925 34.2108H53.8089Z" fill="#26BC8F"/>
<path d="M59.3341 34.2108C59.2205 34.2108 59.1182 34.1707 59.0274 34.0905C58.9478 33.9989 58.9081 33.8958 58.9081 33.7813V22.6145C58.9081 22.4885 58.9478 22.3854 59.0274 22.3052C59.1182 22.2251 59.2205 22.185 59.3341 22.185H61.1405C61.4245 22.185 61.6177 22.2938 61.7199 22.5114L65.8781 29.1084V22.6145C65.8781 22.4885 65.9178 22.3854 65.9973 22.3052C66.0882 22.2251 66.1905 22.185 66.3041 22.185H68.3491C68.4741 22.185 68.5763 22.2251 68.6558 22.3052C68.7354 22.3854 68.7751 22.4885 68.7751 22.6145V33.7641C68.7751 33.8901 68.7354 33.9989 68.6558 34.0905C68.5763 34.1707 68.4741 34.2108 68.3491 34.2108H66.5256C66.2757 34.2108 66.0882 34.102 65.9633 33.8844L61.8051 27.5279V33.7813C61.8051 33.8958 61.7654 33.9989 61.6858 34.0905C61.6063 34.1707 61.5041 34.2108 61.3791 34.2108H59.3341Z" fill="#26BC8F"/>
<path d="M71.5827 34.2108C71.4691 34.2108 71.3669 34.1707 71.276 34.0905C71.1964 33.9989 71.1567 33.8958 71.1567 33.7813V22.6145C71.1567 22.4885 71.1964 22.3854 71.276 22.3052C71.3669 22.2251 71.4691 22.185 71.5827 22.185H76.0135C77.6836 22.185 78.9787 22.5858 79.899 23.3876C80.8192 24.1893 81.3021 25.3518 81.3475 26.875C81.3589 27.2072 81.3646 27.6481 81.3646 28.1979C81.3646 28.7476 81.3589 29.1828 81.3475 29.5035C81.2907 31.0955 80.8192 32.2809 79.9331 33.0597C79.0583 33.8271 77.7801 34.2108 76.0987 34.2108H71.5827ZM76.0135 31.7369C76.7633 31.7369 77.3144 31.5594 77.6665 31.2043C78.0187 30.8378 78.2062 30.2594 78.2289 29.4692C78.2516 29.137 78.263 28.7075 78.263 28.1807C78.263 27.6539 78.2516 27.2301 78.2289 26.9094C78.2062 26.142 78.0017 25.5751 77.6154 25.2086C77.2405 24.8421 76.6781 24.6589 75.9283 24.6589H74.2242V31.7369H76.0135Z" fill="#26BC8F"/>
<path d="M82.4241 34.2108C82.3332 34.2108 82.248 34.1764 82.1684 34.1077C82.1003 34.0275 82.0662 33.9416 82.0662 33.85C82.0662 33.7813 82.0719 33.7297 82.0832 33.6954L86.088 22.666C86.1221 22.5286 86.1959 22.414 86.3095 22.3224C86.4231 22.2308 86.5708 22.185 86.7526 22.185H89.2748C89.4565 22.185 89.6042 22.2308 89.7178 22.3224C89.8314 22.414 89.9053 22.5286 89.9394 22.666L93.9271 33.6954L93.9612 33.85C93.9612 33.9416 93.9214 34.0275 93.8419 34.1077C93.7737 34.1764 93.6885 34.2108 93.5863 34.2108H91.4902C91.2175 34.2108 91.0357 34.0905 90.9448 33.85L90.2802 32.0977H85.7301L85.0825 33.85C84.9916 34.0905 84.8042 34.2108 84.5202 34.2108H82.4241ZM89.5985 29.6238L88.0137 25.0883L86.4288 29.6238H89.5985Z" fill="#26BC8F"/>
<path d="M99.9798 34.3826C98.3438 34.3826 97.0657 33.9817 96.1454 33.18C95.2252 32.3668 94.7366 31.2158 94.6798 29.7269C94.6685 29.3947 94.6628 28.8679 94.6628 28.1463C94.6628 27.4248 94.6685 26.8979 94.6798 26.5658C94.7366 25.1113 95.2309 23.9888 96.1625 23.1986C97.1054 22.4083 98.3779 22.0132 99.9798 22.0132C101.059 22.0132 101.996 22.1907 102.792 22.5458C103.598 22.9008 104.212 23.3532 104.632 23.903C105.064 24.4527 105.291 25.0196 105.314 25.6037C105.314 25.7068 105.274 25.7927 105.194 25.8614C105.126 25.9302 105.041 25.9645 104.939 25.9645H102.451C102.337 25.9645 102.246 25.9473 102.178 25.913C102.11 25.8786 102.053 25.8156 102.008 25.724C101.86 25.3919 101.627 25.1055 101.309 24.865C100.991 24.613 100.548 24.4871 99.9798 24.4871C98.6278 24.4871 97.9177 25.2086 97.8496 26.6517C97.8382 26.9724 97.8325 27.4706 97.8325 28.1463C97.8325 28.8106 97.8382 29.3088 97.8496 29.641C97.9177 31.1528 98.6448 31.9087 100.031 31.9087C100.701 31.9087 101.235 31.7369 101.633 31.3933C102.042 31.0382 102.246 30.5 102.246 29.7784V29.452H100.644C100.519 29.452 100.417 29.4119 100.338 29.3317C100.258 29.2401 100.218 29.1313 100.218 29.0053V27.734C100.218 27.608 100.258 27.505 100.338 27.4248C100.417 27.3332 100.519 27.2873 100.644 27.2873H104.939C105.064 27.2873 105.166 27.3332 105.246 27.4248C105.325 27.505 105.365 27.608 105.365 27.734V29.6925C105.365 30.666 105.143 31.5078 104.7 32.2179C104.257 32.9166 103.627 33.4549 102.809 33.8328C102.002 34.1993 101.059 34.3826 99.9798 34.3826Z" fill="#26BC8F"/>
<path d="M107.746 34.2108C107.632 34.2108 107.53 34.1707 107.439 34.0905C107.36 33.9989 107.32 33.8958 107.32 33.7813V22.6145C107.32 22.4885 107.36 22.3854 107.439 22.3052C107.53 22.2251 107.632 22.185 107.746 22.185H110.03C110.155 22.185 110.257 22.2251 110.336 22.3052C110.427 22.3854 110.473 22.4885 110.473 22.6145V33.7813C110.473 33.9073 110.427 34.0103 110.336 34.0905C110.257 34.1707 110.155 34.2108 110.03 34.2108H107.746Z" fill="#26BC8F"/>
</svg>
