<svg width="111" height="35" viewBox="0 0 111 35" fill="none" xmlns="http://www.w3.org/2000/svg">
<path d="M48.5826 14.9309C47.2693 14.9309 46.1426 14.738 45.2026 14.3522C44.2626 13.9664 43.5506 13.4636 43.0668 12.8436C42.5968 12.2098 42.348 11.5209 42.3203 10.7769C42.3203 10.6666 42.3618 10.5702 42.4447 10.4875C42.5415 10.3911 42.6521 10.3429 42.7765 10.3429H45.3892C45.5551 10.3429 45.6865 10.3773 45.7832 10.4462C45.8938 10.5013 46.0044 10.5909 46.115 10.7149C46.2947 11.0731 46.585 11.3693 46.9859 11.6035C47.3868 11.8378 47.919 11.9549 48.5826 11.9549C49.3705 11.9549 49.9719 11.8309 50.3866 11.5829C50.8013 11.3349 51.0087 10.9973 51.0087 10.5702C51.0087 10.2671 50.8981 10.0191 50.6769 9.82619C50.4696 9.6333 50.1378 9.46108 49.6816 9.30952C49.2254 9.15797 48.548 8.98574 47.6495 8.79285C45.9906 8.4484 44.7464 7.94551 43.917 7.28417C43.1014 6.60906 42.6936 5.65149 42.6936 4.41148C42.6936 3.57103 42.9286 2.82014 43.3986 2.1588C43.8686 1.49746 44.5391 0.980789 45.41 0.608786C46.2809 0.236783 47.2969 0.0507812 48.4582 0.0507812C49.6609 0.0507812 50.7046 0.25745 51.5893 0.670787C52.474 1.08412 53.1445 1.60768 53.6007 2.24147C54.0707 2.86147 54.3195 3.47459 54.3472 4.08081C54.3472 4.20481 54.3057 4.30815 54.2228 4.39082C54.1398 4.47348 54.0361 4.51482 53.9117 4.51482H51.1746C51.0087 4.51482 50.8705 4.48726 50.7599 4.43215C50.6631 4.37704 50.5732 4.28748 50.4903 4.16348C50.4073 3.84659 50.1793 3.57792 49.806 3.35748C49.4466 3.13703 48.9973 3.02681 48.4582 3.02681C47.8361 3.02681 47.3592 3.13703 47.0274 3.35748C46.6956 3.57792 46.5297 3.9017 46.5297 4.32882C46.5297 4.61815 46.6196 4.85926 46.7993 5.05215C46.9928 5.24505 47.2969 5.42416 47.7117 5.58949C48.1402 5.74105 48.7485 5.89949 49.5364 6.06483C50.8221 6.29905 51.845 6.59528 52.6054 6.9535C53.3795 7.29795 53.9463 7.75262 54.3057 8.31752C54.6651 8.86863 54.8448 9.56441 54.8448 10.4049C54.8448 11.328 54.5753 12.134 54.0361 12.8229C53.5108 13.498 52.7713 14.0216 51.8174 14.3936C50.8774 14.7518 49.7991 14.9309 48.5826 14.9309Z" fill="white" fill-opacity="0.5"/>
<path d="M57.4386 14.7242C57.3004 14.7242 57.176 14.676 57.0654 14.5796C56.9686 14.4693 56.9202 14.3453 56.9202 14.2076V0.774121C56.9202 0.622564 56.9686 0.498562 57.0654 0.402118C57.176 0.305672 57.3004 0.257449 57.4386 0.257449H67.1223C67.2744 0.257449 67.3988 0.305672 67.4956 0.402118C67.5924 0.498562 67.6407 0.622564 67.6407 0.774121V2.7168C67.6407 2.85458 67.5924 2.97858 67.4956 3.08881C67.3988 3.18525 67.2744 3.23347 67.1223 3.23347H60.5076V6.0235H66.6661C66.8182 6.0235 66.9426 6.07861 67.0394 6.18883C67.1362 6.28528 67.1845 6.40928 67.1845 6.56083V8.35885C67.1845 8.49663 67.1362 8.62063 67.0394 8.73085C66.9426 8.8273 66.8182 8.87552 66.6661 8.87552H60.5076V11.7482H67.2882C67.4403 11.7482 67.5647 11.7964 67.6615 11.8929C67.7582 11.9893 67.8066 12.1133 67.8066 12.2649V14.2076C67.8066 14.3453 67.7582 14.4693 67.6615 14.5796C67.5647 14.676 67.4403 14.7242 67.2882 14.7242H57.4386Z" fill="white" fill-opacity="0.5"/>
<path d="M70.6821 14.7242C70.5301 14.7242 70.4056 14.676 70.3089 14.5796C70.2121 14.4831 70.1637 14.3591 70.1637 14.2076V0.774121C70.1637 0.622564 70.2121 0.498562 70.3089 0.402118C70.4195 0.305672 70.5439 0.257449 70.6821 0.257449H73.3571C73.5091 0.257449 73.6335 0.305672 73.7303 0.402118C73.8409 0.498562 73.8962 0.622564 73.8962 0.774121V5.75483H78.9973V0.774121C78.9973 0.622564 79.0456 0.498562 79.1424 0.402118C79.2392 0.305672 79.3636 0.257449 79.5157 0.257449H82.1906C82.3427 0.257449 82.4671 0.305672 82.5638 0.402118C82.6606 0.498562 82.709 0.622564 82.709 0.774121V14.2076C82.709 14.3591 82.6606 14.4831 82.5638 14.5796C82.4671 14.676 82.3427 14.7242 82.1906 14.7242H79.5157C79.3636 14.7242 79.2392 14.676 79.1424 14.5796C79.0456 14.4831 78.9973 14.3591 78.9973 14.2076V9.06152H73.8962V14.2076C73.8962 14.3591 73.8409 14.4831 73.7303 14.5796C73.6335 14.676 73.5091 14.7242 73.3571 14.7242H70.6821Z" fill="white" fill-opacity="0.5"/>
<path d="M84.785 14.7242C84.6744 14.7242 84.5708 14.6829 84.474 14.6002C84.391 14.5038 84.3496 14.4005 84.3496 14.2902C84.3496 14.2076 84.3565 14.1456 84.3703 14.1042L89.2433 0.836121C89.2847 0.670787 89.3746 0.533008 89.5128 0.422785C89.6511 0.312561 89.8308 0.257449 90.052 0.257449H93.1209C93.3421 0.257449 93.5218 0.312561 93.66 0.422785C93.7983 0.533008 93.8881 0.670787 93.9296 0.836121L98.7818 14.1042L98.8233 14.2902C98.8233 14.4005 98.7749 14.5038 98.6781 14.6002C98.5952 14.6829 98.4915 14.7242 98.3671 14.7242H95.8166C95.4848 14.7242 95.2636 14.5796 95.153 14.2902L94.3443 12.1822H88.8078L88.0198 14.2902C87.9092 14.5796 87.6811 14.7242 87.3355 14.7242H84.785ZM93.5149 9.20619L91.5864 3.75014L89.658 9.20619H93.5149Z" fill="white" fill-opacity="0.5"/>
<path d="M102.691 14.7242C102.553 14.7242 102.429 14.676 102.318 14.5796C102.221 14.4693 102.173 14.3453 102.173 14.2076V3.50214H98.4818C98.3435 3.50214 98.2191 3.45392 98.1085 3.35748C98.0118 3.24725 97.9634 3.12325 97.9634 2.98547V0.774121C97.9634 0.622564 98.0118 0.498562 98.1085 0.402118C98.2191 0.305672 98.3435 0.257449 98.4818 0.257449H109.638C109.79 0.257449 109.914 0.305672 110.011 0.402118C110.108 0.498562 110.156 0.622564 110.156 0.774121V2.98547C110.156 3.13703 110.108 3.26103 110.011 3.35748C109.914 3.45392 109.79 3.50214 109.638 3.50214H105.947V14.2076C105.947 14.3453 105.898 14.4693 105.802 14.5796C105.705 14.676 105.58 14.7242 105.428 14.7242H102.691Z" fill="white" fill-opacity="0.5"/>
<circle cx="18.2249" cy="17.5003" r="17.4496" fill="white" fill-opacity="0.5"/>
<ellipse cx="13.6546" cy="19.1619" rx="1.2464" ry="1.66186" fill="white" fill-opacity="0.5"/>
<path d="M28.4268 16.184C28.1592 15.9148 27.8394 15.7033 27.487 15.5623C27.1346 15.4214 26.7571 15.354 26.3777 15.3643H20.2302V9.21689C20.2369 8.83832 20.1672 8.46229 20.0254 8.11122C19.8836 7.76015 19.6725 7.44124 19.4048 7.1735C19.1371 6.90577 18.8182 6.69471 18.4671 6.55289C18.116 6.41108 17.74 6.34143 17.3614 6.34809C16.9829 6.34143 16.6068 6.41108 16.2557 6.55289C15.9047 6.69471 15.5858 6.90577 15.318 7.1735C15.0503 7.44124 14.8392 7.76015 14.6974 8.11122C14.5556 8.46229 14.486 8.83832 14.4926 9.21689V13.9135C17.3368 16.102 17.6442 18.8315 17.0213 22.188C16.3205 25.9256 16.7877 27.61 18.2876 29.9747C18.72 29.842 19.1118 29.6024 19.427 29.278C19.6936 29.0086 19.9035 28.6884 20.0443 28.3364C20.1851 27.9845 20.2539 27.6079 20.2466 27.2289V21.1429H26.3941C26.7763 21.1525 27.1563 21.0816 27.5093 20.9347C27.8624 20.7879 28.1805 20.5684 28.4432 20.2905C28.7096 20.0209 28.9194 19.7007 29.0602 19.3488C29.201 18.9968 29.2699 18.6203 29.2629 18.2413C29.269 17.8572 29.1953 17.476 29.0465 17.1219C28.8976 16.7677 28.6768 16.4484 28.3981 16.184H28.4268Z" fill="#16181B"/>
<path fill-rule="evenodd" clip-rule="evenodd" d="M18.7221 16.119C17.8287 14.4797 16.3205 13.369 14.4968 12.3977C13.2673 11.7543 11.9354 11.1682 10.5338 10.5371C10.6336 12.1528 10.5109 13.7745 10.169 15.3567C10.0625 15.8977 9.92721 16.4837 9.75918 17.1804C9.40595 18.482 9.4344 19.8576 9.84115 21.1435C10.5502 23.1434 12.3575 24.3238 14.4845 25.1598C14.673 25.2336 14.8616 25.3073 15.0542 25.3729C14.8616 25.2418 14.6689 25.1065 14.4845 24.9631C13.1548 24.0187 12.1521 22.6837 11.6157 21.1435C11.3956 20.5067 11.2351 19.8509 11.1362 19.1845C11.9559 20.4673 12.7755 21.0451 13.464 21.1435C13.6119 21.1681 13.7629 21.1681 13.9108 21.1435C14.2266 21.0743 14.5166 20.9177 14.7478 20.6916C14.9789 20.4655 15.1419 20.179 15.2181 19.8648C15.5829 18.7173 15.3042 16.996 14.4845 15.3567C13.9736 14.3331 13.2791 13.4121 12.4354 12.6395C13.1583 12.9966 13.8446 13.4235 14.4845 13.9141C17.3287 16.1026 17.6361 18.832 17.0132 22.1885C16.3123 25.9262 16.7796 27.6106 18.2795 29.9753C18.412 29.9358 18.5409 29.8851 18.6648 29.8237C16.8164 23.8565 21.3573 20.9836 18.7221 16.119ZM14.0583 20.0697C13.869 20.178 13.6519 20.2277 13.4343 20.2125C13.2168 20.1973 13.0087 20.118 12.8362 19.9846C12.6638 19.8511 12.5348 19.6695 12.4656 19.4627C12.3964 19.2559 12.39 19.0333 12.4473 18.8229C12.5047 18.6125 12.6231 18.4239 12.7876 18.2808C12.9522 18.1377 13.1555 18.0467 13.3718 18.0191C13.5881 17.9916 13.8077 18.0288 14.0028 18.1261C14.198 18.2234 14.3599 18.3763 14.4681 18.5657C14.5405 18.6912 14.5873 18.8298 14.6059 18.9735C14.6245 19.1172 14.6144 19.2632 14.5763 19.403C14.5382 19.5428 14.4728 19.6737 14.3839 19.7881C14.295 19.9026 14.1843 19.9983 14.0583 20.0697Z" fill="#16181B"/>
<path d="M42.4339 33.7113C42.3089 33.7113 42.2066 33.6712 42.1271 33.591C42.0476 33.4994 42.0078 33.3906 42.0078 33.2646V31.5982C42.0078 31.3576 42.093 31.1515 42.2634 30.9797L47.7508 24.2452H42.5872C42.4736 24.2452 42.3714 24.2052 42.2805 24.125C42.2009 24.0334 42.1612 23.9303 42.1612 23.8158V22.115C42.1612 21.989 42.2009 21.8859 42.2805 21.8057C42.3714 21.7256 42.4736 21.6855 42.5872 21.6855H51.1932C51.3182 21.6855 51.4204 21.7256 51.4999 21.8057C51.5795 21.8859 51.6192 21.989 51.6192 22.115V23.7814C51.6192 23.9761 51.5454 24.1708 51.3977 24.3655L46.0637 31.1171H51.3807C51.5056 31.1171 51.6079 31.1629 51.6874 31.2546C51.7783 31.3347 51.8237 31.4378 51.8237 31.5638V33.2818C51.8237 33.4077 51.7783 33.5108 51.6874 33.591C51.6079 33.6712 51.5056 33.7113 51.3807 33.7113H42.4339Z" fill="white" fill-opacity="0.5"/>
<path d="M54.0628 33.7113C53.9492 33.7113 53.847 33.6712 53.7561 33.591C53.6766 33.4994 53.6368 33.3963 53.6368 33.2818V22.115C53.6368 21.989 53.6766 21.8859 53.7561 21.8057C53.847 21.7256 53.9492 21.6855 54.0628 21.6855H56.3464C56.4714 21.6855 56.5736 21.7256 56.6531 21.8057C56.744 21.8859 56.7895 21.989 56.7895 22.115V33.2818C56.7895 33.4077 56.744 33.5108 56.6531 33.591C56.5736 33.6712 56.4714 33.7113 56.3464 33.7113H54.0628Z" fill="white" fill-opacity="0.5"/>
<path d="M59.588 33.7113C59.4744 33.7113 59.3722 33.6712 59.2813 33.591C59.2017 33.4994 59.162 33.3963 59.162 33.2818V22.115C59.162 21.989 59.2017 21.8859 59.2813 21.8057C59.3722 21.7256 59.4744 21.6855 59.588 21.6855H61.3944C61.6784 21.6855 61.8716 21.7943 61.9738 22.0119L66.132 28.6089V22.115C66.132 21.989 66.1717 21.8859 66.2513 21.8057C66.3421 21.7256 66.4444 21.6855 66.558 21.6855H68.603C68.728 21.6855 68.8302 21.7256 68.9097 21.8057C68.9893 21.8859 69.029 21.989 69.029 22.115V33.2646C69.029 33.3906 68.9893 33.4994 68.9097 33.591C68.8302 33.6712 68.728 33.7113 68.603 33.7113H66.7795C66.5296 33.7113 66.3421 33.6024 66.2172 33.3848L62.059 27.0284V33.2818C62.059 33.3963 62.0193 33.4994 61.9397 33.591C61.8602 33.6712 61.758 33.7113 61.633 33.7113H59.588Z" fill="white" fill-opacity="0.5"/>
<path d="M71.8366 33.7113C71.723 33.7113 71.6208 33.6712 71.5299 33.591C71.4503 33.4994 71.4106 33.3963 71.4106 33.2818V22.115C71.4106 21.989 71.4503 21.8859 71.5299 21.8057C71.6208 21.7256 71.723 21.6855 71.8366 21.6855H76.2674C77.9375 21.6855 79.2326 22.0863 80.1529 22.888C81.0731 23.6898 81.556 24.8523 81.6014 26.3755C81.6128 26.7077 81.6185 27.1486 81.6185 27.6984C81.6185 28.2481 81.6128 28.6833 81.6014 29.004C81.5446 30.596 81.0731 31.7814 80.187 32.5602C79.3122 33.3276 78.034 33.7113 76.3526 33.7113H71.8366ZM76.2674 31.2374C77.0172 31.2374 77.5683 31.0599 77.9204 30.7048C78.2726 30.3383 78.4601 29.7599 78.4828 28.9697C78.5055 28.6375 78.5169 28.208 78.5169 27.6812C78.5169 27.1543 78.5055 26.7306 78.4828 26.4099C78.4601 25.6425 78.2556 25.0756 77.8693 24.7091C77.4944 24.3426 76.932 24.1593 76.1822 24.1593H74.4781V31.2374H76.2674Z" fill="white" fill-opacity="0.5"/>
<path d="M82.678 33.7113C82.5871 33.7113 82.5019 33.6769 82.4223 33.6082C82.3542 33.528 82.3201 33.4421 82.3201 33.3505C82.3201 33.2818 82.3258 33.2302 82.3371 33.1959L86.3419 22.1665C86.376 22.0291 86.4498 21.9145 86.5634 21.8229C86.677 21.7313 86.8247 21.6855 87.0065 21.6855H89.5287C89.7104 21.6855 89.8581 21.7313 89.9717 21.8229C90.0853 21.9145 90.1592 22.0291 90.1933 22.1665L94.181 33.1959L94.2151 33.3505C94.2151 33.4421 94.1753 33.528 94.0958 33.6082C94.0276 33.6769 93.9424 33.7113 93.8402 33.7113H91.7441C91.4714 33.7113 91.2896 33.591 91.1987 33.3505L90.5341 31.5982H85.984L85.3364 33.3505C85.2456 33.591 85.0581 33.7113 84.7741 33.7113H82.678ZM89.8524 29.1243L88.2676 24.5888L86.6827 29.1243H89.8524Z" fill="white" fill-opacity="0.5"/>
<path d="M100.234 33.8831C98.5977 33.8831 97.3196 33.4822 96.3993 32.6805C95.4791 31.8673 94.9906 30.7163 94.9338 29.2274C94.9224 28.8952 94.9167 28.3684 94.9167 27.6468C94.9167 26.9253 94.9224 26.3984 94.9338 26.0663C94.9906 24.6117 95.4848 23.4893 96.4164 22.6991C97.3593 21.9088 98.6318 21.5137 100.234 21.5137C101.313 21.5137 102.25 21.6912 103.046 22.0462C103.852 22.4013 104.466 22.8537 104.886 23.4034C105.318 23.9532 105.545 24.5201 105.568 25.1042C105.568 25.2073 105.528 25.2932 105.448 25.3619C105.38 25.4306 105.295 25.465 105.193 25.465H102.705C102.591 25.465 102.5 25.4478 102.432 25.4135C102.364 25.3791 102.307 25.3161 102.262 25.2245C102.114 24.8923 101.881 24.606 101.563 24.3655C101.245 24.1135 100.802 23.9875 100.234 23.9875C98.8817 23.9875 98.1716 24.7091 98.1035 26.1522C98.0921 26.4729 98.0864 26.9711 98.0864 27.6468C98.0864 28.3111 98.0921 28.8093 98.1035 29.1415C98.1716 30.6533 98.8988 31.4092 100.285 31.4092C100.955 31.4092 101.489 31.2374 101.887 30.8938C102.296 30.5387 102.5 30.0004 102.5 29.2789V28.9525H100.898C100.773 28.9525 100.671 28.9124 100.592 28.8322C100.512 28.7406 100.472 28.6318 100.472 28.5058V27.2345C100.472 27.1085 100.512 27.0054 100.592 26.9253C100.671 26.8337 100.773 26.7878 100.898 26.7878H105.193C105.318 26.7878 105.42 26.8337 105.5 26.9253C105.579 27.0054 105.619 27.1085 105.619 27.2345V29.193C105.619 30.1665 105.397 31.0083 104.954 31.7184C104.511 32.4171 103.881 32.9553 103.063 33.3333C102.256 33.6998 101.313 33.8831 100.234 33.8831Z" fill="white" fill-opacity="0.5"/>
<path d="M108 33.7113C107.886 33.7113 107.784 33.6712 107.693 33.591C107.614 33.4994 107.574 33.3963 107.574 33.2818V22.115C107.574 21.989 107.614 21.8859 107.693 21.8057C107.784 21.7256 107.886 21.6855 108 21.6855H110.284C110.408 21.6855 110.511 21.7256 110.59 21.8057C110.681 21.8859 110.727 21.989 110.727 22.115V33.2818C110.727 33.4077 110.681 33.5108 110.59 33.591C110.511 33.6712 110.408 33.7113 110.284 33.7113H108Z" fill="white" fill-opacity="0.5"/>
</svg>
