<svg width="53" height="60" viewBox="0 0 53 60" fill="none" xmlns="http://www.w3.org/2000/svg">
<path d="M51.8709 59.5001H49.0587V59.0402H51.8709C52.1466 59.0402 52.2752 58.9383 52.2752 58.7526V58.359C52.2752 58.1732 52.1466 58.0714 51.8709 58.0714H49.9686C49.2334 58.0714 48.9531 57.7662 48.9531 57.3195V57.1381C48.9531 56.6914 49.2334 56.3862 49.9686 56.3862H52.7072V56.8462H49.9686C49.6929 56.8462 49.5643 56.948 49.5643 57.1337V57.3239C49.5643 57.5098 49.6929 57.6115 49.9686 57.6115H51.8709C52.6061 57.6115 52.8864 57.9166 52.8864 58.3634V58.7482C52.8864 59.195 52.6061 59.5001 51.8709 59.5001Z" fill="#16181B"/>
<path d="M46.6565 59.5001H46.0489V56.8462H44.3633V56.3862H48.2966V56.8462H46.6565V59.5001Z" fill="#16181B"/>
<path d="M44.69 59.5001H43.974L42.2412 56.9922L40.4799 59.5001H39.7734L42.0074 56.3862H42.4703L44.69 59.5001Z" fill="#16181B"/>
<path d="M39.2854 59.5001H35.8438V56.3862H39.2854V56.8462H36.4759V57.6246H39.1426V58.0848H36.4759V59.0402H39.2854V59.5001Z" fill="#16181B"/>
<path d="M34.9865 59.5001H34.333L33.5736 58.1113H31.8661V59.5001H31.2539V56.3862H34.0063C34.7425 56.3862 35.0233 56.6914 35.0233 57.1381V57.3594C35.0233 57.7618 34.7978 58.0494 34.2226 58.1023L34.9865 59.5001ZM34.4113 57.3638V57.1337C34.4113 56.948 34.2825 56.8462 34.0063 56.8462H31.8661V57.6512H34.0063C34.2825 57.6512 34.4113 57.5495 34.4113 57.3638Z" fill="#16181B"/>
<path d="M28.7247 59.5001H28.092V56.8462H26.3359V56.3862H30.4331V56.8462H28.7247V59.5001Z" fill="#16181B"/>
<path d="M25.6801 59.5001H22.4023V56.3862H25.6801V56.8462H23.0045V57.6246H25.5441V58.0848H23.0045V59.0402H25.6801V59.5001Z" fill="#16181B"/>
<path d="M21.3849 59.5001H20.7314L19.972 58.1113H18.2645V59.5001H17.6523V56.3862H20.4047C21.141 56.3862 21.4217 56.6914 21.4217 57.1381V57.3594C21.4217 57.7618 21.1962 58.0494 20.621 58.1023L21.3849 59.5001ZM20.8097 57.3638V57.1337C20.8097 56.948 20.6809 56.8462 20.4047 56.8462H18.2645V57.6512H20.4047C20.6809 57.6512 20.8097 57.5495 20.8097 57.3638Z" fill="#16181B"/>
<path d="M14.046 59.5001H13.7374L10.1718 57.0762V59.5001H9.62109V56.3862H10.1671L13.4953 58.6995V56.3862H14.046V59.5001Z" fill="#16181B"/>
<path d="M8.80099 59.5001H5.35938V56.3862H8.80099V56.8462H5.99161V57.6246H8.65837V58.0848H5.99161V59.0402H8.80099V59.5001Z" fill="#16181B"/>
<path d="M4.53821 59.5001H0.113281V59.1021L3.44367 56.8905H0.113281V56.3862H4.53821V56.7843L1.19378 58.9958H4.53821V59.5001Z" fill="#16181B"/>
<path d="M20.1432 30.513H21.3822C22.6834 30.513 23.9863 30.5572 25.2859 30.5015C27.4968 30.4064 29.6879 30.1737 31.8234 29.5182C33.6786 28.9511 35.4387 28.207 37.0382 27.0975C39.6083 25.3532 41.5281 22.8064 42.4973 19.8553C43.2659 17.5838 43.4806 15.2434 43.3167 12.8818C43.1807 10.8725 42.4039 10.0006 40.3668 9.31722C39.0517 8.8908 37.7133 8.54005 36.3581 8.2667C34.752 7.92417 33.1279 7.71603 31.4989 7.50134C29.2143 7.19814 26.9314 7.27681 24.6484 7.29647C23.1308 7.30959 21.6182 7.52592 20.1055 7.70456C18.5928 7.8832 17.0736 8.19622 15.5708 8.4945C14.2351 8.7682 12.8814 9.01567 11.6129 9.52372C9.97405 10.1793 8.8629 11.3511 8.53349 13.1588C8.35462 14.2182 8.24242 15.2877 8.19752 16.3612C8.10902 17.9443 7.55181 19.3472 6.61766 20.655C4.97879 22.9495 3.43335 25.3013 2.02884 27.7416C1.47655 28.6971 0.963584 29.6738 0.389982 30.7195C0.309562 30.1373 0.268497 29.5503 0.267068 28.9626C0.231013 27.3876 0.0376259 25.8126 0.145791 24.236C0.293288 22.1219 0.416205 20.0061 0.757088 17.9034C1.21269 15.0943 1.82563 12.3311 2.76469 9.64664C3.15966 8.51253 3.5579 7.3735 4.17084 6.33117C4.86735 5.14625 5.99489 4.56117 7.24534 4.12359C8.97107 3.51884 10.7017 2.92884 12.4668 2.44537C14.4161 1.91595 16.3928 1.4925 18.388 1.17687C19.74 0.960534 21.0921 0.767145 22.4523 0.660617C24.208 0.516118 25.9703 0.469064 27.7311 0.519673C28.703 0.550811 29.6765 0.55409 30.645 0.650784C31.9889 0.783534 33.3328 0.919562 34.6668 1.15392C35.8451 1.35878 37.0218 1.56856 38.1903 1.81931C40.003 2.21615 41.7926 2.71184 43.5511 3.30414C44.7126 3.65971 45.8525 4.08272 46.9648 4.571C47.4699 4.78981 47.9217 5.11513 48.2894 5.52471C48.6571 5.93429 48.932 6.41847 49.0953 6.94411C49.613 8.51841 49.9672 10.1418 50.1524 11.7887C50.2795 12.9403 50.2987 14.1013 50.2098 15.2566C50.0094 17.8556 49.2923 20.3885 48.1005 22.7069C47.2894 24.2812 46.2786 25.7442 45.0932 27.0598C43.0272 29.339 40.4998 31.1525 37.679 32.3797C35.7069 33.2458 33.627 33.8423 31.4956 34.1529C30.1051 34.3635 28.6902 34.3569 27.3017 34.1333C25.6978 33.9054 24.1453 33.402 22.7129 32.6451C21.7125 32.1282 20.8358 31.4008 20.1432 30.513Z" fill="#7F7B72"/>
<path d="M52.6113 21.7895C52.7718 22.9356 52.8495 24.0918 52.844 25.2492C52.8637 27.106 52.8981 28.9662 52.7588 30.8214C52.6119 32.7927 52.3515 34.7539 51.9787 36.6952C51.5637 38.8749 50.9812 41.0195 50.2366 43.1098C49.9252 43.9767 49.5925 44.8371 49.2172 45.6763C48.7043 46.8235 47.7652 47.5135 46.618 47.9543C44.6532 48.726 42.6487 49.3929 40.6132 49.9521C38.7558 50.4514 36.8739 50.8584 34.9673 51.1731C33.2301 51.4615 31.4831 51.6189 29.7312 51.7778C27.7569 51.9378 25.7736 51.9554 23.7968 51.8303C21.5179 51.7059 19.25 51.4272 17.0087 50.9961C14.6635 50.5474 12.3462 49.9641 10.0681 49.249C8.77667 48.8442 7.50164 48.387 6.25282 47.8576C4.80571 47.243 4.16 46.0548 3.75847 44.6192C3.24383 42.8083 2.95161 40.9416 2.88824 39.0601C2.85523 37.6992 2.97285 36.3388 3.23895 35.0038C3.65684 32.774 4.451 30.6314 5.58745 28.6679C6.79296 26.6048 8.34982 24.7684 10.1877 23.2415C12.2322 21.5459 14.571 20.2404 17.0873 19.3901C18.5904 18.8798 20.1401 18.5186 21.7139 18.3118C23.1683 18.0936 24.646 18.0793 26.1044 18.2691C28.0648 18.5455 29.9385 19.2573 31.588 20.3522C32.2053 20.7372 32.7926 21.1684 33.3449 21.642C33.158 21.8059 32.9679 21.7485 32.7991 21.7436C30.6325 21.674 28.4636 21.7523 26.3076 21.9779C23.8722 22.2533 21.4533 22.6745 19.1736 23.6365C16.009 24.9722 13.4179 27.0257 11.6611 30.0052C10.6427 31.7567 10.0034 33.7025 9.78457 35.7167C9.63881 37.0254 9.6092 38.3444 9.69607 39.6583C9.79113 41.2857 10.7482 42.4526 12.2838 42.9541C14.0542 43.5285 15.8541 44.0077 17.6757 44.3897C18.6377 44.593 19.6276 44.6847 20.5994 44.8404C23.3527 45.2813 26.1208 45.2075 28.8855 45.1436C30.4244 45.1076 31.9551 44.8847 33.4842 44.6716C34.7084 44.5077 35.9212 44.2848 37.1257 44.0325C38.4155 43.7637 39.7315 43.5605 40.9508 43.0295C41.9948 42.5738 42.729 41.7511 43.4091 40.8628C44.3449 39.6353 44.8382 38.2308 45.2119 36.7509C45.5921 35.2267 46.0198 33.7124 46.5098 32.2226C46.795 31.3573 47.4932 30.7165 48.0045 29.9659C49.4532 27.8042 50.8545 25.6146 51.9853 23.2661C52.1885 22.8236 52.3589 22.368 52.6113 21.7895Z" fill="#69AD45"/>
</svg>
