<svg width="54" height="59" viewBox="0 0 54 59" fill="none" xmlns="http://www.w3.org/2000/svg">
<path d="M52.1209 59.0006H49.3087V58.5407H52.1209C52.3966 58.5407 52.5252 58.4388 52.5252 58.2531V57.8595C52.5252 57.6737 52.3966 57.5719 52.1209 57.5719H50.2186C49.4834 57.5719 49.2031 57.2667 49.2031 56.82V56.6386C49.2031 56.1919 49.4834 55.8867 50.2186 55.8867H52.9572V56.3467H50.2186C49.9429 56.3467 49.8143 56.4485 49.8143 56.6342V56.8244C49.8143 57.0103 49.9429 57.1119 50.2186 57.1119H52.1209C52.8561 57.1119 53.1364 57.4171 53.1364 57.8639V58.2487C53.1364 58.6954 52.8561 59.0006 52.1209 59.0006Z" fill="white" fill-opacity="0.5"/>
<path d="M46.9065 59.0006H46.2989V56.3467H44.6133V55.8867H48.5466V56.3467H46.9065V59.0006Z" fill="white" fill-opacity="0.5"/>
<path d="M44.942 59.0006H44.226L42.4932 56.4926L40.7319 59.0006H40.0254L42.2593 55.8867H42.7223L44.942 59.0006Z" fill="white" fill-opacity="0.5"/>
<path d="M39.5334 59.0006H36.0918V55.8867H39.5334V56.3467H36.7239V57.1251H39.3907V57.5853H36.7239V58.5407H39.5334V59.0006Z" fill="white" fill-opacity="0.5"/>
<path d="M35.2346 59.0006H34.581L33.8217 57.6118H32.1141V59.0006H31.502V55.8867H34.2543C34.9906 55.8867 35.2713 56.1919 35.2713 56.6386V56.8599C35.2713 57.2623 35.0459 57.5499 34.4706 57.6028L35.2346 59.0006ZM34.6593 56.8643V56.6342C34.6593 56.4485 34.5305 56.3467 34.2543 56.3467H32.1141V57.1517H34.2543C34.5305 57.1517 34.6593 57.05 34.6593 56.8643Z" fill="white" fill-opacity="0.5"/>
<path d="M28.9747 59.0006H28.342V56.3467H26.5859V55.8867H30.6831V56.3467H28.9747V59.0006Z" fill="white" fill-opacity="0.5"/>
<path d="M25.9301 59.0006H22.6523V55.8867H25.9301V56.3467H23.2545V57.1251H25.7941V57.5853H23.2545V58.5407H25.9301V59.0006Z" fill="white" fill-opacity="0.5"/>
<path d="M21.633 59.0006H20.9794L20.2201 57.6118H18.5125V59.0006H17.9004V55.8867H20.6527C21.389 55.8867 21.6698 56.1919 21.6698 56.6386V56.8599C21.6698 57.2623 21.4443 57.5499 20.8691 57.6028L21.633 59.0006ZM21.0578 56.8643V56.6342C21.0578 56.4485 20.9289 56.3467 20.6527 56.3467H18.5125V57.1517H20.6527C20.9289 57.1517 21.0578 57.05 21.0578 56.8643Z" fill="white" fill-opacity="0.5"/>
<path d="M14.296 59.0006H13.9874L10.4218 56.5767V59.0006H9.87109V55.8867H10.4171L13.7453 58.2V55.8867H14.296V59.0006Z" fill="white" fill-opacity="0.5"/>
<path d="M9.05099 59.0006H5.60938V55.8867H9.05099V56.3467H6.24161V57.1251H8.90837V57.5853H6.24161V58.5407H9.05099V59.0006Z" fill="white" fill-opacity="0.5"/>
<path d="M4.78821 59.0006H0.363281V58.6026L3.69367 56.391H0.363281V55.8867H4.78821V56.2847L1.44378 58.4963H4.78821V59.0006Z" fill="white" fill-opacity="0.5"/>
<path d="M20.3932 30.013H21.6322C22.9334 30.013 24.2363 30.0572 25.5359 30.0015C27.7468 29.9064 29.9379 29.6737 32.0734 29.0182C33.9286 28.4511 35.6887 27.707 37.2882 26.5975C39.8583 24.8532 41.7781 22.3064 42.7473 19.3553C43.5159 17.0838 43.7306 14.7434 43.5667 12.3818C43.4307 10.3725 42.6539 9.50064 40.6168 8.81722C39.3017 8.3908 37.9633 8.04005 36.6081 7.7667C35.002 7.42417 33.3779 7.21603 31.7489 7.00134C29.4643 6.69814 27.1814 6.77681 24.8984 6.79647C23.3808 6.80959 21.8682 7.02592 20.3555 7.20456C18.8428 7.3832 17.3236 7.69622 15.8208 7.9945C14.4851 8.2682 13.1314 8.51567 11.8629 9.02372C10.224 9.67928 9.1129 10.8511 8.78349 12.6588C8.60462 13.7182 8.49242 14.7877 8.44752 15.8612C8.35902 17.4443 7.80181 18.8472 6.86766 20.155C5.22879 22.4495 3.68335 24.8013 2.27884 27.2416C1.72655 28.1971 1.21358 29.1738 0.639982 30.2195C0.559562 29.6373 0.518497 29.0503 0.517068 28.4626C0.481013 26.8876 0.287626 25.3126 0.395791 23.736C0.543288 21.6219 0.666205 19.5061 1.00709 17.4034C1.46269 14.5943 2.07563 11.8311 3.01469 9.14664C3.40966 8.01253 3.8079 6.8735 4.42084 5.83117C5.11735 4.64625 6.24489 4.06117 7.49534 3.62359C9.22107 3.01884 10.9517 2.42884 12.7168 1.94537C14.6661 1.41595 16.6428 0.992501 18.638 0.676867C19.99 0.460534 21.3421 0.267145 22.7023 0.160617C24.458 0.0161181 26.2203 -0.0309357 27.9811 0.0196726C28.953 0.0508115 29.9265 0.0540898 30.895 0.150784C32.2389 0.283534 33.5828 0.419562 34.9168 0.653923C36.0951 0.858784 37.2718 1.06856 38.4403 1.31931C40.253 1.71615 42.0426 2.21184 43.8011 2.80414C44.9626 3.15971 46.1025 3.58272 47.2148 4.071C47.7199 4.28981 48.1717 4.61513 48.5394 5.02471C48.9071 5.43429 49.182 5.91847 49.3453 6.44411C49.863 8.01841 50.2172 9.64182 50.4024 11.2887C50.5295 12.4403 50.5487 13.6013 50.4598 14.7566C50.2594 17.3556 49.5423 19.8885 48.3505 22.2069C47.5394 23.7812 46.5286 25.2442 45.3432 26.5598C43.2772 28.839 40.7498 30.6525 37.929 31.8797C35.9569 32.7458 33.877 33.3423 31.7456 33.6529C30.3551 33.8635 28.9402 33.8569 27.5517 33.6333C25.9478 33.4054 24.3953 32.902 22.9629 32.1451C21.9625 31.6282 21.0858 30.9008 20.3932 30.013Z" fill="white" fill-opacity="0.5"/>
<path d="M52.8613 21.2895C53.0218 22.4356 53.0995 23.5918 53.094 24.7492C53.1137 26.606 53.1481 28.4662 53.0088 30.3214C52.8619 32.2927 52.6015 34.2539 52.2287 36.1952C51.8137 38.3749 51.2312 40.5195 50.4866 42.6098C50.1752 43.4767 49.8425 44.3371 49.4672 45.1763C48.9543 46.3235 48.0152 47.0135 46.868 47.4543C44.9032 48.226 42.8987 48.8929 40.8632 49.4521C39.0058 49.9514 37.1239 50.3584 35.2173 50.6731C33.4801 50.9615 31.7331 51.1189 29.9812 51.2778C28.0069 51.4378 26.0236 51.4554 24.0468 51.3303C21.7679 51.2059 19.5 50.9272 17.2587 50.4961C14.9135 50.0474 12.5962 49.4641 10.3181 48.749C9.02667 48.3442 7.75164 47.887 6.50282 47.3576C5.05571 46.743 4.41 45.5548 4.00847 44.1192C3.49383 42.3083 3.20161 40.4416 3.13824 38.5601C3.10523 37.1992 3.22285 35.8388 3.48895 34.5038C3.90684 32.274 4.701 30.1314 5.83745 28.1679C7.04296 26.1048 8.59982 24.2684 10.4377 22.7415C12.4822 21.0459 14.821 19.7404 17.3373 18.8901C18.8404 18.3798 20.3901 18.0186 21.9639 17.8118C23.4183 17.5936 24.896 17.5793 26.3544 17.7691C28.3148 18.0455 30.1885 18.7573 31.838 19.8522C32.4553 20.2372 33.0426 20.6684 33.5949 21.142C33.408 21.3059 33.2179 21.2485 33.0491 21.2436C30.8825 21.174 28.7136 21.2523 26.5576 21.4779C24.1222 21.7533 21.7033 22.1745 19.4236 23.1365C16.259 24.4722 13.6679 26.5257 11.9111 29.5052C10.8927 31.2567 10.2534 33.2025 10.0346 35.2167C9.88881 36.5254 9.8592 37.8444 9.94607 39.1583C10.0411 40.7857 10.9982 41.9526 12.5338 42.4541C14.3042 43.0285 16.1041 43.5077 17.9257 43.8897C18.8877 44.093 19.8776 44.1847 20.8494 44.3404C23.6027 44.7813 26.3708 44.7075 29.1355 44.6436C30.6744 44.6076 32.2051 44.3847 33.7342 44.1716C34.9584 44.0077 36.1712 43.7848 37.3757 43.5325C38.6655 43.2637 39.9815 43.0605 41.2008 42.5295C42.2448 42.0738 42.979 41.2511 43.6591 40.3628C44.5949 39.1353 45.0882 37.7308 45.4619 36.2509C45.8421 34.7267 46.2698 33.2124 46.7598 31.7226C47.045 30.8573 47.7432 30.2165 48.2545 29.4659C49.7032 27.3042 51.1045 25.1146 52.2353 22.7661C52.4385 22.3236 52.6089 21.868 52.8613 21.2895Z" fill="white" fill-opacity="0.5"/>
</svg>
