<svg width="344" height="142" viewBox="0 0 344 142" fill="none" xmlns="http://www.w3.org/2000/svg">
<path d="M0 18C0 8.05887 8.05887 0 18 0H326.005C335.946 0 344.005 8.05888 344.005 18V141.747H0V18Z" fill="white"/>
<mask id="mask0_40000018_8748" style="mask-type:alpha" maskUnits="userSpaceOnUse" x="0" y="0" width="345" height="142">
<path d="M0 18C0 8.05887 8.05887 0 18 0H326.005C335.946 0 344.005 8.05888 344.005 18V141.747H0V18Z" fill="white"/>
</mask>
<g mask="url(#mask0_40000018_8748)">
<g opacity="0.06" clip-path="url(#clip0_40000018_8748)">
<path fill-rule="evenodd" clip-rule="evenodd" d="M324.392 32.2151C324.599 32.4347 324.848 32.6096 325.125 32.7292C325.402 32.8488 325.7 32.9106 326.001 32.9107C326.301 32.9105 326.597 32.8486 326.871 32.729C327.145 32.6093 327.391 32.4344 327.595 32.2151L333.651 25.7347C333.9 25.4671 334.066 25.1326 334.128 24.7721C334.19 24.4116 334.145 24.0409 333.999 23.7054C333.854 23.37 333.613 23.0845 333.307 22.8839C333.001 22.6833 332.643 22.5764 332.277 22.5763H331.082V10.6629C331.081 9.96697 330.804 9.29972 330.312 8.80753C329.82 8.31534 329.152 8.0384 328.456 8.03744H323.539C322.842 8.0384 322.175 8.31535 321.683 8.80754C321.19 9.29974 320.914 9.96699 320.913 10.6629V22.5763H319.718C319.352 22.5764 318.994 22.6833 318.688 22.8839C318.382 23.0845 318.141 23.37 317.996 23.7054C317.85 24.0409 317.805 24.4116 317.867 24.7721C317.929 25.1326 318.095 25.4671 318.344 25.7347L324.392 32.2151ZM302.712 18.372H303.907V30.2845C303.908 30.9804 304.185 31.6475 304.677 32.1397C305.169 32.6318 305.837 32.9088 306.533 32.91H311.451C312.147 32.9088 312.814 32.6317 313.307 32.1394C313.799 31.6471 314.076 30.9798 314.076 30.2838V18.372H315.271C315.637 18.3719 315.995 18.265 316.301 18.0644C316.607 17.8638 316.848 17.5782 316.994 17.2427C317.14 16.9073 317.184 16.5365 317.122 16.176C317.06 15.8155 316.894 15.481 316.645 15.2134L310.589 8.73228C310.385 8.51292 310.138 8.33798 309.863 8.21835C309.588 8.09873 309.291 8.03699 308.992 8.03699C308.692 8.03699 308.395 8.09873 308.121 8.21835C307.846 8.33798 307.599 8.51292 307.394 8.73228L301.338 15.2126C301.089 15.4801 300.923 15.8147 300.861 16.1752C300.799 16.5357 300.844 16.9065 300.99 17.242C301.136 17.5774 301.376 17.863 301.682 18.0636C301.988 18.2642 302.346 18.3711 302.712 18.3711V18.372ZM305.826 71.7408C305.827 71.3417 305.945 70.9516 306.167 70.6199C306.389 70.2881 306.705 70.0296 307.074 69.8769C307.442 69.7242 307.848 69.6842 308.24 69.762C308.632 69.8398 308.991 70.0319 309.274 70.3139C309.556 70.596 309.749 70.9554 309.827 71.3468C309.905 71.7382 309.866 72.144 309.713 72.5129C309.561 72.8818 309.303 73.1973 308.971 73.4196C308.64 73.6419 308.249 73.7609 307.85 73.7617C307.314 73.7608 306.8 73.5477 306.421 73.169C306.042 72.7902 305.828 72.2767 305.826 71.7408ZM298.218 71.7408C298.218 71.3413 298.337 70.951 298.559 70.6191C298.781 70.2872 299.097 70.0286 299.467 69.8762C299.836 69.7237 300.242 69.6842 300.634 69.7626C301.026 69.8409 301.386 70.0337 301.668 70.3165C301.95 70.5993 302.142 70.9595 302.219 71.3513C302.297 71.7432 302.256 72.1492 302.103 72.518C301.949 72.8868 301.69 73.2018 301.357 73.4232C301.024 73.6446 300.634 73.7624 300.234 73.7617C299.699 73.7607 299.186 73.5473 298.807 73.1684C298.429 72.7894 298.217 72.276 298.218 71.7408ZM290.601 71.7408C290.6 71.3405 290.719 70.9491 290.941 70.616C291.163 70.283 291.479 70.0232 291.849 69.8697C292.218 69.7162 292.625 69.6758 293.018 69.7536C293.411 69.8314 293.772 70.0239 294.055 70.3068C294.339 70.5897 294.532 70.9502 294.61 71.3427C294.688 71.7353 294.648 72.1423 294.495 72.5121C294.342 72.882 294.083 73.1981 293.75 73.4206C293.417 73.643 293.025 73.7617 292.625 73.7617C292.089 73.7609 291.575 73.5477 291.195 73.169C290.816 72.7903 290.602 72.2767 290.601 71.7408ZM309.866 45.4879C309.865 45.8873 309.746 46.2777 309.524 46.6096C309.302 46.9415 308.986 47.2 308.617 47.3525C308.247 47.5049 307.841 47.5445 307.449 47.4661C307.057 47.3877 306.698 47.1949 306.415 46.9121C306.133 46.6293 305.941 46.2692 305.864 45.8773C305.786 45.4855 305.827 45.0794 305.98 44.7106C306.134 44.3418 306.393 44.0268 306.726 43.8054C307.059 43.5841 307.449 43.4663 307.849 43.4669C308.384 43.4693 308.896 43.6832 309.274 44.0618C309.652 44.4405 309.865 44.9531 309.866 45.4879ZM302.257 45.4879C302.256 45.887 302.138 46.277 301.916 46.6088C301.694 46.9405 301.379 47.1991 301.01 47.3518C300.641 47.5044 300.235 47.5444 299.843 47.4667C299.452 47.3889 299.092 47.1968 298.809 46.9148C298.527 46.6327 298.334 46.2733 298.256 45.882C298.178 45.4906 298.217 45.0848 298.37 44.7159C298.522 44.347 298.78 44.0314 299.112 43.8091C299.443 43.5868 299.833 43.4678 300.233 43.4669C300.769 43.4678 301.283 43.6809 301.662 44.0597C302.042 44.4384 302.255 44.9519 302.257 45.4879ZM321.148 71.7408C321.148 71.5595 321.184 71.38 321.254 71.2126C321.323 71.0452 321.425 70.8931 321.553 70.7651C321.682 70.637 321.834 70.5356 322.002 70.4665C322.169 70.3974 322.349 70.3621 322.53 70.3625H341.731C342.096 70.3625 342.447 70.5077 342.706 70.7662C342.964 71.0247 343.109 71.3752 343.109 71.7408C343.109 72.1063 342.964 72.4569 342.706 72.7154C342.447 72.9739 342.096 73.1191 341.731 73.1191H322.53C322.349 73.1195 322.169 73.0841 322.002 73.0151C321.834 72.946 321.682 72.8445 321.553 72.7165C321.425 72.5885 321.323 72.4364 321.254 72.269C321.184 72.1015 321.148 71.922 321.148 71.7408ZM343.113 45.4879C343.113 45.6691 343.077 45.8485 343.007 46.0158C342.938 46.1832 342.836 46.3352 342.707 46.4632C342.579 46.5912 342.427 46.6926 342.259 46.7618C342.092 46.8309 341.912 46.8664 341.731 46.8662H322.531C322.165 46.8662 321.814 46.721 321.556 46.4625C321.297 46.204 321.152 45.8534 321.152 45.4879C321.152 45.1223 321.297 44.7717 321.556 44.5133C321.814 44.2548 322.165 44.1096 322.531 44.1096H341.731C341.912 44.1092 342.092 44.1445 342.26 44.2136C342.427 44.2827 342.58 44.3841 342.708 44.5122C342.836 44.6402 342.938 44.7923 343.008 44.9597C343.077 45.1271 343.113 45.3066 343.113 45.4879ZM294.648 45.4879C294.649 45.8881 294.53 46.2796 294.308 46.6126C294.086 46.9457 293.77 47.2054 293.4 47.3589C293.031 47.5124 292.624 47.5528 292.231 47.475C291.838 47.3972 291.477 47.2047 291.194 46.9219C290.91 46.639 290.717 46.2785 290.639 45.8859C290.561 45.4933 290.601 45.0864 290.754 44.7165C290.907 44.3467 291.166 44.0305 291.499 43.8081C291.832 43.5857 292.224 43.4669 292.624 43.4669C293.16 43.4678 293.674 43.681 294.054 44.0597C294.433 44.4384 294.647 44.9519 294.648 45.4879ZM347.299 55.811C348.333 55.8097 349.338 55.4749 350.165 54.8564C350.993 54.2379 351.599 53.3689 351.892 52.3785C355.158 50.3576 357.776 47.4436 359.436 43.9817C361.096 40.5197 361.73 36.6547 361.261 32.8441C360.792 29.0335 359.241 25.437 356.791 22.4802C354.341 19.5234 351.095 17.3302 347.437 16.1601C347.619 15.2986 347.711 14.4207 347.713 13.5403C347.712 11.3438 347.141 9.1852 346.055 7.27568C344.969 5.36617 343.405 3.77115 341.518 2.64667C339.63 1.5222 337.483 0.906794 335.286 0.860656C333.089 0.814519 330.918 1.33923 328.985 2.38346C326.104 -1.12515 322.225 -3.67579 317.862 -4.9303C313.498 -6.18481 308.856 -6.08394 304.551 -4.64106C300.246 -3.19817 296.481 -0.48143 293.756 3.149C291.031 6.77943 289.474 11.1521 289.292 15.6872C285.388 16.5502 281.83 18.5583 279.075 21.4546C276.32 24.3508 274.492 28.0032 273.826 31.9441C273.159 35.885 273.685 39.935 275.335 43.5754C276.986 47.2159 279.685 50.2811 283.089 52.3785C283.385 53.369 283.993 54.2377 284.822 54.8561C285.651 55.4744 286.657 55.8095 287.691 55.8117H292.064V61.4185H287.69C286.419 61.4197 285.201 61.9246 284.302 62.8224C283.403 63.7202 282.896 64.9378 282.894 66.2081V77.2742C282.896 78.5445 283.403 79.762 284.302 80.6598C285.201 81.5577 286.419 82.0625 287.69 82.0638H347.299C348.57 82.0625 349.789 81.5577 350.688 80.6598C351.587 79.762 352.093 78.5445 352.095 77.2742V66.2071C352.093 64.9367 351.587 63.7192 350.688 62.8214C349.789 61.9235 348.57 61.4187 347.299 61.4174H342.926V55.811H347.299ZM282.894 39.9541V48.8714C280.847 47.248 279.192 45.1851 278.051 42.8355C276.91 40.4859 276.312 37.9099 276.302 35.2981C276.302 26.8904 282.569 19.5337 290.877 18.1883C291.203 18.1354 291.499 17.967 291.711 17.7139C291.923 17.4609 292.037 17.14 292.032 16.81V16.586C292.033 12.4438 293.344 8.4079 295.778 5.05573C298.213 1.70356 301.645 -0.793143 305.585 -2.07719C309.524 -3.36124 313.769 -3.36685 317.713 -2.09321C321.656 -0.81957 325.095 1.66805 327.538 5.01379C327.75 5.30307 328.066 5.49872 328.419 5.55938C328.773 5.62005 329.136 5.54098 329.432 5.33889C330.924 4.32177 332.665 3.73074 334.468 3.62947C336.271 3.5282 338.067 3.92052 339.664 4.76419C341.26 5.60785 342.596 6.87088 343.527 8.41725C344.459 9.96362 344.951 11.7347 344.95 13.5398C344.951 14.6066 344.78 15.6666 344.446 16.6796C344.387 16.8605 344.366 17.0517 344.384 17.2413C344.402 17.4308 344.459 17.6145 344.551 17.781C344.643 17.9476 344.769 18.0933 344.92 18.2091C345.071 18.3249 345.245 18.4083 345.43 18.4541C348.589 19.2151 351.47 20.8493 353.743 23.1699C356.017 25.4905 357.591 28.4038 358.287 31.5768C358.982 34.7497 358.77 38.0543 357.675 41.1125C356.581 44.1708 354.647 46.8593 352.095 48.8707V39.9541C352.093 38.6838 351.587 37.4663 350.688 36.5685C349.789 35.6706 348.57 35.1658 347.299 35.1645H287.69C286.419 35.1658 285.201 35.6706 284.302 36.5685C283.403 37.4663 282.896 38.6838 282.894 39.9541ZM347.299 64.1741C347.838 64.1745 348.355 64.3888 348.736 64.7701C349.117 65.1513 349.332 65.6681 349.332 66.2071V77.2742C349.332 77.8131 349.117 78.3299 348.736 78.7112C348.355 79.0924 347.838 79.3067 347.299 79.3072H287.69C287.15 79.3069 286.632 79.0928 286.25 78.7118C285.867 78.3308 285.652 77.8139 285.65 77.2742V66.2071C285.652 65.6673 285.867 65.1504 286.25 64.7694C286.632 64.3883 287.15 64.1743 287.69 64.1741H347.299ZM287.69 53.0546C287.15 53.0544 286.632 52.8403 286.25 52.4593C285.867 52.0783 285.652 51.5613 285.65 51.0216V39.9541C285.652 39.4144 285.867 38.8975 286.25 38.5165C286.632 38.1354 287.15 37.9214 287.69 37.9212H347.299C347.838 37.9216 348.355 38.1359 348.736 38.5172C349.117 38.8984 349.332 39.4152 349.332 39.9541V51.0216C349.332 51.5605 349.117 52.0774 348.736 52.4586C348.355 52.8398 347.838 53.0542 347.299 53.0546H287.69Z" fill="black"/>
</g>
</g>
<g clip-path="url(#clip1_40000018_8748)">
<path fill-rule="evenodd" clip-rule="evenodd" d="M175.845 67.2109C175.99 67.3652 176.165 67.4882 176.36 67.5722C176.554 67.6563 176.764 67.6997 176.976 67.6998C177.186 67.6997 177.394 67.6562 177.587 67.5721C177.779 67.488 177.952 67.365 178.095 67.2109L182.35 62.6561C182.525 62.468 182.642 62.2329 182.686 61.9795C182.729 61.7261 182.698 61.4656 182.595 61.2298C182.493 60.9941 182.323 60.7934 182.108 60.6524C181.893 60.5114 181.642 60.4363 181.385 60.4362H180.545V52.0628C180.545 51.5737 180.35 51.1047 180.004 50.7587C179.659 50.4128 179.19 50.2181 178.701 50.2175H175.245C174.756 50.2181 174.287 50.4128 173.941 50.7587C173.596 51.1047 173.401 51.5737 173.401 52.0628V60.4362H172.561C172.304 60.4363 172.053 60.5114 171.838 60.6524C171.623 60.7934 171.453 60.9941 171.351 61.2298C171.248 61.4656 171.217 61.7261 171.26 61.9795C171.304 62.2329 171.421 62.468 171.596 62.6561L175.845 67.2109ZM160.613 57.4812H161.453V65.8539C161.453 66.3431 161.648 66.812 161.994 67.1579C162.339 67.5038 162.808 67.6985 163.297 67.6993H166.753C167.242 67.6985 167.711 67.5037 168.057 67.1577C168.402 66.8117 168.597 66.3427 168.597 65.8535V57.4812H169.437C169.694 57.4811 169.945 57.406 170.16 57.265C170.375 57.124 170.545 56.9233 170.647 56.6875C170.75 56.4517 170.781 56.1911 170.737 55.9377C170.694 55.6843 170.577 55.4492 170.402 55.2612L166.147 50.7058C166.004 50.5517 165.83 50.4287 165.637 50.3446C165.444 50.2605 165.236 50.2172 165.025 50.2172C164.814 50.2172 164.606 50.2605 164.413 50.3446C164.22 50.4287 164.046 50.5517 163.903 50.7058L159.648 55.2605C159.472 55.4486 159.356 55.6838 159.312 55.9372C159.269 56.1906 159.3 56.4511 159.403 56.6869C159.505 56.9227 159.674 57.1234 159.889 57.2644C160.104 57.4054 160.356 57.4805 160.613 57.4806V57.4812ZM162.801 94.9918C162.801 94.7112 162.885 94.4371 163.04 94.2039C163.196 93.9707 163.418 93.789 163.677 93.6817C163.936 93.5744 164.222 93.5463 164.497 93.601C164.772 93.6556 165.025 93.7906 165.223 93.9889C165.422 94.1871 165.557 94.4398 165.612 94.7148C165.667 94.9899 165.639 95.2751 165.532 95.5344C165.425 95.7937 165.244 96.0155 165.011 96.1717C164.778 96.328 164.503 96.4116 164.223 96.4122C163.846 96.4116 163.485 96.2618 163.219 95.9956C162.952 95.7294 162.802 95.3684 162.801 94.9918ZM157.455 94.9918C157.455 94.711 157.539 94.4366 157.695 94.2034C157.851 93.9701 158.073 93.7884 158.333 93.6812C158.592 93.5741 158.878 93.5463 159.153 93.6014C159.428 93.6564 159.681 93.792 159.879 93.9907C160.077 94.1895 160.212 94.4426 160.267 94.718C160.321 94.9935 160.293 95.2788 160.185 95.538C160.077 95.7973 159.895 96.0187 159.661 96.1743C159.427 96.3299 159.153 96.4127 158.872 96.4122C158.496 96.4115 158.135 96.2615 157.87 95.9952C157.604 95.7288 157.455 95.3679 157.455 94.9918ZM152.104 94.9918C152.103 94.7104 152.186 94.4353 152.342 94.2012C152.499 93.9671 152.721 93.7846 152.98 93.6767C153.24 93.5688 153.526 93.5404 153.802 93.5951C154.078 93.6497 154.332 93.7851 154.531 93.9839C154.73 94.1827 154.865 94.4361 154.92 94.712C154.975 94.9879 154.947 95.2739 154.84 95.5339C154.732 95.7939 154.55 96.0161 154.316 96.1724C154.082 96.3287 153.807 96.4122 153.526 96.4122C153.149 96.4116 152.788 96.2618 152.521 95.9956C152.255 95.7294 152.105 95.3685 152.104 94.9918ZM165.639 76.5397C165.639 76.8205 165.555 77.0949 165.399 77.3281C165.243 77.5614 165.021 77.7431 164.761 77.8503C164.502 77.9575 164.216 77.9852 163.941 77.9302C163.666 77.8751 163.413 77.7396 163.215 77.5408C163.017 77.342 162.882 77.0889 162.827 76.8135C162.773 76.538 162.801 76.2527 162.909 75.9935C163.017 75.7342 163.199 75.5128 163.433 75.3572C163.667 75.2016 163.941 75.1188 164.222 75.1193C164.598 75.121 164.958 75.2713 165.223 75.5374C165.489 75.8036 165.638 76.1639 165.639 76.5397ZM160.293 76.5397C160.293 76.8203 160.209 77.0944 160.054 77.3276C159.898 77.5608 159.676 77.7425 159.417 77.8498C159.158 77.9571 158.872 77.9852 158.597 77.9305C158.322 77.8759 158.069 77.7409 157.871 77.5427C157.672 77.3444 157.537 77.0918 157.482 76.8167C157.427 76.5417 157.455 76.2565 157.562 75.9972C157.669 75.7378 157.85 75.5161 158.083 75.3598C158.316 75.2036 158.59 75.1199 158.871 75.1193C159.248 75.1199 159.609 75.2697 159.875 75.5359C160.142 75.8021 160.292 76.1631 160.293 76.5397ZM173.566 94.9918C173.566 94.8644 173.591 94.7382 173.64 94.6205C173.689 94.5029 173.76 94.396 173.851 94.306C173.941 94.216 174.048 94.1447 174.166 94.0961C174.283 94.0476 174.41 94.0227 174.537 94.023H188.027C188.284 94.023 188.53 94.1251 188.712 94.3068C188.894 94.4884 188.996 94.7348 188.996 94.9918C188.996 95.2487 188.894 95.4951 188.712 95.6768C188.53 95.8585 188.284 95.9605 188.027 95.9605H174.537C174.41 95.9608 174.283 95.936 174.166 95.8874C174.048 95.8388 173.941 95.7675 173.851 95.6775C173.76 95.5876 173.689 95.4807 173.64 95.363C173.591 95.2453 173.566 95.1192 173.566 94.9918ZM188.998 76.5397C188.998 76.6671 188.973 76.7932 188.924 76.9108C188.875 77.0284 188.803 77.1353 188.713 77.2252C188.623 77.3152 188.516 77.3865 188.398 77.4351C188.281 77.4837 188.155 77.5087 188.027 77.5085H174.537C174.28 77.5085 174.034 77.4064 173.852 77.2248C173.671 77.0431 173.569 76.7967 173.569 76.5397C173.569 76.2828 173.671 76.0364 173.852 75.8547C174.034 75.6731 174.28 75.571 174.537 75.571H188.027C188.155 75.5707 188.281 75.5956 188.399 75.6441C188.516 75.6927 188.623 75.764 188.714 75.854C188.804 75.9439 188.875 76.0508 188.924 76.1685C188.973 76.2862 188.998 76.4123 188.998 76.5397ZM154.947 76.5397C154.948 76.8211 154.865 77.0962 154.709 77.3303C154.552 77.5644 154.33 77.7469 154.071 77.8548C153.811 77.9627 153.525 77.9911 153.249 77.9364C152.973 77.8818 152.719 77.7465 152.52 77.5476C152.321 77.3488 152.186 77.0954 152.131 76.8195C152.076 76.5436 152.104 76.2576 152.211 75.9976C152.319 75.7376 152.501 75.5154 152.735 75.3591C152.969 75.2028 153.244 75.1193 153.525 75.1193C153.902 75.12 154.263 75.2698 154.53 75.5359C154.796 75.8021 154.946 76.1631 154.947 76.5397ZM191.939 83.7954C192.665 83.7945 193.372 83.5592 193.953 83.1245C194.535 82.6898 194.96 82.0789 195.166 81.3829C197.461 79.9624 199.3 77.9143 200.467 75.4811C201.633 73.0478 202.078 70.3313 201.749 67.653C201.419 64.9747 200.33 62.4468 198.608 60.3687C196.887 58.2905 194.607 56.7489 192.036 55.9266C192.164 55.321 192.229 54.704 192.23 54.0852C192.229 52.5414 191.828 51.0242 191.065 49.6821C190.302 48.34 189.204 47.2189 187.877 46.4285C186.551 45.6382 185.043 45.2057 183.499 45.1732C181.956 45.1408 180.43 45.5096 179.072 46.2435C177.048 43.7775 174.323 41.9848 171.257 41.103C168.191 40.2213 164.93 40.2922 161.905 41.3063C158.88 42.3205 156.235 44.2299 154.321 46.7816C152.406 49.3333 151.312 52.4066 151.184 55.5942C148.441 56.2007 145.942 57.6122 144.006 59.6478C142.07 61.6834 140.786 64.2505 140.318 67.0204C139.85 69.7903 140.219 72.6369 141.378 75.1956C142.538 77.7543 144.435 79.9087 146.826 81.3829C147.034 82.079 147.461 82.6896 148.043 83.1242C148.626 83.5589 149.332 83.7944 150.059 83.7959H153.132V87.7367H150.058C149.166 87.7375 148.31 88.0924 147.678 88.7234C147.046 89.3545 146.691 90.2102 146.689 91.1031V98.8809C146.691 99.7738 147.046 100.63 147.678 101.261C148.31 101.892 149.166 102.246 150.058 102.247H191.939C192.832 102.246 193.688 101.892 194.32 101.261C194.952 100.63 195.307 99.7738 195.309 98.8809V91.1024C195.307 90.2095 194.952 89.3537 194.32 88.7227C193.688 88.0917 192.832 87.7368 191.939 87.736H188.867V83.7954H191.939ZM146.689 72.6503V78.9179C145.251 77.7769 144.088 76.3269 143.286 74.6755C142.484 73.0241 142.065 71.2135 142.058 69.3778C142.058 63.4684 146.461 58.2977 152.298 57.3521C152.527 57.3149 152.735 57.1965 152.884 57.0187C153.033 56.8408 153.113 56.6153 153.109 56.3833V56.2259C153.11 53.3145 154.031 50.4779 155.741 48.1218C157.452 45.7657 159.863 44.0108 162.631 43.1083C165.399 42.2058 168.382 42.2019 171.152 43.0971C173.922 43.9923 176.339 45.7407 178.055 48.0923C178.204 48.2956 178.426 48.4331 178.674 48.4758C178.923 48.5184 179.178 48.4628 179.386 48.3208C180.434 47.6059 181.657 47.1905 182.924 47.1193C184.191 47.0481 185.453 47.3239 186.575 47.9168C187.696 48.5098 188.635 49.3975 189.289 50.4844C189.944 51.5713 190.289 52.8161 190.289 54.0848C190.289 54.8346 190.17 55.5797 189.935 56.2917C189.893 56.4188 189.878 56.5532 189.891 56.6864C189.904 56.8196 189.944 56.9488 190.009 57.0658C190.073 57.1829 190.162 57.2853 190.268 57.3667C190.374 57.4481 190.496 57.5067 190.626 57.5389C192.845 58.0738 194.87 59.2224 196.467 60.8534C198.064 62.4845 199.171 64.5321 199.659 66.7622C200.148 68.9924 199.999 71.315 199.23 73.4645C198.46 75.614 197.102 77.5037 195.309 78.9174V72.6503C195.307 71.7575 194.952 70.9017 194.32 70.2707C193.688 69.6396 192.832 69.2848 191.939 69.2839H150.058C149.166 69.2848 148.31 69.6396 147.678 70.2707C147.046 70.9017 146.691 71.7575 146.689 72.6503ZM191.939 89.6735C192.318 89.6737 192.681 89.8244 192.949 90.0924C193.217 90.3603 193.367 90.7236 193.367 91.1024V98.8809C193.367 99.2597 193.217 99.623 192.949 99.8909C192.681 100.159 192.318 100.31 191.939 100.31H150.058C149.679 100.31 149.315 100.159 149.047 99.8914C148.778 99.6236 148.626 99.2603 148.625 98.8809V91.1024C148.626 90.723 148.778 90.3597 149.047 90.0919C149.315 89.8241 149.679 89.6736 150.058 89.6735H191.939ZM150.058 81.8581C149.679 81.8579 149.315 81.7075 149.047 81.4396C148.778 81.1718 148.626 80.8085 148.625 80.4292V72.6503C148.626 72.271 148.778 71.9076 149.047 71.6398C149.315 71.372 149.679 71.2216 150.058 71.2214H191.939C192.318 71.2217 192.681 71.3724 192.949 71.6403C193.217 71.9083 193.367 72.2716 193.367 72.6503V80.4292C193.367 80.8079 193.217 81.1712 192.949 81.4392C192.681 81.7071 192.318 81.8578 191.939 81.8581H150.058Z" fill="black"/>
</g>
<defs>
<clipPath id="clip0_40000018_8748">
<rect width="101.958" height="101.958" fill="white" transform="translate(266.086 -13.2629)"/>
</clipPath>
<clipPath id="clip1_40000018_8748">
<rect width="62" height="62" fill="white" transform="translate(140 40.3684)"/>
</clipPath>
</defs>
</svg>
