<svg width="344" height="142" viewBox="0 0 344 142" fill="none" xmlns="http://www.w3.org/2000/svg">
<path d="M0 18C0 8.05887 8.05887 0 18 0H326.005C335.946 0 344.005 8.05888 344.005 18V141.747H0V18Z" fill="white"/>
<mask id="mask0_40000018_8822" style="mask-type:alpha" maskUnits="userSpaceOnUse" x="0" y="0" width="345" height="142">
<path d="M0 18C0 8.05887 8.05887 0 18 0H326.005C335.946 0 344.005 8.05888 344.005 18V141.747H0V18Z" fill="white"/>
</mask>
<g mask="url(#mask0_40000018_8822)">
<path d="M203.018 88.189V56.0713H182.935V59.3337H199.756V88.189H182.91V91.4514H203.572V93.1606C203.571 93.8277 203.306 94.4672 202.834 94.9389C202.362 95.4105 201.723 95.6758 201.056 95.6766H150.612C149.945 95.6758 149.306 95.4105 148.834 94.9389C148.362 94.4672 148.097 93.8277 148.096 93.1606V91.4514H168.758V88.189H151.912V59.3337H167.876V56.0713H148.65V88.189H144.834V93.1606C144.836 94.6926 145.445 96.1613 146.528 97.2446C147.612 98.3279 149.08 98.9372 150.612 98.939H201.056C202.588 98.9372 204.056 98.3279 205.14 97.2446C206.223 96.1613 206.832 94.6926 206.834 93.1606V88.189H203.018Z" fill="black"/>
<path d="M174.204 49.997V83.7342H177.466V49.997L180.944 53.434L183.237 51.1137L175.835 43.7979L168.433 51.1137L170.726 53.434L174.204 49.997Z" fill="black"/>
<path d="M181.916 83.7341H185.178V70.8577H191.034L187.806 74.1244L190.126 76.4177L197.442 69.0155L190.126 61.6135L187.806 63.9068L191.451 67.5953H181.916V83.7341Z" fill="black"/>
<path d="M169.753 83.7341V67.5953H160.217L163.863 63.9068L161.543 61.6135L154.227 69.0155L161.543 76.4177L163.863 74.1244L160.634 70.8577H166.49V83.7341H169.753Z" fill="black"/>
<g opacity="0.06">
<g clip-path="url(#clip0_40000018_8822)">
<path d="M397.808 65.0651V-5.35767H353.772V1.79559H390.654V65.0651H353.717V72.2183H399.021V75.9661C399.02 77.4287 398.438 78.8309 397.404 79.8651C396.369 80.8993 394.967 81.4811 393.505 81.4827H282.9C281.438 81.4811 280.036 80.8993 279.001 79.8651C277.967 78.8309 277.385 77.4287 277.384 75.9661V72.2183H322.688V65.0651H285.751V1.79559H320.754V-5.35767H278.597V65.0651H270.23V75.9661C270.234 79.3252 271.57 82.5456 273.946 84.9208C276.321 87.2961 279.541 88.6321 282.9 88.6359H393.505C396.864 88.6321 400.084 87.2961 402.459 84.9208C404.835 82.5456 406.171 79.3252 406.174 75.9661V65.0651H397.808Z" fill="black"/>
<path d="M334.626 -18.6765V55.2972H341.78V-18.6765L349.405 -11.1404L354.433 -16.2279L338.203 -32.269L321.973 -16.2279L327.001 -11.1404L334.626 -18.6765Z" fill="black"/>
<path d="M324.867 55.297V19.9104H303.96L311.953 11.8228L306.865 6.79443L290.824 23.0243L306.865 39.2548L311.953 34.2265L304.874 27.0636H317.714V55.297H324.867Z" fill="black"/>
</g>
</g>
</g>
<defs>
<clipPath id="clip0_40000018_8822">
<rect width="135.944" height="135.944" fill="white" transform="translate(270.23 -39.7886)"/>
</clipPath>
</defs>
</svg>
