<svg width="344" height="142" viewBox="0 0 344 142" fill="none" xmlns="http://www.w3.org/2000/svg">
<path d="M0 18C0 8.05887 8.05887 0 18 0H326.005C335.946 0 344.005 8.05888 344.005 18V141.747H0V18Z" fill="white"/>
<mask id="mask0_40000018_8760" style="mask-type:alpha" maskUnits="userSpaceOnUse" x="0" y="0" width="345" height="142">
<path d="M0 18C0 8.05887 8.05887 0 18 0H326.005C335.946 0 344.005 8.05888 344.005 18V141.747H0V18Z" fill="white"/>
</mask>
<g mask="url(#mask0_40000018_8760)">
<g opacity="0.06">
<path d="M370.351 41.0866C369.983 40.7556 369.505 40.5901 369.009 40.6268C366.544 40.774 364.834 40.2958 363.914 39.2474C362.664 37.7761 363.142 35.4403 363.142 35.4219C363.326 34.6311 362.958 33.8218 362.241 33.4172C361.726 33.1229 358.599 31.7436 346.276 31.6148V-14.7511C346.276 -15.7627 345.449 -16.5903 344.437 -16.5903H262.484C261.472 -16.5903 260.645 -15.7627 260.645 -14.7511V84.3811C260.645 85.3927 261.472 86.2203 262.484 86.2203H344.437C346.939 86.2203 349.44 85.6134 351.702 84.3811C372.374 73.2724 371.032 43.6247 370.958 42.3557C370.94 41.8775 370.719 41.4177 370.351 41.0866ZM264.323 82.542V-12.912H342.598V31.6148C330.294 31.7436 327.149 33.1229 326.634 33.4172C325.935 33.8034 325.567 34.6311 325.733 35.4219C325.733 35.4403 326.211 37.7761 324.96 39.2474C324.041 40.2958 322.33 40.774 319.866 40.6268C319.388 40.5901 318.891 40.7556 318.523 41.0866C318.156 41.4177 317.953 41.8775 317.916 42.3557C317.861 43.5511 316.647 70.3114 334.193 82.542H264.323ZM349.973 81.1442C348.244 82.0638 346.35 82.542 344.474 82.542H344.327C342.469 82.5236 340.612 82.0638 338.92 81.1442C323.011 72.5919 321.632 50.6504 321.576 44.3052C324.298 44.1397 326.395 43.2385 327.774 41.6016C329.246 39.8912 329.522 37.7761 329.503 36.3231C331.287 35.9185 335.481 35.2932 344.419 35.2748L344.437 35.2932C344.456 35.2932 344.456 35.2748 344.456 35.2748C353.431 35.2932 357.643 35.9185 359.39 36.3231C359.353 37.7761 359.647 39.8728 361.1 41.6016C362.498 43.2385 364.576 44.1397 367.317 44.3052C367.261 50.6504 365.882 72.5919 349.973 81.1442Z" fill="black"/>
<path d="M358.617 43.6799C357.881 42.7603 357.385 41.6752 357.109 40.443C356.925 39.6889 356.3 39.1187 355.546 39.0268C352.75 38.6773 349.017 38.4934 344.437 38.4934C339.858 38.4934 336.124 38.6773 333.328 39.0268C332.574 39.1187 331.949 39.6889 331.784 40.443C331.508 41.6752 330.993 42.7603 330.257 43.6799C329.246 44.949 327.848 45.8502 326.119 46.3467C325.31 46.5858 324.758 47.3583 324.795 48.2227C325.273 56.6278 327.885 71.6908 339.986 78.2015C341.347 78.9372 342.892 79.3234 344.437 79.3234C346 79.3234 347.527 78.9372 348.906 78.2015C360.934 71.7276 363.564 56.6462 364.061 48.2227C364.116 47.3583 363.564 46.5858 362.755 46.3467C361.026 45.8502 359.647 44.949 358.617 43.6799Z" fill="black"/>
<path d="M275.474 22.0677C279.794 22.0677 283.307 18.976 283.307 15.1763V11.7719C283.307 10.7567 282.483 9.93274 281.467 9.93274H275.474C274.458 9.93274 273.634 10.7567 273.634 11.7719C273.634 12.7872 274.458 13.6111 275.474 13.6111H279.628V15.1763C279.628 16.9474 277.763 18.3893 275.474 18.3893C273.184 18.3893 271.317 16.9474 271.317 15.1763V6.72152C271.317 4.95038 273.182 3.50846 275.474 3.50846C277.765 3.50846 279.628 4.95038 279.628 6.72152C279.628 7.73675 280.452 8.56071 281.467 8.56071C282.483 8.56071 283.307 7.73675 283.307 6.72152C283.307 2.92176 279.792 -0.169922 275.474 -0.169922C271.155 -0.169922 267.639 2.92176 267.639 6.72152V15.1763C267.639 18.976 271.153 22.0677 275.474 22.0677Z" fill="black"/>
<path d="M288.234 22.0693H290.937C297.062 22.0693 302.064 17.0851 302.064 10.9422C302.064 4.79931 297.062 -0.166504 290.937 -0.166504H288.234C287.204 -0.166504 286.395 0.661131 286.395 1.67269V20.2301C286.395 21.2417 287.204 22.0693 288.234 22.0693ZM290.073 3.51187H290.937C295.039 3.51187 298.386 6.84081 298.386 10.9422C298.386 15.0436 295.039 18.3909 290.937 18.3909H290.073V3.51187Z" fill="black"/>
<path d="M320.805 6.73045C320.805 2.92333 317.715 -0.166504 313.908 -0.166504H306.974C305.962 -0.166504 305.135 0.661131 305.135 1.67269V20.2301C305.135 21.2417 305.962 22.0693 306.974 22.0693C307.985 22.0693 308.813 21.2417 308.813 20.2301V13.609H313.908C317.715 13.609 320.805 10.5192 320.805 6.73045ZM313.908 9.93064H308.813V3.51187H313.908C315.673 3.51187 317.126 4.94644 317.126 6.73045C317.126 8.49608 315.673 9.93064 313.908 9.93064Z" fill="black"/>
<path d="M325.458 22.0693C326.47 22.0693 327.297 21.2417 327.297 20.2301V13.609H330.222L333.238 20.929C333.532 21.6463 334.213 22.0693 334.948 22.0693C335.169 22.0693 335.408 22.0141 335.647 21.9222C336.585 21.5359 337.027 20.4692 336.64 19.5312L334.102 13.3699C337.082 12.6159 339.289 9.93064 339.289 6.73045C339.289 2.92333 336.199 -0.166504 332.392 -0.166504H325.458C324.447 -0.166504 323.619 0.661131 323.619 1.67269V20.2301C323.619 21.2417 324.447 22.0693 325.458 22.0693ZM327.297 3.51187H332.392C334.158 3.51187 335.611 4.94644 335.611 6.73045C335.611 8.49608 334.158 9.93064 332.392 9.93064H327.297V3.51187Z" fill="black"/>
<path d="M308.425 42.512H270.224C269.209 42.512 268.385 43.3359 268.385 44.3512C268.385 45.3664 269.209 46.1903 270.224 46.1903H308.425C309.441 46.1903 310.265 45.3664 310.265 44.3512C310.265 43.3359 309.441 42.512 308.425 42.512Z" fill="black"/>
<path d="M308.425 50.1189H270.224C269.209 50.1189 268.385 50.9429 268.385 51.9581C268.385 52.9733 269.209 53.7973 270.224 53.7973H308.425C309.441 53.7973 310.265 52.9733 310.265 51.9581C310.265 50.9429 309.441 50.1189 308.425 50.1189Z" fill="black"/>
<path d="M308.425 57.7275H270.224C269.209 57.7275 268.385 58.5515 268.385 59.5667C268.385 60.582 269.209 61.4059 270.224 61.4059H308.425C309.441 61.4059 310.265 60.582 310.265 59.5667C310.265 58.5515 309.441 57.7275 308.425 57.7275Z" fill="black"/>
</g>
</g>
<path d="M207.31 74.5724C207.117 74.398 206.865 74.3108 206.603 74.3302C205.305 74.4077 204.404 74.1558 203.92 73.6036C203.261 72.8286 203.513 71.5983 203.513 71.5886C203.61 71.1721 203.416 70.7458 203.038 70.5327C202.767 70.3777 201.12 69.6511 194.63 69.5833V45.1611C194.63 44.6283 194.194 44.1924 193.661 44.1924H150.493C149.96 44.1924 149.525 44.6283 149.525 45.1611V97.3768C149.525 97.9096 149.96 98.3455 150.493 98.3455H193.661C194.978 98.3455 196.296 98.0258 197.487 97.3768C208.376 91.5255 207.669 75.9093 207.63 75.2408C207.62 74.9889 207.504 74.7468 207.31 74.5724ZM151.462 96.408V46.1299H192.692V69.5833C186.211 69.6511 184.555 70.3777 184.283 70.5327C183.915 70.7361 183.721 71.1721 183.809 71.5886C183.809 71.5983 184.06 72.8286 183.402 73.6036C182.917 74.1558 182.016 74.4077 180.718 74.3302C180.466 74.3108 180.205 74.398 180.011 74.5724C179.817 74.7468 179.711 74.9889 179.691 75.2408C179.662 75.8705 179.023 89.9658 188.265 96.408H151.462ZM196.577 95.6718C195.666 96.1561 194.668 96.408 193.68 96.408H193.603C192.624 96.3983 191.646 96.1561 190.755 95.6718C182.375 91.1671 181.648 79.6099 181.619 76.2677C183.053 76.1805 184.157 75.7058 184.884 74.8436C185.659 73.9427 185.804 72.8286 185.795 72.0633C186.734 71.8502 188.943 71.5208 193.651 71.5111L193.661 71.5208C193.67 71.5208 193.67 71.5111 193.67 71.5111C198.398 71.5208 200.616 71.8502 201.537 72.0633C201.517 72.8286 201.672 73.933 202.438 74.8436C203.174 75.7058 204.269 76.1805 205.712 76.2677C205.683 79.6099 204.956 91.1671 196.577 95.6718Z" fill="black"/>
<path d="M201.13 75.9384C200.742 75.454 200.481 74.8825 200.335 74.2334C200.239 73.8362 199.909 73.5359 199.512 73.4875C198.04 73.3034 196.073 73.2065 193.661 73.2065C191.249 73.2065 189.282 73.3034 187.81 73.4875C187.412 73.5359 187.083 73.8362 186.996 74.2334C186.85 74.8825 186.579 75.454 186.192 75.9384C185.659 76.6069 184.923 77.0815 184.012 77.3431C183.586 77.469 183.295 77.8759 183.315 78.3312C183.566 82.7584 184.942 90.6925 191.316 94.1219C192.033 94.5094 192.847 94.7128 193.661 94.7128C194.484 94.7128 195.288 94.5094 196.015 94.1219C202.35 90.7119 203.736 82.7681 203.997 78.3312C204.026 77.8759 203.736 77.469 203.31 77.3431C202.399 77.0815 201.672 76.6069 201.13 75.9384Z" fill="black"/>
<path d="M157.337 64.5547C159.613 64.5547 161.463 62.9262 161.463 60.9248V59.1316C161.463 58.5969 161.029 58.1629 160.494 58.1629H157.337C156.802 58.1629 156.368 58.5969 156.368 59.1316C156.368 59.6664 156.802 60.1004 157.337 60.1004H159.525V60.9248C159.525 61.8577 158.543 62.6172 157.337 62.6172C156.131 62.6172 155.148 61.8577 155.148 60.9248V56.4715C155.148 55.5386 156.13 54.7791 157.337 54.7791C158.544 54.7791 159.525 55.5386 159.525 56.4715C159.525 57.0062 159.959 57.4402 160.494 57.4402C161.029 57.4402 161.463 57.0062 161.463 56.4715C161.463 54.47 159.612 52.8416 157.337 52.8416C155.062 52.8416 153.21 54.47 153.21 56.4715V60.9248C153.21 62.9262 155.061 64.5547 157.337 64.5547Z" fill="black"/>
<path d="M164.057 64.5557H165.482C168.707 64.5557 171.342 61.9304 171.342 58.6948C171.342 55.4591 168.707 52.8435 165.482 52.8435H164.057C163.515 52.8435 163.089 53.2794 163.089 53.8123V63.5869C163.089 64.1198 163.515 64.5557 164.057 64.5557ZM165.026 54.781H165.482C167.642 54.781 169.405 56.5344 169.405 58.6948C169.405 60.8551 167.642 62.6182 165.482 62.6182H165.026V54.781Z" fill="black"/>
<path d="M181.213 56.4763C181.213 54.471 179.586 52.8435 177.58 52.8435H173.928C173.395 52.8435 172.959 53.2794 172.959 53.8123V63.5869C172.959 64.1198 173.395 64.5557 173.928 64.5557C174.461 64.5557 174.897 64.1198 174.897 63.5869V60.0994H177.58C179.586 60.0994 181.213 58.4719 181.213 56.4763ZM177.58 58.1619H174.897V54.781H177.58C178.51 54.781 179.276 55.5366 179.276 56.4763C179.276 57.4063 178.51 58.1619 177.58 58.1619Z" fill="black"/>
<path d="M183.664 64.5557C184.197 64.5557 184.633 64.1198 184.633 63.5869V60.0994H186.173L187.762 63.9551C187.917 64.3329 188.276 64.5557 188.663 64.5557C188.779 64.5557 188.905 64.5266 189.031 64.4782C189.525 64.2748 189.758 63.7129 189.554 63.2188L188.218 59.9735C189.787 59.5763 190.949 58.1619 190.949 56.4763C190.949 54.471 189.322 52.8435 187.317 52.8435H183.664C183.132 52.8435 182.696 53.2794 182.696 53.8123V63.5869C182.696 64.1198 183.132 64.5557 183.664 64.5557ZM184.633 54.781H187.317C188.247 54.781 189.012 55.5366 189.012 56.4763C189.012 57.4063 188.247 58.1619 187.317 58.1619H184.633V54.781Z" fill="black"/>
<path d="M174.692 75.3232H154.57C154.035 75.3232 153.601 75.7572 153.601 76.292C153.601 76.8267 154.035 77.2607 154.57 77.2607H174.692C175.226 77.2607 175.66 76.8267 175.66 76.292C175.66 75.7572 175.226 75.3232 174.692 75.3232Z" fill="black"/>
<path d="M174.692 79.3301H154.57C154.035 79.3301 153.601 79.7641 153.601 80.2988C153.601 80.8336 154.035 81.2676 154.57 81.2676H174.692C175.226 81.2676 175.66 80.8336 175.66 80.2988C175.66 79.7641 175.226 79.3301 174.692 79.3301Z" fill="black"/>
<path d="M174.692 83.3376H154.57C154.035 83.3376 153.601 83.7716 153.601 84.3064C153.601 84.8411 154.035 85.2751 154.57 85.2751H174.692C175.226 85.2751 175.66 84.8411 175.66 84.3064C175.66 83.7716 175.226 83.3376 174.692 83.3376Z" fill="black"/>
</svg>
