<svg width="344" height="142" viewBox="0 0 344 142" fill="none" xmlns="http://www.w3.org/2000/svg">
<path d="M0 18C0 8.05887 8.05887 0 18 0H326.005C335.946 0 344.005 8.05888 344.005 18V141.747H0V18Z" fill="white"/>
<mask id="mask0_40000018_8788" style="mask-type:alpha" maskUnits="userSpaceOnUse" x="0" y="0" width="345" height="142">
<path d="M0 18C0 8.05887 8.05887 0 18 0H326.005C335.946 0 344.005 8.05888 344.005 18V141.747H0V18Z" fill="white"/>
</mask>
<g mask="url(#mask0_40000018_8788)">
<g opacity="0.06">
<path d="M321.439 63.3274C321.548 63.3818 321.675 63.3999 321.802 63.3999H368.512C368.639 63.3999 368.747 63.3818 368.856 63.3274C369.092 63.2367 369.273 63.0554 369.364 62.8378C369.4 62.7109 369.437 62.6021 369.437 62.4751V15.7651C369.437 15.6382 369.4 15.5294 369.364 15.4024C369.273 15.1849 369.092 15.0035 368.856 14.9129C368.747 14.8585 368.639 14.8403 368.512 14.8403H321.802C321.675 14.8403 321.548 14.8403 321.439 14.9129C321.221 15.0035 321.04 15.1849 320.949 15.4024C320.895 15.5294 320.877 15.6382 320.877 15.7651V62.4751C320.877 62.6021 320.895 62.7109 320.949 62.8378C321.04 63.0554 321.221 63.2367 321.439 63.3274ZM367.587 60.2629L346.462 39.1201L367.587 17.9954V60.2629ZM322.708 17.9954L343.851 39.1201L322.708 60.2629V17.9954Z" fill="black"/>
<path d="M321.439 6.71679C321.548 6.75306 321.675 6.77119 321.802 6.77119H335.365C335.474 6.77119 335.601 6.75306 335.71 6.71679C335.945 6.608 336.108 6.42667 336.217 6.20908C336.254 6.10028 336.272 5.97335 336.272 5.86455V-7.69876C336.272 -7.82569 336.254 -7.95262 336.217 -8.06142C336.108 -8.27901 335.945 -8.46034 335.71 -8.551C335.601 -8.6054 335.474 -8.62354 335.365 -8.62354H321.802C321.675 -8.62354 321.548 -8.6054 321.439 -8.551C321.221 -8.46034 321.04 -8.27901 320.949 -8.06142C320.895 -7.95262 320.877 -7.82569 320.877 -7.69876V5.86455C320.877 5.97335 320.895 6.10028 320.949 6.20908C321.04 6.42667 321.221 6.608 321.439 6.71679ZM334.44 3.63422L329.871 -0.917105L334.44 -5.48657V3.63422ZM322.708 -5.48657L327.278 -0.917105L322.708 3.63422V-5.48657Z" fill="black"/>
<path d="M279.227 6.53537V26.9347C279.227 27.0617 279.245 27.1886 279.299 27.2974C279.39 27.515 279.571 27.6963 279.789 27.787C279.897 27.8414 280.024 27.8595 280.151 27.8595H300.569C300.678 27.8595 300.805 27.8414 300.913 27.787C301.131 27.6963 301.312 27.515 301.403 27.2974C301.457 27.1886 301.475 27.0617 301.475 26.9347V6.53537C301.475 6.40844 301.457 6.28151 301.403 6.17271C301.312 5.95512 301.131 5.77379 300.913 5.68313C300.805 5.62873 300.678 5.6106 300.569 5.6106H280.151C280.024 5.6106 279.897 5.62873 279.789 5.68313C279.571 5.77379 279.39 5.95512 279.299 6.17271C279.245 6.28151 279.227 6.40844 279.227 6.53537ZM299.644 24.7225L291.648 16.726L299.644 8.74757V24.7225ZM281.058 8.74757L289.055 16.726L281.058 24.7225V8.74757Z" fill="black"/>
<path d="M300.913 45.1402C300.805 45.1039 300.678 45.0676 300.569 45.0676H280.151C280.024 45.0676 279.897 45.1039 279.789 45.1402C279.571 45.2308 279.39 45.4121 279.299 45.6479C279.245 45.7567 279.227 45.8655 279.227 45.9924V66.4099C279.227 66.5368 279.245 66.6456 279.299 66.7544C279.39 66.9902 279.571 67.1715 279.789 67.2621C279.897 67.3165 280.024 67.3347 280.151 67.3347H300.569C300.678 67.3347 300.805 67.3347 300.913 67.2621C301.131 67.1715 301.312 66.9902 301.403 66.7544C301.457 66.6456 301.475 66.5368 301.475 66.4099V45.9924C301.475 45.8655 301.457 45.7567 301.403 45.6479C301.312 45.4121 301.131 45.2308 300.913 45.1402ZM281.058 48.2227L289.055 56.2011L281.058 64.1796V48.2227ZM299.644 64.1796L291.648 56.2011L299.644 48.2227V64.1796Z" fill="black"/>
<path d="M325.918 81.5687H364.377C367.17 81.5687 369.437 79.3021 369.437 76.5097C369.437 73.7172 367.17 71.4688 364.377 71.4688H325.918C323.144 71.4688 320.877 73.7354 320.877 76.5097C320.877 79.284 323.144 81.5687 325.918 81.5687Z" fill="black"/>
<path d="M270.305 -10.5457V83.4909C270.305 88.5681 274.421 92.6842 279.48 92.6842H370.398C375.457 92.6842 379.573 88.5681 379.573 83.4909V-10.5638C379.573 -15.6229 375.457 -19.739 370.398 -19.739H279.48C274.421 -19.739 270.305 -15.6229 270.305 -10.5457ZM319.916 -17.8895H370.398C374.441 -17.8895 377.724 -14.6074 377.724 -10.5638V83.4909C377.724 87.5345 374.441 90.8347 370.398 90.8347H319.916C317.885 90.8347 316.054 90.0187 314.73 88.6769C313.407 87.3532 312.572 85.5218 312.572 83.4909V-10.5457C312.572 -14.5893 315.873 -17.8895 319.916 -17.8895ZM313.533 -17.1279C313.443 -17.0372 313.352 -16.9466 313.261 -16.8559C312.971 -16.5295 312.681 -16.2031 312.446 -15.8586C312.391 -15.7679 312.319 -15.7135 312.264 -15.6229C311.992 -15.224 311.775 -14.7888 311.575 -14.3354C311.503 -14.2085 311.448 -14.0816 311.394 -13.9547C311.212 -13.5013 311.067 -13.0299 310.959 -12.5584C310.959 -12.4315 310.922 -12.3046 310.904 -12.1776C310.814 -11.6881 310.741 -11.1803 310.741 -10.6545V83.5997C310.741 84.1074 310.814 84.6151 310.904 85.1047C310.922 85.2316 310.94 85.3586 310.959 85.4855C311.067 85.9751 311.231 86.4465 311.412 86.918C311.448 87.0268 311.503 87.1356 311.557 87.2625C311.775 87.7158 312.01 88.1691 312.282 88.5862C312.319 88.6406 312.355 88.6769 312.391 88.7313C312.663 89.1302 312.971 89.4928 313.316 89.8555C313.37 89.9099 313.425 89.9824 313.497 90.0368C313.787 90.3269 314.077 90.5989 314.404 90.8347H279.48C275.437 90.8347 272.154 87.5345 272.154 83.4909V-10.5457C272.154 -14.5893 275.437 -17.8895 279.48 -17.8895H314.404C314.096 -17.6537 313.805 -17.3999 313.533 -17.1279Z" fill="black"/>
</g>
</g>
<path d="M171.546 85.7159C171.604 85.745 171.672 85.7546 171.74 85.7546H196.695C196.762 85.7546 196.82 85.745 196.879 85.7159C197.005 85.6675 197.101 85.5706 197.15 85.4543C197.169 85.3865 197.189 85.3284 197.189 85.2606V60.3056C197.189 60.2378 197.169 60.1796 197.15 60.1118C197.101 59.9956 197.005 59.8987 196.879 59.8503C196.82 59.8212 196.762 59.8115 196.695 59.8115H171.74C171.672 59.8115 171.604 59.8115 171.546 59.8503C171.43 59.8987 171.333 59.9956 171.284 60.1118C171.255 60.1796 171.245 60.2378 171.245 60.3056V85.2606C171.245 85.3284 171.255 85.3865 171.284 85.4543C171.333 85.5706 171.43 85.6675 171.546 85.7159ZM196.2 84.0787L184.915 72.7831L196.2 61.4971V84.0787ZM172.224 61.4971L183.52 72.7831L172.224 84.0787V61.4971Z" fill="black"/>
<path d="M189.264 55.4715C189.322 55.4909 189.38 55.5006 189.448 55.5006H196.695C196.762 55.5006 196.82 55.4909 196.879 55.4715C197.005 55.4134 197.101 55.3165 197.15 55.2003C197.169 55.1421 197.189 55.0743 197.189 55.0162V47.7699C197.189 47.7021 197.169 47.6343 197.15 47.5762C197.101 47.4599 197.005 47.3631 196.879 47.3146C196.82 47.2856 196.762 47.2759 196.695 47.2759H189.448C189.38 47.2759 189.322 47.2856 189.264 47.3146C189.138 47.3631 189.041 47.4599 188.993 47.5762C188.964 47.6343 188.954 47.7021 188.954 47.7699V55.0162C188.954 55.0743 188.964 55.1421 188.993 55.2003C189.041 55.3165 189.138 55.4134 189.264 55.4715ZM196.2 53.8246L193.769 51.3931L196.2 48.9518V53.8246ZM189.942 48.9518L192.374 51.3931L189.942 53.8246V48.9518Z" fill="black"/>
<path d="M171.546 55.4715C171.604 55.4909 171.672 55.5006 171.74 55.5006H178.986C179.044 55.5006 179.112 55.4909 179.17 55.4715C179.296 55.4134 179.383 55.3165 179.441 55.2003C179.46 55.1421 179.47 55.0743 179.47 55.0162V47.7699C179.47 47.7021 179.46 47.6343 179.441 47.5762C179.383 47.4599 179.296 47.3631 179.17 47.3146C179.112 47.2856 179.044 47.2759 178.986 47.2759H171.74C171.672 47.2759 171.604 47.2856 171.546 47.3146C171.43 47.3631 171.333 47.4599 171.284 47.5762C171.255 47.6343 171.245 47.7021 171.245 47.7699V55.0162C171.245 55.0743 171.255 55.1421 171.284 55.2003C171.333 55.3165 171.43 55.4134 171.546 55.4715ZM178.492 53.8246L176.05 51.3931L178.492 48.9518V53.8246ZM172.224 48.9518L174.665 51.3931L172.224 53.8246V48.9518Z" fill="black"/>
<path d="M148.994 55.3747V66.2731C148.994 66.3409 149.003 66.4087 149.033 66.4669C149.081 66.5831 149.178 66.68 149.294 66.7284C149.352 66.7575 149.42 66.7672 149.488 66.7672H160.396C160.454 66.7672 160.522 66.7575 160.58 66.7284C160.696 66.68 160.793 66.5831 160.842 66.4669C160.871 66.4087 160.88 66.3409 160.88 66.2731V55.3747C160.88 55.3069 160.871 55.2391 160.842 55.1809C160.793 55.0647 160.696 54.9678 160.58 54.9194C160.522 54.8903 160.454 54.8806 160.396 54.8806H149.488C149.42 54.8806 149.352 54.8903 149.294 54.9194C149.178 54.9678 149.081 55.0647 149.033 55.1809C149.003 55.2391 148.994 55.3069 148.994 55.3747ZM159.902 65.0912L155.63 60.8191L159.902 56.5566V65.0912ZM149.972 56.5566L154.244 60.8191L149.972 65.0912V56.5566Z" fill="black"/>
<path d="M160.58 75.9992C160.522 75.9798 160.454 75.9604 160.396 75.9604H149.488C149.42 75.9604 149.352 75.9798 149.294 75.9992C149.178 76.0476 149.081 76.1445 149.033 76.2704C149.003 76.3286 148.994 76.3867 148.994 76.4545V87.3626C148.994 87.4304 149.003 87.4886 149.033 87.5467C149.081 87.6726 149.178 87.7695 149.294 87.8179C149.352 87.847 149.42 87.8567 149.488 87.8567H160.396C160.454 87.8567 160.522 87.8567 160.58 87.8179C160.696 87.7695 160.793 87.6726 160.842 87.5467C160.871 87.4886 160.88 87.4304 160.88 87.3626V76.4545C160.88 76.3867 160.871 76.3286 160.842 76.2704C160.793 76.1445 160.696 76.0476 160.58 75.9992ZM149.972 77.6461L154.244 81.9086L149.972 86.1711V77.6461ZM159.902 86.1711L155.63 81.9086L159.902 77.6461V86.1711Z" fill="black"/>
<path d="M173.939 95.4616H194.486C195.978 95.4616 197.189 94.2507 197.189 92.7588C197.189 91.2669 195.978 90.0657 194.486 90.0657H173.939C172.456 90.0657 171.245 91.2766 171.245 92.7588C171.245 94.241 172.456 95.4616 173.939 95.4616Z" fill="black"/>
<path d="M144.228 46.249V96.4883C144.228 99.2008 146.427 101.4 149.13 101.4H197.703C200.406 101.4 202.605 99.2008 202.605 96.4883V46.2393C202.605 43.5365 200.406 41.3374 197.703 41.3374H149.13C146.427 41.3374 144.228 43.5365 144.228 46.249ZM170.733 42.3255H197.703C199.863 42.3255 201.617 44.079 201.617 46.2393V96.4883C201.617 98.6487 199.863 100.412 197.703 100.412H170.733C169.648 100.412 168.669 99.9758 167.962 99.259C167.255 98.5518 166.809 97.5733 166.809 96.4883V46.249C166.809 44.0887 168.573 42.3255 170.733 42.3255ZM167.323 42.7324C167.274 42.7808 167.226 42.8293 167.178 42.8777C167.023 43.0521 166.868 43.2265 166.742 43.4105C166.713 43.459 166.674 43.488 166.645 43.5365C166.499 43.7496 166.383 43.9821 166.277 44.2243C166.238 44.2921 166.209 44.3599 166.18 44.4277C166.083 44.6699 166.005 44.9218 165.947 45.1737C165.947 45.2415 165.928 45.3093 165.918 45.3771C165.87 45.6387 165.831 45.9099 165.831 46.1908V96.5465C165.831 96.8177 165.87 97.089 165.918 97.3505C165.928 97.4183 165.938 97.4862 165.947 97.554C166.005 97.8155 166.093 98.0674 166.189 98.3193C166.209 98.3774 166.238 98.4355 166.267 98.5033C166.383 98.7455 166.509 98.9877 166.654 99.2105C166.674 99.2396 166.693 99.259 166.713 99.288C166.858 99.5012 167.023 99.6949 167.207 99.8887C167.236 99.9177 167.265 99.9565 167.304 99.9855C167.459 100.141 167.614 100.286 167.788 100.412H149.13C146.969 100.412 145.216 98.6487 145.216 96.4883V46.249C145.216 44.0887 146.969 42.3255 149.13 42.3255H167.788C167.623 42.4515 167.468 42.5871 167.323 42.7324Z" fill="black"/>
</svg>
