<svg width="344" height="142" viewBox="0 0 344 142" fill="none" xmlns="http://www.w3.org/2000/svg">
<path d="M0 18C0 8.05887 8.05887 0 18 0H326.005C335.946 0 344.005 8.05888 344.005 18V141.747H0V18Z" fill="white"/>
<mask id="mask0_40000018_8812" style="mask-type:alpha" maskUnits="userSpaceOnUse" x="0" y="0" width="345" height="142">
<path d="M0 18C0 8.05887 8.05887 0 18 0H326.005C335.946 0 344.005 8.05888 344.005 18V141.747H0V18Z" fill="white"/>
</mask>
<g mask="url(#mask0_40000018_8812)">
<path opacity="0.06" d="M324.898 29.6149C304.765 29.6149 288.385 46.1182 288.385 66.4032C288.385 67.3188 289.122 68.0611 290.031 68.0611H304.626C305.535 68.0611 306.272 67.3188 306.272 66.4032C306.272 56.0549 314.627 47.6362 324.898 47.6362C335.169 47.6362 343.524 56.0549 343.524 66.4032C343.524 67.3188 344.261 68.0611 345.17 68.0611H359.765C360.674 68.0611 361.411 67.3188 361.411 66.4032C361.41 46.118 345.031 29.6149 324.898 29.6149ZM323.252 44.3826C320.456 44.5928 317.804 45.334 315.396 46.5059L309.735 36.6266C313.824 34.5045 318.403 33.2108 323.252 32.9712V44.3826ZM326.543 32.9712C331.393 33.2108 335.971 34.5043 340.061 36.6266L334.399 46.5061C331.991 45.334 329.34 44.5928 326.543 44.3826V32.9712H326.543ZM303.042 64.7454H291.716C291.954 59.8589 293.238 55.2455 295.344 51.1257L305.15 56.8298C303.987 59.2562 303.25 61.9277 303.042 64.7454ZM306.8 53.9615L296.993 48.2566C299.554 44.2722 302.932 40.8686 306.887 38.288L312.549 48.169C310.295 49.7234 308.343 51.6904 306.8 53.9615ZM337.246 48.169L342.908 38.2878C346.863 40.8682 350.241 44.2718 352.802 48.2564L342.995 53.9613C341.452 51.6904 339.5 49.7234 337.246 48.169ZM346.753 64.7454C346.545 61.9277 345.809 59.2562 344.645 56.8298L354.451 51.1257C356.558 55.2455 357.842 59.8589 358.079 64.7454H346.753ZM331.475 57.4318L326.958 61.983C326.332 61.6858 325.634 61.5188 324.898 61.5188C322.225 61.5188 320.05 63.7098 320.05 66.4032C320.05 69.0966 322.225 71.2877 324.898 71.2877C327.571 71.2877 329.746 69.0966 329.746 66.4032C329.746 65.6613 329.58 64.958 329.285 64.3276L333.802 59.7766C334.444 59.129 334.444 58.0796 333.802 57.432C333.159 56.7846 332.117 56.7846 331.475 57.4318ZM324.898 67.972C324.039 67.972 323.341 67.2682 323.341 66.4032C323.341 65.5382 324.039 64.8345 324.898 64.8345C325.756 64.8345 326.455 65.5382 326.455 66.4032C326.455 67.2682 325.756 67.972 324.898 67.972ZM301.499 10.549C301.145 10.549 300.789 10.4344 300.488 10.1978C299.772 9.6341 299.644 8.59235 300.204 7.87077L304.835 1.89691C305.394 1.17533 306.428 1.04685 307.144 1.61073C307.86 2.1744 307.988 3.21615 307.428 3.93773L302.797 9.91158C302.473 10.3302 301.989 10.549 301.499 10.549ZM297.762 -2.62093H310.743L308.786 14.2682C308.702 15.0014 309.108 15.7027 309.783 15.9888C309.99 16.0763 310.206 16.1184 310.42 16.1184C310.906 16.1184 311.381 15.901 311.701 15.5027L332.633 -10.5861C333.031 -11.0828 333.111 -11.7661 332.838 -12.3428C332.565 -12.9191 331.987 -13.2863 331.353 -13.2863H318.268L319.219 -29.745C319.261 -30.4691 318.831 -31.1366 318.158 -31.3925C317.484 -31.6486 316.723 -31.4331 316.28 -30.8616L296.466 -5.29919C296.078 -4.79977 296.008 -4.1215 296.284 -3.55182C296.559 -2.98235 297.133 -2.62093 297.762 -2.62093ZM315.627 -24.633L314.881 -11.7246C314.855 -11.2691 315.016 -10.8225 315.327 -10.4905C315.638 -10.1586 316.071 -9.97039 316.524 -9.97039H327.907L312.714 8.96536L314.226 -4.08648C314.28 -4.55668 314.133 -5.02751 313.82 -5.38105C313.508 -5.73438 313.061 -5.93664 312.591 -5.93664H301.135L315.627 -24.633ZM301.62 24.0369L306.25 18.063C306.81 17.3414 307.844 17.2127 308.56 17.7768C309.276 18.3405 309.404 19.3823 308.844 20.1038L304.213 26.0777C303.889 26.4965 303.405 26.7151 302.915 26.7151C302.561 26.7151 302.205 26.6005 301.904 26.3639C301.188 25.8004 301.06 24.7582 301.62 24.0369ZM288.364 5.15355L292.994 -0.820303C293.553 -1.54188 294.588 -1.67036 295.304 -1.10649C296.02 -0.543028 296.147 0.498932 295.588 1.22051L290.957 7.19437C290.633 7.61318 290.148 7.83181 289.659 7.83181C289.305 7.83181 288.948 7.71721 288.648 7.48055C287.931 6.91668 287.804 5.87492 288.364 5.15355ZM292.808 21.7623C292.454 21.7623 292.097 21.6477 291.796 21.411C291.08 20.8476 290.953 19.8058 291.512 19.084L296.143 13.11C296.702 12.3882 297.736 12.2597 298.452 12.8238C299.169 13.3873 299.296 14.429 298.736 15.1508L294.106 21.1249C293.781 21.5435 293.297 21.7623 292.808 21.7623ZM292.928 35.2499L297.559 29.2761C298.118 28.5545 299.152 28.426 299.868 28.9899C300.584 29.5536 300.712 30.5953 300.152 31.3169L295.522 37.2908C295.197 37.7096 294.713 37.9282 294.224 37.9282C293.87 37.9282 293.513 37.8136 293.212 37.577C292.496 37.0135 292.369 35.9715 292.928 35.2499ZM279.672 16.3666L284.302 10.3928C284.862 9.67119 285.896 9.5425 286.612 10.1066C287.328 10.67 287.455 11.712 286.896 12.4336L282.265 18.4074C281.941 18.8263 281.457 19.0449 280.967 19.0449C280.613 19.0449 280.257 18.9303 279.956 18.6936C279.239 18.13 279.112 17.088 279.672 16.3666ZM282.82 30.2971L287.451 24.3233C288.01 23.6015 289.044 23.473 289.761 24.0371C290.477 24.6007 290.604 25.6425 290.045 26.3641L285.414 32.3379C285.09 32.7568 284.605 32.9754 284.116 32.9754C283.762 32.9754 283.405 32.8608 283.104 32.6241C282.388 32.0605 282.261 31.0185 282.82 30.2971ZM291.46 42.5298L286.83 48.5036C286.505 48.9224 286.021 49.1411 285.532 49.1411C285.178 49.1411 284.821 49.0265 284.52 48.7898C283.804 48.2262 283.677 47.1844 284.236 46.4628L288.867 40.489C289.426 39.7674 290.46 39.6387 291.176 40.2028C291.893 40.7662 292.02 41.8084 291.46 42.5298ZM278.204 23.6467L273.573 29.6205C273.249 30.0393 272.765 30.258 272.275 30.258C271.921 30.258 271.565 30.1434 271.264 29.9067C270.548 29.343 270.42 28.3013 270.98 27.5797L275.611 21.6058C276.17 20.8841 277.204 20.7556 277.92 21.3197C278.636 21.8831 278.764 22.9251 278.204 23.6467ZM275.424 44.1885C275.07 44.1885 274.714 44.0739 274.413 43.8372C273.697 43.2735 273.569 42.2318 274.129 41.5102L278.76 35.5363C279.319 34.8148 280.353 34.6863 281.069 35.2502C281.785 35.8138 281.913 36.8556 281.353 37.5772L276.722 43.551C276.398 43.9696 275.913 44.1885 275.424 44.1885ZM282.769 53.7429L278.138 59.7167C277.814 60.1355 277.329 60.3541 276.84 60.3541C276.486 60.3541 276.129 60.2395 275.829 60.0029C275.112 59.4392 274.985 58.3975 275.544 57.6759L280.175 51.702C280.734 50.9805 281.768 50.852 282.485 51.4158C283.201 51.9795 283.328 53.0215 282.769 53.7429ZM269.512 34.8595L264.882 40.8336C264.557 41.2524 264.073 41.471 263.584 41.471C263.23 41.471 262.873 41.3564 262.572 41.1198C261.856 40.5563 261.729 39.5146 262.288 38.7928L266.919 32.8187C267.478 32.0971 268.512 31.9684 269.228 32.5325C269.945 33.0962 270.072 34.1379 269.512 34.8595Z" fill="black"/>
</g>
<path d="M180.79 77.9491C168.936 77.9491 159.293 87.5926 159.293 99.446C159.293 99.981 159.726 100.415 160.261 100.415H168.855C169.389 100.415 169.823 99.981 169.823 99.446C169.823 93.3991 174.743 88.4796 180.79 88.4796C186.836 88.4796 191.756 93.3991 191.756 99.446C191.756 99.981 192.19 100.415 192.725 100.415H201.318C201.853 100.415 202.287 99.981 202.287 99.446C202.286 87.5925 192.643 77.9491 180.79 77.9491ZM179.821 86.5785C178.174 86.7013 176.613 87.1344 175.195 87.8192L171.862 82.0463C174.27 80.8063 176.965 80.0503 179.821 79.9103V86.5785ZM181.758 79.9103C184.614 80.0503 187.309 80.8062 189.717 82.0463L186.384 87.8193C184.966 87.1344 183.405 86.7013 181.758 86.5785V79.9103H181.758ZM167.922 98.4773H161.254C161.393 95.6219 162.149 92.9261 163.39 90.5187L169.163 93.8518C168.478 95.2697 168.044 96.8307 167.922 98.4773ZM170.134 92.1758L164.36 88.8422C165.868 86.5139 167.857 84.5251 170.186 83.0171L173.519 88.791C172.192 89.6993 171.043 90.8487 170.134 92.1758ZM188.06 88.791L191.393 83.017C193.722 84.5248 195.711 86.5137 197.218 88.8421L191.444 92.1757C190.536 90.8487 189.387 89.6993 188.06 88.791ZM193.657 98.4773C193.535 96.8307 193.101 95.2697 192.416 93.8518L198.189 90.5187C199.429 92.9261 200.185 95.6219 200.325 98.4773H193.657ZM184.662 94.2036L182.002 96.8631C181.634 96.6894 181.223 96.5918 180.79 96.5918C179.216 96.5918 177.935 97.8722 177.935 99.446C177.935 101.02 179.216 102.3 180.79 102.3C182.363 102.3 183.644 101.02 183.644 99.446C183.644 99.0125 183.546 98.6015 183.372 98.2331L186.032 95.5738C186.41 95.1954 186.41 94.5822 186.032 94.2037C185.653 93.8254 185.04 93.8254 184.662 94.2036ZM180.79 100.363C180.284 100.363 179.873 99.9515 179.873 99.446C179.873 98.9406 180.284 98.5293 180.79 98.5293C181.295 98.5293 181.706 98.9406 181.706 99.446C181.706 99.9515 181.295 100.363 180.79 100.363ZM167.014 66.8081C166.805 66.8081 166.595 66.7411 166.418 66.6028C165.996 66.2735 165.921 65.6647 166.251 65.2431L168.977 61.7523C169.306 61.3307 169.915 61.2556 170.337 61.5851C170.759 61.9145 170.834 62.5232 170.504 62.9448L167.778 66.4356C167.587 66.6802 167.302 66.8081 167.014 66.8081ZM164.813 59.1124H172.456L171.304 68.9814C171.254 69.4098 171.493 69.8196 171.891 69.9868C172.012 70.0379 172.14 70.0625 172.266 70.0625C172.552 70.0625 172.831 69.9355 173.02 69.7027L185.343 54.458C185.578 54.1677 185.625 53.7685 185.464 53.4315C185.303 53.0947 184.963 52.8801 184.59 52.8801H176.886L177.446 43.2626C177.471 42.8395 177.218 42.4495 176.821 42.2999C176.424 42.1503 175.977 42.2762 175.716 42.6102L164.05 57.5473C163.822 57.8392 163.78 58.2355 163.943 58.5684C164.105 58.9012 164.443 59.1124 164.813 59.1124ZM175.331 46.2498L174.892 53.7927C174.877 54.0589 174.972 54.3198 175.155 54.5138C175.338 54.7078 175.593 54.8178 175.859 54.8178H182.561L173.616 65.8827L174.506 58.256C174.538 57.9812 174.452 57.7061 174.268 57.4995C174.084 57.293 173.821 57.1748 173.544 57.1748H166.799L175.331 46.2498ZM167.084 74.6896L169.811 71.1988C170.14 70.7772 170.749 70.702 171.171 71.0316C171.592 71.361 171.667 71.9697 171.338 72.3914L168.611 75.8821C168.421 76.1269 168.135 76.2546 167.847 76.2546C167.639 76.2546 167.429 76.1877 167.252 76.0494C166.83 75.7201 166.755 75.1111 167.084 74.6896ZM159.28 63.6553L162.006 60.1645C162.335 59.7429 162.944 59.6678 163.366 59.9973C163.787 60.3266 163.862 60.9354 163.533 61.3571L160.807 64.8478C160.616 65.0926 160.331 65.2203 160.043 65.2203C159.834 65.2203 159.624 65.1534 159.447 65.0151C159.025 64.6856 158.95 64.0768 159.28 63.6553ZM161.896 73.3605C161.688 73.3605 161.478 73.2935 161.301 73.1552C160.879 72.826 160.804 72.2172 161.134 71.7955L163.86 68.3046C164.189 67.8828 164.798 67.8077 165.22 68.1373C165.641 68.4666 165.716 69.0753 165.387 69.4971L162.661 72.988C162.469 73.2326 162.184 73.3605 161.896 73.3605ZM161.967 81.2419L164.693 77.7511C165.023 77.3295 165.631 77.2544 166.053 77.5839C166.475 77.9132 166.55 78.522 166.22 78.9436L163.494 82.4344C163.303 82.6791 163.018 82.8069 162.73 82.8069C162.521 82.8069 162.311 82.7399 162.134 82.6016C161.713 82.2724 161.638 81.6635 161.967 81.2419ZM154.162 70.2076L156.889 66.7168C157.218 66.2951 157.827 66.2199 158.249 66.5496C158.67 66.8788 158.745 67.4877 158.416 67.9093L155.689 71.4001C155.498 71.6448 155.213 71.7726 154.925 71.7726C154.717 71.7726 154.507 71.7056 154.33 71.5673C153.908 71.2379 153.833 70.6291 154.162 70.2076ZM156.016 78.3477L158.743 74.857C159.072 74.4352 159.681 74.3601 160.102 74.6897C160.524 75.0191 160.599 75.6278 160.27 76.0495L157.543 79.5403C157.352 79.785 157.067 79.9127 156.779 79.9127C156.57 79.9127 156.36 79.8458 156.183 79.7075C155.762 79.3781 155.687 78.7693 156.016 78.3477ZM161.103 85.4958L158.377 88.9865C158.186 89.2313 157.901 89.359 157.613 89.359C157.404 89.359 157.194 89.2921 157.017 89.1538C156.595 88.8244 156.52 88.2157 156.85 87.794L159.576 84.3032C159.905 83.8816 160.514 83.8064 160.936 84.136C161.358 84.4653 161.432 85.0742 161.103 85.4958ZM153.298 74.4616L150.572 77.9524C150.381 78.1971 150.096 78.3248 149.808 78.3248C149.599 78.3248 149.389 78.2579 149.212 78.1196C148.791 77.7902 148.716 77.1815 149.045 76.7598L151.771 73.2691C152.101 72.8473 152.709 72.7722 153.131 73.1018C153.553 73.4311 153.628 74.0399 153.298 74.4616ZM151.662 86.465C151.453 86.465 151.243 86.398 151.066 86.2598C150.645 85.9304 150.57 85.3216 150.899 84.9L153.625 81.4092C153.955 80.9876 154.563 80.9125 154.985 81.242C155.407 81.5714 155.482 82.1801 155.152 82.6018L152.426 86.0925C152.235 86.3371 151.95 86.465 151.662 86.465ZM155.986 92.048L153.259 95.5388C153.068 95.7835 152.783 95.9113 152.495 95.9113C152.287 95.9113 152.077 95.8443 151.9 95.706C151.478 95.3767 151.403 94.7679 151.732 94.3463L154.459 90.8555C154.788 90.4339 155.397 90.3588 155.819 90.6883C156.24 91.0176 156.315 91.6265 155.986 92.048ZM148.181 81.0137L145.455 84.5046C145.264 84.7493 144.979 84.8771 144.69 84.8771C144.482 84.8771 144.272 84.8101 144.095 84.6719C143.673 84.3426 143.598 83.7339 143.928 83.3121L146.654 79.8212C146.983 79.3995 147.592 79.3243 148.014 79.654C148.436 79.9833 148.51 80.5921 148.181 81.0137Z" fill="black"/>
</svg>
