<svg width="344" height="142" viewBox="0 0 344 142" fill="none" xmlns="http://www.w3.org/2000/svg">
<path d="M0 18C0 8.05887 8.05887 0 18 0H326.005C335.946 0 344.005 8.05888 344.005 18V141.747H0V18Z" fill="white"/>
<mask id="mask0_40000018_8720" style="mask-type:alpha" maskUnits="userSpaceOnUse" x="0" y="0" width="345" height="142">
<path d="M0 18C0 8.05887 8.05887 0 18 0H326.005C335.946 0 344.005 8.05888 344.005 18V141.747H0V18Z" fill="white"/>
</mask>
<g mask="url(#mask0_40000018_8720)">
<g opacity="0.03">
<g clip-path="url(#clip0_40000018_8720)">
<path d="M341.936 77.211C337.164 77.211 333.087 80.2333 331.531 84.4582H316.458V80.0088C316.458 77.9114 314.758 76.2113 312.66 76.2113H306.663V66.4169H324.983C329.847 66.4169 333.803 62.4711 333.803 57.621V45.9302C333.803 41.0801 329.847 37.1343 324.983 37.1343H280.749C275.885 37.1343 271.928 41.0801 271.928 45.9302V57.621C271.928 62.4711 275.885 66.4169 280.749 66.4169H299.068V76.2113H293.071C290.974 76.2113 289.274 77.9114 289.274 80.0088V84.4582H274.201C272.644 80.2333 268.567 77.211 263.795 77.211C257.686 77.211 252.715 82.1657 252.715 88.2557C252.715 94.3459 257.686 99.3006 263.795 99.3006C268.567 99.3006 272.644 96.2783 274.201 92.0532H289.274V96.5029C289.274 98.6003 290.974 100.3 293.072 100.3H312.66C314.758 100.3 316.458 98.6003 316.458 96.5029V92.0532H331.531C333.088 96.2783 337.165 99.3006 341.936 99.3006C348.046 99.3006 353.017 94.3459 353.017 88.2557C353.017 82.1657 348.046 77.211 341.936 77.211ZM279.523 57.6212V45.9304C279.523 45.2682 280.073 44.7295 280.749 44.7295H324.983C325.659 44.7295 326.208 45.2682 326.208 45.9304V57.6212C326.208 58.2834 325.659 58.8222 324.983 58.8222H280.749C280.073 58.8222 279.523 58.2834 279.523 57.6212ZM263.795 91.7057C261.873 91.7057 260.31 90.158 260.31 88.2557C260.31 86.3534 261.873 84.8059 263.795 84.8059C265.718 84.8059 267.281 86.3536 267.281 88.2557C267.281 90.1582 265.717 91.7057 263.795 91.7057ZM308.863 92.7054H296.869V83.8062H308.863V92.7054ZM341.936 91.7057C340.014 91.7057 338.45 90.158 338.45 88.2557C338.45 86.3534 340.014 84.8059 341.936 84.8059C343.858 84.8059 345.422 86.3536 345.422 88.2557C345.422 90.1582 343.858 91.7057 341.936 91.7057Z" fill="black"/>
<path d="M283.703 16.072C283.703 18.4314 285.616 20.3441 287.975 20.3441C290.335 20.3441 292.247 18.4314 292.247 16.072C292.247 13.7125 290.335 11.7998 287.975 11.7998C285.616 11.7998 283.703 13.7125 283.703 16.072Z" fill="black"/>
<path d="M302.385 11.7998C300.026 11.7998 298.113 13.7125 298.113 16.072C298.113 18.4314 300.026 20.3441 302.385 20.3441C304.745 20.3441 306.657 18.4314 306.657 16.072C306.657 13.7125 304.745 11.7998 302.385 11.7998Z" fill="black"/>
<path d="M280.472 30.7133H311.018C313.115 30.7133 314.815 29.0132 314.815 26.9158C314.815 24.8184 313.115 23.1183 311.018 23.1183H280.472C279.948 23.1183 279.523 22.6925 279.523 22.1689V9.97548C279.523 9.4519 279.948 9.02611 280.472 9.02611H303.665C305.763 9.02611 307.463 7.32602 307.463 5.22863C307.463 3.13124 305.763 1.43115 303.665 1.43115H280.472C275.761 1.43115 271.928 5.26399 271.928 9.97548V22.1689C271.928 26.8802 275.761 30.7133 280.472 30.7133Z" fill="black"/>
<path d="M287.975 47.5034C285.616 47.5034 283.703 49.4162 283.703 51.7756C283.703 54.135 285.616 56.0477 287.975 56.0477C290.335 56.0477 292.247 54.135 292.247 51.7756C292.247 49.4162 290.335 47.5034 287.975 47.5034Z" fill="black"/>
<path d="M302.385 56.0477C304.745 56.0477 306.657 54.135 306.657 51.7756C306.657 49.4162 304.745 47.5034 302.385 47.5034C300.026 47.5034 298.113 49.4162 298.113 51.7756C298.113 54.135 300.026 56.0477 302.385 56.0477Z" fill="black"/>
<path d="M355.716 -0.0952959C355.69 -1.61547 354.759 -2.97355 353.35 -3.54673L336.275 -10.4956C335.357 -10.8695 334.33 -10.8692 333.412 -10.4954L316.347 -3.54649C314.945 -2.97568 314.016 -1.62663 313.982 -0.113334C313.471 23.0306 325.637 32.3767 330.891 35.3207C333.346 36.6963 336.497 36.6123 338.861 35.0672C343.857 31.8014 355.502 21.9873 355.719 1.44434C355.722 1.18089 355.723 0.300591 355.716 -0.0952959ZM334.714 28.705C334.693 28.7131 334.636 28.7133 334.604 28.695C330.727 26.5229 321.98 19.7226 321.576 2.52449L334.844 -2.87837L348.098 2.51523C347.523 18.6044 338.59 26.1709 334.714 28.705Z" fill="black"/>
<path d="M331.733 9.88893C330.304 8.35475 327.901 8.27002 326.366 9.70024C324.832 11.13 324.748 13.5328 326.178 15.0673L329.521 18.6547C330.928 20.1637 333.401 20.2425 334.901 18.8317L342.53 11.6562C344.058 10.2193 344.132 7.81598 342.695 6.28845C341.258 4.7602 338.855 4.68662 337.327 6.12373L332.476 10.6862L331.733 9.88893Z" fill="black"/>
</g>
</g>
</g>
<g clip-path="url(#clip1_40000018_8720)">
<path d="M193.225 90.381C190.562 90.381 188.286 92.068 187.417 94.4263H179.004V91.9427C179.004 90.772 178.055 89.823 176.884 89.823H173.536V84.356H183.762C186.477 84.356 188.686 82.1536 188.686 79.4464V72.9209C188.686 70.2137 186.477 68.0112 183.762 68.0112H159.072C156.357 68.0112 154.148 70.2137 154.148 72.9209V79.4464C154.148 82.1536 156.357 84.356 159.072 84.356H169.297V89.823H165.95C164.779 89.823 163.83 90.772 163.83 91.9427V94.4263H155.417C154.548 92.068 152.272 90.381 149.609 90.381C146.198 90.381 143.424 93.1467 143.424 96.5459C143.424 99.9453 146.198 102.711 149.609 102.711C152.272 102.711 154.548 101.024 155.417 98.6656H163.83V101.149C163.83 102.32 164.779 103.269 165.95 103.269H176.884C178.055 103.269 179.004 102.32 179.004 101.149V98.6656H187.417C188.286 101.024 190.562 102.711 193.225 102.711C196.636 102.711 199.41 99.9453 199.41 96.5459C199.41 93.1467 196.635 90.381 193.225 90.381ZM158.388 79.4465V72.921C158.388 72.5514 158.694 72.2507 159.072 72.2507H183.762C184.139 72.2507 184.446 72.5514 184.446 72.921V79.4465C184.446 79.8161 184.139 80.1169 183.762 80.1169H159.072C158.695 80.1169 158.388 79.8161 158.388 79.4465ZM149.609 98.4716C148.536 98.4716 147.663 97.6078 147.663 96.5459C147.663 95.4841 148.536 94.6204 149.609 94.6204C150.682 94.6204 151.555 95.4843 151.555 96.5459C151.554 97.6079 150.682 98.4716 149.609 98.4716ZM174.764 99.0296H168.07V94.0624H174.764V99.0296ZM193.225 98.4716C192.152 98.4716 191.279 97.6078 191.279 96.5459C191.279 95.4841 192.152 94.6204 193.225 94.6204C194.298 94.6204 195.171 95.4843 195.171 96.5459C195.171 97.6079 194.298 98.4716 193.225 98.4716Z" fill="black"/>
<path d="M160.721 56.255C160.721 57.5719 161.788 58.6396 163.105 58.6396C164.422 58.6396 165.49 57.5719 165.49 56.255C165.49 54.938 164.422 53.8704 163.105 53.8704C161.788 53.8704 160.721 54.938 160.721 56.255Z" fill="black"/>
<path d="M171.148 53.8704C169.831 53.8704 168.764 54.938 168.764 56.255C168.764 57.5719 169.831 58.6396 171.148 58.6396C172.465 58.6396 173.533 57.5719 173.533 56.255C173.533 54.938 172.465 53.8704 171.148 53.8704Z" fill="black"/>
<path d="M158.918 64.4273H175.968C177.139 64.4273 178.088 63.4784 178.088 62.3077C178.088 61.1369 177.139 60.188 175.968 60.188H158.918C158.626 60.188 158.388 59.9503 158.388 59.6581V52.852C158.388 52.5597 158.626 52.3221 158.918 52.3221H171.864C173.035 52.3221 173.984 51.3731 173.984 50.2024C173.984 49.0317 173.035 48.0828 171.864 48.0828H158.918C156.288 48.0828 154.149 50.2222 154.149 52.852V59.6581C154.149 62.2878 156.289 64.4273 158.918 64.4273Z" fill="black"/>
<path d="M163.105 73.7993C161.788 73.7993 160.721 74.867 160.721 76.1839C160.721 77.5009 161.788 78.5685 163.105 78.5685C164.422 78.5685 165.49 77.5009 165.49 76.1839C165.49 74.867 164.423 73.7993 163.105 73.7993Z" fill="black"/>
<path d="M171.148 78.5685C172.465 78.5685 173.533 77.5009 173.533 76.1839C173.533 74.867 172.465 73.7993 171.148 73.7993C169.831 73.7993 168.764 74.867 168.764 76.1839C168.764 77.5009 169.831 78.5685 171.148 78.5685Z" fill="black"/>
<path d="M200.917 47.2307C200.903 46.3822 200.383 45.6241 199.597 45.3042L190.066 41.4255C189.554 41.2168 188.98 41.2169 188.468 41.4256L178.942 45.3043C178.16 45.6229 177.641 46.3759 177.623 47.2206C177.337 60.139 184.128 65.3557 187.061 66.999C188.431 67.7669 190.19 67.72 191.509 66.8575C194.298 65.0346 200.798 59.5566 200.919 48.0901C200.921 47.943 200.921 47.4517 200.917 47.2307ZM189.195 63.3063C189.183 63.3108 189.151 63.3109 189.133 63.3007C186.969 62.0883 182.087 58.2925 181.861 48.693L189.267 45.6772L196.665 48.6878C196.344 57.6684 191.358 61.8918 189.195 63.3063Z" fill="black"/>
<path d="M187.529 52.8036C186.731 51.9472 185.39 51.9 184.533 52.6983C183.677 53.4963 183.63 54.8375 184.428 55.694L186.294 57.6964C187.079 58.5387 188.46 58.5827 189.297 57.7953L193.556 53.79C194.409 52.988 194.45 51.6465 193.648 50.7939C192.846 49.9409 191.504 49.8998 190.652 50.7019L187.944 53.2486L187.529 52.8036Z" fill="black"/>
</g>
<defs>
<clipPath id="clip0_40000018_8720">
<rect width="111.076" height="111.076" fill="white" transform="translate(248.68 -10.7759)"/>
</clipPath>
<clipPath id="clip1_40000018_8720">
<rect width="62" height="62" fill="white" transform="translate(141.172 41.269)"/>
</clipPath>
</defs>
</svg>
