<svg width="529" height="550" viewBox="0 0 529 550" fill="none" xmlns="http://www.w3.org/2000/svg">
<g clip-path="url(#clip0_387_1569)">
<rect width="529" height="550" fill="#141421"/>
<g filter="url(#filter0_f_387_1569)">
<circle cx="264.275" cy="313.275" r="137.531" transform="rotate(-89.6892 264.275 313.275)" fill="url(#paint0_linear_387_1569)"/>
</g>
<path d="M-151 -32C-151 196.094 35.0257 381 264.5 381C493.974 381 680 196.094 680 -32L-151 -32Z" fill="#141421"/>
<path d="M229.914 265.564C229.914 264.465 230.181 263.465 230.714 262.55C231.247 261.634 231.963 260.902 232.875 260.381C233.787 259.846 234.797 259.578 235.877 259.578H259.759C260.854 259.578 261.85 259.846 262.776 260.381C263.688 260.916 264.404 261.634 264.937 262.55C265.47 263.465 265.737 264.465 265.737 265.564V295.536H261.709V282.395H233.941V295.536H229.914V265.564ZM261.709 278.353V265.564C261.709 265.029 261.513 264.578 261.134 264.198C260.755 263.818 260.292 263.62 259.773 263.62H235.891C235.358 263.62 234.909 263.818 234.53 264.198C234.152 264.578 233.955 265.043 233.955 265.564V278.353H261.724H261.709Z" fill="white"/>
<path d="M271.906 295.52V259.562H275.989V295.52H271.906Z" fill="white"/>
<path d="M282.211 282.788V278.689H301.617V282.788H282.211Z" fill="white"/>
<path d="M321.878 295.52L301.125 259.562H305.854L324.207 291.577L342.518 259.562H347.247L326.55 295.52H321.878Z" fill="white"/>
<path d="M352.578 295.52V259.562H356.661V295.52H352.578Z" fill="white"/>
<path d="M368.688 295.522C367.594 295.522 366.584 295.254 365.672 294.719C364.76 294.184 364.03 293.465 363.511 292.55C362.978 291.634 362.711 290.634 362.711 289.536V265.564C362.711 264.465 362.978 263.465 363.511 262.55C364.044 261.634 364.76 260.902 365.672 260.381C366.584 259.846 367.594 259.578 368.688 259.578H392.57C393.664 259.578 394.675 259.846 395.587 260.381C396.499 260.916 397.214 261.634 397.748 262.55C398.281 263.465 398.547 264.465 398.547 265.564V267.015H394.52V265.564C394.52 265.029 394.324 264.578 393.945 264.198C393.566 263.818 393.103 263.62 392.57 263.62H368.688C368.155 263.62 367.706 263.818 367.313 264.198C366.92 264.578 366.738 265.043 366.738 265.564V289.536C366.738 290.071 366.934 290.522 367.313 290.902C367.692 291.282 368.155 291.479 368.688 291.479H392.57C393.103 291.479 393.552 291.282 393.945 290.902C394.338 290.522 394.52 290.057 394.52 289.536V280.648H385.667V276.55H398.547V289.536C398.547 290.634 398.281 291.648 397.748 292.55C397.214 293.465 396.499 294.198 395.587 294.719C394.675 295.254 393.664 295.522 392.57 295.522H368.688Z" fill="white"/>
<path d="M404.523 295.52V259.562H408.607V295.52H404.523Z" fill="white"/>
<path d="M414.711 295.522V259.508H418.738V291.465H450.533V295.508H414.711V295.522Z" fill="white"/>
<path d="M141.908 258.606L172.623 312.028C173.381 313.338 175.261 313.338 176.019 312.028L183.989 298.169L210.677 251.803L218.647 237.944C219.39 236.634 218.436 235 216.935 235H201.318C200.588 235 199.915 235.408 199.578 236.056L191.341 251.803L176.019 278.408C175.261 279.718 173.381 279.718 172.623 278.408L165.832 266.577L160.107 256.62C159.756 256.014 159.111 255.634 158.409 255.634H143.606C142.091 255.634 141.151 257.268 141.908 258.591V258.606Z" fill="#522E91"/>
<path d="M129.995 237.901L137.432 250.845C137.768 251.437 138.414 251.817 139.101 251.817H153.989C155.476 251.817 156.402 250.211 155.659 248.915L148.208 235.972C147.857 235.366 147.226 235 146.538 235H131.651C130.163 235 129.237 236.606 129.981 237.901H129.995Z" fill="#522E91"/>
<path d="M112.92 251.802L86.246 298.169L78.2621 312.056C77.5184 313.352 78.4445 314.971 79.9458 314.971H133.027C134.514 314.971 135.455 313.352 134.711 312.056L127.288 299.154C126.937 298.549 126.306 298.183 125.604 298.183H108.935C107.448 298.183 106.507 296.563 107.251 295.267L120.904 271.535C121.648 270.239 123.514 270.239 124.257 271.535L131.091 283.408L148.7 314.028C149.051 314.633 149.682 315 150.384 315H165.229C166.717 315 167.657 313.38 166.913 312.084L124.257 237.915C123.514 236.619 121.648 236.619 120.904 237.915L112.92 251.788V251.802Z" fill="url(#paint1_linear_387_1569)"/>
</g>
<defs>
<filter id="filter0_f_387_1569" x="-73.2578" y="-24.2561" width="675.062" height="675.062" filterUnits="userSpaceOnUse" color-interpolation-filters="sRGB">
<feFlood flood-opacity="0" result="BackgroundImageFix"/>
<feBlend mode="normal" in="SourceGraphic" in2="BackgroundImageFix" result="shape"/>
<feGaussianBlur stdDeviation="100" result="effect1_foregroundBlur_387_1569"/>
</filter>
<linearGradient id="paint0_linear_387_1569" x1="401.737" y1="313.256" x2="126.698" y2="313.256" gradientUnits="userSpaceOnUse">
<stop stop-color="#150958"/>
<stop offset="1" stop-color="#522E91"/>
</linearGradient>
<linearGradient id="paint1_linear_387_1569" x1="77.9955" y1="275.957" x2="167.166" y2="275.957" gradientUnits="userSpaceOnUse">
<stop offset="1" stop-color="#FF0BA2"/>
</linearGradient>
<clipPath id="clip0_387_1569">
<rect width="529" height="550" fill="white"/>
</clipPath>
</defs>
</svg>
