<svg width="529" height="550" viewBox="0 0 529 550" fill="none" xmlns="http://www.w3.org/2000/svg" xmlns:xlink="http://www.w3.org/1999/xlink">
<g clip-path="url(#clip0_387_1571)">
<rect width="529" height="550" fill="#402380"/>
<g filter="url(#filter0_f_387_1571)">
<circle cx="440.137" cy="470.137" r="194.087" transform="rotate(-89.6892 440.137 470.137)" fill="url(#paint0_linear_387_1571)"/>
</g>
<rect x="-268.215" y="372.309" width="244.081" height="183.06" transform="rotate(-30 -268.215 372.309)" fill="url(#pattern0_387_1571)"/>
<rect x="-54.7734" y="249.079" width="244.081" height="183.06" transform="rotate(-30 -54.7734 249.079)" fill="url(#pattern1_387_1571)"/>
<rect x="158.676" y="125.844" width="244.081" height="183.06" transform="rotate(-30 158.676 125.844)" fill="url(#pattern2_387_1571)"/>
<rect x="372.117" y="2.61377" width="244.081" height="183.06" transform="rotate(-30 372.117 2.61377)" fill="url(#pattern3_387_1571)"/>
<rect x="-175.492" y="532.908" width="244.081" height="183.06" transform="rotate(-30 -175.492 532.908)" fill="url(#pattern4_387_1571)"/>
<rect x="279.395" y="-157.986" width="244.081" height="183.06" transform="rotate(-30 279.395 -157.986)" fill="url(#pattern5_387_1571)"/>
<rect x="37.9453" y="409.677" width="244.081" height="183.06" transform="rotate(-30 37.9453 409.677)" fill="url(#pattern6_387_1571)"/>
<rect x="251.398" y="286.442" width="244.081" height="183.06" transform="rotate(-30 251.398 286.442)" fill="url(#pattern7_387_1571)"/>
<rect x="464.84" y="163.212" width="244.081" height="183.06" transform="rotate(-30 464.84 163.212)" fill="url(#pattern8_387_1571)"/>
<rect x="130.668" y="570.274" width="244.081" height="183.06" transform="rotate(-30 130.668 570.274)" fill="url(#pattern9_387_1571)"/>
<rect x="344.117" y="447.04" width="244.081" height="183.06" transform="rotate(-30 344.117 447.04)" fill="url(#pattern10_387_1571)"/>
<rect x="65.9531" y="-34.7554" width="244.081" height="183.06" transform="rotate(-30 65.9531 -34.7554)" fill="url(#pattern11_387_1571)"/>
<rect x="-147.496" y="88.4785" width="244.081" height="183.06" transform="rotate(-30 -147.496 88.4785)" fill="url(#pattern12_387_1571)"/>
</g>
<defs>
<filter id="filter0_f_387_1571" x="46.0508" y="76.0498" width="788.172" height="788.174" filterUnits="userSpaceOnUse" color-interpolation-filters="sRGB">
<feFlood flood-opacity="0" result="BackgroundImageFix"/>
<feBlend mode="normal" in="SourceGraphic" in2="BackgroundImageFix" result="shape"/>
<feGaussianBlur stdDeviation="100" result="effect1_foregroundBlur_387_1571"/>
</filter>
<pattern id="pattern0_387_1571" patternContentUnits="objectBoundingBox" width="1" height="1">
<use xlink:href="#image0_387_1571" transform="scale(0.000244141 0.000325521)"/>
</pattern>
<pattern id="pattern1_387_1571" patternContentUnits="objectBoundingBox" width="1" height="1">
<use xlink:href="#image1_387_1571" transform="scale(0.000244141 0.000325521)"/>
</pattern>
<pattern id="pattern2_387_1571" patternContentUnits="objectBoundingBox" width="1" height="1">
<use xlink:href="#image2_387_1571" transform="scale(0.000244141 0.000325521)"/>
</pattern>
<pattern id="pattern3_387_1571" patternContentUnits="objectBoundingBox" width="1" height="1">
<use xlink:href="#image3_387_1571" transform="scale(0.000244141 0.000325521)"/>
</pattern>
<pattern id="pattern4_387_1571" patternContentUnits="objectBoundingBox" width="1" height="1">
<use xlink:href="#image4_387_1571" transform="scale(0.000244141 0.000325521)"/>
</pattern>
<pattern id="pattern5_387_1571" patternContentUnits="objectBoundingBox" width="1" height="1">
<use xlink:href="#image4_387_1571" transform="scale(0.000244141 0.000325521)"/>
</pattern>
<pattern id="pattern6_387_1571" patternContentUnits="objectBoundingBox" width="1" height="1">
<use xlink:href="#image5_387_1571" transform="scale(0.000244141 0.000325521)"/>
</pattern>
<pattern id="pattern7_387_1571" patternContentUnits="objectBoundingBox" width="1" height="1">
<use xlink:href="#image6_387_1571" transform="scale(0.000244141 0.000325521)"/>
</pattern>
<pattern id="pattern8_387_1571" patternContentUnits="objectBoundingBox" width="1" height="1">
<use xlink:href="#image7_387_1571" transform="scale(0.000244141 0.000325521)"/>
</pattern>
<pattern id="pattern9_387_1571" patternContentUnits="objectBoundingBox" width="1" height="1">
<use xlink:href="#image8_387_1571" transform="scale(0.000244141 0.000325521)"/>
</pattern>
<pattern id="pattern10_387_1571" patternContentUnits="objectBoundingBox" width="1" height="1">
<use xlink:href="#image9_387_1571" transform="scale(0.000244141 0.000325521)"/>
</pattern>
<pattern id="pattern11_387_1571" patternContentUnits="objectBoundingBox" width="1" height="1">
<use xlink:href="#image10_387_1571" transform="scale(0.000244141 0.000325521)"/>
</pattern>
<pattern id="pattern12_387_1571" patternContentUnits="objectBoundingBox" width="1" height="1">
<use xlink:href="#image11_387_1571" transform="scale(0.000244141 0.000325521)"/>
</pattern>
<linearGradient id="paint0_linear_387_1571" x1="634.126" y1="470.11" x2="245.985" y2="470.11" gradientUnits="userSpaceOnUse">
<stop stop-color="#150958"/>
<stop offset="1" stop-color="#522E91"/>
</linearGradient>
<clipPath id="clip0_387_1571">
<rect width="529" height="550" fill="white"/>
</clipPath>
<image id="image0_387_1571" width="4096" height="3072" preserveAspectRatio="none" xlink:href="./extracted/ai-2_1.jpeg"/>
<image id="image1_387_1571" width="4096" height="3072" preserveAspectRatio="none" xlink:href="./extracted/ai-2_2.jpeg"/>
<image id="image2_387_1571" width="4096" height="3072" preserveAspectRatio="none" xlink:href="./extracted/ai-2_3.jpeg"/>
<image id="image3_387_1571" width="4096" height="3072" preserveAspectRatio="none" xlink:href="./extracted/ai-2_4.jpeg"/>
<image id="image4_387_1571" width="4096" height="3072" preserveAspectRatio="none" xlink:href="./extracted/ai-2_5.jpeg"/>
<image id="image5_387_1571" width="4096" height="3072" preserveAspectRatio="none" xlink:href="./extracted/ai-2_6.jpeg"/>
<image id="image6_387_1571" width="4096" height="3072" preserveAspectRatio="none" xlink:href="./extracted/ai-2_7.jpeg"/>
<image id="image7_387_1571" width="4096" height="3072" preserveAspectRatio="none" xlink:href="./extracted/ai-2_8.jpeg"/>
<image id="image8_387_1571" width="4096" height="3072" preserveAspectRatio="none" xlink:href="./extracted/ai-2_9.jpeg"/>
<image id="image9_387_1571" width="4096" height="3072" preserveAspectRatio="none" xlink:href="./extracted/ai-2_10.jpeg"/>
<image id="image10_387_1571" width="4096" height="3072" preserveAspectRatio="none" xlink:href="./extracted/ai-2_11.jpeg"/>
<image id="image11_387_1571" width="4096" height="3072" preserveAspectRatio="none" xlink:href="./extracted/ai-2_12.jpeg"/>
</defs>
</svg>
