<svg width="529" height="550" viewBox="0 0 529 550" fill="none" xmlns="http://www.w3.org/2000/svg" xmlns:xlink="http://www.w3.org/1999/xlink">
<g clip-path="url(#clip0_387_2270)">
<rect width="529" height="550" fill="#6D79CF"/>
<rect x="-346" y="210.048" width="310.24" height="174.51" transform="rotate(-30 -346 210.048)" fill="url(#pattern0_387_2270)"/>
<rect x="-70.6445" y="51.0723" width="310.24" height="174.51" transform="rotate(-30 -70.6445 51.0723)" fill="url(#pattern1_387_2270)"/>
<rect x="204.711" y="-107.903" width="310.24" height="174.51" transform="rotate(-30 204.711 -107.903)" fill="url(#pattern2_387_2270)"/>
<rect x="478.047" y="365.527" width="310.24" height="174.51" transform="rotate(-30 478.047 365.527)" fill="url(#pattern3_387_2270)"/>
<rect x="-254.887" y="367.858" width="310.24" height="174.51" transform="rotate(-30 -254.887 367.858)" fill="url(#pattern4_387_2270)"/>
<rect x="20.4688" y="208.882" width="310.24" height="174.51" transform="rotate(-30 20.4688 208.882)" fill="url(#pattern5_387_2270)"/>
<rect x="295.82" y="49.9067" width="310.24" height="174.51" transform="rotate(-30 295.82 49.9067)" fill="url(#pattern6_387_2270)"/>
<rect x="-163.773" y="525.667" width="310.24" height="174.51" transform="rotate(-30 -163.773 525.667)" fill="url(#pattern7_387_2270)"/>
<rect x="111.578" y="366.692" width="310.24" height="174.51" transform="rotate(-30 111.578 366.692)" fill="url(#pattern8_387_2270)"/>
<rect x="386.934" y="207.716" width="310.24" height="174.51" transform="rotate(-30 386.934 207.716)" fill="url(#pattern9_387_2270)"/>
<rect x="-72.6641" y="683.479" width="310.24" height="174.51" transform="rotate(-30 -72.6641 683.479)" fill="url(#pattern10_387_2270)"/>
<rect x="202.688" y="524.503" width="310.24" height="174.51" transform="rotate(-30 202.688 524.503)" fill="url(#pattern11_387_2270)"/>
</g>
<defs>
<pattern id="pattern0_387_2270" patternContentUnits="objectBoundingBox" width="1" height="1">
<use xlink:href="#image0_387_2270" transform="scale(0.000244141 0.000434028)"/>
</pattern>
<pattern id="pattern1_387_2270" patternContentUnits="objectBoundingBox" width="1" height="1">
<use xlink:href="#image1_387_2270" transform="scale(0.000244141 0.000434028)"/>
</pattern>
<pattern id="pattern2_387_2270" patternContentUnits="objectBoundingBox" width="1" height="1">
<use xlink:href="#image2_387_2270" transform="scale(0.000244141 0.000434028)"/>
</pattern>
<pattern id="pattern3_387_2270" patternContentUnits="objectBoundingBox" width="1" height="1">
<use xlink:href="#image3_387_2270" transform="scale(0.000244141 0.000434028)"/>
</pattern>
<pattern id="pattern4_387_2270" patternContentUnits="objectBoundingBox" width="1" height="1">
<use xlink:href="#image4_387_2270" transform="scale(0.000244141 0.000434028)"/>
</pattern>
<pattern id="pattern5_387_2270" patternContentUnits="objectBoundingBox" width="1" height="1">
<use xlink:href="#image5_387_2270" transform="scale(0.000244141 0.000434028)"/>
</pattern>
<pattern id="pattern6_387_2270" patternContentUnits="objectBoundingBox" width="1" height="1">
<use xlink:href="#image6_387_2270" transform="scale(0.000244141 0.000434028)"/>
</pattern>
<pattern id="pattern7_387_2270" patternContentUnits="objectBoundingBox" width="1" height="1">
<use xlink:href="#image7_387_2270" transform="scale(0.000244141 0.000434028)"/>
</pattern>
<pattern id="pattern8_387_2270" patternContentUnits="objectBoundingBox" width="1" height="1">
<use xlink:href="#image8_387_2270" transform="scale(0.000244141 0.000434028)"/>
</pattern>
<pattern id="pattern9_387_2270" patternContentUnits="objectBoundingBox" width="1" height="1">
<use xlink:href="#image9_387_2270" transform="scale(0.000244141 0.000434028)"/>
</pattern>
<pattern id="pattern10_387_2270" patternContentUnits="objectBoundingBox" width="1" height="1">
<use xlink:href="#image10_387_2270" transform="scale(0.000244141 0.000434028)"/>
</pattern>
<pattern id="pattern11_387_2270" patternContentUnits="objectBoundingBox" width="1" height="1">
<use xlink:href="#image11_387_2270" transform="scale(0.000244141 0.000434028)"/>
</pattern>
<clipPath id="clip0_387_2270">
<rect width="529" height="550" fill="white"/>
</clipPath>
<image id="image0_387_2270" width="4096" height="2304" preserveAspectRatio="none" xlink:href="./extracted/premier-2_1.jpeg"/>
<image id="image1_387_2270" width="4096" height="2304" preserveAspectRatio="none" xlink:href="./extracted/premier-2_2.jpeg"/>
<image id="image2_387_2270" width="4096" height="2304" preserveAspectRatio="none" xlink:href="./extracted/premier-2_3.jpeg"/>
<image id="image3_387_2270" width="4096" height="2304" preserveAspectRatio="none" xlink:href="./extracted/premier-2_4.jpeg"/>
<image id="image4_387_2270" width="4096" height="2304" preserveAspectRatio="none" xlink:href="./extracted/premier-2_5.jpeg"/>
<image id="image5_387_2270" width="4096" height="2304" preserveAspectRatio="none" xlink:href="./extracted/premier-2_6.jpeg"/>
<image id="image6_387_2270" width="4096" height="2304" preserveAspectRatio="none" xlink:href="./extracted/premier-2_7.jpeg"/>
<image id="image7_387_2270" width="4096" height="2304" preserveAspectRatio="none" xlink:href="./extracted/premier-2_8.jpeg"/>
<image id="image8_387_2270" width="4096" height="2304" preserveAspectRatio="none" xlink:href="./extracted/premier-2_9.jpeg"/>
<image id="image9_387_2270" width="4096" height="2304" preserveAspectRatio="none" xlink:href="./extracted/premier-2_10.jpeg"/>
<image id="image10_387_2270" width="4096" height="2304" preserveAspectRatio="none" xlink:href="./extracted/premier-2_11.jpeg"/>
<image id="image11_387_2270" width="4096" height="2304" preserveAspectRatio="none" xlink:href="./extracted/premier-2_12.jpeg"/>
</defs>
</svg>
