<svg width="529" height="550" viewBox="0 0 529 550" fill="none" xmlns="http://www.w3.org/2000/svg">
<g clip-path="url(#clip0_387_2268)">
<rect width="529" height="550" fill="white"/>
<g opacity="0.2">
<path d="M655.26 426.488V437.757H630.057L626.601 428.573C626.506 428.318 626.329 428.102 626.098 427.959C625.866 427.816 625.594 427.755 625.324 427.784C625.057 427.813 624.806 427.927 624.61 428.11C624.413 428.293 624.282 428.534 624.234 428.798L620.722 452.312L613.567 416.516C613.51 416.231 613.354 415.975 613.128 415.793C612.901 415.611 612.618 415.515 612.327 415.52C612.036 415.523 611.756 415.63 611.538 415.824C611.32 416.017 611.18 416.283 611.144 416.572L607.388 437.776H602.317L601.904 436.799L599.444 430.846C599.35 430.618 599.192 430.423 598.988 430.286C598.784 430.149 598.544 430.076 598.298 430.076C598.054 430.086 597.819 430.165 597.619 430.305C597.42 430.445 597.264 430.639 597.171 430.864L594.523 437.776H585.809C585.549 437.772 585.296 437.852 585.086 438.005C584.876 438.157 584.721 438.373 584.644 438.621L580.663 451.054L574.202 430.62C574.126 430.371 573.972 430.152 573.762 429.997C573.552 429.841 573.299 429.757 573.038 429.756C572.772 429.759 572.514 429.849 572.304 430.012C572.094 430.174 571.943 430.401 571.873 430.658L569.845 437.776H559.684L556.51 431.653C556.43 431.498 556.318 431.362 556.182 431.252C556.047 431.142 555.89 431.061 555.722 431.015H555.421C555.195 431.025 554.975 431.095 554.784 431.217C554.593 431.338 554.437 431.508 554.332 431.709L551.327 437.813H544.153C543.88 437.81 543.615 437.899 543.4 438.066C543.185 438.234 543.033 438.469 542.969 438.734L538.687 451.054L530.555 416.572C530.503 416.292 530.354 416.039 530.134 415.857C529.915 415.675 529.638 415.576 529.353 415.577C529.071 415.575 528.797 415.672 528.578 415.85C528.358 416.028 528.208 416.277 528.151 416.553L521.202 446.753L515.568 429.85C515.488 429.604 515.333 429.39 515.124 429.238C514.914 429.086 514.662 429.004 514.404 429.005C514.145 429.014 513.895 429.101 513.687 429.256C513.479 429.41 513.323 429.624 513.239 429.869L510.647 437.851H502.215V426.582C502.215 423.096 503.6 419.752 506.065 417.286C508.531 414.821 511.875 413.436 515.361 413.436H642.057C645.538 413.421 648.882 414.786 651.357 417.233C653.832 419.68 655.236 423.008 655.26 426.488Z" fill="url(#paint0_linear_387_2268)"/>
<path d="M629.211 440.237H655.26V446.284C655.26 449.771 653.875 453.115 651.41 455.58C648.944 458.046 645.601 459.431 642.114 459.431H515.361C511.875 459.431 508.531 458.046 506.065 455.58C503.6 453.115 502.215 449.771 502.215 446.284V440.237H511.436C511.697 440.236 511.951 440.152 512.161 439.996C512.37 439.841 512.524 439.622 512.601 439.373L514.329 434.095L520.245 451.824C520.336 452.078 520.504 452.296 520.727 452.448C520.95 452.6 521.215 452.677 521.484 452.669C521.756 452.653 522.015 452.546 522.219 452.366C522.423 452.185 522.561 451.942 522.611 451.674L529.241 423.052L537.222 456.858C537.271 457.133 537.413 457.383 537.626 457.565C537.838 457.747 538.107 457.848 538.387 457.853C538.658 457.852 538.921 457.764 539.137 457.601C539.354 457.439 539.512 457.211 539.589 456.951L544.979 440.312H551.984C552.212 440.305 552.433 440.237 552.625 440.115C552.817 439.992 552.972 439.82 553.074 439.617L555.346 434.997L555.628 435.523L557.75 439.636C557.854 439.836 558.01 440.004 558.202 440.123C558.394 440.242 558.614 440.307 558.839 440.312H570.54C570.808 440.31 571.068 440.221 571.282 440.058C571.495 439.896 571.65 439.668 571.723 439.41L572.887 435.316L579.273 455.562C579.349 455.811 579.503 456.03 579.713 456.185C579.923 456.341 580.176 456.425 580.437 456.426C580.7 456.423 580.955 456.339 581.168 456.184C581.38 456.029 581.538 455.811 581.621 455.562L586.485 440.312H595.162C595.41 440.312 595.653 440.237 595.858 440.096C596.062 439.955 596.219 439.755 596.307 439.523L598.185 434.696L600.195 439.542C600.285 439.768 600.44 439.962 600.641 440.099C600.841 440.236 601.079 440.31 601.322 440.312H608.271C608.566 440.311 608.851 440.204 609.075 440.011C609.299 439.818 609.447 439.552 609.491 439.26L612.421 420.704L619.502 456.858C619.554 457.138 619.703 457.391 619.923 457.572C620.142 457.754 620.419 457.854 620.704 457.853C620.991 457.853 621.27 457.751 621.49 457.565C621.71 457.38 621.857 457.122 621.906 456.839L625.812 433.795L627.972 439.429C628.062 439.681 628.231 439.896 628.455 440.042C628.679 440.188 628.945 440.256 629.211 440.237Z" fill="url(#paint1_linear_387_2268)"/>
<path d="M578.085 310.235C550.984 282.063 521.743 263.282 484.65 250.981C450.225 241.966 411.893 243.469 380.491 261.423C373.246 265.552 366.503 270.506 360.396 276.185L344.883 293.445C344.883 293.445 359.739 288.317 369.11 296.431C370.202 295.024 371.375 293.683 372.622 292.412C391.403 272.541 420.401 261.348 447.633 261.348C459.977 261.406 472.252 263.182 484.106 266.626C522.644 277.556 549.97 306.723 580.696 331.006C599.759 311.568 620.136 292.994 643.988 279.641C665.792 267.396 691.541 259.489 716.707 260.972C737.103 262.193 753.969 270.682 770.158 282.552C771.585 283.622 788 294.966 789.615 296.093C791.805 294.089 794.499 292.719 797.409 292.13C802.536 291.153 807.588 292.261 812.565 293.37C793.333 267.433 763.735 251.488 732.014 246.999C697.004 242.154 661.413 249.909 631.592 268.879C612.623 281.105 596.716 297.37 580.208 312.545L578.085 310.235Z" fill="white"/>
<path d="M422.627 478.737C421.989 479.676 420.599 478.737 420.017 478.267C411.171 470.003 406.138 458.303 403.79 446.34C401.198 433.306 401.518 419.877 402.532 406.637C403.4 394.272 405.024 381.973 407.396 369.807C408.343 363.695 410.245 357.769 413.03 352.247C414.195 349.803 416.146 347.819 418.571 346.613C423.116 344.735 428.393 348.172 430.403 352.623C432.412 357.074 432.037 362.201 431.548 367.065C430.997 372.712 430.371 378.346 429.67 383.968C428.975 390.091 428.243 396.194 427.529 402.298C426.816 408.402 426.102 414.506 425.444 420.61C424.787 426.713 424.186 432.836 423.679 438.959C423.172 445.081 422.759 451.185 422.477 457.308C422.346 460.388 422.233 463.449 422.177 466.51L422.458 478.661" fill="white"/>
<path d="M396.163 437.325C395.543 438.264 394.153 437.325 393.571 436.855C384.706 428.592 379.692 416.891 377.325 404.928C374.733 391.913 375.072 378.466 376.067 365.225C376.941 352.867 378.572 340.573 380.95 328.414C381.905 322.298 383.806 316.368 386.584 310.835C387.767 308.371 389.754 306.384 392.219 305.201C396.763 303.323 402.041 306.76 404.051 311.211C406.06 315.662 405.666 320.771 405.196 325.635C404.651 331.269 404.032 336.903 403.318 342.538C402.617 348.648 401.903 354.751 401.177 360.849C400.451 366.947 399.762 373.057 399.111 379.179C398.448 385.289 397.853 391.399 397.327 397.509C396.82 403.632 396.407 409.754 396.144 415.877C395.993 418.938 395.9 422 395.824 425.08L396.106 437.212" fill="white"/>
<path d="M489.932 525.183C489.932 525.183 408.836 522.572 378.524 425.23C371.154 400.909 368.14 375.477 369.622 350.107C371.5 312.714 366.692 306.911 360.4 304.789C353.452 302.385 341.789 303.474 334.596 350.351C334.051 353.976 333.656 357.638 333.431 361.3C330.576 408.516 319.439 476.202 459.658 579.534C493.069 603.724 530.894 647.484 541.261 668.518C541.261 668.518 586.973 586.821 558.164 533.991C558.164 533.991 545.524 505.538 507.098 480.991C502.759 478.251 498.176 475.918 493.407 474.023C484.937 470.586 469.236 462.924 461.855 450.641C461.4 449.867 460.865 449.143 460.259 448.481C457.01 445.026 449.835 439.579 442.774 449.27C440.783 456.632 430.059 469.422 484.336 518.44C486.485 520.383 488.339 522.629 489.839 525.107L489.932 525.183Z" fill="white"/>
<path opacity="0.25" d="M337.036 359.252C333.599 406.411 322.011 474.604 460.99 579.683C494.101 604.267 531.362 648.496 541.466 669.644C551.053 652.118 558.5 633.504 563.646 614.202L564.492 608.568C554.594 526.289 491.922 525.65 491.922 525.65C491.922 525.65 410.864 522.026 381.753 424.234L337.036 359.252Z" fill="url(#paint2_linear_387_2268)"/>
</g>
<path d="M441.69 290.729C441.69 291.868 441.489 292.927 441.086 293.904C440.695 294.871 440.143 295.711 439.43 296.424C438.544 297.31 437.497 297.977 436.289 298.426C435.081 298.863 433.557 299.081 431.716 299.081H428.3V308.658H424.883V282.964H431.854C433.396 282.964 434.702 283.096 435.771 283.361C436.841 283.614 437.79 284.017 438.619 284.569C439.596 285.225 440.35 286.041 440.879 287.019C441.42 287.997 441.69 289.234 441.69 290.729ZM438.135 290.816C438.135 289.93 437.98 289.159 437.67 288.503C437.359 287.848 436.887 287.313 436.255 286.898C435.702 286.542 435.07 286.289 434.356 286.139C433.655 285.978 432.763 285.898 431.682 285.898H428.3V296.165H431.181C432.562 296.165 433.683 296.044 434.546 295.803C435.409 295.55 436.111 295.153 436.651 294.612C437.192 294.06 437.572 293.479 437.79 292.869C438.02 292.259 438.135 291.575 438.135 290.816Z" fill="#4A4A4A"/>
<path d="M418.911 306.761C417.507 307.405 415.971 307.969 414.303 308.452C412.647 308.924 411.042 309.16 409.489 309.16C407.487 309.16 405.652 308.884 403.984 308.331C402.316 307.779 400.895 306.951 399.722 305.846C398.537 304.731 397.622 303.339 396.978 301.671C396.334 299.991 396.012 298.029 396.012 295.786C396.012 291.679 397.208 288.441 399.601 286.071C402.005 283.69 405.301 282.499 409.489 282.499C410.95 282.499 412.439 282.677 413.958 283.034C415.488 283.379 417.133 283.972 418.893 284.811V288.867H418.583C418.226 288.59 417.708 288.228 417.03 287.779C416.351 287.331 415.684 286.957 415.028 286.658C414.234 286.301 413.331 286.008 412.319 285.778C411.318 285.536 410.179 285.415 408.902 285.415C406.026 285.415 403.748 286.341 402.069 288.194C400.401 290.034 399.566 292.531 399.566 295.683C399.566 299.007 400.441 301.596 402.189 303.448C403.938 305.289 406.319 306.209 409.333 306.209C410.438 306.209 411.536 306.1 412.629 305.881C413.734 305.662 414.7 305.381 415.528 305.035V298.737H408.643V295.734H418.911V306.761Z" fill="#4A4A4A"/>
<path d="M379.62 308.658H362.691V282.964H379.62V286.001H366.108V293.042H379.62V296.079H366.108V305.621H379.62V308.658Z" fill="#4A4A4A"/>
<path d="M359.234 286.001H350.054V308.658H346.637V286.001H337.457V282.964H359.234V286.001Z" fill="#4A4A4A"/>
<path d="M339.081 308.658H335.44L332.921 301.497H321.808L319.289 308.658H315.82L325.173 282.964H329.729L339.081 308.658ZM331.868 298.564L327.365 285.949L322.844 298.564H331.868Z" fill="#4A4A4A"/>
<path d="M315.96 282.964L306.608 308.658H302.052L292.699 282.964H296.358L304.416 305.57L312.475 282.964H315.96Z" fill="#4A4A4A"/>
<path d="M289.885 308.658H279.738V306.035H283.103V285.587H279.738V282.964H289.885V285.587H286.52V306.035H289.885V308.658Z" fill="#4A4A4A"/>
<path d="M277.513 308.658H273.079L264.485 298.443H259.671V308.658H256.254V282.964H263.45C265.003 282.964 266.297 283.068 267.332 283.275C268.368 283.47 269.299 283.827 270.128 284.345C271.06 284.931 271.784 285.673 272.302 286.571C272.831 287.456 273.096 288.584 273.096 289.953C273.096 291.805 272.63 293.358 271.698 294.612C270.766 295.854 269.484 296.792 267.85 297.425L277.513 308.658ZM269.524 290.194C269.524 289.458 269.392 288.808 269.127 288.244C268.874 287.669 268.448 287.186 267.85 286.795C267.355 286.461 266.769 286.231 266.09 286.105C265.411 285.967 264.612 285.898 263.691 285.898H259.671V295.596H263.122C264.203 295.596 265.147 295.504 265.952 295.319C266.757 295.124 267.442 294.767 268.005 294.25C268.523 293.766 268.903 293.214 269.144 292.593C269.397 291.96 269.524 291.161 269.524 290.194Z" fill="#4A4A4A"/>
<path d="M251.733 290.729C251.733 291.868 251.532 292.927 251.129 293.904C250.738 294.871 250.186 295.711 249.473 296.424C248.587 297.31 247.54 297.977 246.332 298.426C245.124 298.863 243.6 299.081 241.759 299.081H238.342V308.658H234.926V282.964H241.897C243.439 282.964 244.744 283.096 245.814 283.361C246.884 283.614 247.833 284.017 248.662 284.569C249.639 285.225 250.393 286.041 250.922 287.019C251.463 287.997 251.733 289.234 251.733 290.729ZM248.178 290.816C248.178 289.93 248.023 289.159 247.713 288.503C247.402 287.848 246.93 287.313 246.298 286.898C245.745 286.542 245.113 286.289 244.399 286.139C243.698 285.978 242.806 285.898 241.725 285.898H238.342V296.165H241.224C242.605 296.165 243.726 296.044 244.589 295.803C245.452 295.55 246.154 295.153 246.694 294.612C247.235 294.06 247.615 293.479 247.833 292.869C248.063 292.259 248.178 291.575 248.178 290.816Z" fill="#4A4A4A"/>
<path d="M294.98 230.19V236.731H295.073L322.635 237.057V230.19H294.98ZM294.98 266.878V273.746H322.31V266.878H294.98Z" fill="#4A4A4A"/>
<path d="M371.863 273.796V230.24H379.595V273.796H371.863Z" fill="#4A4A4A"/>
<path d="M382.465 236.581V230.04H410.12V236.907L382.558 236.581H382.465ZM382.469 266.733H409.799V273.577H382.465L382.469 266.733Z" fill="#4A4A4A"/>
<path d="M236.176 257.918V273.945H228.43V230.417C233.584 230.2 236.597 230.092 237.468 230.092C244.343 230.092 249.372 231.147 252.556 233.258C255.739 235.369 257.331 238.664 257.331 243.143C257.331 253.136 251.441 258.131 239.663 258.128C238.812 258.128 237.64 258.058 236.176 257.918ZM236.176 237.108V251.056C237.202 251.177 238.234 251.247 239.268 251.265C242.795 251.265 245.371 250.675 246.995 249.494C248.619 248.313 249.433 246.396 249.436 243.742C249.436 239.223 245.798 236.963 238.524 236.963C237.739 236.961 236.954 237.009 236.176 237.108Z" fill="#4A4A4A"/>
<path d="M316.957 253.464V246.89H288.223C288.692 245.59 288.928 244.217 288.921 242.835C288.921 234.271 283.391 229.989 272.332 229.989C270.546 229.989 268.197 230.063 265.283 230.212C262.373 230.361 260.694 230.435 260.262 230.435V273.996H268.287V255.798C270.388 255.914 272.006 255.989 273.192 256.007L284.815 273.996H293.733L280.859 254.371C281.519 254.117 282.155 253.806 282.76 253.441L316.957 253.464ZM278.641 248.066C277.144 248.996 274.779 249.461 271.546 249.461C270.793 249.461 269.708 249.4 268.291 249.28V237.191C269.159 237.077 270.034 237.018 270.909 237.014C274.359 237.014 276.885 237.441 278.488 238.293C280.09 239.145 280.894 240.642 280.901 242.784C280.897 245.394 280.144 247.155 278.641 248.066Z" fill="#4A4A4A"/>
<path d="M368.523 273.28H361.033L356.514 249.791L347.74 273.847H344.979L336.205 249.791L331.509 273.28H324.047L332.816 229.696H336.921L346.346 259.039L355.561 229.696H359.634L368.523 273.28Z" fill="#4A4A4A"/>
<path d="M432.893 254.222C435.222 253.34 437.231 251.777 438.658 249.736C440.16 247.694 440.964 245.222 440.95 242.687C440.95 234.123 435.419 229.841 424.356 229.841C422.577 229.841 420.229 229.915 417.312 230.064C414.396 230.213 412.72 230.287 412.286 230.287V247.025H382.465V253.585H412.286V273.834H420.316V255.636C422.418 255.752 424.036 255.826 425.221 255.845L436.845 273.834H445.762L432.893 254.222ZM430.68 247.922C429.182 248.834 426.819 249.289 423.589 249.289C422.836 249.289 421.751 249.229 420.335 249.108V237.019C421.201 236.905 422.074 236.846 422.948 236.843C426.397 236.843 428.925 237.269 430.531 238.121C432.136 238.974 432.939 240.471 432.939 242.613C432.927 245.241 432.174 247.011 430.68 247.922Z" fill="#4A4A4A"/>
<path d="M150.779 253.497V269.338L150.17 267.864C150.146 267.807 150.107 267.759 150.057 267.725C150.006 267.691 149.947 267.673 149.886 267.673C149.826 267.676 149.767 267.695 149.718 267.73C149.668 267.765 149.63 267.813 149.607 267.868L148.951 269.579H146.794C146.73 269.578 146.667 269.598 146.615 269.636C146.563 269.674 146.525 269.727 146.506 269.789L145.52 272.866L143.921 267.808C143.902 267.746 143.864 267.692 143.812 267.654C143.76 267.615 143.697 267.594 143.632 267.594C143.567 267.595 143.503 267.617 143.451 267.657C143.399 267.698 143.361 267.754 143.344 267.817L142.842 269.579H140.364L139.578 268.064C139.558 268.025 139.53 267.992 139.497 267.964C139.463 267.937 139.424 267.917 139.383 267.906V253.492C139.383 252.644 139.72 251.83 140.32 251.23C140.92 250.63 141.733 250.293 142.582 250.293H147.594C148.44 250.297 149.251 250.636 149.848 251.237C150.445 251.837 150.78 252.65 150.779 253.497Z" fill="url(#paint3_linear_387_2268)"/>
<path d="M150.69 270.188H150.779V284.973C150.779 285.822 150.442 286.635 149.842 287.235C149.242 287.835 148.428 288.172 147.58 288.172H142.582C141.733 288.172 140.92 287.835 140.32 287.235C139.72 286.635 139.383 285.822 139.383 284.973V269.002L139.908 270.021C139.934 270.07 139.973 270.112 140.02 270.141C140.068 270.171 140.122 270.187 140.178 270.188H143.074C143.141 270.188 143.205 270.166 143.258 270.125C143.311 270.085 143.349 270.029 143.367 269.965L143.656 268.951L145.236 273.963C145.255 274.025 145.294 274.079 145.345 274.118C145.397 274.156 145.46 274.177 145.525 274.177C145.59 274.177 145.653 274.156 145.706 274.117C145.758 274.079 145.797 274.025 145.818 273.963L147.022 270.188H149.17C149.231 270.188 149.292 270.17 149.342 270.135C149.393 270.1 149.432 270.05 149.454 269.993L149.918 268.798L150.416 269.997C150.438 270.053 150.476 270.1 150.524 270.134C150.573 270.168 150.631 270.187 150.69 270.188Z" fill="url(#paint4_linear_387_2268)"/>
<path d="M164.029 266.785V269.575H157.789L156.934 267.301C156.91 267.238 156.867 267.184 156.809 267.149C156.752 267.114 156.685 267.098 156.618 267.106C156.552 267.113 156.49 267.141 156.441 267.186C156.392 267.231 156.36 267.291 156.348 267.357L155.479 273.178L153.707 264.316C153.693 264.245 153.655 264.182 153.598 264.137C153.542 264.092 153.472 264.068 153.4 264.07C153.328 264.07 153.259 264.097 153.205 264.145C153.151 264.193 153.116 264.258 153.107 264.33L152.178 269.579H150.922L150.82 269.337L150.211 267.864C150.188 267.807 150.148 267.759 150.098 267.725C150.047 267.691 149.988 267.673 149.927 267.673C149.867 267.675 149.809 267.695 149.759 267.73C149.71 267.764 149.671 267.812 149.648 267.868L148.993 269.579H146.835C146.771 269.578 146.708 269.598 146.656 269.636C146.604 269.674 146.566 269.727 146.547 269.788L145.561 272.866L143.962 267.808C143.943 267.746 143.905 267.692 143.853 267.653C143.801 267.615 143.738 267.594 143.674 267.594C143.608 267.595 143.544 267.617 143.492 267.657C143.44 267.697 143.403 267.754 143.385 267.817L142.883 269.579H140.368L139.582 268.063C139.562 268.025 139.534 267.991 139.501 267.964C139.467 267.937 139.429 267.917 139.387 267.905H139.312C139.256 267.908 139.202 267.925 139.155 267.955C139.107 267.986 139.069 268.028 139.043 268.077L138.299 269.588H136.523C136.455 269.588 136.39 269.61 136.337 269.651C136.283 269.693 136.246 269.751 136.23 269.816L135.17 272.866L133.157 264.33C133.144 264.261 133.107 264.198 133.052 264.153C132.998 264.108 132.93 264.083 132.859 264.084C132.789 264.083 132.721 264.107 132.667 264.151C132.613 264.195 132.575 264.257 132.562 264.325L130.841 271.802L129.446 267.617C129.427 267.556 129.388 267.503 129.336 267.466C129.285 267.428 129.222 267.408 129.158 267.408C129.094 267.41 129.032 267.432 128.981 267.47C128.929 267.508 128.891 267.561 128.87 267.622L128.228 269.598H126.141V266.808C126.141 265.945 126.484 265.117 127.094 264.507C127.704 263.896 128.532 263.553 129.395 263.553H160.76C161.622 263.55 162.45 263.888 163.063 264.494C163.675 265.099 164.023 265.923 164.029 266.785Z" fill="url(#paint5_linear_387_2268)"/>
<path d="M157.58 270.189H164.029V271.686C164.029 272.549 163.686 273.377 163.076 273.987C162.465 274.598 161.637 274.94 160.774 274.94H129.395C128.532 274.94 127.704 274.598 127.094 273.987C126.484 273.377 126.141 272.549 126.141 271.686V270.189H128.424C128.488 270.189 128.551 270.168 128.603 270.129C128.655 270.091 128.693 270.037 128.712 269.975L129.14 268.668L130.604 273.057C130.627 273.12 130.668 273.174 130.724 273.212C130.779 273.249 130.844 273.269 130.911 273.267C130.978 273.263 131.042 273.236 131.093 273.191C131.143 273.147 131.178 273.087 131.19 273.02L132.831 265.934L134.807 274.303C134.819 274.372 134.854 274.434 134.907 274.479C134.96 274.524 135.026 274.549 135.095 274.55C135.162 274.55 135.228 274.528 135.281 274.488C135.335 274.447 135.374 274.391 135.393 274.327L136.727 270.207H138.462C138.518 270.206 138.573 270.189 138.62 270.159C138.668 270.128 138.706 270.086 138.731 270.035L139.294 268.891L139.364 269.022L139.889 270.04C139.915 270.089 139.953 270.131 140.001 270.161C140.048 270.19 140.103 270.206 140.159 270.207H143.055C143.122 270.207 143.186 270.185 143.239 270.145C143.292 270.104 143.33 270.048 143.348 269.984L143.636 268.971L145.217 273.983C145.236 274.044 145.274 274.099 145.326 274.137C145.378 274.176 145.441 274.196 145.506 274.197C145.571 274.196 145.634 274.175 145.686 274.137C145.739 274.098 145.778 274.044 145.798 273.983L147.003 270.207H149.151C149.212 270.207 149.272 270.189 149.323 270.154C149.374 270.119 149.413 270.07 149.434 270.012L149.899 268.817L150.397 270.017C150.419 270.073 150.457 270.121 150.507 270.155C150.557 270.189 150.616 270.207 150.676 270.207H152.396C152.469 270.207 152.54 270.181 152.595 270.133C152.651 270.085 152.687 270.019 152.698 269.947L153.424 265.353L155.176 274.303C155.189 274.373 155.226 274.435 155.281 274.48C155.335 274.525 155.403 274.55 155.474 274.55C155.545 274.55 155.614 274.525 155.669 274.479C155.723 274.433 155.759 274.369 155.772 274.299L156.739 268.594L157.273 269.989C157.295 270.051 157.338 270.104 157.393 270.141C157.448 270.177 157.514 270.194 157.58 270.189Z" fill="url(#paint6_linear_387_2268)"/>
<path d="M144.924 238.005C138.214 231.031 130.975 226.381 121.793 223.336C113.27 221.104 103.781 221.476 96.0067 225.921C94.213 226.943 92.5436 228.17 91.0318 229.576L87.1914 233.848C87.1914 233.848 90.8691 232.579 93.1892 234.588C93.4596 234.24 93.7499 233.907 94.0586 233.593C98.7081 228.674 105.887 225.903 112.628 225.903C115.684 225.917 118.723 226.357 121.658 227.209C131.198 229.915 137.963 237.136 145.57 243.147C150.289 238.335 155.334 233.737 161.238 230.431C166.636 227.4 173.011 225.442 179.241 225.81C184.29 226.112 188.466 228.213 192.473 231.152C192.827 231.417 196.89 234.225 197.29 234.504C197.832 234.008 198.499 233.669 199.22 233.523C200.489 233.281 201.74 233.556 202.972 233.83C198.211 227.409 190.883 223.462 183.03 222.35C174.363 221.151 165.552 223.071 158.17 227.767C153.474 230.794 149.536 234.82 145.449 238.577L144.924 238.005Z" fill="#6D79CF"/>
<path d="M184.393 279.622C184.551 279.85 184.891 279.622 185.035 279.496C187.201 277.423 188.406 274.512 188.954 271.564C189.559 268.31 189.419 265.004 189.145 261.731C188.892 258.681 188.452 255.651 187.829 252.655C187.569 251.143 187.073 249.681 186.36 248.322C186.068 247.711 185.576 247.218 184.965 246.927C183.835 246.49 182.543 247.341 182.054 248.452C181.566 249.563 181.683 250.823 181.813 252.027C181.966 253.422 182.138 254.817 182.315 256.212C182.501 257.723 182.701 259.234 182.896 260.74C183.091 262.247 183.287 263.758 183.468 265.269C183.649 266.78 183.817 268.291 183.961 269.802C184.105 271.313 184.23 272.829 184.314 274.345C184.361 275.103 184.393 275.865 184.421 276.623L184.388 279.631" fill="#6D79CF"/>
<path d="M190.815 269.309C190.973 269.537 191.313 269.309 191.457 269.184C193.623 267.11 194.827 264.199 195.376 261.252C195.981 257.997 195.841 254.691 195.567 251.418C195.315 248.361 194.875 245.322 194.251 242.319C193.991 240.807 193.495 239.345 192.782 237.986C192.489 237.376 191.997 236.884 191.387 236.591C190.257 236.159 188.965 237.005 188.476 238.116C187.988 239.227 188.104 240.487 188.235 241.691C188.388 243.086 188.56 244.481 188.737 245.876C188.923 247.387 189.123 248.898 189.318 250.404C189.513 251.911 189.708 253.422 189.89 254.933C190.071 256.444 190.238 257.955 190.383 259.471C190.527 260.987 190.652 262.493 190.736 264.009C190.782 264.771 190.815 265.529 190.843 266.287L190.81 269.295" fill="#6D79CF"/>
<path d="M167.874 291.343C167.874 291.343 187.937 290.446 195.143 266.26C196.889 260.225 197.558 253.929 197.119 247.662C196.543 238.414 197.71 236.968 199.263 236.419C200.974 235.801 203.861 236.034 205.772 247.615C205.921 248.513 206.032 249.419 206.097 250.326C206.944 262.005 209.91 278.725 175.518 304.724C167.321 310.811 158.092 321.765 155.59 327C155.59 327 144.027 306.919 150.969 293.752C150.969 293.752 154.01 286.671 163.448 280.473C164.517 279.785 165.645 279.193 166.819 278.706C168.902 277.832 172.765 275.884 174.555 272.825C174.666 272.633 174.796 272.452 174.941 272.285C175.736 271.42 177.499 270.049 179.275 272.429C179.791 274.243 182.487 277.376 169.199 289.679C168.672 290.163 168.22 290.724 167.86 291.343H167.874Z" fill="#6D79CF"/>
<path opacity="0.25" d="M206.106 250.14C206.943 261.815 209.826 278.693 175.42 304.729C167.223 310.816 157.998 321.765 155.497 327C153.126 322.661 151.283 318.053 150.006 313.275L149.797 311.88C152.247 291.511 167.762 291.353 167.762 291.353C167.762 291.353 187.829 290.456 195.036 266.246L206.106 250.14Z" fill="url(#paint7_linear_387_2268)"/>
<path d="M106.433 279.72C106.275 279.952 105.931 279.72 105.787 279.604C103.597 277.558 102.351 274.661 101.77 271.7C101.128 268.473 101.207 265.149 101.458 261.871C101.673 258.81 102.075 255.765 102.662 252.753C102.897 251.24 103.368 249.773 104.057 248.406C104.346 247.801 104.829 247.31 105.429 247.011C106.554 246.546 107.861 247.397 108.358 248.499C108.856 249.601 108.763 250.87 108.642 252.074C108.505 253.472 108.35 254.867 108.177 256.259C108.005 257.775 107.823 259.286 107.647 260.797C107.47 262.308 107.293 263.819 107.131 265.33C106.968 266.841 106.819 268.357 106.694 269.873C106.568 271.388 106.466 272.899 106.396 274.415C106.363 275.177 106.336 275.935 106.322 276.693L106.391 279.701" fill="#6D79CF"/>
<path d="M99.8805 269.468C99.727 269.7 99.383 269.468 99.2388 269.351C97.0443 267.306 95.8029 264.409 95.2171 261.447C94.5754 258.225 94.6591 254.896 94.9056 251.618C95.122 248.559 95.5257 245.516 96.1144 242.505C96.3509 240.991 96.8215 239.523 97.5092 238.154C97.8021 237.544 98.2941 237.052 98.9041 236.759C100.029 236.294 101.336 237.145 101.833 238.247C102.331 239.348 102.233 240.613 102.117 241.817C101.982 243.212 101.829 244.607 101.652 246.002C101.478 247.514 101.302 249.026 101.122 250.535C100.942 252.045 100.772 253.557 100.61 255.073C100.446 256.586 100.299 258.098 100.169 259.611C100.043 261.126 99.9409 262.642 99.8758 264.158C99.8386 264.916 99.8154 265.674 99.7968 266.436L99.8665 269.44" fill="#6D79CF"/>
<path d="M123.098 291.219C123.098 291.219 103.022 290.572 95.5176 266.474C93.6931 260.453 92.947 254.157 93.3138 247.876C93.7787 238.619 92.5884 237.183 91.0309 236.657C89.3106 236.062 86.4233 236.332 84.6426 247.937C84.5077 248.834 84.4101 249.741 84.3543 250.647C83.6476 262.336 80.8905 279.093 115.603 304.674C123.875 310.662 133.239 321.496 135.805 326.703C135.805 326.703 147.122 306.478 139.99 293.399C139.99 293.399 136.86 286.355 127.348 280.278C126.274 279.6 125.139 279.022 123.958 278.553C121.861 277.703 117.974 275.806 116.147 272.765C116.034 272.573 115.902 272.394 115.752 272.23C114.948 271.375 113.172 270.026 111.423 272.425C110.931 274.248 108.276 277.414 121.713 289.549C122.245 290.03 122.704 290.586 123.075 291.2L123.098 291.219Z" fill="#6D79CF"/>
<path opacity="0.25" d="M85.2478 250.14C84.397 261.815 81.5283 278.697 115.934 304.711C124.131 310.797 133.356 321.746 135.857 326.982C138.23 322.643 140.074 318.035 141.348 313.257L141.557 311.862C139.107 291.493 123.592 291.334 123.592 291.334C123.592 291.334 103.525 290.437 96.3182 266.227L85.2478 250.14Z" fill="url(#paint8_linear_387_2268)"/>
<g clip-path="url(#clip1_387_2268)">
<path opacity="0.25" d="M553.422 398.549C508.739 359.887 441.175 364.768 402.514 409.451C363.852 454.133 368.733 521.697 413.415 560.359C458.098 599.02 525.662 594.139 564.324 549.457C602.985 504.774 598.104 437.211 553.422 398.549Z" fill="#91D5EC"/>
<path d="M581.102 472.39C577.205 418.44 530.311 377.864 476.361 381.761C422.411 385.659 381.835 432.553 385.732 486.503C389.63 540.453 436.524 581.029 490.474 577.132C544.424 573.234 585 526.34 581.102 472.39Z" fill="#91D5EC"/>
<path d="M565.613 473.509C562.334 428.112 522.874 393.97 477.478 397.249C432.081 400.529 397.939 439.988 401.218 485.385C404.498 530.781 443.957 564.923 489.354 561.644C534.75 558.365 568.893 518.905 565.613 473.509Z" fill="white"/>
<path d="M461.943 440.21C463.586 440.368 465.276 440.412 466.899 440.682C470.006 441.204 472.833 442.438 475.373 444.3C477.096 445.559 478.746 446.96 480.443 448.248C480.852 448.55 480.844 448.827 480.736 449.25C479.454 453.324 479.255 457.459 480.22 461.62C481.105 465.455 482.898 468.838 485.465 471.832C485.707 472.119 485.947 472.378 486.189 472.665C486.218 472.691 486.249 472.744 486.22 472.718C480.018 479.886 473.842 487.024 467.64 494.191C467.522 494.089 467.318 493.938 467.141 493.785C461.153 488.604 455.165 483.423 449.177 478.242C446.436 475.896 444.245 473.123 443.004 469.729C439.952 461.543 441.207 454.041 446.922 447.406C450.34 443.426 454.795 441.169 460.025 440.459C460.245 440.443 460.487 440.343 460.705 440.299L461.97 440.208L461.943 440.21Z" fill="#919CED"/>
<path d="M525.495 496.98C525.194 498.938 525.147 500.96 524.592 502.852C522.47 510.223 517.776 515.291 510.45 517.618C502.853 520.019 495.858 518.506 489.792 513.386C483.667 508.215 477.671 502.924 471.624 497.692C471.536 497.615 471.475 497.537 471.445 497.511C477.647 490.344 483.823 483.205 490.078 476.006C490.281 476.13 490.57 476.303 490.859 476.475C498.092 480.903 505.624 481.437 513.395 478C514.118 477.671 514.588 477.665 515.181 478.23C516.906 479.903 518.813 481.424 520.407 483.19C522.899 485.913 524.328 489.239 525.06 492.864C525.105 493.109 525.208 493.378 525.281 493.622L525.521 496.951L525.495 496.98Z" fill="#919CED"/>
<path d="M502.847 437.255C504.775 437.53 506.794 437.523 508.631 438.081C515.699 440.225 520.081 444.997 521.924 452.137C521.934 452.274 521.944 452.412 521.956 452.577L484.406 455.289C484.621 454.057 484.729 452.86 485.032 451.705C486.984 444.65 491.464 440.068 498.474 437.958C499.368 437.7 500.325 437.548 501.252 437.37L502.847 437.255Z" fill="#919CED"/>
<path d="M484.923 460.147L522.28 457.448C522.236 465.249 515.692 474.571 504.827 475.383C494.016 476.164 486.098 467.998 484.895 460.149L484.923 460.147Z" fill="#919CED"/>
</g>
<g clip-path="url(#clip2_387_2268)">
<path opacity="0.25" d="M129.968 2.4499C116.954 -37.2936 74.1849 -58.9617 34.4414 -45.9471C-5.30216 -32.9325 -26.9702 9.8364 -13.9556 49.5799C-0.941043 89.3235 41.8279 110.992 81.5714 97.977C121.315 84.9624 142.983 42.1934 129.968 2.4499Z" fill="#91D5EC"/>
<path d="M93.8928 85.3007C126.642 65.4733 137.118 22.8512 117.29 -9.8984C97.463 -42.648 54.8409 -53.1235 22.0913 -33.296C-10.6582 -13.4686 -21.1337 29.1535 -1.30628 61.9031C18.5212 94.6527 61.1433 105.128 93.8928 85.3007Z" fill="#91D5EC"/>
<path d="M88.2011 75.8997C115.758 59.2159 124.573 23.3514 107.889 -4.20586C91.2053 -31.7631 55.3408 -40.5777 27.7835 -23.8939C0.226279 -7.21 -8.58834 28.6545 8.09552 56.2117C24.7794 83.769 60.6439 92.5836 88.2011 75.8997Z" fill="white"/>
<path d="M82.832 -1.72264L61.6743 11.0868L48.8649 -10.0709L30.2788 1.18155L43.0882 22.3393L21.9305 35.1487L33.183 53.7347L54.3407 40.9253L67.1501 62.083L85.7362 50.8305L72.9268 29.6728L94.0845 16.8634L82.832 -1.72264Z" fill="#919CED"/>
</g>
</g>
<defs>
<linearGradient id="paint0_linear_387_2268" x1="502.271" y1="432.836" x2="655.26" y2="432.836" gradientUnits="userSpaceOnUse">
<stop stop-color="white"/>
<stop offset="0.76" stop-color="white"/>
</linearGradient>
<linearGradient id="paint1_linear_387_2268" x1="489.932" y1="440.03" x2="642.921" y2="440.03" gradientUnits="userSpaceOnUse">
<stop stop-color="white"/>
<stop offset="1" stop-color="white"/>
</linearGradient>
<linearGradient id="paint2_linear_387_2268" x1="562.651" y1="499.47" x2="335.12" y2="527.078" gradientUnits="userSpaceOnUse">
<stop offset="0.22" stop-color="white"/>
<stop offset="0.28" stop-color="#FAFBFE" stop-opacity="0.97"/>
<stop offset="0.38" stop-color="#EDEFFC" stop-opacity="0.88"/>
<stop offset="0.5" stop-color="#D8DCF9" stop-opacity="0.74"/>
<stop offset="0.65" stop-color="#BBC2F4" stop-opacity="0.54"/>
<stop offset="0.81" stop-color="#97A1EE" stop-opacity="0.29"/>
<stop offset="0.84" stop-color="#919CED" stop-opacity="0.25"/>
</linearGradient>
<linearGradient id="paint3_linear_387_2268" x1="133.664" y1="254.171" x2="151.109" y2="263.884" gradientUnits="userSpaceOnUse">
<stop offset="0.16" stop-color="#919CED"/>
<stop offset="0.27" stop-color="#91ACED"/>
<stop offset="0.51" stop-color="#91CAEC"/>
<stop offset="0.64" stop-color="#91D5EC"/>
<stop offset="0.91" stop-color="#91D5EC"/>
</linearGradient>
<linearGradient id="paint4_linear_387_2268" x1="138.648" y1="286.001" x2="148.026" y2="273.657" gradientUnits="userSpaceOnUse">
<stop stop-color="#919CED"/>
<stop offset="0.04" stop-color="#91A3ED"/>
<stop offset="0.25" stop-color="#91BEEC"/>
<stop offset="0.43" stop-color="#91CFEC"/>
<stop offset="0.56" stop-color="#91D5EC"/>
</linearGradient>
<linearGradient id="paint5_linear_387_2268" x1="126.155" y1="268.356" x2="164.029" y2="268.356" gradientUnits="userSpaceOnUse">
<stop stop-color="#919CED"/>
<stop offset="0.06" stop-color="#91A8ED"/>
<stop offset="0.24" stop-color="#91C4EC"/>
<stop offset="0.34" stop-color="#91CFEC"/>
<stop offset="0.64" stop-color="#91D5EC"/>
<stop offset="0.68" stop-color="#91D0EC"/>
<stop offset="0.73" stop-color="#91C1ED"/>
<stop offset="0.76" stop-color="#91B9EE"/>
</linearGradient>
<linearGradient id="paint6_linear_387_2268" x1="123.1" y1="270.138" x2="160.974" y2="270.138" gradientUnits="userSpaceOnUse">
<stop stop-color="#919CED"/>
<stop offset="0.15" stop-color="#91AAED"/>
<stop offset="0.4" stop-color="#91CCEC"/>
<stop offset="0.46" stop-color="#91D5EC"/>
<stop offset="0.61" stop-color="#91D5EC"/>
<stop offset="0.63" stop-color="#91D5EC"/>
<stop offset="0.78" stop-color="#91CDED"/>
<stop offset="1" stop-color="#91B9EE"/>
</linearGradient>
<linearGradient id="paint7_linear_387_2268" x1="150.239" y1="284.853" x2="206.567" y2="291.688" gradientUnits="userSpaceOnUse">
<stop offset="0.22" stop-color="white"/>
<stop offset="0.28" stop-color="#FAFBFE" stop-opacity="0.97"/>
<stop offset="0.38" stop-color="#EDEFFC" stop-opacity="0.88"/>
<stop offset="0.5" stop-color="#D8DCF9" stop-opacity="0.74"/>
<stop offset="0.65" stop-color="#BBC2F4" stop-opacity="0.54"/>
<stop offset="0.81" stop-color="#97A1EE" stop-opacity="0.29"/>
<stop offset="0.84" stop-color="#919CED" stop-opacity="0.25"/>
</linearGradient>
<linearGradient id="paint8_linear_387_2268" x1="141.102" y1="284.853" x2="84.7736" y2="291.688" gradientUnits="userSpaceOnUse">
<stop offset="0.22" stop-color="white"/>
<stop offset="0.28" stop-color="#FAFBFE" stop-opacity="0.97"/>
<stop offset="0.38" stop-color="#EDEFFC" stop-opacity="0.88"/>
<stop offset="0.5" stop-color="#D8DCF9" stop-opacity="0.74"/>
<stop offset="0.65" stop-color="#BBC2F4" stop-opacity="0.54"/>
<stop offset="0.81" stop-color="#97A1EE" stop-opacity="0.29"/>
<stop offset="0.84" stop-color="#919CED" stop-opacity="0.25"/>
</linearGradient>
<clipPath id="clip0_387_2268">
<rect width="529" height="550" fill="white"/>
</clipPath>
<clipPath id="clip1_387_2268">
<rect width="214" height="214" fill="white" transform="translate(384.418 593.863) rotate(-94.1319)"/>
</clipPath>
<clipPath id="clip2_387_2268">
<rect width="151.464" height="151.464" fill="white" transform="translate(-46 0.443848) rotate(-31.1918)"/>
</clipPath>
</defs>
</svg>
