<svg width="529" height="550" viewBox="0 0 529 550" fill="none" xmlns="http://www.w3.org/2000/svg" xmlns:xlink="http://www.w3.org/1999/xlink">
<g clip-path="url(#clip0_387_3938)">
<rect width="529" height="550" fill="url(#paint0_linear_387_3938)"/>
<rect x="-207.086" y="70.127" width="113.977" height="253.282" transform="rotate(-30 -207.086 70.127)" fill="url(#pattern0_387_3938)"/>
<rect x="-93.9062" y="4.7832" width="113.977" height="253.282" transform="rotate(-30 -93.9062 4.7832)" fill="url(#pattern1_387_3938)"/>
<rect x="19.2812" y="-60.564" width="113.977" height="253.282" transform="rotate(-30 19.2812 -60.564)" fill="url(#pattern2_387_3938)"/>
<rect x="132.461" y="-125.909" width="113.977" height="253.282" transform="rotate(-30 132.461 -125.909)" fill="url(#pattern3_387_3938)"/>
<rect x="-72.0859" y="303.953" width="113.977" height="253.282" transform="rotate(-30 -72.0859 303.953)" fill="url(#pattern4_387_3938)"/>
<rect x="402.457" y="341.742" width="113.977" height="253.282" transform="rotate(-30 402.457 341.742)" fill="url(#pattern5_387_3938)"/>
<rect x="515.641" y="276.396" width="113.977" height="253.282" transform="rotate(-30 515.641 276.396)" fill="url(#pattern6_387_3938)"/>
<rect x="41.0938" y="238.606" width="113.977" height="253.282" transform="rotate(-30 41.0938 238.606)" fill="url(#pattern7_387_3938)"/>
<rect x="154.277" y="173.261" width="113.977" height="253.282" transform="rotate(-30 154.277 173.261)" fill="url(#pattern8_387_3938)"/>
<rect x="267.461" y="107.916" width="113.977" height="253.282" transform="rotate(-30 267.461 107.916)" fill="url(#pattern9_387_3938)"/>
<rect x="62.9141" y="537.777" width="113.977" height="253.282" transform="rotate(-30 62.9141 537.777)" fill="url(#pattern10_387_3938)"/>
<rect x="176.094" y="472.433" width="113.977" height="253.282" transform="rotate(-30 176.094 472.433)" fill="url(#pattern11_387_3938)"/>
<rect x="289.277" y="407.087" width="113.977" height="253.282" transform="rotate(-30 289.277 407.087)" fill="url(#pattern12_387_3938)"/>
<rect x="380.637" y="42.5703" width="113.977" height="253.282" transform="rotate(-30 380.637 42.5703)" fill="url(#pattern13_387_3938)"/>
<rect x="245.637" y="-191.254" width="113.977" height="253.282" transform="rotate(-30 245.637 -191.254)" fill="url(#pattern14_387_3938)"/>
</g>
<defs>
<pattern id="pattern0_387_3938" patternContentUnits="objectBoundingBox" width="1" height="1">
<use xlink:href="#image0_387_3938" transform="scale(0.000694444 0.0003125)"/>
</pattern>
<pattern id="pattern1_387_3938" patternContentUnits="objectBoundingBox" width="1" height="1">
<use xlink:href="#image1_387_3938" transform="scale(0.000694444 0.0003125)"/>
</pattern>
<pattern id="pattern2_387_3938" patternContentUnits="objectBoundingBox" width="1" height="1">
<use xlink:href="#image2_387_3938" transform="scale(0.000694444 0.0003125)"/>
</pattern>
<pattern id="pattern3_387_3938" patternContentUnits="objectBoundingBox" width="1" height="1">
<use xlink:href="#image3_387_3938" transform="scale(0.000694444 0.0003125)"/>
</pattern>
<pattern id="pattern4_387_3938" patternContentUnits="objectBoundingBox" width="1" height="1">
<use xlink:href="#image4_387_3938" transform="scale(0.000694444 0.0003125)"/>
</pattern>
<pattern id="pattern5_387_3938" patternContentUnits="objectBoundingBox" width="1" height="1">
<use xlink:href="#image4_387_3938" transform="scale(0.000694444 0.0003125)"/>
</pattern>
<pattern id="pattern6_387_3938" patternContentUnits="objectBoundingBox" width="1" height="1">
<use xlink:href="#image5_387_3938" transform="scale(0.000694444 0.0003125)"/>
</pattern>
<pattern id="pattern7_387_3938" patternContentUnits="objectBoundingBox" width="1" height="1">
<use xlink:href="#image6_387_3938" transform="scale(0.000694444 0.0003125)"/>
</pattern>
<pattern id="pattern8_387_3938" patternContentUnits="objectBoundingBox" width="1" height="1">
<use xlink:href="#image7_387_3938" transform="scale(0.000694444 0.0003125)"/>
</pattern>
<pattern id="pattern9_387_3938" patternContentUnits="objectBoundingBox" width="1" height="1">
<use xlink:href="#image8_387_3938" transform="scale(0.000694444 0.0003125)"/>
</pattern>
<pattern id="pattern10_387_3938" patternContentUnits="objectBoundingBox" width="1" height="1">
<use xlink:href="#image9_387_3938" transform="scale(0.000694444 0.0003125)"/>
</pattern>
<pattern id="pattern11_387_3938" patternContentUnits="objectBoundingBox" width="1" height="1">
<use xlink:href="#image10_387_3938" transform="scale(0.000694444 0.0003125)"/>
</pattern>
<pattern id="pattern12_387_3938" patternContentUnits="objectBoundingBox" width="1" height="1">
<use xlink:href="#image11_387_3938" transform="scale(0.000694444 0.0003125)"/>
</pattern>
<pattern id="pattern13_387_3938" patternContentUnits="objectBoundingBox" width="1" height="1">
<use xlink:href="#image12_387_3938" transform="scale(0.000694444 0.0003125)"/>
</pattern>
<pattern id="pattern14_387_3938" patternContentUnits="objectBoundingBox" width="1" height="1">
<use xlink:href="#image13_387_3938" transform="scale(0.000694444 0.0003125)"/>
</pattern>
<linearGradient id="paint0_linear_387_3938" x1="0" y1="275" x2="529" y2="275" gradientUnits="userSpaceOnUse">
<stop stop-color="#1488CC"/>
<stop offset="1" stop-color="#2B32B2"/>
</linearGradient>
<clipPath id="clip0_387_3938">
<rect width="529" height="550" fill="white"/>
</clipPath>
<image id="image0_387_3938" width="1440" height="3200" preserveAspectRatio="none" xlink:href="./extracted/vividly-3_1.jpeg"/>
<image id="image1_387_3938" width="1440" height="3200" preserveAspectRatio="none" xlink:href="./extracted/vividly-3_2.jpeg"/>
<image id="image2_387_3938" width="1440" height="3200" preserveAspectRatio="none" xlink:href="./extracted/vividly-3_3.jpeg"/>
<image id="image3_387_3938" width="1440" height="3200" preserveAspectRatio="none" xlink:href="./extracted/vividly-3_4.jpeg"/>
<image id="image4_387_3938" width="1440" height="3200" preserveAspectRatio="none" xlink:href="./extracted/vividly-3_5.jpeg"/>
<image id="image5_387_3938" width="1440" height="3200" preserveAspectRatio="none" xlink:href="./extracted/vividly-3_6.jpeg"/>
<image id="image6_387_3938" width="1440" height="3200" preserveAspectRatio="none" xlink:href="./extracted/vividly-3_7.jpeg"/>
<image id="image7_387_3938" width="1440" height="3200" preserveAspectRatio="none" xlink:href="./extracted/vividly-3_8.jpeg"/>
<image id="image8_387_3938" width="1440" height="3200" preserveAspectRatio="none" xlink:href="./extracted/vividly-3_9.jpeg"/>
<image id="image9_387_3938" width="1440" height="3200" preserveAspectRatio="none" xlink:href="./extracted/vividly-3_10.jpeg"/>
<image id="image10_387_3938" width="1440" height="3200" preserveAspectRatio="none" xlink:href="./extracted/vividly-3_11.jpeg"/>
<image id="image11_387_3938" width="1440" height="3200" preserveAspectRatio="none" xlink:href="./extracted/vividly-3_12.jpeg"/>
<image id="image12_387_3938" width="1440" height="3200" preserveAspectRatio="none" xlink:href="./extracted/vividly-3_13.jpeg"/>
<image id="image13_387_3938" width="1440" height="3200" preserveAspectRatio="none" xlink:href="./extracted/vividly-3_14.jpeg"/>
</defs>
</svg>
