<svg width="344" height="142" viewBox="0 0 344 142" fill="none" xmlns="http://www.w3.org/2000/svg">
<path d="M0 18C0 8.05887 8.05887 0 18 0H326.005C335.946 0 344.005 8.05888 344.005 18V141.747H0V18Z" fill="white"/>
<mask id="mask0_40000018_9013" style="mask-type:alpha" maskUnits="userSpaceOnUse" x="0" y="0" width="345" height="142">
<path d="M0 18.0001C0 8.05893 8.05887 6.10352e-05 18 6.10352e-05H326.005C335.946 6.10352e-05 344.005 8.05894 344.005 18.0001V141.747H0V18.0001Z" fill="white"/>
</mask>
<g mask="url(#mask0_40000018_9013)">
<g opacity="0.06" clip-path="url(#clip0_40000018_9013)">
<path d="M285.085 43.7086L286.666 40.9591C284.168 39.5145 282.168 37.3441 280.933 34.7362C279.698 32.1283 279.285 29.2063 279.75 26.3583C280.214 23.5103 281.534 20.8711 283.534 18.7911C285.535 16.7111 288.12 15.2887 290.948 14.713C291.31 14.6391 291.635 14.4405 291.866 14.1518C292.097 13.8631 292.219 13.5025 292.212 13.1328C292.219 13.0276 292.219 12.922 292.212 12.8168C292.201 9.0605 293.408 5.40177 295.65 2.38853C297.893 -0.624703 301.052 -2.83028 304.653 -3.89789C308.255 -4.9655 312.105 -4.8377 315.628 -3.53362C319.15 -2.22954 322.156 0.180632 324.194 3.33596C324.387 3.63335 324.674 3.85735 325.009 3.97198C325.344 4.08661 325.708 4.08522 326.043 3.96802C327.359 3.54398 328.737 3.34108 330.12 3.36757C333.024 3.36836 335.84 4.36955 338.094 6.20272C340.347 8.03589 341.9 10.5892 342.492 13.4331C342.556 13.741 342.711 14.0228 342.936 14.2423C343.161 14.4619 343.447 14.6093 343.756 14.6656C346.615 15.1944 349.243 16.5866 351.286 18.6548C353.329 20.7229 354.69 23.3676 355.184 26.2325C355.678 29.0974 355.282 32.0449 354.05 34.678C352.817 37.3111 350.808 39.5033 348.291 40.9591L349.871 43.7086C352.871 41.9732 355.283 39.3808 356.798 36.2643C358.314 33.1479 358.863 29.6496 358.375 26.2187C357.888 22.7879 356.386 19.581 354.063 17.01C351.739 14.4389 348.7 12.621 345.336 11.7897C344.414 8.46149 342.427 5.527 339.679 3.43526C336.931 1.3435 333.573 0.20969 330.12 0.207283C328.78 0.206361 327.447 0.381681 326.153 0.72873C323.645 -2.71008 320.131 -5.28483 316.096 -6.63963C312.061 -7.99443 307.704 -8.06237 303.629 -6.83406C299.554 -5.60575 295.961 -3.14185 293.347 0.217059C290.732 3.57597 289.226 7.66402 289.036 11.9161C285.744 12.845 282.8 14.7243 280.571 17.3186C278.343 19.913 276.929 23.1071 276.508 26.5011C276.086 29.8951 276.675 33.338 278.201 36.3989C279.726 39.4597 282.121 42.0024 285.085 43.7086Z" fill="black"/>
<path d="M309.579 1.78748V-1.3728C305.807 -1.3728 302.19 0.125506 299.523 2.79251C296.856 5.45952 295.357 9.07676 295.357 12.8485H298.518C298.518 9.91492 299.683 7.10151 301.757 5.02717C303.832 2.95283 306.645 1.78748 309.579 1.78748Z" fill="black"/>
<path d="M311.157 71.3137C308.5 71.3168 305.932 72.2766 303.924 74.0176C301.916 75.7586 300.602 78.1642 300.223 80.7945H285.875V83.9548H349.081V80.7945H334.733C334.353 78.1642 333.039 75.7586 331.031 74.0176C329.024 72.2766 326.456 71.3168 323.798 71.3137H322.218V64.9931H330.119C332.901 64.9717 335.572 63.903 337.601 62C339.63 60.0971 340.867 57.4995 341.066 54.725C341.266 51.9505 340.412 49.2028 338.676 47.0293C336.94 44.8559 334.449 43.4164 331.699 42.9976V39.5844C334.449 39.1656 336.94 37.7261 338.676 35.5527C340.412 33.3792 341.266 30.6315 341.066 27.857C340.867 25.0825 339.63 22.4849 337.601 20.5819C335.572 18.679 332.901 17.6103 330.119 17.5889H304.837C302.055 17.6103 299.384 18.679 297.355 20.5819C295.326 22.4849 294.089 25.0825 293.889 27.857C293.69 30.6315 294.543 33.3792 296.279 35.5527C298.015 37.7261 300.507 39.1656 303.257 39.5844V42.9976C300.507 43.4164 298.015 44.8559 296.279 47.0293C294.543 49.2028 293.69 51.9505 293.889 54.725C294.089 57.4995 295.326 60.0971 297.355 62C299.384 63.903 302.055 64.9717 304.837 64.9931H312.737V71.3137H311.157ZM331.699 27.0697H334.859V30.23H331.699V27.0697ZM331.699 52.352H334.859V55.5123H331.699V52.352ZM303.257 55.5123H300.096V52.352H303.257V55.5123ZM303.257 30.23H300.096V27.0697H303.257V30.23ZM319.058 71.3137H315.898V64.9931H319.058V71.3137ZM317.478 57.0924C316.853 57.0924 316.242 56.9071 315.722 56.5598C315.202 56.2126 314.797 55.719 314.558 55.1415C314.319 54.5641 314.256 53.9286 314.378 53.3156C314.5 52.7026 314.801 52.1394 315.243 51.6975C315.685 51.2555 316.248 50.9545 316.861 50.8326C317.474 50.7106 318.11 50.7732 318.687 51.0124C319.265 51.2516 319.758 51.6567 320.106 52.1764C320.453 52.6961 320.638 53.3071 320.638 53.9321C320.638 54.7703 320.305 55.5741 319.712 56.1668C319.12 56.7595 318.316 57.0924 317.478 57.0924ZM328.539 55.5123H325.379V52.352H328.539V55.5123ZM325.379 27.0697H328.539V30.23H325.379V27.0697ZM317.478 25.4896C318.103 25.4896 318.714 25.6749 319.234 26.0222C319.753 26.3694 320.158 26.863 320.398 27.4405C320.637 28.0179 320.699 28.6534 320.577 29.2664C320.455 29.8794 320.154 30.4425 319.712 30.8845C319.271 31.3265 318.707 31.6275 318.094 31.7494C317.481 31.8714 316.846 31.8088 316.268 31.5696C315.691 31.3304 315.197 30.9253 314.85 30.4056C314.503 29.8859 314.318 29.2749 314.318 28.6499C314.318 27.8117 314.651 27.0079 315.243 26.4152C315.836 25.8225 316.64 25.4896 317.478 25.4896ZM306.417 27.0697H309.577V30.23H306.417V27.0697ZM309.577 55.5123H306.417V52.352H309.577V55.5123ZM306.417 42.8711V39.7109H328.539V42.8711H306.417Z" fill="black"/>
</g>
</g>
<path d="M154.14 71.7882L155.109 70.1026C153.577 69.2169 152.351 67.8863 151.594 66.2875C150.837 64.6886 150.584 62.8972 150.869 61.1512C151.154 59.4051 151.963 57.7871 153.189 56.5119C154.415 55.2367 156.001 54.3647 157.734 54.0117C157.956 53.9664 158.155 53.8446 158.297 53.6676C158.439 53.4906 158.514 53.2696 158.509 53.0429C158.513 52.9784 158.513 52.9137 158.509 52.8492C158.502 50.5463 159.242 48.3032 160.617 46.4558C161.992 44.6085 163.929 43.2563 166.137 42.6018C168.345 41.9472 170.705 42.0256 172.865 42.8251C175.024 43.6246 176.867 45.1022 178.117 47.0367C178.235 47.219 178.411 47.3563 178.616 47.4266C178.822 47.4969 179.045 47.496 179.25 47.4242C180.057 47.1642 180.902 47.0398 181.749 47.0561C183.53 47.0565 185.257 47.6704 186.638 48.7942C188.02 49.9181 188.972 51.4835 189.335 53.227C189.374 53.4158 189.469 53.5885 189.607 53.7231C189.745 53.8578 189.92 53.9481 190.11 53.9826C191.862 54.3068 193.473 55.1604 194.726 56.4283C195.979 57.6962 196.813 59.3176 197.116 61.074C197.419 62.8304 197.176 64.6375 196.42 66.2518C195.665 67.8661 194.433 69.21 192.89 70.1026L193.859 71.7882C195.698 70.7243 197.177 69.135 198.106 67.2243C199.035 65.3137 199.371 63.169 199.072 61.0656C198.774 58.9622 197.853 56.9962 196.428 55.4199C195.004 53.8437 193.141 52.7291 191.078 52.2195C190.513 50.179 189.295 48.38 187.61 47.0976C185.925 45.8152 183.867 45.12 181.749 45.1186C180.928 45.118 180.111 45.2255 179.318 45.4382C177.78 43.33 175.625 41.7515 173.152 40.9209C170.678 40.0903 168.007 40.0486 165.509 40.8017C163.01 41.5547 160.807 43.0653 159.205 45.1246C157.602 47.1838 156.678 49.6901 156.562 52.297C154.544 52.8665 152.739 54.0186 151.373 55.6091C150.006 57.1997 149.14 59.1579 148.881 61.2387C148.623 63.3195 148.984 65.4303 149.919 67.3068C150.855 69.1834 152.323 70.7422 154.14 71.7882Z" fill="black"/>
<path d="M169.156 46.0873V44.1498C166.844 44.1498 164.626 45.0684 162.991 46.7035C161.356 48.3386 160.438 50.5562 160.438 52.8686H162.375C162.375 51.0701 163.089 49.3453 164.361 48.0735C165.633 46.8018 167.358 46.0873 169.156 46.0873Z" fill="black"/>
<path d="M170.125 88.7123C168.496 88.7142 166.922 89.3027 165.691 90.37C164.46 91.4374 163.654 92.9122 163.422 94.5248H154.625V96.4623H193.375V94.5248H184.579C184.346 92.9122 183.541 91.4374 182.31 90.37C181.079 89.3027 179.505 88.7142 177.875 88.7123H176.907V84.8373H181.75C183.456 84.8242 185.094 84.169 186.337 83.0023C187.581 81.8357 188.34 80.2432 188.462 78.5422C188.584 76.8412 188.061 75.1566 186.997 73.8241C185.932 72.4916 184.405 71.6091 182.719 71.3523V69.2598C184.405 69.0031 185.932 68.1205 186.997 66.788C188.061 65.4555 188.584 63.7709 188.462 62.07C188.34 60.369 187.581 58.7765 186.337 57.6098C185.094 56.4431 183.456 55.7879 181.75 55.7748H166.25C164.545 55.7879 162.907 56.4431 161.664 57.6098C160.42 58.7765 159.661 60.369 159.539 62.07C159.417 63.7709 159.94 65.4555 161.004 66.788C162.069 68.1205 163.596 69.0031 165.282 69.2598V71.3523C163.596 71.6091 162.069 72.4916 161.004 73.8241C159.94 75.1566 159.417 76.8412 159.539 78.5422C159.661 80.2432 160.42 81.8357 161.664 83.0023C162.907 84.169 164.545 84.8242 166.25 84.8373H171.094V88.7123H170.125ZM182.719 61.5873H184.657V63.5248H182.719V61.5873ZM182.719 77.0873H184.657V79.0248H182.719V77.0873ZM165.282 79.0248H163.344V77.0873H165.282V79.0248ZM165.282 63.5248H163.344V61.5873H165.282V63.5248ZM174.969 88.7123H173.032V84.8373H174.969V88.7123ZM174 79.9936C173.617 79.9936 173.243 79.8799 172.924 79.667C172.605 79.4541 172.357 79.1515 172.21 78.7975C172.064 78.4435 172.025 78.0539 172.1 77.6781C172.175 77.3022 172.36 76.957 172.63 76.686C172.901 76.4151 173.247 76.2305 173.622 76.1558C173.998 76.081 174.388 76.1194 174.742 76.266C175.096 76.4127 175.399 76.661 175.611 76.9796C175.824 77.2983 175.938 77.6729 175.938 78.0561C175.938 78.5699 175.734 79.0627 175.371 79.4261C175.007 79.7894 174.514 79.9936 174 79.9936ZM180.782 79.0248H178.844V77.0873H180.782V79.0248ZM178.844 61.5873H180.782V63.5248H178.844V61.5873ZM174 60.6186C174.384 60.6186 174.758 60.7322 175.077 60.9451C175.396 61.158 175.644 61.4606 175.791 61.8146C175.937 62.1686 175.976 62.5582 175.901 62.934C175.826 63.3099 175.641 63.6551 175.371 63.9261C175.1 64.197 174.754 64.3816 174.378 64.4563C174.003 64.5311 173.613 64.4927 173.259 64.3461C172.905 64.1994 172.602 63.9511 172.39 63.6325C172.177 63.3139 172.063 62.9393 172.063 62.5561C172.063 62.0422 172.267 61.5494 172.63 61.186C172.994 60.8227 173.487 60.6186 174 60.6186ZM167.219 61.5873H169.157V63.5248H167.219V61.5873ZM169.157 79.0248H167.219V77.0873H169.157V79.0248ZM167.219 71.2748V69.3373H180.782V71.2748H167.219Z" fill="black"/>
<defs>
<clipPath id="clip0_40000018_9013">
<rect width="101.958" height="101.958" fill="white" transform="translate(266.086 -13.2628)"/>
</clipPath>
</defs>
</svg>
