<svg width="344" height="142" viewBox="0 0 344 142" fill="none" xmlns="http://www.w3.org/2000/svg">
<path d="M0 18C0 8.05887 8.05887 0 18 0H326.005C335.946 0 344.005 8.05888 344.005 18V141.747H0V18Z" fill="white"/>
<path d="M208.928 51.6967H152.74C151.97 51.6975 151.231 52.004 150.686 52.5488C150.141 53.0937 149.835 53.8324 149.834 54.6029V88.5092C149.835 89.2797 150.141 90.0184 150.686 90.5633C151.231 91.1081 151.97 91.4146 152.74 91.4154H179.865V93.3529H171.146C170.89 93.3529 170.643 93.455 170.461 93.6366C170.28 93.8183 170.178 94.0647 170.178 94.3217C170.178 94.5786 170.28 94.825 170.461 95.0067C170.643 95.1883 170.89 95.2904 171.146 95.2904H183.74V93.3529H181.803V91.4154H183.74V89.4779H152.74C152.483 89.4776 152.237 89.3755 152.056 89.1938C151.874 89.0122 151.772 88.766 151.771 88.5092V54.6029C151.772 54.3461 151.874 54.0998 152.056 53.9182C152.237 53.7366 152.483 53.6344 152.74 53.6342H208.928C209.185 53.6344 209.431 53.7366 209.612 53.9182C209.794 54.0998 209.896 54.3461 209.896 54.6029V58.817C210.611 59.0712 211.27 59.463 211.834 59.9703V54.6029C211.833 53.8324 211.527 53.0937 210.982 52.5488C210.437 52.004 209.698 51.6975 208.928 51.6967Z" fill="black"/>
<path d="M199.981 79.6168L198.002 81.7549L197.528 81.2436C197.442 81.1502 197.338 81.0748 197.222 81.0216C197.107 80.9684 196.982 80.9385 196.855 80.9336C196.728 80.9287 196.601 80.9488 196.482 80.9929C196.362 81.037 196.253 81.1042 196.159 81.1906C196.066 81.277 195.991 81.381 195.937 81.4965C195.884 81.6121 195.854 81.737 195.849 81.8641C195.844 81.9912 195.865 82.118 195.909 82.2374C195.953 82.3567 196.02 82.4662 196.106 82.5595L197.291 83.839C197.382 83.9371 197.491 84.0153 197.614 84.0687C197.736 84.1222 197.868 84.1498 198.002 84.1498C198.135 84.1498 198.267 84.1222 198.39 84.0687C198.512 84.0153 198.622 83.9371 198.713 83.839L201.403 80.9328C201.49 80.8394 201.557 80.73 201.601 80.6106C201.645 80.4913 201.665 80.3645 201.66 80.2374C201.655 80.1102 201.625 79.9853 201.572 79.8698C201.519 79.7542 201.444 79.6503 201.35 79.5639C201.257 79.4775 201.147 79.4103 201.028 79.3662C200.909 79.3221 200.782 79.3019 200.655 79.3068C200.528 79.3118 200.403 79.3417 200.287 79.3949C200.172 79.4481 200.068 79.5235 199.981 79.6168Z" fill="black"/>
<path d="M161.943 71.556C161.943 73.0888 162.398 74.5872 163.249 75.8617C164.101 77.1362 165.311 78.1295 166.728 78.7161C168.144 79.3027 169.702 79.4562 171.205 79.1571C172.709 78.8581 174.09 78.12 175.173 77.0361C176.257 75.9523 176.995 74.5713 177.294 73.068C177.593 71.5646 177.44 70.0064 176.853 68.5902C176.267 67.1741 175.274 65.9637 173.999 65.1121C172.725 64.2606 171.226 63.806 169.693 63.806C167.639 63.8084 165.669 64.6257 164.216 66.0785C162.763 67.5314 161.946 69.5013 161.943 71.556ZM172.289 69.392C172.382 69.4784 172.458 69.5823 172.511 69.6979C172.564 69.8135 172.594 69.9384 172.599 70.0655C172.604 70.1926 172.584 70.3194 172.54 70.4388C172.495 70.5581 172.428 70.6675 172.342 70.7609L169.651 73.6671C169.561 73.7651 169.451 73.8433 169.328 73.8968C169.206 73.9503 169.074 73.9779 168.94 73.9779C168.807 73.9779 168.675 73.9503 168.552 73.8968C168.43 73.8433 168.32 73.7651 168.229 73.6671L167.045 72.3876C166.871 72.199 166.778 71.9489 166.788 71.6923C166.798 71.4356 166.91 71.1934 167.098 71.019C167.287 70.8445 167.537 70.7521 167.793 70.7619C168.05 70.7718 168.292 70.8832 168.467 71.0717L168.94 71.583L170.92 69.4449C171.094 69.2564 171.337 69.1449 171.594 69.135C171.85 69.125 172.1 69.2175 172.289 69.392Z" fill="black"/>
<path d="M207.959 60.4154H189.553C188.525 60.4166 187.54 60.8252 186.814 61.5516C186.088 62.2781 185.679 63.263 185.678 64.2904V99.1654C185.679 100.193 186.088 101.178 186.814 101.904C187.54 102.631 188.525 103.039 189.553 103.04H207.959C208.986 103.039 209.971 102.631 210.698 101.904C211.424 101.178 211.833 100.193 211.834 99.1654V64.2904C211.833 63.263 211.424 62.2781 210.698 61.5516C209.971 60.8252 208.986 60.4166 207.959 60.4154ZM198.756 64.2904C198.947 64.2904 199.135 64.3472 199.294 64.4536C199.453 64.5601 199.578 64.7114 199.651 64.8884C199.724 65.0654 199.743 65.2602 199.706 65.4481C199.669 65.636 199.576 65.8087 199.441 65.9441C199.305 66.0796 199.133 66.1719 198.945 66.2093C198.757 66.2466 198.562 66.2275 198.385 66.1541C198.208 66.0808 198.057 65.9566 197.95 65.7973C197.844 65.638 197.787 65.4507 197.787 65.2591C197.787 65.0022 197.889 64.7558 198.071 64.5741C198.253 64.3924 198.499 64.2904 198.756 64.2904ZM201.178 99.1654H196.334C196.077 99.1654 195.831 99.0633 195.649 98.8816C195.467 98.7 195.365 98.4536 195.365 98.1966C195.365 97.9397 195.467 97.6933 195.649 97.5116C195.831 97.3299 196.077 97.2279 196.334 97.2279H201.178C201.435 97.2279 201.681 97.3299 201.863 97.5116C202.044 97.6933 202.146 97.9397 202.146 98.1966C202.146 98.4536 202.044 98.7 201.863 98.8816C201.681 99.0633 201.435 99.1654 201.178 99.1654ZM198.756 88.5091C197.415 88.5091 196.104 88.1114 194.988 87.3663C193.873 86.6211 193.004 85.5621 192.491 84.3229C191.978 83.0838 191.843 81.7204 192.105 80.4049C192.367 79.0895 193.012 77.8812 193.961 76.9328C194.909 75.9844 196.117 75.3386 197.433 75.0769C198.748 74.8153 200.112 74.9496 201.351 75.4628C202.59 75.9761 203.649 76.8452 204.394 77.9604C205.139 79.0756 205.537 80.3867 205.537 81.7279C205.537 83.5264 204.823 85.2512 203.551 86.5229C202.279 87.7947 200.554 88.5091 198.756 88.5091Z" fill="black"/>
<mask id="mask0_40000018_9089" style="mask-type:alpha" maskUnits="userSpaceOnUse" x="0" y="0" width="344" height="142">
<path d="M0.833984 18.3685C0.833984 8.4274 8.89286 0.36853 18.834 0.36853H325.834C335.775 0.36853 343.834 8.42741 343.834 18.3685V141.369H0.833984V18.3685Z" fill="white"/>
</mask>
<g mask="url(#mask0_40000018_9089)">
<g opacity="0.06">
<path d="M357.396 -4.66272H252.271C250.83 -4.66115 249.448 -4.08776 248.428 -3.06837C247.409 -2.04899 246.836 -0.666851 246.834 0.77478V64.2123C246.836 65.6539 247.409 67.036 248.428 68.0554C249.448 69.0748 250.83 69.6482 252.271 69.6498H303.021V73.2748H286.709C286.228 73.2748 285.767 73.4657 285.427 73.8056C285.087 74.1456 284.896 74.6066 284.896 75.0873C284.896 75.568 285.087 76.029 285.427 76.3689C285.767 76.7088 286.228 76.8998 286.709 76.8998H310.271V73.2748H306.646V69.6498H310.271V66.0248H252.271C251.791 66.0242 251.33 65.8331 250.99 65.4933C250.651 65.1535 250.46 64.6928 250.459 64.2123V0.77478C250.46 0.294244 250.651 -0.166453 250.99 -0.506244C251.33 -0.846034 251.791 -1.03717 252.271 -1.03772H357.396C357.877 -1.03717 358.338 -0.846034 358.678 -0.506244C359.017 -0.166453 359.208 0.294244 359.209 0.77478V8.65922C360.547 9.13481 361.778 9.86788 362.834 10.817V0.77478C362.832 -0.666851 362.259 -2.04899 361.24 -3.06837C360.22 -4.08776 358.838 -4.66115 357.396 -4.66272Z" fill="black"/>
<path d="M340.66 47.575L336.956 51.5752L336.07 50.6185C335.909 50.4439 335.714 50.3027 335.498 50.2032C335.282 50.1037 335.048 50.0477 334.81 50.0385C334.572 50.0293 334.335 50.067 334.112 50.1496C333.889 50.2321 333.684 50.3577 333.509 50.5194C333.334 50.6811 333.193 50.8756 333.094 51.0918C332.994 51.308 332.938 51.5417 332.929 51.7795C332.92 52.0173 332.958 52.2546 333.04 52.4779C333.123 52.7011 333.248 52.9059 333.41 53.0806L335.626 55.4746C335.796 55.658 336.001 55.8043 336.23 55.9043C336.459 56.0044 336.706 56.056 336.956 56.056C337.206 56.056 337.453 56.0044 337.682 55.9043C337.911 55.8043 338.117 55.658 338.286 55.4746L343.32 50.0371C343.482 49.8624 343.608 49.6576 343.69 49.4343C343.773 49.2111 343.81 48.9738 343.801 48.7359C343.792 48.4981 343.736 48.2644 343.637 48.0482C343.537 47.832 343.396 47.6375 343.221 47.4759C343.047 47.3142 342.842 47.1885 342.618 47.106C342.395 47.0235 342.158 46.9858 341.92 46.995C341.682 47.0042 341.449 47.0601 341.232 47.1597C341.016 47.2592 340.822 47.4003 340.66 47.575Z" fill="black"/>
<path d="M269.49 32.4935C269.49 35.3614 270.341 38.1648 271.934 40.5493C273.527 42.9338 275.792 44.7923 278.441 45.8898C281.091 46.9872 284.006 47.2744 286.819 46.7149C289.632 46.1554 292.215 44.7744 294.243 42.7466C296.271 40.7187 297.652 38.1351 298.212 35.3223C298.771 32.5096 298.484 29.5941 297.386 26.9446C296.289 24.2951 294.431 22.0305 292.046 20.4372C289.661 18.8439 286.858 17.9935 283.99 17.9935C280.146 17.9979 276.46 19.527 273.742 22.2453C271.024 24.9637 269.495 28.6492 269.49 32.4935ZM288.847 28.4446C289.021 28.6063 289.162 28.8008 289.262 29.017C289.361 29.2332 289.417 29.4669 289.427 29.7048C289.436 29.9426 289.398 30.1799 289.315 30.4032C289.233 30.6264 289.107 30.8312 288.945 31.0058L283.911 36.4433C283.742 36.6267 283.536 36.773 283.307 36.8731C283.078 36.9731 282.831 37.0248 282.581 37.0248C282.331 37.0248 282.084 36.9731 281.855 36.8731C281.627 36.773 281.421 36.6267 281.251 36.4433L279.035 34.0494C278.709 33.6966 278.536 33.2286 278.555 32.7484C278.573 32.2682 278.782 31.8151 279.135 31.4887C279.487 31.1623 279.955 30.9893 280.435 31.0078C280.916 31.0263 281.369 31.2347 281.695 31.5873L282.581 32.544L286.285 28.5437C286.612 28.191 287.065 27.9824 287.545 27.9638C288.026 27.9452 288.494 28.1182 288.847 28.4446Z" fill="black"/>
<path d="M355.584 11.6498H321.146C319.224 11.652 317.382 12.4165 316.022 13.7757C314.663 15.1348 313.899 16.9776 313.896 18.8998V84.1498C313.899 86.0719 314.663 87.9147 316.022 89.2739C317.382 90.633 319.224 91.3976 321.146 91.3998H355.584C357.506 91.3976 359.349 90.633 360.708 89.2739C362.067 87.9147 362.832 86.0719 362.834 84.1498V18.8998C362.832 16.9776 362.067 15.1348 360.708 13.7757C359.349 12.4165 357.506 11.652 355.584 11.6498ZM338.365 18.8998C338.724 18.8998 339.074 19.0061 339.372 19.2052C339.67 19.4044 339.903 19.6875 340.04 20.0187C340.177 20.3499 340.213 20.7143 340.143 21.0659C340.073 21.4175 339.9 21.7404 339.647 21.9939C339.393 22.2474 339.07 22.42 338.719 22.49C338.367 22.5599 338.003 22.524 337.672 22.3868C337.34 22.2496 337.057 22.0173 336.858 21.7193C336.659 21.4212 336.553 21.0708 336.553 20.7123C336.553 20.2316 336.744 19.7706 337.084 19.4306C337.424 19.0907 337.885 18.8998 338.365 18.8998ZM342.896 84.1498H333.834C333.353 84.1498 332.892 83.9588 332.552 83.6189C332.212 83.279 332.021 82.818 332.021 82.3373C332.021 81.8566 332.212 81.3956 332.552 81.0556C332.892 80.7157 333.353 80.5248 333.834 80.5248H342.896C343.377 80.5248 343.838 80.7157 344.178 81.0556C344.518 81.3956 344.709 81.8566 344.709 82.3373C344.709 82.818 344.518 83.279 344.178 83.6189C343.838 83.9588 343.377 84.1498 342.896 84.1498ZM338.365 64.2123C335.856 64.2123 333.403 63.4682 331.316 62.074C329.23 60.6799 327.604 58.6984 326.644 56.3801C325.683 54.0617 325.432 51.5107 325.922 49.0496C326.411 46.5884 327.619 44.3277 329.394 42.5534C331.168 40.779 333.429 39.5706 335.89 39.0811C338.351 38.5915 340.902 38.8428 343.221 39.8031C345.539 40.7633 347.52 42.3895 348.915 44.476C350.309 46.5624 351.053 49.0154 351.053 51.5248C351.053 54.8897 349.716 58.1168 347.337 60.4962C344.957 62.8756 341.73 64.2123 338.365 64.2123Z" fill="black"/>
</g>
</g>
</svg>
