<svg width="344" height="142" viewBox="0 0 344 142" fill="none" xmlns="http://www.w3.org/2000/svg">
<path d="M0 18C0 8.05887 8.05887 0 18 0H326.005C335.946 0 344.005 8.05888 344.005 18V141.747H0V18Z" fill="white"/>
<mask id="mask0_40000018_9077" style="mask-type:alpha" maskUnits="userSpaceOnUse" x="0" y="0" width="345" height="142">
<path d="M0 18C0 8.05887 8.05887 0 18 0H326.005C335.946 0 344.005 8.05888 344.005 18V141.747H0V18Z" fill="white"/>
</mask>
<g mask="url(#mask0_40000018_9077)">
<path opacity="0.06" d="M327.586 51.0045C327.586 52.2951 326.53 53.3451 325.232 53.3451C323.934 53.3451 322.879 52.2951 322.879 51.0045C322.879 49.714 323.934 48.6639 325.232 48.6639C326.53 48.6639 327.586 49.714 327.586 51.0045ZM338.503 67.3782H311.961C311.099 67.3782 310.401 68.0727 310.401 68.9293V76.3002C310.401 77.1569 311.099 77.8514 311.961 77.8514H338.503C339.365 77.8514 340.063 77.1569 340.063 76.3002V68.9293C340.063 68.0727 339.365 67.3782 338.503 67.3782ZM341.882 34.4481C342.401 34.9649 342.488 35.7723 342.089 36.3864L333.648 49.3849C333.751 49.9164 333.803 50.4587 333.803 51.0047C333.803 55.7043 329.958 59.5278 325.232 59.5278C320.506 59.5278 316.661 55.7043 316.661 51.0047C316.661 46.3049 320.506 42.4816 325.232 42.4816C325.781 42.4816 326.326 42.5333 326.861 42.6357L339.932 34.2419C340.55 33.8452 341.362 33.9312 341.882 34.4481ZM335.537 40.7571L327.996 45.5997C327.619 45.8416 327.155 45.9107 326.724 45.7889C326.241 45.6528 325.74 45.5837 325.232 45.5837C322.226 45.5837 319.781 48.0155 319.781 51.0045C319.781 53.9935 322.226 56.4253 325.232 56.4253C328.238 56.4253 330.683 53.9935 330.683 51.0045C330.683 50.4995 330.614 50.0004 330.477 49.5214C330.354 49.092 330.424 48.631 330.667 48.2563L335.537 40.7571ZM284.633 74.3154C280.528 67.2597 278.358 59.199 278.358 51.0047C278.358 38.5539 283.234 26.8484 292.087 18.0444C300.94 9.24047 312.712 4.39195 325.232 4.39195C337.752 4.39195 349.524 9.24047 358.377 18.0444C367.23 26.8484 372.106 38.5541 372.106 51.0047C372.106 59.1994 369.936 67.2603 365.831 74.3156C365.4 75.0566 364.446 75.3102 363.701 74.8821L347.403 65.5246C347.044 65.3188 346.783 64.9797 346.676 64.5819C346.569 64.1842 346.625 63.7607 346.833 63.4043C349.016 59.6524 350.17 55.3647 350.17 51.0045C350.17 37.3305 338.983 26.206 325.232 26.206C311.482 26.206 300.295 37.3305 300.295 51.0045C300.295 55.3647 301.449 59.6524 303.632 63.4043C303.839 63.7607 303.896 64.1842 303.789 64.5819C303.682 64.9797 303.42 65.3186 303.062 65.5246L286.764 74.8821C286.518 75.0231 286.25 75.0901 285.985 75.0901C285.446 75.0901 284.922 74.8124 284.633 74.3154ZM368.956 52.5559H353.245C353.03 56.4036 352.018 60.1677 350.276 63.5923L363.887 71.4064C366.985 65.6088 368.72 59.1498 368.956 52.5559ZM348.439 14.1353L340.585 27.6635C343.816 29.772 346.584 32.5248 348.704 35.7376L362.308 27.927C358.79 22.3577 354.039 17.6337 348.439 14.1353ZM304.724 12.5794L312.578 26.1072C315.945 24.4083 319.699 23.3651 323.672 23.1475V7.52447C316.846 7.76397 310.413 9.56476 304.724 12.5794ZM281.508 49.4536H297.219C297.438 45.5029 298.487 41.7689 300.195 38.4213L286.592 30.6109C283.56 36.2683 281.749 42.6653 281.508 49.4536ZM377.162 -9.2262V80.514C377.162 84.5681 373.845 87.8663 369.768 87.8663H280.111C276.033 87.8663 272.717 84.5681 272.717 80.514V-9.2262C272.717 -13.2803 276.033 -16.5785 280.111 -16.5785H369.768C373.845 -16.5785 377.162 -13.2803 377.162 -9.2262ZM364.689 -9.20758H328.676C327.815 -9.20758 327.116 -8.51308 327.116 -7.65642C327.116 -6.79977 327.815 -6.10526 328.676 -6.10526H364.689C365.55 -6.10526 366.249 -6.79977 366.249 -7.65642C366.249 -8.51308 365.55 -9.20758 364.689 -9.20758ZM309.145 -9.20758H305.961C305.099 -9.20758 304.401 -8.51308 304.401 -7.65642C304.401 -6.79977 305.099 -6.10526 305.961 -6.10526H309.145C310.007 -6.10526 310.705 -6.79977 310.705 -7.65642C310.705 -8.51308 310.007 -9.20758 309.145 -9.20758ZM298.438 -9.20758H295.253C294.391 -9.20758 293.693 -8.51308 293.693 -7.65642C293.693 -6.79977 294.391 -6.10526 295.253 -6.10526H298.438C299.299 -6.10526 299.997 -6.79977 299.997 -7.65642C299.997 -8.51308 299.299 -9.20758 298.438 -9.20758ZM282.985 -7.65642C282.985 -6.79977 283.684 -6.10526 284.545 -6.10526H287.73C288.592 -6.10526 289.29 -6.79977 289.29 -7.65642C289.29 -8.51308 288.592 -9.20758 287.73 -9.20758H284.545C283.684 -9.20758 282.985 -8.51308 282.985 -7.65642ZM374.042 1.26544H275.837V80.5138C275.837 82.8573 277.754 84.7638 280.111 84.7638H369.768C372.124 84.7638 374.042 82.8573 374.042 80.5138V1.26544Z" fill="black"/>
</g>
<g clip-path="url(#clip0_40000018_9077)">
<path d="M173.544 83.2627C173.544 84.0183 172.929 84.6331 172.174 84.6331C171.418 84.6331 170.804 84.0183 170.804 83.2627C170.804 82.507 171.418 81.8923 172.174 81.8923C172.929 81.8923 173.544 82.507 173.544 83.2627ZM179.901 92.8494H164.447C163.945 92.8494 163.539 93.2561 163.539 93.7576V98.0733C163.539 98.5749 163.945 98.9815 164.447 98.9815H179.901C180.403 98.9815 180.809 98.5749 180.809 98.0733V93.7576C180.809 93.2561 180.402 92.8494 179.901 92.8494ZM181.868 73.5689C182.17 73.8715 182.221 74.3442 181.988 74.7038L177.074 82.3144C177.134 82.6256 177.164 82.9431 177.164 83.2628C177.164 86.0144 174.926 88.2531 172.174 88.2531C169.422 88.2531 167.184 86.0144 167.184 83.2628C167.184 80.5111 169.422 78.2725 172.174 78.2725C172.493 78.2725 172.811 78.3028 173.122 78.3627L180.733 73.4481C181.093 73.2159 181.565 73.2663 181.868 73.5689ZM178.174 77.2628L173.783 80.0981C173.564 80.2398 173.294 80.2803 173.043 80.2089C172.761 80.1293 172.469 80.0888 172.174 80.0888C170.424 80.0888 169 81.5126 169 83.2627C169 85.0127 170.424 86.4365 172.174 86.4365C173.924 86.4365 175.348 85.0127 175.348 83.2627C175.348 82.967 175.307 82.6748 175.228 82.3943C175.156 82.1429 175.197 81.873 175.338 81.6536L178.174 77.2628ZM148.536 96.9112C146.146 92.78 144.882 88.0605 144.882 83.2628C144.882 75.9728 147.721 69.1193 152.876 63.9646C158.03 58.8099 164.884 55.9711 172.174 55.9711C179.464 55.9711 186.317 58.8099 191.472 63.9646C196.627 69.1193 199.466 75.973 199.466 83.2628C199.466 88.0608 198.202 92.7804 195.812 96.9113C195.561 97.3451 195.006 97.4936 194.572 97.243L185.082 91.7642C184.874 91.6437 184.721 91.4451 184.659 91.2122C184.597 90.9794 184.63 90.7314 184.75 90.5227C186.021 88.326 186.693 85.8156 186.693 83.2627C186.693 75.2566 180.18 68.7432 172.174 68.7432C164.168 68.7432 157.655 75.2566 157.655 83.2627C157.655 85.8156 158.327 88.326 159.598 90.5227C159.718 90.7314 159.751 90.9794 159.689 91.2122C159.627 91.4451 159.474 91.6436 159.266 91.7642L149.776 97.243C149.633 97.3255 149.477 97.3648 149.323 97.3648C149.009 97.3648 148.704 97.2021 148.536 96.9112ZM197.631 84.171H188.484C188.358 86.4238 187.769 88.6277 186.756 90.6328L194.68 95.208C196.484 91.8135 197.494 88.0317 197.631 84.171ZM185.686 61.6758L181.113 69.5965C182.994 70.8311 184.606 72.4428 185.84 74.3239L193.761 69.7508C191.712 66.49 188.947 63.7241 185.686 61.6758ZM160.233 60.7648L164.806 68.6853C166.766 67.6906 168.952 67.0798 171.266 66.9524V57.8051C167.291 57.9454 163.546 58.9997 160.233 60.7648ZM146.716 82.3546H155.864C155.991 80.0415 156.602 77.8552 157.597 75.8952L149.676 71.3222C147.911 74.6346 146.857 78.3801 146.716 82.3546ZM202.409 47.9976V100.54C202.409 102.914 200.478 104.845 198.104 104.845H145.903C143.529 104.845 141.598 102.914 141.598 100.54V47.9976C141.598 45.624 143.529 43.6929 145.903 43.6929H198.104C200.478 43.6929 202.409 45.624 202.409 47.9976ZM195.147 48.0085H174.179C173.677 48.0085 173.271 48.4152 173.271 48.9167C173.271 49.4183 173.677 49.8249 174.179 49.8249H195.147C195.649 49.8249 196.055 49.4183 196.055 48.9167C196.055 48.4152 195.649 48.0085 195.147 48.0085ZM162.808 48.0085H160.953C160.452 48.0085 160.045 48.4152 160.045 48.9167C160.045 49.4183 160.452 49.8249 160.953 49.8249H162.808C163.309 49.8249 163.716 49.4183 163.716 48.9167C163.716 48.4152 163.309 48.0085 162.808 48.0085ZM156.573 48.0085H154.719C154.217 48.0085 153.811 48.4152 153.811 48.9167C153.811 49.4183 154.217 49.8249 154.719 49.8249H156.573C157.075 49.8249 157.481 49.4183 157.481 48.9167C157.481 48.4152 157.075 48.0085 156.573 48.0085ZM147.576 48.9167C147.576 49.4183 147.983 49.8249 148.485 49.8249H150.339C150.841 49.8249 151.247 49.4183 151.247 48.9167C151.247 48.4152 150.841 48.0085 150.339 48.0085H148.485C147.983 48.0085 147.576 48.4152 147.576 48.9167ZM200.593 54.1405H143.414V100.54C143.414 101.912 144.53 103.029 145.903 103.029H198.104C199.476 103.029 200.593 101.912 200.593 100.54V54.1405Z" fill="black"/>
</g>
<defs>
<clipPath id="clip0_40000018_9077">
<rect width="62" height="62" fill="white" transform="translate(141.004 43.269)"/>
</clipPath>
</defs>
</svg>
