<svg width="344" height="142" viewBox="0 0 344 142" fill="none" xmlns="http://www.w3.org/2000/svg">
<path d="M0 18C0 8.05887 8.05887 0 18 0H326.005C335.946 0 344.005 8.05888 344.005 18V141.747H0V18Z" fill="white"/>
<mask id="mask0_40000018_9053" style="mask-type:alpha" maskUnits="userSpaceOnUse" x="0" y="0" width="345" height="142">
<path d="M0 18C0 8.05887 8.05887 0 18 0H326.005C335.946 0 344.005 8.05888 344.005 18V141.747H0V18Z" fill="white"/>
</mask>
<g mask="url(#mask0_40000018_9053)">
<g opacity="0.06">
<path d="M300.563 70.1864C299.526 70.1864 298.834 70.878 298.834 71.9153V73.1255C298.834 74.1629 299.526 74.8544 300.563 74.8544C301.6 74.8544 302.292 74.1629 302.292 73.1255V71.9153C302.292 70.878 301.6 70.1864 300.563 70.1864Z" fill="black"/>
<path d="M300.563 78.8309C299.526 78.8309 298.834 79.5225 298.834 80.5598V81.7701C298.834 82.8074 299.526 83.499 300.563 83.499C301.6 83.499 302.292 82.8074 302.292 81.7701V80.5598C302.292 79.6954 301.6 78.8309 300.563 78.8309Z" fill="black"/>
<path d="M380.265 -10.5534H364.013C360.729 -15.5673 355.196 -18.8522 348.799 -18.8522H337.561C331.164 -18.8522 325.632 -15.5673 322.347 -10.5534H306.095V10.885C296.586 7.60007 283.792 13.6512 284.657 27.3096C283.619 28.0012 282.409 29.3843 282.582 32.4963C282.755 35.4354 283.792 38.2017 286.559 38.8933C286.904 42.3511 288.287 45.636 290.881 48.2293V56.3552L278.951 59.1214C273.419 60.8503 269.615 66.3828 269.615 72.6069V90.0688C269.615 90.9333 270.307 91.7977 271.344 91.7977H330.127C330.991 91.7977 331.856 90.9333 331.856 90.0688V72.434C331.856 68.6304 330.473 64.9997 327.879 62.4064H380.265V-10.5534ZM290.016 36.9915C290.016 35.9541 288.979 35.0897 287.942 35.2626C287.942 35.2626 287.423 35.2626 287.077 35.0897C286.04 34.2252 285.521 30.0758 286.731 29.903C287.596 29.7301 288.287 29.0385 288.287 27.8283C285.867 8.63741 315.604 7.94585 313.011 27.8283C312.838 28.6927 313.529 29.7301 314.567 29.7301C315.777 29.9029 315.258 34.0523 314.221 34.9168C313.875 35.2626 313.529 35.0897 313.529 35.0897C312.492 34.7439 311.282 35.6083 311.282 36.8186C311.282 45.8089 302.464 51.3414 295.376 47.0191C292.264 45.2902 290.016 41.6595 290.016 36.9915ZM307.651 50.1311V57.0468C304.366 61.369 298.488 62.2335 294.511 57.0468V50.6498C298.834 52.8974 303.848 52.5516 307.651 50.1311ZM328.398 72.434V88.3399H320.272V71.9153C320.272 71.0509 319.408 70.1864 318.543 70.1864C317.679 70.1864 316.814 71.0509 316.814 71.9153V88.3399H286.04V71.9153C286.04 71.0509 285.348 70.1864 284.311 70.1864C283.446 70.1864 282.582 71.0509 282.582 71.9153V88.3399H273.073V72.434C273.073 67.766 276.012 63.6166 279.989 62.4064L292.091 59.6401C297.623 66.0371 305.404 65.1726 310.072 59.6401L321.655 62.4064C325.632 63.6166 328.398 67.766 328.398 72.434ZM376.807 58.9485H322.52L311.109 56.1823V47.0191C313.184 44.5986 314.394 41.8324 314.567 38.5475C317.333 37.8559 318.37 35.0897 318.543 32.1505C318.716 29.0385 317.506 27.6554 316.469 26.9638C316.814 22.4687 315.95 16.0717 309.553 12.0952V-7.09562H320.618C319.753 -5.02093 319.408 -2.77336 319.408 -0.52578V1.20312H367.125V-0.52578C367.125 -2.77336 366.607 -5.02093 365.915 -7.09562H376.807V58.9485Z" fill="black"/>
<path d="M360.038 35.2625C360.038 44.0799 351.048 49.7853 344.651 53.7618C344.132 54.1076 343.786 54.4534 343.267 54.4534C342.749 54.4534 342.403 54.1076 341.884 53.9347C335.315 49.7853 326.324 44.2528 326.324 35.4354C326.324 30.2487 330.474 26.0993 335.66 26.0993C338.599 26.0993 341.366 27.4825 343.095 29.9029C344.823 27.6553 347.59 26.0993 350.529 26.0993C355.888 25.9264 360.038 30.0758 360.038 35.2625Z" fill="black"/>
<path d="M360.037 8.98315H326.151C325.113 8.98315 324.422 9.67472 324.422 10.7121C324.422 11.7494 325.113 12.441 326.151 12.441H360.037C361.075 12.441 361.766 11.7494 361.766 10.7121C361.766 9.67472 361.075 8.98315 360.037 8.98315Z" fill="black"/>
<path d="M360.037 17.8007H326.151C325.113 17.8007 324.422 18.4922 324.422 19.5296C324.422 20.5669 325.113 21.2585 326.151 21.2585H360.037C361.075 21.2585 361.766 20.5669 361.766 19.5296C361.766 18.4922 361.075 17.8007 360.037 17.8007Z" fill="black"/>
</g>
</g>
<path d="M157.927 85.64C157.395 85.64 157.041 85.9943 157.041 86.5257V87.1457C157.041 87.6772 157.395 88.0314 157.927 88.0314C158.458 88.0314 158.812 87.6772 158.812 87.1457V86.5257C158.812 85.9943 158.458 85.64 157.927 85.64Z" fill="black"/>
<path d="M157.927 90.0686C157.395 90.0686 157.041 90.4229 157.041 90.9543V91.5743C157.041 92.1057 157.395 92.46 157.927 92.46C158.458 92.46 158.812 92.1057 158.812 91.5743V90.9543C158.812 90.5114 158.458 90.0686 157.927 90.0686Z" fill="black"/>
<path d="M198.759 44.2771H190.433C188.75 41.7086 185.916 40.0257 182.639 40.0257H176.882C173.605 40.0257 170.77 41.7086 169.088 44.2771H160.762V55.26C155.89 53.5771 149.336 56.6771 149.779 63.6743C149.248 64.0286 148.628 64.7371 148.716 66.3314C148.805 67.8371 149.336 69.2543 150.753 69.6086C150.93 71.38 151.639 73.0628 152.968 74.3914V78.5543L146.856 79.9714C144.022 80.8571 142.073 83.6914 142.073 86.88V95.8257C142.073 96.2686 142.428 96.7114 142.959 96.7114H173.073C173.516 96.7114 173.959 96.2686 173.959 95.8257V86.7914C173.959 84.8428 173.25 82.9828 171.922 81.6543H198.759V44.2771ZM152.525 68.6343C152.525 68.1028 151.993 67.66 151.462 67.7486C151.462 67.7486 151.196 67.7486 151.019 67.66C150.488 67.2171 150.222 65.0914 150.842 65.0028C151.285 64.9143 151.639 64.56 151.639 63.94C150.399 54.1086 165.633 53.7543 164.305 63.94C164.216 64.3828 164.57 64.9143 165.102 64.9143C165.722 65.0028 165.456 67.1286 164.925 67.5714C164.748 67.7486 164.57 67.66 164.57 67.66C164.039 67.4828 163.419 67.9257 163.419 68.5457C163.419 73.1514 158.902 75.9857 155.27 73.7714C153.676 72.8857 152.525 71.0257 152.525 68.6343ZM161.559 75.3657V78.9086C159.876 81.1228 156.865 81.5657 154.828 78.9086V75.6314C157.042 76.7828 159.61 76.6057 161.559 75.3657ZM172.188 86.7914V94.94H168.025V86.5257C168.025 86.0828 167.582 85.64 167.139 85.64C166.696 85.64 166.253 86.0828 166.253 86.5257V94.94H150.488V86.5257C150.488 86.0828 150.133 85.64 149.602 85.64C149.159 85.64 148.716 86.0828 148.716 86.5257V94.94H143.845V86.7914C143.845 84.4 145.35 82.2743 147.388 81.6543L153.588 80.2371C156.422 83.5143 160.408 83.0714 162.799 80.2371L168.733 81.6543C170.77 82.2743 172.188 84.4 172.188 86.7914ZM196.988 79.8828H169.176L163.33 78.4657V73.7714C164.393 72.5314 165.013 71.1143 165.102 69.4314C166.519 69.0771 167.05 67.66 167.139 66.1543C167.228 64.56 166.608 63.8514 166.076 63.4971C166.253 61.1943 165.81 57.9171 162.533 55.88V46.0486H168.202C167.759 47.1114 167.582 48.2628 167.582 49.4143V50.3H192.028V49.4143C192.028 48.2628 191.762 47.1114 191.408 46.0486H196.988V79.8828Z" fill="black"/>
<path d="M188.396 67.7486C188.396 72.2657 183.791 75.1886 180.514 77.2257C180.248 77.4029 180.071 77.58 179.805 77.58C179.539 77.58 179.362 77.4029 179.096 77.3143C175.731 75.1886 171.125 72.3543 171.125 67.8372C171.125 65.18 173.251 63.0543 175.908 63.0543C177.414 63.0543 178.831 63.7629 179.716 65.0029C180.602 63.8515 182.019 63.0543 183.525 63.0543C186.271 62.9657 188.396 65.0914 188.396 67.7486Z" fill="black"/>
<path d="M188.395 54.2857H171.035C170.504 54.2857 170.149 54.64 170.149 55.1714C170.149 55.7028 170.504 56.0571 171.035 56.0571H188.395C188.927 56.0571 189.281 55.7028 189.281 55.1714C189.281 54.64 188.927 54.2857 188.395 54.2857Z" fill="black"/>
<path d="M188.395 58.8029H171.035C170.504 58.8029 170.149 59.1572 170.149 59.6886C170.149 60.22 170.504 60.5743 171.035 60.5743H188.395C188.927 60.5743 189.281 60.22 189.281 59.6886C189.281 59.1572 188.927 58.8029 188.395 58.8029Z" fill="black"/>
</svg>
