<svg width="344" height="142" viewBox="0 0 344 142" fill="none" xmlns="http://www.w3.org/2000/svg">
<path d="M0 18C0 8.05887 8.05887 0 18 0H326.005C335.946 0 344.005 8.05888 344.005 18V141.747H0V18Z" fill="white"/>
<mask id="mask0_40000018_9029" style="mask-type:alpha" maskUnits="userSpaceOnUse" x="0" y="0" width="345" height="142">
<path d="M0 18C0 8.05887 8.05887 0 18 0H326.005C335.946 0 344.005 8.05888 344.005 18V141.747H0V18Z" fill="white"/>
</mask>
<g mask="url(#mask0_40000018_9029)">
<g opacity="0.06">
<path d="M276.11 31.0331H329.058C331.138 31.0331 332.84 29.3312 332.84 27.2511C332.84 25.171 331.138 23.4691 329.058 23.4691H276.11C274.03 23.4691 272.328 25.171 272.328 27.2511C272.328 29.3312 274.03 31.0331 276.11 31.0331Z" fill="black"/>
<path d="M291.237 15.9052H329.057C331.137 15.9052 332.839 14.2033 332.839 12.1232C332.839 10.0431 331.137 8.34119 329.057 8.34119H291.237C289.157 8.34119 287.455 10.0431 287.455 12.1232C287.455 14.2033 289.157 15.9052 291.237 15.9052Z" fill="black"/>
<path d="M276.11 15.9052H278.001C280.081 15.9052 281.783 14.2033 281.783 12.1232C281.783 10.0431 280.081 8.34119 278.001 8.34119H276.11C274.03 8.34119 272.328 10.0431 272.328 12.1232C272.328 14.2033 274.03 15.9052 276.11 15.9052Z" fill="black"/>
<path d="M276.11 46.1612H278.001C280.081 46.1612 281.783 44.4593 281.783 42.3792C281.783 40.2991 280.081 38.5972 278.001 38.5972H276.11C274.03 38.5972 272.328 40.2991 272.328 42.3792C272.328 44.4593 274.03 46.1612 276.11 46.1612Z" fill="black"/>
<path d="M313.93 68.853H276.11C274.03 68.853 272.328 70.5549 272.328 72.635C272.328 74.7151 274.03 76.417 276.11 76.417H313.93C316.01 76.417 317.712 74.7151 317.712 72.635C317.712 70.5549 316.01 68.853 313.93 68.853Z" fill="black"/>
<path d="M346.075 27.2511V4.55916C346.075 -1.68113 340.969 -6.78682 334.729 -6.78682H321.492V-14.3508H323.383C325.463 -14.3508 327.165 -16.0527 327.165 -18.1328C327.165 -20.2129 325.463 -21.9148 323.383 -21.9148H281.782C279.702 -21.9148 278 -20.2129 278 -18.1328C278 -16.0527 279.702 -14.3508 281.782 -14.3508H283.673V-6.78682H270.436C264.195 -6.78682 259.09 -1.68113 259.09 4.55916V80.199C259.09 86.4393 264.195 91.545 270.436 91.545H334.729C340.969 91.545 346.075 86.4393 346.075 80.199C360.673 80.199 372.549 68.3236 372.549 53.7251C372.549 39.1266 360.673 27.2511 346.075 27.2511ZM291.237 -14.3508H313.928V-6.78682H291.237V-14.3508ZM338.511 80.199C338.511 82.2791 336.809 83.981 334.729 83.981H270.436C268.356 83.981 266.654 82.2791 266.654 80.199V4.55916C266.654 2.47907 268.356 0.77717 270.436 0.77717H334.729C336.809 0.77717 338.511 2.47907 338.511 4.55916V28.3479C332.725 30.0876 327.77 33.7562 324.367 38.5971H291.237C289.156 38.5971 287.455 40.299 287.455 42.3791C287.455 44.4592 289.156 46.1611 291.237 46.1611H320.698C319.979 48.5438 319.601 51.0777 319.601 53.7251H276.109C274.029 53.7251 272.327 55.427 272.327 57.5071C272.327 59.5872 274.029 61.2891 276.109 61.2891H320.698C323.232 69.7986 329.964 76.5305 338.511 79.1023V80.199ZM346.075 72.6351C335.637 72.6351 327.165 64.1634 327.165 53.7251C327.165 43.2868 335.637 34.8151 346.075 34.8151C356.513 34.8151 364.985 43.2868 364.985 53.7251C364.985 64.1634 356.513 72.6351 346.075 72.6351Z" fill="black"/>
<path d="M352.846 45.2913L344.034 54.1033L339.269 49.338C337.794 47.863 335.411 47.863 333.936 49.338C332.461 50.813 332.461 53.1956 333.936 54.6706L341.349 62.0833C342.105 62.8397 343.051 63.1801 344.034 63.1801C345.017 63.1801 345.963 62.8019 346.719 62.0833L358.216 50.5861C359.691 49.1111 359.691 46.7284 358.216 45.2535C356.742 43.7785 354.359 43.7785 352.884 45.2535L352.846 45.2913Z" fill="black"/>
</g>
</g>
<path d="M151.245 68.3315H178.37C179.436 68.3315 180.308 67.4596 180.308 66.394C180.308 65.3284 179.436 64.4565 178.37 64.4565H151.245C150.179 64.4565 149.308 65.3284 149.308 66.394C149.308 67.4596 150.179 68.3315 151.245 68.3315Z" fill="black"/>
<path d="M158.993 60.5816H178.368C179.434 60.5816 180.306 59.7097 180.306 58.6441C180.306 57.5785 179.434 56.7066 178.368 56.7066H158.993C157.928 56.7066 157.056 57.5785 157.056 58.6441C157.056 59.7097 157.928 60.5816 158.993 60.5816Z" fill="black"/>
<path d="M151.245 60.5816H152.214C153.279 60.5816 154.151 59.7097 154.151 58.6441C154.151 57.5785 153.279 56.7066 152.214 56.7066H151.245C150.179 56.7066 149.308 57.5785 149.308 58.6441C149.308 59.7097 150.179 60.5816 151.245 60.5816Z" fill="black"/>
<path d="M151.245 76.0815H152.214C153.279 76.0815 154.151 75.2097 154.151 74.144C154.151 73.0784 153.279 72.2065 152.214 72.2065H151.245C150.179 72.2065 149.308 73.0784 149.308 74.144C149.308 75.2097 150.179 76.0815 151.245 76.0815Z" fill="black"/>
<path d="M170.62 87.7065H151.245C150.179 87.7065 149.308 88.5784 149.308 89.644C149.308 90.7097 150.179 91.5815 151.245 91.5815H170.62C171.686 91.5815 172.558 90.7097 172.558 89.644C172.558 88.5784 171.686 87.7065 170.62 87.7065Z" fill="black"/>
<path d="M187.087 66.394V54.769C187.087 51.5722 184.471 48.9565 181.274 48.9565H174.493V45.0815H175.462C176.528 45.0815 177.399 44.2097 177.399 43.144C177.399 42.0784 176.528 41.2065 175.462 41.2065H154.149C153.084 41.2065 152.212 42.0784 152.212 43.144C152.212 44.2097 153.084 45.0815 154.149 45.0815H155.118V48.9565H148.337C145.14 48.9565 142.524 51.5722 142.524 54.769V93.519C142.524 96.7159 145.14 99.3315 148.337 99.3315H181.274C184.471 99.3315 187.087 96.7159 187.087 93.519C194.566 93.519 200.649 87.4353 200.649 79.9565C200.649 72.4778 194.566 66.394 187.087 66.394ZM158.993 45.0815H170.618V48.9565H158.993V45.0815ZM183.212 93.519C183.212 94.5847 182.34 95.4565 181.274 95.4565H148.337C147.271 95.4565 146.399 94.5847 146.399 93.519V54.769C146.399 53.7034 147.271 52.8315 148.337 52.8315H181.274C182.34 52.8315 183.212 53.7034 183.212 54.769V66.9559C180.248 67.8472 177.709 69.7265 175.966 72.2065H158.993C157.928 72.2065 157.056 73.0784 157.056 74.144C157.056 75.2097 157.928 76.0815 158.993 76.0815H174.086C173.718 77.3022 173.524 78.6003 173.524 79.9565H151.243C150.178 79.9565 149.306 80.8284 149.306 81.894C149.306 82.9597 150.178 83.8315 151.243 83.8315H174.086C175.384 88.1909 178.833 91.6397 183.212 92.9572V93.519ZM187.087 89.644C181.739 89.644 177.399 85.304 177.399 79.9565C177.399 74.609 181.739 70.269 187.087 70.269C192.434 70.269 196.774 74.609 196.774 79.9565C196.774 85.304 192.434 89.644 187.087 89.644Z" fill="black"/>
<path d="M190.556 75.636L186.042 80.1503L183.6 77.7091C182.845 76.9535 181.624 76.9535 180.868 77.7091C180.113 78.4647 180.113 79.6853 180.868 80.441L184.666 84.2385C185.053 84.626 185.538 84.8003 186.042 84.8003C186.545 84.8003 187.03 84.6066 187.417 84.2385L193.307 78.3485C194.063 77.5928 194.063 76.3722 193.307 75.6166C192.552 74.861 191.331 74.861 190.575 75.6166L190.556 75.636Z" fill="black"/>
</svg>
