<svg width="344" height="142" viewBox="0 0 344 142" fill="none" xmlns="http://www.w3.org/2000/svg">
<path d="M0 18C0 8.05887 8.05887 0 18 0H326.005C335.946 0 344.005 8.05888 344.005 18V141.747H0V18Z" fill="white"/>
<mask id="mask0_40000018_8995" style="mask-type:alpha" maskUnits="userSpaceOnUse" x="0" y="0" width="345" height="142">
<path d="M0 18C0 8.05887 8.05887 0 18 0H326.005C335.946 0 344.005 8.05888 344.005 18V141.747H0V18Z" fill="white"/>
</mask>
<g mask="url(#mask0_40000018_8995)">
<g opacity="0.03">
<path d="M358.996 7.53956V38.1144C358.355 38.3493 357.779 38.7336 357.309 39.2674C355.964 40.8687 353.85 43.0038 350.967 45.0322V13.6033C350.967 9.54656 347.679 6.25849 343.623 6.25849H325.303C324.791 3.24798 323.51 0.49368 321.631 -1.76954H349.686C354.832 -1.76954 358.996 2.41528 358.996 7.53956ZM337.281 50.6262C335.424 50.9251 334.036 52.4624 333.887 54.3626C333.758 56.1348 333.652 58.8464 333.844 62.1131H328.954V47.9573C328.954 44.6906 331.602 42.043 334.869 42.043H340.612V49.9002C339.545 50.1778 338.434 50.434 337.281 50.6262ZM287.96 62.1131V47.9573C287.96 43.2814 284.16 39.4595 279.463 39.4595H273.719V37.1109C273.719 31.1326 278.587 26.2645 284.565 26.2645H329.744C335.723 26.2645 340.591 31.1326 340.591 37.1109V39.4595H334.847C330.171 39.4595 326.35 43.26 326.35 47.9573V62.1131H287.96ZM273.719 62.1131V42.043H279.463C282.729 42.043 285.377 44.6906 285.377 47.9573V62.1131H273.719ZM265.947 62.1131V13.6033C265.947 10.9771 268.082 8.84198 270.709 8.84198H291.334C291.334 8.94873 291.312 9.05549 291.312 9.16225C291.312 15.3114 294.579 20.6919 299.447 23.7237H284.565C277.157 23.7237 271.136 29.7448 271.136 37.1536V62.1344H265.947V62.1131ZM343.196 37.1322C343.196 29.7234 337.175 23.7024 329.766 23.7024H317.425C322.314 20.6705 325.581 15.29 325.581 9.1409C325.581 9.03414 325.56 8.92738 325.56 8.82063H343.644C346.27 8.82063 348.405 10.9557 348.405 13.5819V46.6549C346.847 47.5516 345.117 48.3843 343.196 49.0675V37.1322ZM322.997 9.1409C322.997 17.1689 316.464 23.7024 308.436 23.7024C300.408 23.7024 293.896 17.1689 293.896 9.1409C293.896 1.11286 300.429 -5.39924 308.436 -5.39924C316.464 -5.39924 322.997 1.11286 322.997 9.1409ZM255.357 7.53956C255.357 2.41528 259.542 -1.76954 264.666 -1.76954H295.241C293.362 0.49368 292.081 3.24798 291.569 6.25849H270.73C266.673 6.25849 263.385 9.54656 263.385 13.6033V62.1131H255.357V7.53956ZM332.349 94.4174V95.3141C332.349 96.9155 331.047 98.2392 329.424 98.2392H284.928C283.327 98.2392 282.003 96.9368 282.003 95.3141V94.4174C282.003 92.816 283.306 91.4923 284.928 91.4923H294.408H294.43H294.451H319.923H319.944H319.966H329.446C331.047 91.5136 332.349 92.816 332.349 94.4174ZM318.151 88.9301H296.223C297.12 86.1545 297.824 83.2507 298.294 80.2616H316.058C316.549 83.3148 317.233 86.1758 318.151 88.9301ZM360.426 97.8763C335.894 87.6491 335.872 62.1558 336.449 54.5548C336.513 53.8502 337.004 53.2737 337.687 53.167C339.331 52.8894 340.89 52.5264 342.342 52.0781C342.363 52.0781 342.406 52.0567 342.427 52.0567C351.053 49.4092 356.561 44.1568 359.273 40.9328C359.551 40.5911 359.978 40.399 360.426 40.399C360.874 40.399 361.28 40.5911 361.579 40.9328C364.76 44.7119 371.806 51.3094 383.186 53.167C383.87 53.2737 384.361 53.8502 384.425 54.5548C385.001 62.1558 384.98 87.6704 360.426 97.8763ZM386.987 54.3626C386.837 52.4624 385.45 50.9251 383.592 50.6262C373.023 48.8967 366.49 42.769 363.522 39.2674C363.01 38.6482 362.326 38.2212 361.558 38.0076V7.53956C361.558 0.984756 356.22 -4.33168 349.686 -4.33168H318.962C316.058 -6.61625 312.407 -7.98273 308.436 -7.98273C304.465 -7.98273 300.835 -6.61625 297.91 -4.33168H264.666C258.111 -4.33168 252.795 1.00611 252.795 7.53956V68.369C252.795 74.9238 258.133 80.2402 264.666 80.2402H295.689C295.177 83.2507 294.451 86.1545 293.49 88.9301H284.928C281.897 88.9301 279.42 91.3855 279.42 94.4387V95.3355C279.42 98.3673 281.875 100.844 284.928 100.844H329.424C332.456 100.844 334.933 98.3673 334.933 95.3355V94.4387C334.933 91.4069 332.456 88.9301 329.424 88.9301H320.862C319.902 86.1972 319.176 83.3361 318.663 80.2402H338.264C341.957 88.1401 348.469 95.8266 359.956 100.46C360.106 100.524 360.277 100.545 360.447 100.545C360.618 100.545 360.768 100.524 360.938 100.46C387.563 89.7201 387.606 62.4547 386.987 54.3626ZM304.828 76.9521C302.33 76.9521 300.301 74.9238 300.301 72.4257C300.301 69.9276 302.33 67.8993 304.828 67.8993C307.326 67.8993 309.354 69.9276 309.354 72.4257C309.354 74.9238 307.326 76.9521 304.828 76.9521Z" fill="black"/>
<path d="M375.627 57.4586C371.101 55.9426 366.873 53.6581 363.073 50.6476C361.514 49.4305 359.358 49.4305 357.799 50.6476C353.999 53.6367 349.771 55.9426 345.266 57.4586C343.451 58.0564 342.277 59.8072 342.384 61.7288C342.917 70.6963 346.12 82.9305 358.333 90.1472C358.995 90.5315 359.721 90.7237 360.447 90.7237C361.173 90.7237 361.899 90.5315 362.561 90.1472C374.795 82.9305 377.997 70.7176 378.51 61.7288C378.617 59.8286 377.421 58.0564 375.627 57.4586ZM365.955 77.4219C366.041 78.1478 365.827 78.8738 365.336 79.4076C364.866 79.9627 364.162 80.2616 363.436 80.2616H357.415C356.689 80.2616 355.984 79.9627 355.515 79.4076C355.045 78.8524 354.81 78.1478 354.917 77.4006L355.835 70.0344C354.917 68.9455 354.426 67.6004 354.426 66.1912C354.426 64.4191 355.194 62.7537 356.539 61.6007C357.885 60.4477 359.657 59.978 361.429 60.2556C363.82 60.6399 365.827 62.5615 366.318 64.9528C366.681 66.7463 366.233 68.5825 365.08 69.9704L365.037 69.9917L365.955 77.4219Z" fill="black"/>
</g>
</g>
<g clip-path="url(#clip0_40000018_8995)">
<path d="M190.487 55.1689V70.6031C190.198 70.7216 189.938 70.9157 189.727 71.1851C189.12 71.9935 188.167 73.0713 186.868 74.0952V58.2299C186.868 56.182 185.386 54.5222 183.558 54.5222H175.3C175.069 53.0025 174.492 51.6121 173.645 50.4697H186.291C188.61 50.4697 190.487 52.5822 190.487 55.1689ZM180.699 76.919C179.862 77.0699 179.236 77.846 179.169 78.8052C179.111 79.6998 179.063 81.0686 179.15 82.7176H176.946V75.5718C176.946 73.9227 178.139 72.5863 179.612 72.5863H182.201V76.5526C181.719 76.6927 181.219 76.822 180.699 76.919ZM158.468 82.7176V75.5718C158.468 73.2114 156.755 71.2821 154.638 71.2821H152.049V70.0965C152.049 67.0787 154.243 64.6213 156.938 64.6213H177.302C179.997 64.6213 182.191 67.0787 182.191 70.0965V71.2821H179.602C177.494 71.2821 175.772 73.2006 175.772 75.5718V82.7176H158.468ZM152.049 82.7176V72.5863H154.638C156.11 72.5863 157.303 73.9227 157.303 75.5718V82.7176H152.049ZM148.546 82.7176V58.2299C148.546 56.9042 149.508 55.8264 150.692 55.8264H159.988C159.988 55.8803 159.979 55.9341 159.979 55.988C159.979 59.0921 161.451 61.8082 163.646 63.3387H156.938C153.598 63.3387 150.884 66.3781 150.884 70.1181V82.7284H148.546V82.7176ZM183.365 70.1073C183.365 66.3673 180.651 63.3279 177.312 63.3279H171.749C173.953 61.7974 175.425 59.0813 175.425 55.9773C175.425 55.9234 175.416 55.8695 175.416 55.8156H183.567C184.751 55.8156 185.713 56.8934 185.713 58.2191V74.9143C185.011 75.367 184.231 75.7873 183.365 76.1322V70.1073ZM174.261 55.9773C174.261 60.0298 171.316 63.3279 167.697 63.3279C164.079 63.3279 161.143 60.0298 161.143 55.9773C161.143 51.9247 164.088 48.6374 167.697 48.6374C171.316 48.6374 174.261 51.9247 174.261 55.9773ZM143.772 55.1689C143.772 52.5822 145.658 50.4697 147.968 50.4697H161.75C160.903 51.6121 160.325 53.0025 160.094 54.5222H150.701C148.873 54.5222 147.391 56.182 147.391 58.2299V82.7176H143.772V55.1689ZM178.476 99.0248V99.4775C178.476 100.286 177.889 100.954 177.158 100.954H157.101C156.379 100.954 155.783 100.297 155.783 99.4775V99.0248C155.783 98.2165 156.37 97.5482 157.101 97.5482H161.374H161.384H161.394H172.875H172.885H172.894H177.167C177.889 97.559 178.476 98.2165 178.476 99.0248ZM172.076 96.2549H162.192C162.597 94.8537 162.914 93.3879 163.126 91.879H171.133C171.354 93.4202 171.662 94.8645 172.076 96.2549ZM191.132 100.771C180.074 95.6082 180.064 82.7392 180.324 78.9022C180.353 78.5465 180.574 78.2555 180.882 78.2016C181.623 78.0615 182.326 77.8783 182.98 77.6519C182.99 77.6519 183.009 77.6412 183.019 77.6412C186.907 76.3047 189.39 73.6533 190.612 72.0258C190.737 71.8533 190.929 71.7563 191.132 71.7563C191.334 71.7563 191.517 71.8533 191.651 72.0258C193.085 73.9335 196.261 77.2639 201.391 78.2016C201.699 78.2555 201.92 78.5465 201.949 78.9022C202.209 82.7392 202.199 95.619 191.132 100.771ZM203.104 78.8052C203.036 77.846 202.411 77.0699 201.574 76.919C196.81 76.046 193.865 72.9527 192.527 71.1851C192.296 70.8725 191.988 70.657 191.642 70.5492V55.1689C191.642 51.86 189.236 49.1763 186.291 49.1763H172.442C171.133 48.023 169.487 47.3333 167.697 47.3333C165.907 47.3333 164.271 48.023 162.953 49.1763H147.968C145.014 49.1763 142.617 51.8708 142.617 55.1689V85.8756C142.617 89.1845 145.023 91.8682 147.968 91.8682H161.952C161.721 93.3879 161.394 94.8537 160.96 96.2549H157.101C155.735 96.2549 154.618 97.4944 154.618 99.0356V99.4883C154.618 101.019 155.725 102.269 157.101 102.269H177.158C178.524 102.269 179.641 101.019 179.641 99.4883V99.0356C179.641 97.5051 178.524 96.2549 177.158 96.2549H173.298C172.865 94.8753 172.538 93.431 172.307 91.8682H181.142C182.807 95.8561 185.742 99.7362 190.92 102.075C190.987 102.107 191.064 102.118 191.141 102.118C191.218 102.118 191.286 102.107 191.363 102.075C203.364 96.6537 203.383 82.8901 203.104 78.8052ZM166.071 90.2084C164.945 90.2084 164.031 89.1845 164.031 87.9234C164.031 86.6624 164.945 85.6385 166.071 85.6385C167.197 85.6385 168.111 86.6624 168.111 87.9234C168.111 89.1845 167.197 90.2084 166.071 90.2084Z" fill="black"/>
<path d="M197.984 80.368C195.943 79.6027 194.038 78.4495 192.325 76.9298C191.622 76.3154 190.65 76.3154 189.948 76.9298C188.235 78.4387 186.329 79.6027 184.298 80.368C183.48 80.6697 182.951 81.5535 182.999 82.5236C183.24 87.0504 184.683 93.2262 190.188 96.8692C190.487 97.0632 190.814 97.1602 191.141 97.1602C191.468 97.1602 191.795 97.0632 192.094 96.8692C197.608 93.2262 199.052 87.0611 199.283 82.5236C199.331 81.5643 198.792 80.6697 197.984 80.368ZM193.624 90.4454C193.662 90.8119 193.566 91.1784 193.345 91.4478C193.133 91.728 192.816 91.8789 192.488 91.8789H189.774C189.447 91.8789 189.13 91.728 188.918 91.4478C188.706 91.1676 188.6 90.8119 188.648 90.4347L189.062 86.7162C188.648 86.1666 188.427 85.4875 188.427 84.7762C188.427 83.8816 188.774 83.0409 189.38 82.4589C189.986 81.8769 190.785 81.6398 191.584 81.7799C192.662 81.9739 193.566 82.9439 193.788 84.1511C193.951 85.0564 193.749 85.9833 193.229 86.6839L193.21 86.6947L193.624 90.4454Z" fill="black"/>
</g>
<defs>
<clipPath id="clip0_40000018_8995">
<rect width="62" height="62" fill="white" transform="translate(141.172 40.269)"/>
</clipPath>
</defs>
</svg>
