<svg width="368" height="155" viewBox="0 0 368 155" fill="none" xmlns="http://www.w3.org/2000/svg">
<path d="M0 31.2269C0 21.2858 8.05888 13.2269 18 13.2269H325.074C335.015 13.2269 343.074 21.2858 343.074 31.2269V154.59H0V31.2269Z" fill="white"/>
<mask id="mask0_40000018_8486" style="mask-type:alpha" maskUnits="userSpaceOnUse" x="0" y="13" width="344" height="142">
<path d="M0.000152588 31.2269C0.000152588 21.2858 8.05903 13.2269 18.0002 13.2269H325.074C335.016 13.2269 343.074 21.2858 343.074 31.2269V154.59H0.000152588V31.2269Z" fill="white"/>
</mask>
<g mask="url(#mask0_40000018_8486)">
</g>
<g opacity="0.06">
<path d="M330.061 25.2139V27.0222C330.061 27.2248 329.931 27.3839 329.729 27.4418C328.904 27.6588 328.108 27.9626 327.356 28.3532C326.879 28.5991 326.3 28.4979 325.924 28.1217L325.07 27.2682L321.569 30.7692L322.423 31.6227C322.799 31.9989 322.9 32.5776 322.654 33.055C322.278 33.7783 321.974 34.5306 321.772 35.3408H325.302C326.025 35.3408 326.734 35.4276 327.428 35.5722C328.398 33.7205 330.307 32.4474 332.535 32.4474C335.732 32.4474 338.322 35.037 338.322 38.2342C338.322 40.4621 337.049 42.3717 335.197 43.341C335.342 44.021 335.429 44.7298 335.429 45.4677V49.1423C335.559 49.0265 335.689 48.9397 335.863 48.8819C336.514 48.6793 337.121 48.4189 337.714 48.1151C338.192 47.8692 338.771 47.9704 339.147 48.3466L340 49.2001L343.501 45.6991L342.648 44.8456C342.272 44.4694 342.17 43.8908 342.416 43.4133C342.735 42.8202 342.995 42.1836 343.197 41.5326C343.357 41.0408 343.82 40.708 344.34 40.708H345.57V35.7458H344.369C343.834 35.7458 343.357 35.4131 343.197 34.9068C342.995 34.2557 342.735 33.6481 342.431 33.055C342.185 32.5776 342.286 31.9989 342.662 31.6227L343.516 30.7692L340.015 27.2682L339.161 28.1217C338.785 28.4979 338.206 28.5991 337.729 28.3532C336.991 27.9626 336.21 27.6588 335.385 27.4418C335.183 27.3839 335.024 27.2103 335.024 26.9933V25.2139H330.061Z" fill="black"/>
<path d="M300.708 45.4676V59.9346C300.708 63.9275 303.949 67.1681 307.941 67.1681H325.302C329.295 67.1681 332.535 63.9275 332.535 59.9346V45.4676C332.535 41.4747 329.295 38.2341 325.302 38.2341H307.941C303.949 38.2341 300.708 41.4747 300.708 45.4676ZM319.949 56.3179H322.119V49.0844H319.949V46.191H327.183V49.0844H325.012V56.3179H327.183V59.2113H319.949V56.3179ZM310.111 46.191H313.005C313.685 46.191 314.263 46.6684 314.423 47.3194L317.07 59.2113H314.104L313.468 56.3179H309.677L309.041 59.2113H306.075L308.723 47.3194C308.867 46.6539 309.46 46.191 310.14 46.191H310.111Z" fill="black"/>
<path d="M311.847 49.0844H311.268L310.314 53.4244H312.802L311.847 49.0844Z" fill="black"/>
<path d="M316.622 96.1021C325.114 96.1021 333.389 93.7151 340.536 89.2014L338.988 86.7565C332.304 90.9808 324.564 93.2088 316.607 93.2088C293.474 93.2088 274.653 74.3872 274.653 51.2545C274.653 42.256 277.517 33.5758 282.798 26.4147L286.443 29.6553L287.746 18.4723L276.794 21.0763L280.613 24.4761C274.87 32.1725 271.745 41.5327 271.745 51.24C271.745 75.9641 291.869 96.0877 316.593 96.0877L316.622 96.1021Z" fill="black"/>
<path d="M316.622 6.40674C308.115 6.40674 299.855 8.79379 292.708 13.3075L294.256 15.7524C300.94 11.5281 308.68 9.30014 316.636 9.30014C339.769 9.30014 358.591 28.1217 358.591 51.2544C358.591 60.2529 355.726 68.9331 350.446 76.0942L346.8 72.8536L345.498 84.0366L356.45 81.4325L352.63 78.0328C358.374 70.3364 361.499 60.9762 361.499 51.2689C361.499 26.5448 341.375 6.42121 316.651 6.42121L316.622 6.40674Z" fill="black"/>
<path d="M292.433 69.7577C292.592 70.2641 292.795 70.7415 293.026 71.2044C293.214 71.5661 293.142 72.0146 292.853 72.3184L292.187 72.9839L294.922 75.7181L295.587 75.0527C295.876 74.7633 296.325 74.6765 296.701 74.8791C297.164 75.125 297.641 75.3275 298.148 75.4722C298.538 75.6024 298.799 75.9641 298.799 76.3836V77.324H302.661V76.3836C302.661 75.9641 302.922 75.6024 303.312 75.4722C303.819 75.3131 304.296 75.1105 304.759 74.8791C305.121 74.691 305.569 74.7633 305.873 75.0527L306.539 75.7181L309.273 72.9839L308.607 72.3184C308.318 72.0291 308.231 71.5806 308.434 71.2044C308.622 70.8428 308.767 70.4666 308.897 70.076H307.985C306.481 70.076 305.063 69.7433 303.775 69.1501C303.124 70.1339 302.01 70.7994 300.752 70.7994C298.755 70.7994 297.135 69.1791 297.135 67.1826C297.135 65.9095 297.786 64.7956 298.784 64.159C298.191 62.8715 297.858 61.4537 297.858 59.9491V59.0088C297.468 59.1534 297.092 59.2981 296.73 59.4862C296.368 59.6742 295.92 59.6019 295.616 59.3126L294.951 58.6471L292.216 61.3814L292.882 62.0468C293.171 62.3362 293.258 62.7847 293.055 63.1608C292.752 63.7395 292.52 64.3471 292.346 64.9836C292.303 65.1428 292.158 65.2585 291.999 65.2585H290.61V69.1212H291.551C291.97 69.1212 292.332 69.3816 292.462 69.7722L292.433 69.7577Z" fill="black"/>
</g>
<path d="M174.217 67.1165V68.3113C174.217 68.4451 174.131 68.5502 173.997 68.5885C173.452 68.7318 172.927 68.9326 172.429 69.1907C172.114 69.3532 171.732 69.2862 171.483 69.0377L170.919 68.4738L168.606 70.7869L169.17 71.3509C169.419 71.5994 169.485 71.9818 169.323 72.2972C169.074 72.7751 168.874 73.2722 168.74 73.8074H171.072C171.55 73.8074 172.018 73.8648 172.477 73.9604C173.118 72.7369 174.379 71.8957 175.851 71.8957C177.964 71.8957 179.675 73.6067 179.675 75.7191C179.675 77.1912 178.834 78.4529 177.61 79.0933C177.706 79.5426 177.763 80.0109 177.763 80.4984V82.9263C177.849 82.8498 177.935 82.7925 178.05 82.7542C178.48 82.6204 178.881 82.4484 179.273 82.2476C179.589 82.0851 179.971 82.152 180.22 82.4006L180.784 82.9645L183.097 80.6514L182.533 80.0874C182.284 79.8389 182.217 79.4565 182.38 79.1411C182.59 78.7492 182.762 78.3286 182.896 77.8985C183.001 77.5735 183.307 77.3537 183.651 77.3537H184.464V74.0751H183.67C183.317 74.0751 183.001 73.8552 182.896 73.5207C182.762 73.0905 182.59 72.6891 182.389 72.2972C182.227 71.9818 182.294 71.5994 182.542 71.3509L183.106 70.7869L180.793 68.4738L180.229 69.0377C179.981 69.2862 179.598 69.3532 179.283 69.1907C178.795 68.9326 178.279 68.7318 177.734 68.5885C177.601 68.5502 177.495 68.4355 177.495 68.2922V67.1165H174.217Z" fill="black"/>
<path d="M154.823 80.4984V90.0569C154.823 92.6951 156.964 94.8362 159.602 94.8362H171.072C173.711 94.8362 175.852 92.6951 175.852 90.0569V80.4984C175.852 77.8602 173.711 75.7191 171.072 75.7191H159.602C156.964 75.7191 154.823 77.8602 154.823 80.4984ZM167.536 87.6673H168.97V82.888H167.536V80.9763H172.315V82.888H170.881V87.6673H172.315V89.579H167.536V87.6673ZM161.036 80.9763H162.948C163.397 80.9763 163.779 81.2917 163.884 81.7219L165.634 89.579H163.674L163.254 87.6673H160.749L160.329 89.579H158.369L160.118 81.7219C160.214 81.2822 160.606 80.9763 161.055 80.9763H161.036Z" fill="black"/>
<path d="M162.183 82.8881H161.8L161.169 85.7556H162.814L162.183 82.8881Z" fill="black"/>
<path d="M165.337 113.953C170.948 113.953 176.415 112.376 181.137 109.394L180.115 107.779C175.699 110.57 170.585 112.042 165.327 112.042C150.043 112.042 137.608 99.606 137.608 84.3219C137.608 78.3765 139.5 72.6414 142.989 67.9099L145.398 70.051L146.258 62.6622L139.022 64.3828L141.546 66.629C137.751 71.7142 135.686 77.8986 135.686 84.3123C135.686 100.648 148.982 113.944 165.318 113.944L165.337 113.953Z" fill="black"/>
<path d="M165.337 54.6903C159.717 54.6903 154.259 56.2675 149.537 59.2497L150.559 60.8651C154.976 58.074 160.089 56.602 165.347 56.602C180.631 56.602 193.066 69.0377 193.066 84.3218C193.066 90.2672 191.174 96.0023 187.685 100.734L185.276 98.5927L184.416 105.981L191.652 104.261L189.128 102.015C192.923 96.9295 194.988 90.7451 194.988 84.3314C194.988 67.9958 181.692 54.6999 165.356 54.6999L165.337 54.6903Z" fill="black"/>
<path d="M149.355 96.5473C149.461 96.8818 149.594 97.1972 149.747 97.5031C149.872 97.7421 149.824 98.0384 149.633 98.2391L149.193 98.6788L150.999 100.485L151.439 100.046C151.63 99.8545 151.927 99.7972 152.175 99.931C152.481 100.093 152.796 100.227 153.131 100.323C153.389 100.409 153.561 100.648 153.561 100.925V101.546H156.113V100.925C156.113 100.648 156.285 100.409 156.543 100.323C156.878 100.218 157.193 100.084 157.499 99.931C157.738 99.8067 158.035 99.8545 158.235 100.046L158.675 100.485L160.482 98.6788L160.042 98.2391C159.851 98.048 159.793 97.7516 159.927 97.5031C160.051 97.2642 160.147 97.0156 160.233 96.7575H159.631C158.637 96.7575 157.7 96.5377 156.849 96.1458C156.419 96.7958 155.683 97.2355 154.852 97.2355C153.532 97.2355 152.462 96.1649 152.462 94.8458C152.462 94.0047 152.892 93.2687 153.552 92.8481C153.16 91.9974 152.94 91.0607 152.94 90.0666V89.4453C152.682 89.5408 152.433 89.6364 152.194 89.7607C151.955 89.885 151.659 89.8372 151.458 89.646L151.019 89.2063L149.212 91.0129L149.652 91.4526C149.843 91.6437 149.9 91.94 149.766 92.1886C149.566 92.5709 149.413 92.9724 149.298 93.3929C149.269 93.4981 149.174 93.5746 149.069 93.5746H148.151V96.1267H148.772C149.05 96.1267 149.288 96.2987 149.375 96.5568L149.355 96.5473Z" fill="black"/>
</svg>
