<svg width="344" height="142" viewBox="0 0 344 142" fill="none" xmlns="http://www.w3.org/2000/svg">
<path d="M0 18C0 8.05886 8.05888 0 18 0H325.074C335.015 0 343.074 8.05887 343.074 18V141.363H0V18Z" fill="white"/>
<mask id="mask0_40000018_8508" style="mask-type:alpha" maskUnits="userSpaceOnUse" x="0" y="0" width="344" height="142">
<path d="M0 18C0 8.05886 8.05888 0 18 0H325.074C335.015 0 343.074 8.05887 343.074 18V141.363H0V18Z" fill="white"/>
</mask>
<g mask="url(#mask0_40000018_8508)">
<g opacity="0.06">
<path d="M353.898 69.4423H350.154V21.4951C350.15 19.8834 349.507 18.3391 348.366 17.201C347.225 16.0629 345.679 15.424 344.067 15.4244H326.246C326.767 13.7792 327.062 12.071 327.125 10.3465C327.125 7.66415 326.596 5.00809 325.57 2.52995C324.543 0.0518007 323.039 -2.1999 321.142 -4.09659C319.246 -5.99328 316.994 -7.49782 314.516 -8.5243C312.038 -9.55078 309.381 -10.0791 306.699 -10.0791C304.017 -10.0791 301.361 -9.55078 298.883 -8.5243C296.404 -7.49782 294.153 -5.99328 292.256 -4.09659C290.359 -2.1999 288.855 0.0518007 287.828 2.52995C286.802 5.00809 286.274 7.66415 286.274 10.3465C286.336 12.071 286.632 13.7792 287.152 15.4244H269.331C267.719 15.424 266.173 16.0629 265.032 17.201C263.891 18.3391 263.248 19.8834 263.244 21.4951V69.4423H259.501C259.244 69.4425 258.991 69.5035 258.762 69.6203C258.533 69.7371 258.335 69.9064 258.184 70.1144C258.033 70.3223 257.934 70.563 257.894 70.8168C257.854 71.0705 257.875 71.3302 257.954 71.5744C259.182 75.3363 261.569 78.6129 264.773 80.9344C267.978 83.2559 271.835 84.5031 275.792 84.497H337.606C341.563 84.5031 345.42 83.2559 348.625 80.9344C351.829 78.6129 354.217 75.3363 355.444 71.5744C355.523 71.3302 355.544 71.0705 355.504 70.8168C355.464 70.563 355.365 70.3223 355.214 70.1144C355.063 69.9064 354.865 69.7371 354.637 69.6203C354.408 69.5035 354.155 69.4425 353.898 69.4423ZM306.699 -6.8403C311.254 -6.83298 315.619 -5.01936 318.838 -1.79734C322.057 1.42469 323.867 5.792 323.87 10.3465C323.87 16.6613 315.765 31.3091 309.726 41.1395C309.726 41.1557 309.71 41.172 309.71 41.1883C308.62 42.9623 307.594 44.5898 306.699 45.9732C305.804 44.5898 304.779 42.9623 303.704 41.1883C303.684 41.1697 303.668 41.1477 303.656 41.1232C297.634 31.3091 289.529 16.6613 289.529 10.3465C289.532 5.792 291.341 1.42469 294.56 -1.79734C297.779 -5.01936 302.145 -6.83298 306.699 -6.8403ZM321.249 48.9354C321.249 51.5882 315.032 54.5666 306.699 54.5666C298.366 54.5666 292.149 51.5882 292.149 48.9354C292.149 47.0474 295.616 44.6875 301.458 43.7598C303.574 47.1939 305.137 49.5213 305.348 49.8468C305.497 50.0683 305.698 50.2499 305.934 50.3754C306.169 50.5009 306.432 50.5665 306.699 50.5665C306.966 50.5665 307.229 50.5009 307.464 50.3754C307.7 50.2499 307.901 50.0683 308.05 49.8468C308.262 49.5213 309.824 47.1939 311.94 43.7598C317.783 44.6875 321.249 47.0474 321.249 48.9354ZM266.499 21.4951C266.5 21.1242 266.573 20.757 266.716 20.4146C266.859 20.0722 267.068 19.7613 267.331 19.4998C267.594 19.2383 267.906 19.0312 268.249 18.8904C268.592 18.7497 268.96 18.678 269.331 18.6795H288.259C288.715 19.9001 289.236 21.1533 289.805 22.4553H271.658C271.227 22.4553 270.813 22.6268 270.507 22.932C270.202 23.2373 270.031 23.6512 270.031 24.0829V63.1437C270.031 63.5754 270.202 63.9894 270.507 64.2946C270.813 64.5998 271.227 64.7713 271.658 64.7713H340.357C340.788 64.7713 341.202 64.5998 341.507 64.2946C341.813 63.9894 341.984 63.5754 341.984 63.1437V24.0829C341.984 23.6512 341.813 23.2373 341.507 22.932C341.202 22.6268 340.788 22.4553 340.357 22.4553H323.593C324.163 21.1533 324.683 19.9001 325.139 18.6795H344.067C344.438 18.678 344.806 18.7497 345.149 18.8904C345.492 19.0312 345.804 19.2383 346.067 19.4998C346.33 19.7613 346.539 20.0722 346.682 20.4146C346.825 20.757 346.899 21.1242 346.899 21.4951V69.4423H266.499V21.4951ZM337.606 81.242H275.792C272.915 81.2461 270.094 80.4489 267.645 78.9397C265.196 77.4305 263.215 75.269 261.926 72.6974H351.473C350.183 75.269 348.203 77.4305 345.753 78.9397C343.304 80.4489 340.483 81.2461 337.606 81.242Z" fill="black"/>
<path d="M272.522 77.5799C272.565 77.6807 272.613 77.7786 272.669 77.8729C272.735 77.9582 272.805 78.0397 272.88 78.117C273.03 78.2638 273.207 78.3799 273.401 78.4588C273.594 78.55 273.806 78.5946 274.02 78.589C274.129 78.5943 274.239 78.5833 274.345 78.5564C274.452 78.5365 274.556 78.5037 274.654 78.4588C274.753 78.4232 274.845 78.3739 274.929 78.3123C275.016 78.2527 275.098 78.1874 275.175 78.117C275.25 78.0439 275.316 77.9619 275.37 77.8729C275.43 77.7784 275.485 77.6806 275.533 77.5799C275.568 77.4847 275.595 77.3867 275.613 77.287C275.641 77.1809 275.653 77.0711 275.647 76.9614C275.65 76.7498 275.611 76.5398 275.533 76.343C275.445 76.1452 275.324 75.9636 275.175 75.8059C274.942 75.5867 274.652 75.4382 274.338 75.3776C274.024 75.3171 273.699 75.3471 273.401 75.4641C273.207 75.543 273.03 75.6591 272.88 75.8059C272.575 76.1141 272.4 76.5279 272.392 76.9614C272.395 77.0705 272.405 77.1793 272.423 77.287C272.442 77.3888 272.475 77.4875 272.522 77.5799Z" fill="black"/>
<path d="M279.667 78.117C279.975 78.4197 280.39 78.5892 280.822 78.589C280.926 78.5942 281.031 78.5832 281.132 78.5564C281.236 78.539 281.339 78.5117 281.439 78.475C281.537 78.4313 281.63 78.3767 281.716 78.3123C281.808 78.2609 281.891 78.1949 281.962 78.117C282.122 77.9689 282.245 77.7848 282.32 77.5799C282.402 77.384 282.447 77.1741 282.45 76.9614C282.447 76.8577 282.436 76.7543 282.417 76.6522C282.395 76.5463 282.362 76.4427 282.32 76.343C282.271 76.2453 282.222 76.1477 282.173 76.0663C282.116 75.9744 282.044 75.892 281.962 75.8222C281.892 75.7389 281.809 75.6675 281.716 75.6106C281.633 75.5454 281.539 75.4958 281.439 75.4641C281.343 75.4147 281.239 75.3817 281.132 75.3665C280.869 75.3129 280.597 75.3265 280.341 75.4062C280.085 75.4859 279.853 75.629 279.667 75.8222C279.584 75.892 279.513 75.9744 279.455 76.0663C279.405 76.1477 279.358 76.2453 279.309 76.343C279.271 76.4431 279.244 76.5467 279.227 76.6522C279.2 76.753 279.189 76.8573 279.195 76.9614C279.192 77.1731 279.23 77.3833 279.309 77.5799C279.389 77.782 279.511 77.965 279.667 78.117Z" fill="black"/>
<path d="M286.453 78.1169C286.533 78.1914 286.62 78.2568 286.714 78.3122C286.8 78.3759 286.893 78.4305 286.991 78.475C287.085 78.5094 287.183 78.5366 287.282 78.5564C287.388 78.5831 287.498 78.594 287.607 78.5889C288.038 78.583 288.45 78.4144 288.761 78.1169C288.912 77.9645 289.029 77.7813 289.103 77.5799C289.19 77.3853 289.235 77.1745 289.235 76.9614C289.235 76.7483 289.19 76.5375 289.103 76.3429C289.021 76.1455 288.905 75.9637 288.761 75.8058C288.569 75.6167 288.334 75.4777 288.076 75.4011C287.817 75.3245 287.544 75.3125 287.28 75.3664C287.179 75.3844 287.081 75.4173 286.989 75.4641C286.889 75.4964 286.795 75.546 286.712 75.6105C286.615 75.6756 286.532 75.7407 286.452 75.8058C286.308 75.9637 286.192 76.1455 286.11 76.3429C286.024 76.5378 285.98 76.7484 285.98 76.9614C285.98 77.1744 286.024 77.385 286.11 77.5799C286.185 77.7815 286.302 77.9646 286.453 78.1169Z" fill="black"/>
<path d="M306.831 19.7374L310.314 21.5765C310.899 21.8823 311.559 22.0184 312.217 21.9695C312.876 21.9206 313.508 21.6887 314.041 21.2998C314.581 20.9149 315 20.3849 315.251 19.7714C315.501 19.1578 315.573 18.4857 315.457 17.8331L314.79 13.9596C314.782 13.9154 314.785 13.8698 314.799 13.8272C314.814 13.7845 314.838 13.7461 314.871 13.7155L317.687 10.9649C318.159 10.5042 318.493 9.92072 318.652 9.28024C318.81 8.63976 318.787 7.96777 318.584 7.34001C318.38 6.71225 318.006 6.15369 317.503 5.72731C316.999 5.30092 316.387 5.02366 315.734 4.92678L311.828 4.35715C311.781 4.35066 311.738 4.33225 311.701 4.30372C311.663 4.27519 311.634 4.23752 311.616 4.19439L309.875 0.66264C309.582 0.0711744 309.13 -0.426675 308.569 -0.774745C308.008 -1.12281 307.361 -1.30725 306.701 -1.30725C306.041 -1.30725 305.394 -1.12281 304.833 -0.774745C304.273 -0.426675 303.82 0.0711744 303.527 0.66264L301.786 4.19439C301.768 4.23752 301.739 4.27519 301.702 4.30372C301.665 4.33225 301.621 4.35066 301.574 4.35715L297.668 4.92678C297.016 5.02366 296.403 5.30092 295.9 5.72731C295.396 6.15369 295.022 6.71225 294.819 7.34001C294.616 7.96777 294.592 8.63976 294.75 9.28024C294.909 9.92072 295.243 10.5042 295.715 10.9649L298.531 13.6992C298.563 13.7338 298.587 13.7751 298.601 13.8202C298.615 13.8652 298.619 13.9129 298.612 13.9596L297.945 17.8494C297.862 18.3562 297.89 18.8748 298.027 19.3698C298.163 19.8647 298.405 20.3243 298.736 20.7169C299.067 21.1096 299.479 21.4261 299.943 21.6446C300.408 21.8632 300.914 21.9788 301.428 21.9834C302.005 21.978 302.574 21.8388 303.088 21.5765L306.571 19.7374C306.61 19.7133 306.655 19.7006 306.701 19.7006C306.747 19.7006 306.792 19.7133 306.831 19.7374ZM301.558 18.6957C301.512 18.7222 301.459 18.7333 301.406 18.7275C301.354 18.7216 301.304 18.6991 301.265 18.6632C301.223 18.6312 301.191 18.5888 301.171 18.5402C301.151 18.4916 301.144 18.4386 301.151 18.3865L301.818 14.513C301.916 13.9468 301.876 13.3654 301.7 12.8184C301.524 12.2714 301.219 11.7751 300.809 11.3718L297.977 8.62129C297.94 8.58719 297.914 8.54248 297.902 8.49307C297.89 8.44367 297.894 8.3919 297.912 8.34461C297.921 8.29027 297.949 8.24074 297.99 8.20494C298.032 8.16914 298.085 8.14942 298.14 8.1493L302.046 7.57967C302.613 7.49682 303.15 7.27713 303.612 6.93965C304.075 6.60217 304.448 6.15706 304.699 5.6429L306.441 2.11115C306.464 2.06234 306.501 2.0212 306.548 1.99243C306.594 1.96365 306.647 1.94839 306.701 1.94839C306.755 1.94839 306.809 1.96365 306.855 1.99243C306.901 2.0212 306.938 2.06234 306.961 2.11115L308.703 5.6429C308.954 6.15706 309.327 6.60217 309.79 6.93965C310.252 7.27713 310.789 7.49682 311.356 7.57967L315.262 8.1493C315.317 8.14942 315.37 8.16914 315.412 8.20494C315.454 8.24074 315.481 8.29027 315.49 8.34461C315.508 8.3919 315.512 8.44367 315.5 8.49307C315.489 8.54248 315.462 8.58719 315.425 8.62129L312.593 11.3718C312.184 11.7751 311.878 12.2714 311.702 12.8184C311.527 13.3654 311.486 13.9468 311.584 14.513L312.251 18.3865C312.258 18.4386 312.251 18.4916 312.231 18.5402C312.211 18.5888 312.179 18.6312 312.137 18.6632C312.095 18.699 312.043 18.7212 311.987 18.727C311.932 18.7328 311.877 18.7219 311.828 18.6957L308.345 16.8566C307.837 16.5921 307.273 16.4539 306.701 16.4539C306.129 16.4539 305.565 16.5921 305.057 16.8566L301.558 18.6957Z" fill="black"/>
</g>
</g>
<path d="M191.404 83.4169H189.205V55.2574C189.203 54.3109 188.825 53.4039 188.155 52.7355C187.485 52.0671 186.577 51.6919 185.63 51.6921H175.164C175.469 50.7259 175.643 49.7227 175.68 48.7098C175.68 47.1345 175.369 45.5746 174.767 44.1192C174.164 42.6638 173.28 41.3413 172.166 40.2274C171.052 39.1135 169.73 38.2299 168.274 37.627C166.819 37.0242 165.259 36.7139 163.684 36.7139C162.108 36.7139 160.548 37.0242 159.093 37.627C157.638 38.2299 156.315 39.1135 155.201 40.2274C154.087 41.3413 153.204 42.6638 152.601 44.1192C151.998 45.5746 151.688 47.1345 151.688 48.7098C151.724 49.7227 151.898 50.7259 152.204 51.6921H141.737C140.791 51.6919 139.883 52.0671 139.213 52.7355C138.542 53.4039 138.165 54.3109 138.162 55.2574V83.4169H135.964C135.813 83.417 135.664 83.4529 135.53 83.5215C135.396 83.5901 135.279 83.6895 135.191 83.8116C135.102 83.9338 135.044 84.0751 135.02 84.2242C134.997 84.3732 135.009 84.5257 135.056 84.6691C135.777 86.8785 137.179 88.8028 139.061 90.1663C140.943 91.5297 143.208 92.2621 145.532 92.2586H181.835C184.159 92.2621 186.425 91.5297 188.307 90.1663C190.189 88.8028 191.591 86.8785 192.312 84.6691C192.358 84.5257 192.37 84.3732 192.347 84.2242C192.324 84.0751 192.265 83.9338 192.177 83.8116C192.088 83.6895 191.972 83.5901 191.837 83.5215C191.703 83.4529 191.554 83.417 191.404 83.4169ZM163.684 38.616C166.359 38.6203 168.922 39.6855 170.813 41.5778C172.704 43.4701 173.766 46.035 173.768 48.7098C173.768 52.4186 169.008 61.0212 165.462 66.7946C165.462 66.8042 165.452 66.8137 165.452 66.8233C164.812 67.8652 164.209 68.821 163.684 69.6335C163.158 68.821 162.556 67.8652 161.925 66.8233C161.913 66.8124 161.903 66.7994 161.896 66.785C158.36 61.0212 153.599 52.4186 153.599 48.7098C153.601 46.035 154.664 43.4701 156.554 41.5778C158.445 39.6855 161.009 38.6203 163.684 38.616ZM172.229 71.3731C172.229 72.9312 168.578 74.6804 163.684 74.6804C158.79 74.6804 155.138 72.9312 155.138 71.3731C155.138 70.2644 157.174 68.8784 160.606 68.3335C161.848 70.3504 162.766 71.7173 162.89 71.9084C162.978 72.0385 163.096 72.1452 163.234 72.2189C163.373 72.2926 163.527 72.3311 163.684 72.3311C163.84 72.3311 163.995 72.2926 164.133 72.2189C164.272 72.1452 164.39 72.0385 164.477 71.9084C164.601 71.7173 165.519 70.3504 166.762 68.3335C170.193 68.8784 172.229 70.2644 172.229 71.3731ZM140.074 55.2574C140.074 55.0396 140.118 54.8239 140.202 54.6229C140.286 54.4218 140.408 54.2392 140.563 54.0856C140.717 53.932 140.9 53.8104 141.102 53.7277C141.304 53.645 141.519 53.6029 141.737 53.6038H152.854C153.122 54.3207 153.427 55.0567 153.762 55.8214H143.104C142.851 55.8214 142.608 55.9221 142.428 56.1014C142.249 56.2806 142.148 56.5237 142.148 56.7773V79.7178C142.148 79.9713 142.249 80.2144 142.428 80.3937C142.608 80.5729 142.851 80.6736 143.104 80.6736H183.451C183.704 80.6736 183.947 80.5729 184.127 80.3937C184.306 80.2144 184.407 79.9713 184.407 79.7178V56.7773C184.407 56.5237 184.306 56.2806 184.127 56.1014C183.947 55.9221 183.704 55.8214 183.451 55.8214H173.605C173.94 55.0567 174.246 54.3207 174.514 53.6038H185.63C185.848 53.6029 186.064 53.645 186.265 53.7277C186.467 53.8104 186.65 53.932 186.805 54.0856C186.959 54.2392 187.082 54.4218 187.166 54.6229C187.25 54.8239 187.293 55.0396 187.293 55.2574V83.4169H140.074V55.2574ZM181.835 90.3469H145.532C143.842 90.3493 142.186 89.8811 140.747 88.9948C139.309 88.1084 138.146 86.8389 137.388 85.3286H189.979C189.222 86.8389 188.059 88.1084 186.62 88.9948C185.182 89.8811 183.525 90.3493 181.835 90.3469Z" fill="black"/>
<path d="M143.611 88.1962C143.635 88.2554 143.664 88.3129 143.697 88.3682C143.735 88.4184 143.777 88.4662 143.821 88.5116C143.909 88.5978 144.013 88.666 144.127 88.7123C144.24 88.7659 144.365 88.7921 144.49 88.7888C144.554 88.7919 144.619 88.7855 144.681 88.7697C144.744 88.758 144.805 88.7387 144.863 88.7123C144.92 88.6915 144.975 88.6625 145.024 88.6263C145.075 88.5913 145.123 88.553 145.169 88.5116C145.213 88.4687 145.251 88.4205 145.283 88.3682C145.319 88.3128 145.35 88.2553 145.379 88.1962C145.399 88.1403 145.415 88.0827 145.426 88.0241C145.442 87.9618 145.449 87.8973 145.446 87.833C145.447 87.7087 145.425 87.5853 145.379 87.4697C145.327 87.3536 145.256 87.2469 145.169 87.1543C145.032 87.0256 144.861 86.9383 144.677 86.9028C144.492 86.8672 144.302 86.8849 144.127 86.9536C144.013 86.9999 143.909 87.0681 143.821 87.1543C143.642 87.3353 143.539 87.5783 143.534 87.833C143.536 87.897 143.542 87.9609 143.552 88.0241C143.564 88.0839 143.583 88.1419 143.611 88.1962Z" fill="black"/>
<path d="M147.807 88.5116C147.988 88.6893 148.232 88.7889 148.486 88.7888C148.547 88.7918 148.608 88.7854 148.668 88.7696C148.729 88.7594 148.79 88.7434 148.848 88.7219C148.906 88.6962 148.96 88.6641 149.011 88.6263C149.065 88.5961 149.113 88.5573 149.155 88.5116C149.249 88.4246 149.321 88.3165 149.365 88.1961C149.414 88.0811 149.44 87.9578 149.442 87.8329C149.44 87.772 149.434 87.7112 149.423 87.6513C149.409 87.5891 149.39 87.5283 149.365 87.4697C149.337 87.4123 149.308 87.355 149.279 87.3072C149.246 87.2532 149.204 87.2048 149.155 87.1638C149.114 87.1149 149.065 87.073 149.011 87.0395C148.962 87.0013 148.907 86.9721 148.848 86.9535C148.792 86.9245 148.731 86.9051 148.668 86.8962C148.513 86.8647 148.353 86.8727 148.203 86.9195C148.053 86.9663 147.916 87.0503 147.807 87.1638C147.759 87.2048 147.717 87.2532 147.683 87.3072C147.653 87.355 147.626 87.4123 147.597 87.4697C147.575 87.5285 147.559 87.5893 147.549 87.6513C147.533 87.7105 147.527 87.7717 147.53 87.8329C147.528 87.9572 147.551 88.0807 147.597 88.1961C147.644 88.3148 147.716 88.4223 147.807 88.5116Z" fill="black"/>
<path d="M151.793 88.5116C151.839 88.5553 151.891 88.5937 151.946 88.6263C151.996 88.6637 152.051 88.6957 152.108 88.7219C152.164 88.7421 152.221 88.7581 152.279 88.7697C152.342 88.7853 152.406 88.7918 152.471 88.7888C152.723 88.7853 152.965 88.6863 153.148 88.5116C153.237 88.422 153.305 88.3145 153.349 88.1961C153.4 88.0819 153.426 87.9581 153.426 87.8329C153.426 87.7077 153.4 87.584 153.349 87.4697C153.301 87.3537 153.233 87.247 153.148 87.1543C153.036 87.0432 152.897 86.9616 152.746 86.9165C152.594 86.8715 152.433 86.8645 152.278 86.8962C152.219 86.9067 152.161 86.9261 152.107 86.9535C152.049 86.9725 151.994 87.0017 151.945 87.0396C151.887 87.0778 151.839 87.116 151.792 87.1543C151.707 87.247 151.639 87.3537 151.591 87.4697C151.541 87.5841 151.515 87.7078 151.515 87.8329C151.515 87.958 151.541 88.0817 151.591 88.1961C151.635 88.3145 151.704 88.4221 151.793 88.5116Z" fill="black"/>
<path d="M163.76 54.225L165.806 55.3051C166.15 55.4847 166.537 55.5647 166.924 55.536C167.31 55.5072 167.681 55.371 167.995 55.1426C168.312 54.9166 168.558 54.6053 168.705 54.245C168.853 53.8846 168.895 53.4899 168.827 53.1067L168.435 50.8317C168.43 50.8057 168.432 50.779 168.44 50.7539C168.449 50.7289 168.463 50.7063 168.482 50.6884L170.136 49.073C170.413 48.8024 170.61 48.4597 170.703 48.0835C170.796 47.7074 170.782 47.3127 170.663 46.944C170.543 46.5753 170.323 46.2473 170.028 45.9969C169.732 45.7465 169.372 45.5836 168.989 45.5267L166.695 45.1922C166.668 45.1884 166.642 45.1776 166.62 45.1608C166.598 45.1441 166.581 45.1219 166.571 45.0966L165.548 43.0224C165.376 42.675 165.11 42.3826 164.781 42.1782C164.452 41.9738 164.072 41.8655 163.684 41.8655C163.296 41.8655 162.916 41.9738 162.587 42.1782C162.258 42.3826 161.992 42.675 161.82 43.0224L160.797 45.0966C160.787 45.1219 160.77 45.1441 160.748 45.1608C160.726 45.1776 160.7 45.1884 160.673 45.1922L158.379 45.5267C157.996 45.5836 157.636 45.7465 157.34 45.9969C157.045 46.2473 156.825 46.5753 156.705 46.944C156.586 47.3127 156.572 47.7074 156.665 48.0835C156.758 48.4597 156.955 48.8024 157.232 49.073L158.886 50.6788C158.905 50.6991 158.919 50.7234 158.927 50.7498C158.935 50.7763 158.937 50.8043 158.933 50.8317L158.542 53.1162C158.493 53.4138 158.509 53.7184 158.59 54.0091C158.67 54.2998 158.812 54.5697 159.006 54.8003C159.201 55.0309 159.442 55.2168 159.715 55.3452C159.988 55.4735 160.286 55.5414 160.587 55.5441C160.926 55.541 161.26 55.4592 161.562 55.3051L163.608 54.225C163.631 54.2109 163.657 54.2034 163.684 54.2034C163.711 54.2034 163.737 54.2109 163.76 54.225ZM160.664 53.6133C160.637 53.6288 160.605 53.6353 160.574 53.6319C160.543 53.6285 160.514 53.6152 160.491 53.5941C160.467 53.5754 160.448 53.5505 160.436 53.5219C160.424 53.4934 160.42 53.4622 160.425 53.4317L160.816 51.1567C160.874 50.8242 160.85 50.4828 160.747 50.1615C160.644 49.8403 160.464 49.5488 160.224 49.3119L158.561 47.6965C158.539 47.6765 158.523 47.6502 158.516 47.6212C158.509 47.5922 158.512 47.5618 158.522 47.534C158.527 47.5021 158.544 47.473 158.568 47.452C158.593 47.431 158.624 47.4194 158.656 47.4193L160.95 47.0848C161.283 47.0361 161.599 46.9071 161.87 46.7089C162.142 46.5107 162.361 46.2493 162.508 45.9473L163.531 43.8731C163.545 43.8444 163.567 43.8203 163.594 43.8034C163.621 43.7865 163.652 43.7775 163.684 43.7775C163.716 43.7775 163.747 43.7865 163.774 43.8034C163.801 43.8203 163.823 43.8444 163.837 43.8731L164.86 45.9473C165.007 46.2493 165.226 46.5107 165.498 46.7089C165.769 46.9071 166.085 47.0361 166.418 47.0848L168.712 47.4193C168.744 47.4194 168.775 47.431 168.8 47.452C168.824 47.473 168.841 47.5021 168.846 47.534C168.856 47.5618 168.859 47.5922 168.852 47.6212C168.845 47.6502 168.829 47.6765 168.807 47.6965L167.144 49.3119C166.904 49.5488 166.724 49.8403 166.621 50.1615C166.518 50.4828 166.494 50.8242 166.552 51.1567L166.943 53.4317C166.948 53.4622 166.944 53.4934 166.932 53.5219C166.92 53.5505 166.901 53.5754 166.877 53.5941C166.852 53.6152 166.821 53.6282 166.789 53.6316C166.756 53.635 166.724 53.6286 166.695 53.6133L164.649 52.5331C164.351 52.3778 164.02 52.2966 163.684 52.2966C163.348 52.2966 163.017 52.3778 162.719 52.5331L160.664 53.6133Z" fill="black"/>
</svg>
