<svg width="344" height="142" viewBox="0 0 344 142" fill="none" xmlns="http://www.w3.org/2000/svg">
<path d="M0 18C0 8.05886 8.05888 0 18 0H325.074C335.015 0 343.074 8.05887 343.074 18V141.363H0V18Z" fill="white"/>
<mask id="mask0_40000018_8472" style="mask-type:alpha" maskUnits="userSpaceOnUse" x="0" y="0" width="344" height="142">
<path d="M0 18C0 8.05886 8.05888 0 18 0H325.074C335.015 0 343.074 8.05887 343.074 18V141.363H0V18Z" fill="white"/>
</mask>
<g mask="url(#mask0_40000018_8472)">
<g opacity="0.03">
<path d="M308.404 56.4191H333.103C335.001 56.4191 336.546 54.8732 336.546 52.9759V9.32181C336.546 7.42456 335.001 5.87866 333.103 5.87866H308.404C306.507 5.87866 304.961 7.42456 304.961 9.32181V52.9759C304.961 54.8732 306.507 56.4191 308.404 56.4191ZM309.739 12.5366C309.739 11.5704 310.512 10.7799 311.478 10.7799H311.496C312.48 10.7799 313.253 11.5704 313.253 12.5366C313.253 13.5028 312.48 14.2933 311.496 14.2933C310.53 14.2933 309.739 13.5028 309.739 12.5366ZM320.754 41.7682C315.378 41.7682 311.004 37.394 311.004 32.0184C311.004 28.6104 312.831 25.4132 315.747 23.6565C316.573 23.1646 317.662 23.4281 318.154 24.2538C318.663 25.097 318.382 26.1686 317.556 26.6781C315.659 27.8023 314.517 29.805 314.517 32.0184C314.517 35.444 317.311 38.2547 320.754 38.2547C324.197 38.2547 326.99 35.444 326.99 32.0184C326.99 29.805 325.848 27.8199 323.951 26.6781C323.125 26.1686 322.844 25.097 323.354 24.2538C323.845 23.4281 324.935 23.1646 325.76 23.6565C328.676 25.4132 330.503 28.6104 330.503 32.0184C330.503 37.394 326.129 41.7682 320.754 41.7682ZM318.997 30.9995V22.2863C318.997 21.3201 319.787 20.5296 320.754 20.5296C321.72 20.5296 322.51 21.3201 322.51 22.2863V30.9995C322.51 31.9657 321.72 32.7563 320.754 32.7563C319.787 32.7563 318.997 31.9657 318.997 30.9995Z" fill="black"/>
<path d="M270.916 54.8556L285.321 55.9799C286.024 58.2636 286.937 60.477 288.079 62.5851L278.681 73.5645C278.083 74.2672 278.118 75.3036 278.768 75.9536L289.976 87.1614C290.626 87.8114 291.663 87.8465 292.365 87.2492L303.345 77.8509C305.453 78.9927 307.666 79.9062 309.967 80.6089L311.074 95.0139C311.144 95.9274 311.917 96.63 312.831 96.63H328.676C329.59 96.63 330.363 95.9274 330.433 95.0139L331.54 80.6089C333.841 79.9062 336.055 78.9927 338.163 77.8509L349.142 87.2492C349.845 87.8465 350.881 87.8114 351.531 87.1614L362.739 75.9536C363.389 75.3036 363.424 74.2672 362.827 73.5645L353.428 62.5851C354.57 60.477 355.484 58.2636 356.186 55.9799L370.591 54.8556C371.505 54.7853 372.208 54.0124 372.208 53.0989V45.1761C372.208 44.21 371.417 43.4194 370.451 43.4194H344.381C343.415 43.4194 342.625 44.21 342.625 45.1761C342.625 57.2447 332.822 67.0471 320.754 67.0471C308.685 67.0471 298.883 57.2447 298.883 45.1761C298.883 44.21 298.092 43.4194 297.126 43.4194H271.056C270.09 43.4194 269.3 44.21 269.3 45.1761V53.0989C269.3 54.0124 270.002 54.7853 270.916 54.8556ZM272.813 46.9328H295.457C296.371 60.1081 307.35 70.5605 320.754 70.5605C334.157 70.5605 345.137 60.1081 346.05 46.9328H368.694V51.4827L354.693 52.5719C353.955 52.6246 353.323 53.134 353.13 53.8543C352.374 56.665 351.25 59.3879 349.774 61.9175C349.406 62.5675 349.476 63.3756 349.968 63.9378L359.103 74.6185L350.196 83.525L339.515 74.3901C338.953 73.9158 338.145 73.8456 337.495 74.2145C334.965 75.6725 332.243 76.8144 329.432 77.5698C328.712 77.763 328.202 78.3779 328.132 79.1157L327.043 93.1166H314.465L313.375 79.1157C313.305 78.3779 312.796 77.763 312.076 77.5698C309.265 76.8144 306.542 75.6725 304.012 74.2145C303.362 73.828 302.554 73.9158 301.992 74.3901L291.311 83.525L282.405 74.6185L291.54 63.9378C292.032 63.3756 292.102 62.5675 291.733 61.9175C290.257 59.3879 289.133 56.665 288.378 53.8543C288.184 53.134 287.552 52.6246 286.814 52.5719L272.813 51.4827V46.9328Z" fill="black"/>
</g>
</g>
<path d="M151.655 74.2538H167.472C168.687 74.2538 169.677 73.2638 169.677 72.0488V44.0926C169.677 42.8776 168.687 41.8876 167.472 41.8876H151.655C150.44 41.8876 149.45 42.8776 149.45 44.0926V72.0488C149.45 73.2638 150.44 74.2538 151.655 74.2538ZM152.51 46.1513C152.51 45.5326 153.005 45.0263 153.623 45.0263H153.635C154.265 45.0263 154.76 45.5326 154.76 46.1513C154.76 46.7701 154.265 47.2763 153.635 47.2763C153.016 47.2763 152.51 46.7701 152.51 46.1513ZM159.563 64.8713C156.121 64.8713 153.32 62.0701 153.32 58.6276C153.32 56.4451 154.49 54.3976 156.357 53.2726C156.886 52.9576 157.583 53.1263 157.898 53.6551C158.225 54.1951 158.045 54.8813 157.516 55.2076C156.301 55.9276 155.57 57.2101 155.57 58.6276C155.57 60.8213 157.358 62.6213 159.563 62.6213C161.768 62.6213 163.557 60.8213 163.557 58.6276C163.557 57.2101 162.826 55.9388 161.611 55.2076C161.082 54.8813 160.902 54.1951 161.228 53.6551C161.543 53.1263 162.241 52.9576 162.77 53.2726C164.637 54.3976 165.807 56.4451 165.807 58.6276C165.807 62.0701 163.006 64.8713 159.563 64.8713ZM158.438 57.9751V52.3951C158.438 51.7763 158.945 51.2701 159.563 51.2701C160.182 51.2701 160.688 51.7763 160.688 52.3951V57.9751C160.688 58.5938 160.182 59.1001 159.563 59.1001C158.945 59.1001 158.438 58.5938 158.438 57.9751Z" fill="black"/>
<path d="M127.647 73.2526L136.872 73.9726C137.322 75.4351 137.907 76.8526 138.638 78.2026L132.62 85.2338C132.237 85.6838 132.26 86.3476 132.676 86.7638L139.853 93.9413C140.27 94.3576 140.933 94.3801 141.383 93.9976L148.415 87.9788C149.765 88.7101 151.182 89.2951 152.656 89.7451L153.365 98.9701C153.41 99.5551 153.905 100.005 154.49 100.005H164.637C165.222 100.005 165.717 99.5551 165.762 98.9701L166.471 89.7451C167.945 89.2951 169.362 88.7101 170.712 87.9788L177.743 93.9976C178.193 94.3801 178.857 94.3576 179.273 93.9413L186.451 86.7638C186.867 86.3476 186.89 85.6838 186.507 85.2338L180.488 78.2026C181.22 76.8526 181.805 75.4351 182.255 73.9726L191.48 73.2526C192.065 73.2076 192.515 72.7126 192.515 72.1276V67.0538C192.515 66.4351 192.008 65.9288 191.39 65.9288H174.695C174.076 65.9288 173.57 66.4351 173.57 67.0538C173.57 74.7826 167.292 81.0601 159.563 81.0601C151.835 81.0601 145.557 74.7826 145.557 67.0538C145.557 66.4351 145.051 65.9288 144.432 65.9288H127.737C127.118 65.9288 126.612 66.4351 126.612 67.0538V72.1276C126.612 72.7126 127.062 73.2076 127.647 73.2526ZM128.862 68.1788H143.363C143.948 76.6163 150.98 83.3101 159.563 83.3101C168.147 83.3101 175.178 76.6163 175.763 68.1788H190.265V71.0926L181.298 71.7901C180.826 71.8238 180.421 72.1501 180.297 72.6113C179.813 74.4113 179.093 76.1551 178.148 77.7751C177.912 78.1913 177.957 78.7088 178.272 79.0688L184.122 85.9088L178.418 91.6126L171.578 85.7626C171.218 85.4588 170.701 85.4138 170.285 85.6501C168.665 86.5838 166.921 87.3151 165.121 87.7988C164.66 87.9226 164.333 88.3163 164.288 88.7888L163.591 97.7551H155.536L154.838 88.7888C154.793 88.3163 154.467 87.9226 154.006 87.7988C152.206 87.3151 150.462 86.5838 148.842 85.6501C148.426 85.4026 147.908 85.4588 147.548 85.7626L140.708 91.6126L135.005 85.9088L140.855 79.0688C141.17 78.7088 141.215 78.1913 140.978 77.7751C140.033 76.1551 139.313 74.4113 138.83 72.6113C138.706 72.1501 138.301 71.8238 137.828 71.7901L128.862 71.0926V68.1788Z" fill="black"/>
</svg>
