<svg width="344" height="142" viewBox="0 0 344 142" fill="none" xmlns="http://www.w3.org/2000/svg">
<path d="M0 18C0 8.05886 8.05888 0 18 0H325.074C335.015 0 343.074 8.05887 343.074 18V141.363H0V18Z" fill="white"/>
<mask id="mask0_40000018_8527" style="mask-type:alpha" maskUnits="userSpaceOnUse" x="0" y="0" width="344" height="142">
<path d="M0 18C0 8.05886 8.05888 0 18 0H325.074C335.015 0 343.074 8.05887 343.074 18V141.363H0V18Z" fill="white"/>
</mask>
<g mask="url(#mask0_40000018_8527)">
<g opacity="0.06">
<path d="M362.046 60.6456C362.046 60.2653 361.781 59.9346 361.418 59.852L359.136 59.3064L358.301 57.3628L359.45 55.263C359.624 54.9332 359.566 54.5273 359.301 54.2719L357.284 52.3126C357.012 52.0481 356.598 52.0067 356.276 52.2051L354.283 53.4278L352.316 52.6342L351.638 50.3443C351.539 50.0053 351.241 49.7656 350.886 49.7482L349.654 49.6912C349.621 49.6821 349.588 49.6912 349.555 49.6912L347.984 49.7904C347.62 49.8144 347.314 50.0715 347.232 50.4269L346.694 52.7086L344.744 53.5353L342.644 52.3944C342.313 52.2126 341.916 52.2787 341.652 52.5433L339.692 54.5612C339.436 54.8257 339.387 55.2473 339.585 55.5697L340.817 57.5621L340.023 59.5213L337.725 60.2075C337.369 60.3067 337.13 60.6373 337.13 61.0093L337.171 63.8201C337.179 64.1921 337.444 64.5227 337.808 64.6054L340.089 65.1502L340.916 67.0937L339.775 69.2018C339.593 69.5242 339.659 69.9293 339.924 70.1855L341.941 72.144C342.214 72.4085 342.627 72.4498 342.95 72.2523L344.942 71.0288L346.901 71.8141L347.587 74.1123C347.678 74.4504 347.984 74.6819 348.331 74.7075L349.563 74.7736H349.662L351.241 74.6662C351.605 74.6414 351.903 74.3851 351.994 74.0288L352.531 71.7471L354.474 70.9205L356.582 72.0613C356.904 72.2432 357.309 72.177 357.565 71.9125L359.525 69.9028C359.789 69.6308 359.839 69.2175 359.64 68.8943L358.409 66.8937L359.202 64.9344L361.492 64.2574C361.848 64.1507 362.096 63.8201 362.087 63.4563L362.046 60.6456ZM349.613 67.4079C346.761 67.4079 344.438 65.0849 344.438 62.2328C344.438 59.3725 346.761 57.0487 349.613 57.0487C352.465 57.0487 354.788 59.3725 354.788 62.2328C354.788 65.0849 352.465 67.4079 349.613 67.4079ZM330.624 39.0278L327.945 34.3983C327.722 34.0015 327.218 33.8693 326.821 34.0925C326.424 34.3239 326.292 34.8282 326.515 35.225L329.194 39.8545C329.342 40.119 329.623 40.2678 329.905 40.2678C330.045 40.2678 330.186 40.2347 330.318 40.1603C330.715 39.9289 330.847 39.4246 330.624 39.0278ZM330.624 39.0278L327.945 34.3983C327.722 34.0015 327.218 33.8693 326.821 34.0925C326.424 34.3239 326.292 34.8282 326.515 35.225L329.194 39.8545C329.342 40.119 329.623 40.2678 329.905 40.2678C330.045 40.2678 330.186 40.2347 330.318 40.1603C330.715 39.9289 330.847 39.4246 330.624 39.0278ZM348.811 42.1692L341.296 29.1654L343.272 27.2889C344.909 25.7264 345.289 22.9405 344.132 20.9399L341.982 17.2198C340.85 15.2523 338.188 14.1611 336.063 14.7894L333.443 15.5665L325.936 2.56271C325.465 1.74429 324.705 1.15735 323.787 0.909341C322.869 0.669602 321.919 0.793605 321.1 1.26482C319.414 2.2403 318.835 4.40622 319.811 6.09266L320.332 7.00201L301.896 31.7447L294.44 36.0517C292.224 37.3331 290.637 39.4081 289.976 41.8881C289.752 42.7231 289.637 43.5663 289.637 44.4095C289.637 46.072 290.075 47.708 290.926 49.1803C292.199 51.3958 294.274 52.9831 296.763 53.6436C299.028 54.2553 301.376 54.0238 303.451 53.0153L320.373 70.1194C320.53 70.2756 320.745 70.3674 320.96 70.3674C321.067 70.3674 321.166 70.3426 321.274 70.3013C321.58 70.1773 321.786 69.8797 321.786 69.549L321.968 56.7271C321.977 56.4956 321.877 56.2724 321.704 56.1071L313.131 48.1957L342.156 44.8063L342.677 45.7157C343.652 47.3938 345.818 47.9725 347.505 47.0061C347.538 46.9888 347.563 46.9731 347.596 46.9483C349.216 45.9554 349.761 43.8308 348.811 42.1692ZM320.315 57.0743L320.166 67.5567L304.947 52.1803L311.131 48.6091L320.315 57.0743ZM311.684 46.7077L303.451 32.4308L315.537 16.203L323.663 30.2732C323.886 30.67 324.391 30.8105 324.787 30.5791C325.184 30.3476 325.325 29.8433 325.093 29.4465L316.611 14.7646L321.233 8.56444L341.255 43.2439L311.684 46.7077ZM346.686 45.5669C346.661 45.5834 346.637 45.5917 346.62 45.6082C345.727 46.072 344.62 45.757 344.107 44.8807L343.33 43.5415C343.33 43.5249 343.322 43.5167 343.313 43.5001L321.241 5.26597C320.72 4.37315 321.034 3.21579 321.927 2.69498C322.365 2.44697 322.869 2.38084 323.357 2.51311C323.845 2.63711 324.25 2.95125 324.498 3.3894L332.335 16.947V16.9553L339.535 29.43C339.544 29.4382 339.552 29.4548 339.56 29.4713L347.372 42.9959C347.893 43.897 347.579 45.0461 346.686 45.5669ZM329.194 39.8545C329.342 40.119 329.623 40.2678 329.905 40.2678C330.045 40.2678 330.186 40.2347 330.318 40.1603C330.715 39.9289 330.847 39.4246 330.624 39.0278L327.945 34.3983C327.722 34.0015 327.218 33.8693 326.821 34.0925C326.424 34.3239 326.292 34.8282 326.515 35.225L329.194 39.8545ZM330.624 39.0278L327.945 34.3983C327.722 34.0015 327.218 33.8693 326.821 34.0925C326.424 34.3239 326.292 34.8282 326.515 35.225L329.194 39.8545C329.342 40.119 329.623 40.2678 329.905 40.2678C330.045 40.2678 330.186 40.2347 330.318 40.1603C330.715 39.9289 330.847 39.4246 330.624 39.0278ZM330.624 39.0278L327.945 34.3983C327.722 34.0015 327.218 33.8693 326.821 34.0925C326.424 34.3239 326.292 34.8282 326.515 35.225L329.194 39.8545C329.342 40.119 329.623 40.2678 329.905 40.2678C330.045 40.2678 330.186 40.2347 330.318 40.1603C330.715 39.9289 330.847 39.4246 330.624 39.0278ZM359.955 24.7096L350.878 23.4117C350.423 23.3456 350.009 23.6597 349.943 24.1061C349.877 24.5608 350.191 24.9824 350.638 25.0403L359.723 26.3464C359.764 26.3547 359.797 26.3547 359.839 26.3547C360.244 26.3547 360.599 26.0571 360.657 25.6438C360.723 25.1973 360.409 24.7757 359.955 24.7096ZM301.896 7.10121L295.779 3.57127C295.25 3.26539 294.63 3.26539 294.109 3.57127C293.588 3.86887 293.282 4.40622 293.282 5.0097V12.0779C293.282 12.6731 293.588 13.2104 294.109 13.5163C294.374 13.6651 294.655 13.7395 294.944 13.7395C295.225 13.7395 295.514 13.6651 295.771 13.5163L301.896 9.97807C302.417 9.68047 302.723 9.14312 302.723 8.53964C302.723 7.94443 302.417 7.40708 301.896 7.10121ZM301.896 7.10121L295.779 3.57127C295.25 3.26539 294.63 3.26539 294.109 3.57127C293.588 3.86887 293.282 4.40622 293.282 5.0097V12.0779C293.282 12.6731 293.588 13.2104 294.109 13.5163C294.374 13.6651 294.655 13.7395 294.944 13.7395C295.225 13.7395 295.514 13.6651 295.771 13.5163L301.896 9.97807C302.417 9.68047 302.723 9.14312 302.723 8.53964C302.723 7.94443 302.417 7.40708 301.896 7.10121ZM307.237 -2.02539H288.769C287.256 -2.02539 286.032 -0.79363 286.032 0.710937V15.3846C286.032 16.8892 287.256 18.1209 288.769 18.1209H294.539L297.366 21.5186C297.523 21.7087 297.755 21.8162 298.003 21.8162C298.251 21.8162 298.482 21.7087 298.639 21.5186L301.467 18.1209H307.237C308.75 18.1209 309.973 16.8892 309.973 15.3846V0.710937C309.973 -0.79363 308.75 -2.02539 307.237 -2.02539ZM308.32 15.3846C308.32 15.9798 307.832 16.4676 307.237 16.4676H301.078C300.838 16.4676 300.607 16.575 300.45 16.7652L298.003 19.6999L295.556 16.7652C295.399 16.575 295.167 16.4676 294.927 16.4676H288.769C288.173 16.4676 287.686 15.9798 287.686 15.3846V0.710937C287.686 0.115724 288.173 -0.37202 288.769 -0.37202H307.237C307.832 -0.37202 308.32 0.115724 308.32 0.710937V15.3846ZM301.896 7.10121L295.779 3.57127C295.25 3.26539 294.63 3.26539 294.109 3.57127C293.588 3.86887 293.282 4.40622 293.282 5.0097V12.0779C293.282 12.6731 293.588 13.2104 294.109 13.5163C294.374 13.6651 294.655 13.7395 294.944 13.7395C295.225 13.7395 295.514 13.6651 295.771 13.5163L301.896 9.97807C302.417 9.68047 302.723 9.14312 302.723 8.53964C302.723 7.94443 302.417 7.40708 301.896 7.10121ZM301.896 7.10121L295.779 3.57127C295.25 3.26539 294.63 3.26539 294.109 3.57127C293.588 3.86887 293.282 4.40622 293.282 5.0097V12.0779C293.282 12.6731 293.588 13.2104 294.109 13.5163C294.374 13.6651 294.655 13.7395 294.944 13.7395C295.225 13.7395 295.514 13.6651 295.771 13.5163L301.896 9.97807C302.417 9.68047 302.723 9.14312 302.723 8.53964C302.723 7.94443 302.417 7.40708 301.896 7.10121ZM355.829 11.7224C355.598 11.3256 355.094 11.185 354.697 11.4165L346.198 16.327C345.802 16.5502 345.661 17.0545 345.893 17.4513C346.05 17.7158 346.322 17.8647 346.612 17.8647C346.752 17.8647 346.893 17.8316 347.025 17.7572L355.523 12.8467C355.92 12.6235 356.053 12.1192 355.829 11.7224ZM301.896 7.10121L295.779 3.57127C295.25 3.26539 294.63 3.26539 294.109 3.57127C293.588 3.86887 293.282 4.40622 293.282 5.0097V12.0779C293.282 12.6731 293.588 13.2104 294.109 13.5163C294.374 13.6651 294.655 13.7395 294.944 13.7395C295.225 13.7395 295.514 13.6651 295.771 13.5163L301.896 9.97807C302.417 9.68047 302.723 9.14312 302.723 8.53964C302.723 7.94443 302.417 7.40708 301.896 7.10121ZM346.182 0.5704C345.76 0.396796 345.281 0.603467 345.107 1.03334L341.693 9.5482C341.519 9.96981 341.726 10.4493 342.156 10.6229C342.255 10.656 342.354 10.6808 342.462 10.6808C342.784 10.6808 343.098 10.4824 343.231 10.1599L346.645 1.64509C346.81 1.22348 346.604 0.744004 346.182 0.5704Z" fill="black"/>
</g>
</g>
<path d="M201.272 92.6821C201.272 92.4107 201.074 92.1747 200.801 92.1157L199.09 91.7263L198.464 90.3392L199.325 88.8406C199.456 88.6052 199.412 88.3155 199.214 88.1332L197.701 86.7349C197.496 86.5461 197.186 86.5166 196.945 86.6582L195.45 87.5308L193.975 86.9644L193.466 85.3301C193.392 85.0882 193.169 84.9171 192.902 84.9047L191.978 84.864C191.954 84.8575 191.929 84.864 191.904 84.864L190.726 84.9348C190.453 84.9519 190.224 85.1354 190.162 85.3891L189.759 87.0175L188.296 87.6075L186.721 86.7933C186.473 86.6635 186.175 86.7107 185.977 86.8995L184.507 88.3397C184.315 88.5285 184.278 88.8294 184.427 89.0595L185.351 90.4814L184.755 91.8797L183.032 92.3694C182.765 92.4402 182.585 92.6762 182.585 92.9417L182.616 94.9477C182.623 95.2132 182.821 95.4492 183.094 95.5082L184.805 95.897L185.425 97.2841L184.569 98.7886C184.433 99.0187 184.483 99.3078 184.681 99.4907L186.194 100.888C186.398 101.077 186.708 101.107 186.95 100.966L188.444 100.093L189.914 100.653L190.428 102.293C190.497 102.535 190.726 102.7 190.986 102.718L191.91 102.765H191.985L193.169 102.689C193.442 102.671 193.665 102.488 193.733 102.234L194.136 100.605L195.593 100.015L197.174 100.829C197.416 100.959 197.72 100.912 197.912 100.723L199.381 99.2889C199.58 99.0948 199.617 98.7998 199.468 98.5691L198.544 97.1413L199.139 95.743L200.857 95.2598C201.123 95.1837 201.309 94.9477 201.303 94.6881L201.272 92.6821ZM191.947 97.5083C189.808 97.5083 188.066 95.8504 188.066 93.8149C188.066 91.7735 189.808 90.115 191.947 90.115C194.086 90.115 195.829 91.7735 195.829 93.8149C195.829 95.8504 194.086 97.5083 191.947 97.5083ZM177.706 77.2536L175.697 73.9496C175.53 73.6664 175.152 73.572 174.854 73.7313C174.556 73.8965 174.457 74.2564 174.625 74.5396L176.633 77.8436C176.745 78.0324 176.956 78.1386 177.167 78.1386C177.272 78.1386 177.377 78.115 177.477 78.0619C177.774 77.8967 177.873 77.5368 177.706 77.2536ZM177.706 77.2536L175.697 73.9496C175.53 73.6664 175.152 73.572 174.854 73.7313C174.556 73.8965 174.457 74.2564 174.625 74.5396L176.633 77.8436C176.745 78.0324 176.956 78.1386 177.167 78.1386C177.272 78.1386 177.377 78.115 177.477 78.0619C177.774 77.8967 177.873 77.5368 177.706 77.2536ZM191.346 79.4956L185.71 70.2149L187.192 68.8756C188.42 67.7605 188.705 65.7722 187.837 64.3444L186.225 61.6894C185.375 60.2852 183.379 59.5064 181.786 59.9548L179.82 60.5094L174.191 51.2287C173.837 50.6446 173.267 50.2257 172.579 50.0487C171.89 49.8776 171.177 49.9661 170.564 50.3024C169.299 50.9986 168.865 52.5444 169.596 53.748L169.987 54.397L156.161 72.0557L150.569 75.1296C148.907 76.0441 147.717 77.525 147.221 79.295C147.053 79.8909 146.966 80.4927 146.966 81.0945C146.966 82.281 147.295 83.4486 147.934 84.4994C148.888 86.0806 150.445 87.2134 152.311 87.6848C154.01 88.1214 155.77 87.9562 157.327 87.2364L170.018 99.4435C170.136 99.555 170.297 99.6205 170.458 99.6205C170.539 99.6205 170.613 99.6028 170.694 99.5733C170.923 99.4848 171.078 99.2724 171.078 99.0364L171.215 89.8855C171.221 89.7203 171.146 89.561 171.016 89.443L164.587 83.7967L186.355 81.3777L186.746 82.0267C187.477 83.2244 189.102 83.6374 190.366 82.9477C190.391 82.9353 190.41 82.9241 190.435 82.9064C191.65 82.1978 192.059 80.6815 191.346 79.4956ZM169.975 90.1333L169.863 97.6145L158.449 86.6405L163.086 84.0917L169.975 90.1333ZM163.502 82.7347L157.327 72.5454L166.391 60.9637L172.486 71.0055C172.653 71.2887 173.031 71.389 173.329 71.2238C173.626 71.0586 173.732 70.6987 173.558 70.4155L167.197 59.9371L170.663 55.5121L185.679 80.2626L163.502 82.7347ZM189.753 81.9205C189.734 81.9323 189.715 81.9382 189.703 81.95C189.033 82.281 188.203 82.0562 187.818 81.4308L187.235 80.475C187.235 80.4632 187.229 80.4573 187.223 80.4455L170.669 53.158C170.278 52.5208 170.514 51.6948 171.184 51.3231C171.512 51.1461 171.89 51.0989 172.256 51.1933C172.622 51.2818 172.926 51.506 173.112 51.8187L178.989 61.4947V61.5006L184.39 70.4037C184.396 70.4096 184.402 70.4214 184.408 70.4332L190.267 80.0856C190.658 80.7287 190.422 81.5488 189.753 81.9205ZM176.633 77.8436C176.745 78.0324 176.956 78.1386 177.167 78.1386C177.272 78.1386 177.377 78.115 177.477 78.0619C177.774 77.8967 177.873 77.5368 177.706 77.2536L175.697 73.9496C175.53 73.6664 175.152 73.572 174.854 73.7313C174.556 73.8965 174.457 74.2564 174.625 74.5396L176.633 77.8436ZM177.706 77.2536L175.697 73.9496C175.53 73.6664 175.152 73.572 174.854 73.7313C174.556 73.8965 174.457 74.2564 174.625 74.5396L176.633 77.8436C176.745 78.0324 176.956 78.1386 177.167 78.1386C177.272 78.1386 177.377 78.115 177.477 78.0619C177.774 77.8967 177.873 77.5368 177.706 77.2536ZM177.706 77.2536L175.697 73.9496C175.53 73.6664 175.152 73.572 174.854 73.7313C174.556 73.8965 174.457 74.2564 174.625 74.5396L176.633 77.8436C176.745 78.0324 176.956 78.1386 177.167 78.1386C177.272 78.1386 177.377 78.115 177.477 78.0619C177.774 77.8967 177.873 77.5368 177.706 77.2536ZM199.704 67.0348L192.896 66.1085C192.555 66.0613 192.245 66.2855 192.195 66.6041C192.146 66.9286 192.381 67.2295 192.716 67.2708L199.53 68.203C199.561 68.2089 199.586 68.2089 199.617 68.2089C199.921 68.2089 200.187 67.9965 200.231 67.7015C200.28 67.3829 200.045 67.082 199.704 67.0348ZM156.161 54.4678L151.573 51.9485C151.176 51.7302 150.711 51.7302 150.321 51.9485C149.93 52.1609 149.701 52.5444 149.701 52.9751V58.0196C149.701 58.4444 149.93 58.8279 150.321 59.0462C150.519 59.1524 150.73 59.2055 150.947 59.2055C151.158 59.2055 151.375 59.1524 151.567 59.0462L156.161 56.521C156.552 56.3086 156.781 55.9251 156.781 55.4944C156.781 55.0696 156.552 54.6861 156.161 54.4678ZM156.161 54.4678L151.573 51.9485C151.176 51.7302 150.711 51.7302 150.321 51.9485C149.93 52.1609 149.701 52.5444 149.701 52.9751V58.0196C149.701 58.4444 149.93 58.8279 150.321 59.0462C150.519 59.1524 150.73 59.2055 150.947 59.2055C151.158 59.2055 151.375 59.1524 151.567 59.0462L156.161 56.521C156.552 56.3086 156.781 55.9251 156.781 55.4944C156.781 55.0696 156.552 54.6861 156.161 54.4678ZM160.166 47.9542H146.315C145.181 47.9542 144.263 48.8333 144.263 49.9071V60.3796C144.263 61.4534 145.181 62.3325 146.315 62.3325H150.643L152.763 64.7574C152.881 64.8931 153.055 64.9698 153.241 64.9698C153.427 64.9698 153.6 64.8931 153.718 64.7574L155.839 62.3325H160.166C161.301 62.3325 162.218 61.4534 162.218 60.3796V49.9071C162.218 48.8333 161.301 47.9542 160.166 47.9542ZM160.978 60.3796C160.978 60.8044 160.613 61.1525 160.166 61.1525H155.547C155.367 61.1525 155.194 61.2292 155.076 61.3649L153.241 63.4594L151.406 61.3649C151.288 61.2292 151.114 61.1525 150.934 61.1525H146.315C145.869 61.1525 145.503 60.8044 145.503 60.3796V49.9071C145.503 49.4823 145.869 49.1342 146.315 49.1342H160.166C160.613 49.1342 160.978 49.4823 160.978 49.9071V60.3796ZM156.161 54.4678L151.573 51.9485C151.176 51.7302 150.711 51.7302 150.321 51.9485C149.93 52.1609 149.701 52.5444 149.701 52.9751V58.0196C149.701 58.4444 149.93 58.8279 150.321 59.0462C150.519 59.1524 150.73 59.2055 150.947 59.2055C151.158 59.2055 151.375 59.1524 151.567 59.0462L156.161 56.521C156.552 56.3086 156.781 55.9251 156.781 55.4944C156.781 55.0696 156.552 54.6861 156.161 54.4678ZM156.161 54.4678L151.573 51.9485C151.176 51.7302 150.711 51.7302 150.321 51.9485C149.93 52.1609 149.701 52.5444 149.701 52.9751V58.0196C149.701 58.4444 149.93 58.8279 150.321 59.0462C150.519 59.1524 150.73 59.2055 150.947 59.2055C151.158 59.2055 151.375 59.1524 151.567 59.0462L156.161 56.521C156.552 56.3086 156.781 55.9251 156.781 55.4944C156.781 55.0696 156.552 54.6861 156.161 54.4678ZM196.61 57.7659C196.436 57.4827 196.058 57.3824 195.76 57.5476L189.387 61.0522C189.089 61.2115 188.984 61.5714 189.157 61.8546C189.275 62.0434 189.48 62.1496 189.697 62.1496C189.802 62.1496 189.908 62.126 190.007 62.0729L196.38 58.5683C196.678 58.409 196.777 58.0491 196.61 57.7659ZM156.161 54.4678L151.573 51.9485C151.176 51.7302 150.711 51.7302 150.321 51.9485C149.93 52.1609 149.701 52.5444 149.701 52.9751V58.0196C149.701 58.4444 149.93 58.8279 150.321 59.0462C150.519 59.1524 150.73 59.2055 150.947 59.2055C151.158 59.2055 151.375 59.1524 151.567 59.0462L156.161 56.521C156.552 56.3086 156.781 55.9251 156.781 55.4944C156.781 55.0696 156.552 54.6861 156.161 54.4678ZM189.374 49.8068C189.058 49.6829 188.699 49.8304 188.568 50.1372L186.008 56.2142C185.878 56.5151 186.033 56.8573 186.355 56.9812C186.429 57.0048 186.504 57.0225 186.584 57.0225C186.826 57.0225 187.062 56.8809 187.161 56.6508L189.722 50.5738C189.846 50.2729 189.691 49.9307 189.374 49.8068Z" fill="black"/>
</svg>
