<svg width="344" height="142" viewBox="0 0 344 142" fill="none" xmlns="http://www.w3.org/2000/svg">
<path d="M0 18C0 8.05886 8.05887 0 18 0H325.074C335.015 0 343.074 8.05887 343.074 18V141.363H0V18Z" fill="white"/>
<mask id="mask0_40000023_4313" style="mask-type:alpha" maskUnits="userSpaceOnUse" x="0" y="0" width="344" height="142">
<path d="M0 18C0 8.05886 8.05887 0 18 0H325.074C335.015 0 343.074 8.05887 343.074 18V141.363H0V18Z" fill="white"/>
</mask>
<g mask="url(#mask0_40000023_4313)">
<path d="M216.88 78.9985L211.506 73.6447C211.443 73.5822 211.372 73.5272 211.294 73.4835L204.166 69.4222C203.773 69.1985 203.277 69.2647 202.957 69.5835L202.897 69.6435L198.537 65.2997C201.962 59.6072 201.216 52.0997 196.297 47.1997C193.489 44.4022 189.757 42.861 185.787 42.8597C185.784 42.8597 185.782 42.8597 185.779 42.8597C185.777 42.8597 185.774 42.8597 185.772 42.8597C181.801 42.8622 178.068 44.4022 175.261 47.1997C173.643 48.8122 172.419 50.7785 171.69 52.9222C163.625 52.9885 157.082 59.8885 157.082 68.361C157.082 72.1797 159.932 77.7235 163.095 82.6985C158.18 84.8585 155.176 88.6847 155.176 92.9022C155.176 96.1635 156.95 99.206 160.171 101.467C163.285 103.655 167.408 104.86 171.781 104.86C176.153 104.86 180.276 103.655 183.39 101.467C186.611 99.2047 188.385 96.1635 188.385 92.9022C188.385 88.7022 185.399 84.8835 180.511 82.7185C182.664 79.3347 184.671 75.6885 185.738 72.4985H185.774H185.781H185.821C188.516 72.4897 191.144 71.751 193.429 70.3885L197.792 74.7347L197.732 74.7947C197.412 75.1135 197.345 75.6072 197.57 75.9985L201.646 83.0997C201.69 83.1772 201.745 83.2472 201.808 83.311L207.182 88.6647C207.378 88.8597 207.635 88.9572 207.892 88.9572C208.149 88.9572 208.405 88.8597 208.602 88.6647L216.882 80.416C217.274 80.026 217.274 79.3922 216.882 79.0022L216.88 78.9985ZM197.2 63.5885H191.314C191.569 62.0497 191.722 60.3922 191.764 58.6785H198.601C198.469 60.3722 198.001 62.0447 197.198 63.5885H197.2ZM197.2 51.7685C198.003 53.311 198.471 54.9835 198.602 56.6785H191.765C191.723 54.9647 191.57 53.3072 191.315 51.7685H197.201H197.2ZM194.878 48.6135C195.249 48.9822 195.591 49.3685 195.906 49.7685H190.911C190.722 48.9872 190.503 48.2497 190.256 47.5672C189.927 46.6597 189.579 45.921 189.218 45.3185C191.339 45.901 193.281 47.0222 194.878 48.6122V48.6135ZM177.709 67.4647C177.709 70.706 175.062 73.3435 171.808 73.3435C168.555 73.3435 165.907 70.706 165.907 67.4647C165.907 64.2235 168.555 61.586 171.808 61.586C175.062 61.586 177.709 64.2235 177.709 67.4647ZM189.757 56.6797H181.803C181.848 54.9497 182.011 53.2897 182.281 51.7697H189.279C189.548 53.2897 189.712 54.9497 189.757 56.6797ZM183.192 48.246C184.094 45.7522 185.118 44.861 185.778 44.8597H185.781C185.781 44.8597 185.782 44.8597 185.783 44.8597C186.442 44.861 187.467 45.7522 188.369 48.246C188.542 48.7247 188.7 49.2335 188.842 49.7697H182.72C182.863 49.2335 183.02 48.7247 183.193 48.246H183.192ZM176.681 48.6147C178.279 47.0235 180.221 45.9022 182.341 45.321C181.981 45.9222 181.632 46.661 181.304 47.5697C181.058 48.2522 180.838 48.9885 180.649 49.771H175.655C175.973 49.3672 176.315 48.981 176.681 48.616V48.6147ZM174.361 51.7697H180.247C180.055 52.931 179.92 54.1597 179.847 55.431C178.054 54.2022 175.993 53.371 173.776 53.0597C173.946 52.6197 174.143 52.1897 174.361 51.771V51.7697ZM186.378 92.9022C186.378 98.3935 179.829 102.86 171.782 102.86C163.734 102.86 157.186 98.3922 157.186 92.9022C157.186 89.4197 159.856 86.2147 164.206 84.401C166.724 88.186 169.254 91.4572 170.561 93.0972C170.875 93.491 171.2 93.8972 171.793 93.9047H171.809C172.382 93.9047 172.698 93.5285 172.978 93.1947L173.008 93.1585C173.013 93.1522 173.019 93.1447 173.024 93.1385C174.335 91.4947 176.876 88.216 179.402 84.4197C183.724 86.236 186.377 89.4335 186.377 92.9022H186.378ZM185.814 63.5897C185.254 61.7847 184.384 60.126 183.271 58.6797H189.758C189.713 60.4097 189.55 62.0697 189.28 63.5897H185.814ZM188.369 67.1135C187.688 68.9997 186.935 69.9685 186.324 70.3297C186.461 69.636 186.536 68.9772 186.536 68.3622C186.536 67.416 186.454 66.4897 186.297 65.5897H188.842C188.699 66.1247 188.542 66.6347 188.369 67.1135ZM189.226 70.0297C189.584 69.4297 189.931 68.6935 190.257 67.791C190.503 67.1085 190.723 66.3722 190.912 65.5897H195.907C195.592 65.9897 195.25 66.376 194.88 66.7447C193.296 68.321 191.343 69.4422 189.226 70.0297Z" fill="black"/>
<g opacity="0.06">
<path d="M357.735 44.2823L349.99 36.537C349.899 36.4466 349.796 36.367 349.684 36.3037L339.411 30.4283C338.845 30.1046 338.13 30.2004 337.669 30.6616L337.582 30.7484L331.298 24.4643C336.235 16.229 335.159 5.36786 328.07 -1.72096C324.023 -5.7681 318.643 -7.99783 312.921 -7.99963C312.918 -7.99963 312.914 -7.99963 312.911 -7.99963C312.907 -7.99963 312.903 -7.99963 312.9 -7.99963C307.176 -7.99602 301.796 -5.7681 297.751 -1.72096C295.418 0.61184 293.655 3.45641 292.604 6.55777C280.98 6.65362 271.55 16.6358 271.55 28.893C271.55 34.4176 275.658 42.4377 280.217 49.635C273.132 52.7599 268.803 58.2953 268.803 64.3968C268.803 69.1148 271.36 73.5164 276.002 76.7878C280.49 79.9524 286.432 81.6957 292.735 81.6957C299.037 81.6957 304.979 79.9524 309.468 76.7878C314.11 73.5146 316.667 69.1148 316.667 64.3968C316.667 58.3206 312.363 52.7961 305.317 49.664C308.42 44.7687 311.314 39.4937 312.851 34.8787H312.903H312.912H312.97C316.855 34.866 320.643 33.7973 323.936 31.8262L330.224 38.1139L330.137 38.2007C329.676 38.6618 329.58 39.3761 329.904 39.9422L335.779 50.2155C335.843 50.3276 335.922 50.4289 336.013 50.5211L343.758 58.2664C344.04 58.5485 344.411 58.6896 344.781 58.6896C345.152 58.6896 345.521 58.5485 345.805 58.2664L357.738 46.3329C358.303 45.7687 358.303 44.8519 357.738 44.2877L357.735 44.2823ZM329.37 21.9886H320.887C321.254 19.7625 321.475 17.3646 321.537 14.8853H331.39C331.201 17.3357 330.526 19.7553 329.369 21.9886H329.37ZM329.37 4.88864C330.528 7.12018 331.202 9.53978 331.392 11.9919H321.538C321.477 9.51265 321.256 7.11475 320.889 4.88864H329.372H329.37ZM326.025 0.324309C326.558 0.857779 327.052 1.41657 327.506 1.99525H320.307C320.034 0.865012 319.719 -0.201928 319.363 -1.1893C318.889 -2.50218 318.386 -3.57093 317.867 -4.44256C320.924 -3.59986 323.723 -1.97775 326.025 0.3225V0.324309ZM301.279 27.5964C301.279 32.2855 297.464 36.1012 292.774 36.1012C288.085 36.1012 284.27 32.2855 284.27 27.5964C284.27 22.9073 288.085 19.0916 292.774 19.0916C297.464 19.0916 301.279 22.9073 301.279 27.5964ZM318.643 11.9937H307.18C307.245 9.49095 307.48 7.08943 307.869 4.89045H317.954C318.343 7.08943 318.578 9.49095 318.643 11.9937ZM309.182 -0.207353C310.482 -3.81506 311.958 -5.10443 312.909 -5.10624H312.912C312.912 -5.10624 312.914 -5.10624 312.916 -5.10624C313.865 -5.10443 315.343 -3.81506 316.643 -0.207353C316.893 0.485254 317.121 1.22126 317.325 1.99705H308.502C308.708 1.22126 308.934 0.485254 309.184 -0.207353H309.182ZM299.798 0.326117C302.1 -1.97594 304.9 -3.59805 307.956 -4.43895C307.437 -3.56912 306.934 -2.50037 306.46 -1.18568C306.106 -0.198311 305.789 0.866821 305.516 1.99886H298.319C298.776 1.41476 299.27 0.85597 299.798 0.327925V0.326117ZM296.454 4.89045H304.938C304.661 6.57043 304.466 8.34806 304.361 10.1872C301.776 8.40955 298.805 7.20698 295.61 6.75669C295.856 6.12014 296.14 5.49806 296.454 4.89226V4.89045ZM313.773 64.3968C313.773 72.341 304.335 78.8023 292.736 78.8023C281.138 78.8023 271.7 72.3392 271.7 64.3968C271.7 59.3587 275.548 54.722 281.817 52.098C285.447 57.5738 289.093 62.3063 290.977 64.6789C291.429 65.2485 291.897 65.8363 292.753 65.8471H292.776C293.601 65.8471 294.057 65.3028 294.46 64.8199L294.503 64.7675C294.51 64.7585 294.519 64.7476 294.527 64.7386C296.416 62.3606 300.078 57.6172 303.719 52.1252C309.949 54.7527 313.771 59.3785 313.771 64.3968H313.773ZM312.961 21.9904C312.153 19.3791 310.9 16.9794 309.296 14.8871H318.645C318.58 17.3899 318.345 19.7914 317.956 21.9904H312.961ZM316.643 27.0882C315.661 29.8171 314.576 31.2186 313.695 31.7412C313.893 30.7375 314.001 29.7845 314.001 28.8948C314.001 27.5259 313.884 26.1859 313.658 24.8838H317.325C317.119 25.6578 316.893 26.3956 316.643 27.0882ZM317.878 31.3072C318.394 30.4391 318.895 29.374 319.365 28.0684C319.719 27.081 320.036 26.0159 320.309 24.8838H327.508C327.054 25.4625 326.56 26.0213 326.027 26.5548C323.745 28.8351 320.929 30.4572 317.878 31.3072Z" fill="black"/>
</g>
</g>
</svg>
