<svg width="364" height="156" viewBox="0 0 364 156" fill="none" xmlns="http://www.w3.org/2000/svg">
<path d="M0.000366211 32.0537C0.000366211 22.1126 8.05924 14.0537 18.0004 14.0537H325.075C335.016 14.0537 343.075 22.1126 343.075 32.0537V155.417H0.000366211V32.0537Z" fill="white"/>
<mask id="mask0_40000018_8539" style="mask-type:alpha" maskUnits="userSpaceOnUse" x="0" y="14" width="344" height="142">
<path d="M0.000244141 32.0537C0.000244141 22.1126 8.05912 14.0537 18.0002 14.0537H325.075C335.016 14.0537 343.075 22.1126 343.075 32.0537V155.417H0.000244141V32.0537Z" fill="white"/>
</mask>
<g mask="url(#mask0_40000018_8539)">
</g>
<g opacity="0.06">
<path d="M351.431 1.57825H271.731C266.05 1.57825 261.473 6.15508 261.473 11.8367V93.1148C261.473 98.3229 265.734 102.584 270.942 102.584H352.536C357.744 102.584 362.005 98.3229 362.005 93.1148V11.9945C361.848 6.3129 357.271 1.57825 351.431 1.57825ZM303.454 7.41765H348.591C351.431 7.41765 353.641 9.62715 353.641 12.4679C353.641 15.3087 351.431 17.5182 348.591 17.5182H303.454C300.613 17.5182 298.403 15.3087 298.403 12.4679C298.403 9.78498 300.771 7.41765 303.454 7.41765ZM289.092 7.41765C291.933 7.41765 294.142 9.62715 294.142 12.4679C294.142 15.3087 291.933 17.5182 289.092 17.5182C286.251 17.5182 284.042 15.3087 284.042 12.4679C284.042 9.78498 286.251 7.41765 289.092 7.41765ZM274.572 7.41765C277.413 7.41765 279.623 9.62715 279.623 12.4679C279.623 15.3087 277.413 17.5182 274.572 17.5182C271.731 17.5182 269.522 15.3087 269.522 12.4679C269.522 9.78498 271.889 7.41765 274.572 7.41765ZM358.691 93.1148C358.691 96.5869 355.85 99.4277 352.378 99.4277H270.785C267.312 99.4277 264.472 96.5869 264.472 93.1148V23.5155H358.691V93.1148Z" fill="black"/>
<path d="M300.77 41.8228L287.039 29.0393C286.881 28.8814 286.724 28.8814 286.724 28.8814C286.724 28.8814 286.724 28.8814 286.566 28.8814C286.25 28.7236 285.777 28.7236 285.461 28.8814L285.303 29.0393C285.145 29.0393 284.988 29.1971 284.988 29.1971L271.257 41.9806C270.626 42.6119 270.626 43.5588 271.257 44.1901C271.573 44.5058 272.046 44.6636 272.362 44.6636C272.677 44.6636 273.151 44.5058 273.467 44.1901L273.782 43.7167V56.8159C273.782 57.7628 274.413 58.3941 275.36 58.3941H296.508C297.298 58.3941 298.087 57.7628 298.087 56.8159V43.7167L298.56 44.1901C299.191 44.8214 300.138 44.8214 300.77 44.1901C301.401 43.401 301.401 42.4541 300.77 41.8228ZM294.93 55.2376H291.3V46.8731C291.3 45.9262 290.669 45.2949 289.722 45.2949H281.989C281.2 45.2949 280.411 45.9262 280.411 46.8731V55.2376H276.939V41.0337L285.934 32.3535L294.93 41.0337V55.2376Z" fill="black"/>
<path d="M300.771 77.1748L287.041 64.3913C286.883 64.2335 286.725 64.2335 286.725 64.0756C286.725 64.0756 286.725 64.0756 286.567 64.0756C286.252 63.9178 285.778 63.9178 285.463 64.0756C285.463 64.0756 285.463 64.0756 285.305 64.0756C285.147 64.0756 284.989 64.2335 284.989 64.3913L271.101 77.3327C270.469 77.964 270.469 78.9109 271.101 79.5422C271.416 79.8578 271.89 80.0156 272.206 80.0156C272.521 80.0156 272.995 79.8578 273.31 79.5422L273.784 79.0687V92.1679C273.784 92.957 274.415 93.7461 275.362 93.7461H296.51C297.299 93.7461 298.088 92.957 298.088 92.1679V79.0687L298.562 79.5422C299.193 80.1735 300.14 80.1735 300.771 79.5422C301.403 78.7531 301.403 77.8061 300.771 77.1748ZM294.932 90.5897H291.302V82.2251C291.302 81.436 290.671 80.6469 289.724 80.6469H281.99C281.201 80.6469 280.412 81.436 280.412 82.2251V90.5897H276.94V76.3857L285.936 67.7055L294.932 76.3857V90.5897Z" fill="black"/>
<path d="M352.693 32.827V37.8773C352.693 40.2446 350.8 42.1385 348.432 42.1385H309.135C306.767 42.1385 304.873 40.2446 304.873 37.8773V32.827C304.873 30.4597 306.767 28.5658 309.135 28.5658H348.432C350.8 28.5658 352.693 30.4597 352.693 32.827Z" fill="black"/>
<path d="M306.61 50.0295H347.959C348.906 50.0295 349.538 49.3982 349.538 48.4513C349.538 47.5043 348.906 46.873 347.959 46.873H306.61C305.663 46.873 305.032 47.5043 305.032 48.4513C305.032 49.3982 305.663 50.0295 306.61 50.0295Z" fill="black"/>
<path d="M306.61 58.3941H347.959C348.906 58.3941 349.538 57.7628 349.538 56.8159C349.538 55.869 348.906 55.2377 347.959 55.2377H306.61C305.663 55.2377 305.032 55.869 305.032 56.8159C305.032 57.605 305.663 58.3941 306.61 58.3941Z" fill="black"/>
<path d="M326.968 68.8103V73.8605C326.968 76.2279 325.075 78.1217 322.707 78.1217H309.135C306.767 78.1217 304.873 76.2279 304.873 73.8605V68.8103C304.873 66.4429 306.767 64.5491 309.135 64.5491H322.707C325.075 64.5491 326.968 66.4429 326.968 68.8103Z" fill="black"/>
<path d="M306.61 86.0129H332.019C332.966 86.0129 333.598 85.3816 333.598 84.4347C333.598 83.4877 332.966 82.8564 332.019 82.8564H306.61C305.663 82.8564 305.032 83.4877 305.032 84.4347C305.032 85.2238 305.663 86.0129 306.61 86.0129Z" fill="black"/>
<path d="M306.61 94.2195H347.959C348.906 94.2195 349.538 93.5883 349.538 92.6413C349.538 91.6944 348.906 91.0631 347.959 91.0631H306.61C305.663 91.0631 305.032 91.6944 305.032 92.6413C305.032 93.5883 305.663 94.2195 306.61 94.2195Z" fill="black"/>
<path d="M352.378 75.7544C352.378 76.2279 352.221 76.5436 351.905 76.8592L347.17 81.5938C346.855 81.9095 346.539 82.0673 346.065 82.0673C345.592 82.0673 345.276 81.9095 344.961 81.5938L341.173 77.6483L338.174 80.6469C337.701 81.1204 337.07 81.2782 336.596 80.9626C335.965 80.8047 335.649 80.3313 335.491 79.7L332.966 64.2335C332.808 63.76 333.124 63.2865 333.44 62.8131C333.755 62.4974 334.229 62.3396 334.86 62.3396L350.169 64.8647C350.8 65.0226 351.274 65.3382 351.431 65.9695C351.589 66.443 351.431 67.2321 351.116 67.5477L347.959 70.862L351.905 74.8075C352.221 74.9653 352.378 75.4388 352.378 75.7544Z" fill="black"/>
</g>
<path d="M196.023 55.9395H148.583C145.202 55.9395 142.477 58.6637 142.477 62.0455V110.424C142.477 113.524 145.014 116.061 148.114 116.061H196.68C199.78 116.061 202.317 113.524 202.317 110.424V62.1395C202.223 58.7576 199.499 55.9395 196.023 55.9395ZM167.465 59.4152H194.332C196.023 59.4152 197.338 60.7304 197.338 62.4213C197.338 64.1122 196.023 65.4273 194.332 65.4273H167.465C165.774 65.4273 164.459 64.1122 164.459 62.4213C164.459 60.8243 165.868 59.4152 167.465 59.4152ZM158.917 59.4152C160.608 59.4152 161.923 60.7304 161.923 62.4213C161.923 64.1122 160.608 65.4273 158.917 65.4273C157.226 65.4273 155.911 64.1122 155.911 62.4213C155.911 60.8243 157.226 59.4152 158.917 59.4152ZM150.274 59.4152C151.965 59.4152 153.28 60.7304 153.28 62.4213C153.28 64.1122 151.965 65.4273 150.274 65.4273C148.583 65.4273 147.268 64.1122 147.268 62.4213C147.268 60.8243 148.677 59.4152 150.274 59.4152ZM200.344 110.424C200.344 112.491 198.653 114.182 196.587 114.182H148.02C145.953 114.182 144.262 112.491 144.262 110.424V68.997H200.344V110.424Z" fill="black"/>
<path d="M165.868 79.894L157.695 72.2849C157.601 72.1909 157.507 72.1909 157.507 72.1909C157.507 72.1909 157.507 72.1909 157.413 72.1909C157.225 72.097 156.944 72.097 156.756 72.1909L156.662 72.2849C156.568 72.2849 156.474 72.3788 156.474 72.3788L148.301 79.9879C147.925 80.3637 147.925 80.9273 148.301 81.3031C148.489 81.4909 148.771 81.5849 148.959 81.5849C149.147 81.5849 149.428 81.4909 149.616 81.3031L149.804 81.0212V88.8182C149.804 89.3818 150.18 89.7576 150.744 89.7576H163.331C163.801 89.7576 164.271 89.3818 164.271 88.8182V81.0212L164.553 81.3031C164.928 81.6788 165.492 81.6788 165.868 81.3031C166.244 80.8334 166.244 80.2697 165.868 79.894ZM162.392 87.8788H160.231V82.9C160.231 82.3364 159.856 81.9606 159.292 81.9606H154.689C154.219 81.9606 153.75 82.3364 153.75 82.9V87.8788H151.683V79.4243L157.037 74.2576L162.392 79.4243V87.8788Z" fill="black"/>
<path d="M165.868 100.936L157.696 93.3273C157.602 93.2334 157.508 93.2334 157.508 93.1394C157.508 93.1394 157.508 93.1394 157.414 93.1394C157.226 93.0455 156.944 93.0455 156.756 93.1394C156.756 93.1394 156.756 93.1394 156.662 93.1394C156.568 93.1394 156.474 93.2334 156.474 93.3273L148.208 101.03C147.832 101.406 147.832 101.97 148.208 102.345C148.396 102.533 148.677 102.627 148.865 102.627C149.053 102.627 149.335 102.533 149.523 102.345L149.805 102.064V109.861C149.805 110.33 150.18 110.8 150.744 110.8H163.332C163.802 110.8 164.271 110.33 164.271 109.861V102.064L164.553 102.345C164.929 102.721 165.493 102.721 165.868 102.345C166.244 101.876 166.244 101.312 165.868 100.936ZM162.393 108.921H160.232V103.942C160.232 103.473 159.856 103.003 159.293 103.003H154.69C154.22 103.003 153.75 103.473 153.75 103.942V108.921H151.683V100.467L157.038 95.3L162.393 100.467V108.921Z" fill="black"/>
<path d="M196.774 74.5394V77.5455C196.774 78.9546 195.647 80.0818 194.238 80.0818H170.847C169.438 80.0818 168.311 78.9546 168.311 77.5455V74.5394C168.311 73.1303 169.438 72.0031 170.847 72.0031H194.238C195.647 72.0031 196.774 73.1303 196.774 74.5394Z" fill="black"/>
<path d="M169.344 84.7788H193.956C194.52 84.7788 194.896 84.4031 194.896 83.8394C194.896 83.2758 194.52 82.9 193.956 82.9H169.344C168.78 82.9 168.405 83.2758 168.405 83.8394C168.405 84.4031 168.78 84.7788 169.344 84.7788Z" fill="black"/>
<path d="M169.344 89.7577H193.956C194.52 89.7577 194.896 89.3819 194.896 88.8183C194.896 88.2547 194.52 87.8789 193.956 87.8789H169.344C168.78 87.8789 168.405 88.2547 168.405 88.8183C168.405 89.288 168.78 89.7577 169.344 89.7577Z" fill="black"/>
<path d="M181.462 95.9576V98.9637C181.462 100.373 180.335 101.5 178.926 101.5H170.847C169.438 101.5 168.311 100.373 168.311 98.9637V95.9576C168.311 94.5485 169.438 93.4213 170.847 93.4213H178.926C180.335 93.4213 181.462 94.5485 181.462 95.9576Z" fill="black"/>
<path d="M169.344 106.197H184.468C185.032 106.197 185.408 105.821 185.408 105.258C185.408 104.694 185.032 104.318 184.468 104.318H169.344C168.78 104.318 168.405 104.694 168.405 105.258C168.405 105.727 168.78 106.197 169.344 106.197Z" fill="black"/>
<path d="M169.344 111.082H193.956C194.52 111.082 194.896 110.706 194.896 110.143C194.896 109.579 194.52 109.203 193.956 109.203H169.344C168.78 109.203 168.405 109.579 168.405 110.143C168.405 110.706 168.78 111.082 169.344 111.082Z" fill="black"/>
<path d="M196.587 100.091C196.587 100.373 196.493 100.561 196.306 100.749L193.487 103.567C193.299 103.755 193.112 103.849 192.83 103.849C192.548 103.849 192.36 103.755 192.172 103.567L189.918 101.218L188.133 103.003C187.851 103.285 187.475 103.379 187.193 103.191C186.818 103.097 186.63 102.815 186.536 102.44L185.033 93.2335C184.939 92.9517 185.127 92.6698 185.315 92.388C185.502 92.2001 185.784 92.1062 186.16 92.1062L195.272 93.6092C195.648 93.7032 195.93 93.891 196.024 94.2668C196.118 94.5486 196.024 95.0183 195.836 95.2062L193.957 97.1789L196.306 99.5274C196.493 99.6214 196.587 99.9032 196.587 100.091Z" fill="black"/>
</svg>
